<?xml version="1.0" encoding="utf-8"?>
<!-- Generator: Adobe Illustrator 24.1.1, SVG Export Plug-In . SVG Version: 6.00 Build 0)  -->
<svg width="200" height="51" version="1.1" id="Layer_1" xmlns="http://www.w3.org/2000/svg" xmlns:xlink="http://www.w3.org/1999/xlink" x="0px" y="0px"
	 viewBox="0 0 200 51" style="enable-background:new 0 0 200 51;" xml:space="preserve">
<style type="text/css">
	.st0{fill:#FFFFFF;}
</style>
<g>
	<path class="st0" d="M163.1,49.4c-4.9,0-11.4,0.7-19.7,0.7c-15.3-0.1-33.1,0.6-55.4,0.3c-21.8-0.3-16.5,0.3-32.3,0
		c-8.1-0.1-14.2,0.3-19.2,0.1c-4.4-0.1-7.2-0.2-8.3-0.3c-0.3,0-0.6,0-0.9,0c-2.1,0.1-3.1,0-4-0.3c-0.5-0.1-0.9-0.3-1.4-0.5l-0.2-0.1
		c-0.4-0.2-0.9-0.4-1.5-0.6c-0.4-0.2-0.9-0.3-1.4-0.3c-6.1-1-11.1-4.5-14.1-9.9l0,0c-2.3-1.8-3.4-4.6-3.1-7.8l0,0
		c-2.8-9.5,1.1-19.3,9.5-24.5l0,0L12,5.3c1.4-1.4,2.4-2.3,3.5-2.9c1.3-0.7,2.8-1,5.3-0.9c0.3,0,0.5,0,0.8,0c0.5,0,1.3-0.1,2.6-0.1
		c1.5,0,3.6-0.1,6.1-0.1c4.8,0,11.6,0,20.1,0.1c19.1,0.1,16.9-1.1,33.2-0.9c38.7,0.5,74.6-0.5,82.7-0.3c0.3,0,0.5,0,0.8,0.1l0.7,0.1
		c0.2,0,0.4,0,0.6,0l0.1,0l0.5,0c1.5-0.1,2,0,2.5,0.1l0.4,0.1c0.6,0.2,1.3,0.2,1.9,0.2c6.1,0.1,11.2,2.2,15,6.2
		c0.2,0.2,0.4,0.4,0.6,0.5c5.2,4.2,8.4,10.3,8.7,16.8c0.4,6.3-1.9,12.3-6.4,17c-0.2,0.2-0.4,0.5-0.6,0.7c-3.2,4.3-7.9,6.6-14.1,6.9
		c-0.4,0-0.8,0.1-1.2,0.1c-0.5,0.1-0.7,0.2-0.9,0.2l-0.2,0l-1.7,0.1l-0.1,0c-0.2,0-0.5-0.1-1-0.1c-0.3,0-1.3,0.1-2.8,0.1
		C167.7,49.4,165.6,49.4,163.1,49.4z M27.7,48.2l0.2,0c0.4,0,1.7,0.1,8.6,0.3c5,0.1,11.1-0.3,19.2-0.1c15.8,0.3,10.4-0.3,32.3,0
		c22.3,0.3,40.1-0.4,55.4-0.3c12.6,0.1,21.3-0.6,25.7-0.7c2.1,0,2.5-0.1,2.6-0.1l0.3,0c0.2,0,0.4,0,0.6,0c0.4,0,0.8,0,1.2,0l0.1,0
		c0.4,0,0.7-0.1,1.1-0.2c0.3-0.1,0.7-0.1,1.2-0.2l0.3,0c6.1-0.2,10.6-2.3,13.5-6.5l0.2-0.3c4.3-4.4,6.5-10,6.2-15.8
		c-0.4-6-3.4-11.7-8.3-15.6l-0.2-0.2c-3.8-4.1-8.6-6-14.9-5.9l-0.1,0l-0.9-0.2c-0.7-0.2-1.4-0.3-2.2-0.2c-0.1,0-0.3,0-0.5,0l-0.4,0
		l-0.2,0c-0.2,0-0.4,0-0.7,0.1l-0.1,0l-0.8-0.1c-0.3,0-0.6-0.1-0.9-0.1c-8.2-0.3-44,0.8-82.5,0.3c-16.3-0.2-14.1,1-33.2,0.9
		c-8.5-0.1-15.3-0.1-20.1-0.1c-2.5,0-4.6,0-6.1,0.1c-2.1,0-2.5,0.1-2.6,0.1l-0.3,0c-2.9-0.1-4,0.2-4.9,0.7c-0.9,0.5-1.7,1.3-3.1,2.6
		l-0.8,0.7c-0.3,0.3-0.6,0.5-1,0.7C4.3,13,1,21.8,3.5,30.2l0.1,0.4l0,0.4c-0.2,2.5,0.6,4.7,2.3,6l0.3,0.2l0.2,0.3
		c2.9,5.1,7.5,8.2,13.3,9l0.3,0.1c1.1,0.3,1.8,0.6,2.5,0.9l0.2,0.1c0.5,0.2,0.9,0.4,1.2,0.5C24.6,48.3,25.5,48.4,27.7,48.2
		L27.7,48.2z"/>
</g>
<path class="st0" d="M119.9,16.3c0,0.4,0.1,0.7,0.1,1c0,2.1,0,4.2-0.1,6.3c0,2,0,4-0.1,5.9c0,0.5,0.1,0.9,0.6,1.1
	c0.4,0.2,0.8,0.5,1.2,0.7c0.4,0.2,0.6,0.5,0.6,1c-0.1,1.4-0.1,2.8-0.1,4.2c0,0.4,0,0.7,0,1.2c-1.4-0.6-2.5-1.5-3.8-2.2
	c-0.2,0.2-0.3,0.3-0.4,0.4c-1.8,1.5-3.8,2.1-6.1,1.3c-2.7-0.9-4.5-3.6-4.4-6.4c0.1-3.6,0.1-7.2,0.2-10.8c0-1.1,0-2.3,0-3.4
	c0-0.5,0.1-0.6,0.5-0.5c0.9,0,1.7,0.1,2.6,0.1c0.7,0,1.4,0,2.1,0c1.9,0,3.8,0,5.8,0.1C119,16.2,119.4,16.3,119.9,16.3z"/>
<path class="st0" d="M33,15.6c0.7,0,1.4-0.1,2-0.1c2.5,0,5.1,0,7.6,0c1.9,0,3.9-0.1,5.9-0.2c0.2,1.6,0.1,3.3,0.2,4.9
	c-1.1,0-2.2,0.1-3.3,0.1c0,0.3-0.1,0.6-0.1,0.8c0,1.3,0.1,2.5,0.1,3.8c0,2.1,0.2,4.3,0,6.4c-0.3,2.5-2.2,4.6-4.8,5.1
	c-1.6,0.3-3.2,0-4.6-0.9c-1.3-0.8-2.2-2-2.6-3.6c-0.3-1.1-0.3-2.2-0.3-3.4c-0.1-2.3-0.1-4.7-0.2-7C33,19.6,33,17.7,33,15.6z"/>
<path class="st0" d="M89.3,16c0.7-0.1,1.4-0.2,2-0.2c2.5-0.1,5.1-0.2,7.6-0.4c1.9-0.1,3.9-0.3,5.9-0.4c0.3,1.6,0.3,3.3,0.4,4.9
	c-1.1,0.1-2.2,0.2-3.3,0.2c0,0.3,0,0.6,0,0.8c0.1,1.3,0.2,2.5,0.3,3.8c0.1,2.1,0.4,4.3,0.3,6.4c-0.2,2.5-2,4.7-4.6,5.3
	c-1.6,0.4-3.2,0.2-4.6-0.7c-1.4-0.8-2.3-2-2.7-3.4c-0.4-1.1-0.4-2.2-0.5-3.3c-0.1-2.4-0.3-4.7-0.4-7C89.5,20,89.4,18,89.3,16z"/>
<path class="st0" d="M124.7,15.4c4.2-0.1,8.4-0.2,12.5-0.3c0,0.2,0,0.5,0,0.7c0,2.3,0.1,4.5,0.1,6.8c0,2.5,0,5.1,0,7.6
	c0,0.9-0.1,1.8-0.5,2.7c-0.7,1.5-1.8,2.6-3.3,3.2c-2.7,1.1-5.1,0.6-7.1-1.5c-0.8-0.8-1.3-1.9-1.5-3c-0.4-1.9-0.2-3.8-0.2-5.8
	c-0.1-3-0.1-6-0.1-9C124.6,16.3,124.7,15.9,124.7,15.4z"/>
<path class="st0" d="M57.9,19.6c1.1,0.1,2.2,0.2,3.3,0.2c1.1,0.1,2.2,0.2,3.3,0.2c0,1.7-0.2,3.4-0.3,5.2c-1.2,0-2.3-0.1-3.4-0.1
	c-1.1-0.1-2.2-0.1-3.3-0.2c-0.2,1.3-0.3,2.6-0.3,3.9c2.1,0.2,4.1,0.3,6.2,0.5c0.2,2.9-0.7,5.1-3.2,6.4c-3.7,1.9-8.1-0.1-9.1-4.1
	C51,31.1,51,30.5,51,29.9c0.1-1.8,0.2-3.6,0.3-5.3c0.2-2.9,0.3-5.8,0.5-8.7c0-0.2,0-0.5,0.1-0.8c0.7,0,1.4,0,2.1,0
	c0.8,0,1.6,0.1,2.3,0.2c0.4,0,0.8,0,1.3,0c0.6,0,0.6,0.1,0.6,0.7c-0.1,1-0.1,2-0.2,3C57.9,19.1,57.9,19.3,57.9,19.6z"/>
<path class="st0" d="M151.6,20.7c-0.2-1.7-0.3-3.3-0.5-5c3.2-0.5,6.4-0.6,9.7-1c0.1,0.3,0.2,0.6,0.2,0.9c0.1,1.4,0.2,2.9,0.4,4.3
	c0.2,1.7,0.3,3.5,0.5,5.2c0.1,0.6,0.1,0.5,0.7,0.5c1.8-0.2,3.6-0.3,5.4-0.4c0.1,0.6,0.2,1.2,0.2,1.9c0.1,1.2,0.1,2.4,0.1,3.6
	c0,1.2-0.6,2.3-1.4,3.1c-2.4,2.7-6,2.7-8.5,0.8c-1.4-1.1-2.3-2.6-2.4-4.4c-0.3-3-0.5-6.1-0.8-9.1c-0.1-0.7-0.1-0.7-0.7-0.6
	C153.5,20.5,152.7,20.6,151.6,20.7z"/>
<path class="st0" d="M145.7,30.4c-0.1,2.3-0.1,4.6-0.2,6.9c-0.4,0-0.9,0.1-1.3,0c-1.3,0-2.6-0.1-3.9-0.1c-0.3,0-0.7,0.1-0.8,0
	c-0.2-0.3-0.1-0.7-0.1-1c0.1-3.2,0.1-6.4,0.2-9.6c0-3,0-6.1,0.1-9.1c0-0.3-0.2-0.7,0.2-1.1c1.9,0,3.9,0,5.9,0c0,1.6-0.1,3.1-0.1,4.7
	c0.6,0.3,1.1,0.2,1.7,0.2c1.2,0.1,2.3,0.5,3.1,1.4c0.6,0.7,1,1.5,1.2,2.4c0.1,0.7,0.2,1.5,0.2,2.2c0,1,0,2.1-0.1,3.2
	C149.7,30.5,147.7,30.4,145.7,30.4z"/>
<path class="st0" d="M78.6,23.7c-2,0.2-3.9,0.3-5.9,0.5c0.3,4,0.6,8,1,11.9c-0.6,0.2-5.4,0.7-6.3,0.6c-0.1-0.7-0.2-1.5-0.2-2.3
	c-0.1-1.8-0.2-3.7-0.4-5.5c-0.2-2.3-0.4-4.6-0.6-6.9c-0.1-1.1-0.1-2.1,0.3-3.2c0.8-2.2,2.7-3.8,5.1-4c1.8-0.2,3.4,0.2,4.8,1.4
	c1.2,1,1.8,2.2,2,3.8c0.1,1,0.2,2.1,0.3,3.1C78.7,23.3,78.7,23.4,78.6,23.7z"/>
</svg>
