<svg width="219" height="64" viewBox="0 0 219 64" fill="none" xmlns="http://www.w3.org/2000/svg">
<path d="M17.4007 30.365H16.4343L16.4013 31.3308C16.2397 36.0483 16.0987 40.7154 15.9583 45.3609C15.8179 50.0092 15.6781 54.6359 15.5191 59.2694C14.9247 59.3234 14.1133 59.3641 13.1428 59.3876C11.668 59.4233 9.90277 59.4183 8.14366 59.3772C6.38418 59.3361 4.64122 59.2592 3.21027 59.1522C2.29582 59.0839 1.55293 59.0059 1.02203 58.9264C1.50051 41.0051 1.90265 23.0809 2.30335 4.93083C3.84197 4.96901 5.34851 4.99174 6.83695 5.01419C10.1968 5.06488 13.4645 5.11418 16.801 5.33665C16.909 7.15847 16.8209 8.97138 16.7131 10.8463C16.7044 10.9975 16.6955 11.1491 16.6867 11.3012C16.57 13.305 16.4489 15.3854 16.5679 17.5247L16.6169 18.404L17.4953 18.4666C22.7463 18.841 27.9917 18.9446 33.2216 19.0273C33.6605 19.0343 34.0994 19.0411 34.5381 19.0478C39.0105 19.1171 43.4711 19.1862 47.944 19.4092C47.9291 20.1935 47.9291 20.9546 47.9291 21.69V21.6979C47.9291 22.7461 47.9289 23.7381 47.8885 24.7062L47.6399 30.6616L47.3913 36.617L47.3911 36.6238C47.1621 43.177 41.5649 48.3434 35.3223 48.7293C29.8902 49.0385 25.8178 46.9019 22.6884 42.5285C21.2097 40.462 20.8837 38.0708 20.7189 35.3574L20.7188 35.3555C20.6785 34.7114 20.6582 34.0852 20.6374 33.4321L20.6362 33.3946C20.6159 32.7568 20.5949 32.0938 20.5533 31.3889L20.4979 30.4478H19.5551C19.216 30.4478 18.8923 30.429 18.5365 30.4081L18.5252 30.4075C18.1798 30.3872 17.803 30.365 17.4007 30.365Z" fill="white" stroke="white" stroke-width="2"/>
<path d="M178.808 49.7722L178.808 49.7722L178.809 49.783C178.885 51.1559 179.03 52.5276 179.179 53.9309C179.193 54.0627 179.207 54.1948 179.221 54.3272C179.219 54.5959 179.196 54.838 179.162 55.1351C173.856 55.3707 168.585 55.6063 163.315 55.8419L163.307 55.8422C158.073 56.0762 152.839 56.3101 147.571 56.544C147.471 55.3782 147.407 54.2906 147.345 53.2378C147.34 53.1535 147.335 53.0694 147.33 52.9856C146.999 45.1334 146.668 37.275 146.253 29.4158C146.186 27.7697 146.093 26.1351 146.001 24.507C145.862 22.0658 145.724 19.6394 145.674 17.2108C145.675 15.7141 145.833 14.2037 146.075 12.6706C147.227 6.10341 153.405 1.95319 158.579 1.17068L158.579 1.1707L158.585 1.16973C165.967 0.00617474 174.258 4.92104 176.44 12.8541L176.44 12.8542L176.444 12.8675C177.238 15.6069 177.377 18.3483 177.522 21.2235C177.536 21.5034 177.55 21.7844 177.565 22.0669C177.772 26.6977 177.979 31.3078 178.187 35.9178C178.394 40.5291 178.601 45.1403 178.808 49.7722Z" fill="white" stroke="white" stroke-width="2"/>
<path d="M126.146 46.4746L125.915 47.2823L126.671 47.6493C129.598 49.0707 132.448 49.7657 135.521 50.0698C135.554 50.8665 135.554 51.6261 135.554 52.3608C135.513 53.8931 135.492 55.4038 135.471 56.9069L135.471 56.9099C135.45 58.4205 135.43 59.9234 135.389 61.4458L135.388 61.4593V61.4729C135.388 61.7287 135.356 62.0215 135.305 62.3755C135.293 62.4593 135.28 62.5485 135.266 62.6414C129.465 62.7268 124.31 62.0329 119.674 58.5249L119.148 58.1269L118.575 58.4537C118.231 58.6496 117.9 58.8874 117.604 59.1012C117.584 59.1161 117.563 59.1309 117.543 59.1456C117.257 59.3521 116.995 59.542 116.718 59.7146L116.712 59.7184L116.706 59.7223C111.898 62.8186 107.06 62.836 101.958 60.2511C96.5007 57.4517 95.7543 49.3329 101.527 45.7017C104.987 43.6639 108.507 42.9263 112.32 44.0684L112.343 44.075L112.365 44.0806L112.862 44.2047L113.36 44.3288L113.908 44.4657L114.308 44.0663C114.354 44.0208 114.406 43.9725 114.476 43.9078L114.482 43.9025C114.545 43.844 114.625 43.7704 114.702 43.694C114.826 43.57 115.067 43.3218 115.195 42.982C115.409 42.4828 115.632 41.979 115.858 41.4699C117.154 38.5408 118.527 35.4379 118.824 32.0308L118.825 32.0187L118.826 32.0065L118.827 31.9835C118.846 31.6804 118.866 31.3663 118.852 31.1018C118.838 30.8368 118.787 30.4309 118.504 30.0779C118.205 29.705 117.799 29.574 117.496 29.5182C117.199 29.4637 116.853 29.4552 116.502 29.4552C112.287 29.4552 108.071 29.3727 103.844 29.2899L103.834 29.2897H103.824C103.139 29.2897 102.4 29.2403 101.578 29.178C101.576 29.1701 101.573 29.1621 101.571 29.1541C101.545 29.0693 101.529 29.0054 101.52 28.9561C101.515 28.9322 101.512 28.9143 101.511 28.9017C101.511 28.8988 101.511 28.8962 101.51 28.8939C101.557 27.8875 101.557 26.8299 101.556 25.8077C101.556 25.0944 101.556 24.3982 101.572 23.7486C101.612 22.0803 101.753 20.4851 102.214 18.9116C103.165 15.7481 104.674 13.2476 106.715 11.3835C108.756 9.51959 111.376 8.2473 114.621 7.61527C120.245 6.52367 125.207 8.14376 129.203 12.2881C132.084 15.3204 133.578 19.138 133.815 23.4791L133.816 23.4842C134.133 28.7897 132.63 33.7345 130.117 38.5089L130.113 38.5178L130.108 38.5269C129.042 40.6552 127.893 42.786 126.735 44.9325C126.444 45.4231 126.323 45.852 126.188 46.3283C126.174 46.3766 126.161 46.4253 126.146 46.4746Z" fill="white" stroke="white" stroke-width="2"/>
<path d="M77.773 30.7921L77.7824 30.7917L77.7918 30.791C81.134 30.5609 84.4693 30.4114 87.9027 30.2576C89.0883 30.2044 90.2856 30.1508 91.4989 30.0931C91.5033 30.1318 91.5077 30.1704 91.5121 30.2091C91.6577 31.4877 91.8037 32.7694 91.8037 34.0118V34.0246L91.804 34.0374L91.8068 34.1476C91.8889 37.3394 91.968 40.4204 91.8869 43.4975L91.8866 43.5107V43.5238C91.8866 46.4716 90.4157 48.9644 88.3574 51.0987C81.9474 57.651 72.9159 57.5002 66.6578 52.5806L66.6554 52.5788C63.0686 49.7767 61.0524 45.986 60.7401 41.3882L60.7398 41.3846C60.3536 35.9872 60.0413 30.5953 59.7285 25.1956C59.5721 22.4942 59.4155 19.7908 59.2494 17.0837C59.229 16.6565 59.201 16.2507 59.1272 15.9104C59.0511 15.5597 58.8988 15.1405 58.5233 14.8233C58.1569 14.5139 57.7254 14.4277 57.384 14.3974C57.0452 14.3672 56.643 14.382 56.2213 14.402C54.1039 14.4749 52.0428 14.5481 49.6464 14.6782C49.363 10.8691 49.0796 7.11611 48.7963 3.36803C52.7518 2.87677 56.7171 2.63109 60.7294 2.4107C61.2289 2.38327 61.7292 2.35622 62.2303 2.32913C65.7641 2.1381 69.3374 1.94493 72.9395 1.5982C73.0339 2.10273 73.1141 2.59162 73.1634 3.07689C73.2867 4.96691 73.3897 6.87836 73.493 8.7965L73.4932 8.79957C73.5966 10.7206 73.7005 12.6484 73.8251 14.5565L73.8255 14.5627C73.9915 16.8825 74.1782 19.2224 74.3645 21.5574L74.3647 21.5602C74.551 23.8949 74.7369 26.2248 74.9022 28.5335C74.9218 28.8856 74.945 29.2428 75.0116 29.5371C75.0834 29.8547 75.244 30.278 75.6757 30.559C76.0492 30.8022 76.4687 30.8265 76.7348 30.8307C76.9664 30.8344 77.2535 30.8193 77.5578 30.8033C77.6288 30.7995 77.7006 30.7957 77.773 30.7921Z" fill="white" stroke="white" stroke-width="2"/>
<path d="M217.752 21.5426L217.752 21.5426L217.752 21.5525C217.793 22.9094 217.834 24.2869 217.875 25.6647L217.876 25.6877C217.917 27.0676 217.959 28.4477 218 29.8074C217.999 29.9685 217.981 30.1114 217.898 30.4484C213.086 30.4555 208.395 30.5277 203.522 30.6027C203.291 30.6062 203.059 30.6098 202.827 30.6134L201.835 30.6286L201.842 31.6209C201.883 36.9639 201.904 42.2663 201.925 47.5401L201.925 47.6326C201.945 52.6562 201.964 57.6539 202.002 62.6331C201.929 62.6425 201.85 62.652 201.765 62.6616C201.266 62.7179 200.631 62.7686 199.897 62.8127C198.429 62.9007 196.599 62.9597 194.739 62.9855C192.88 63.0112 191.002 63.0034 189.438 62.9586C188.394 62.9287 187.525 62.883 186.903 62.8255C186.833 61.1214 186.773 59.4239 186.773 57.6681C186.773 55.233 186.794 52.7972 186.814 50.3564L186.814 50.3543C186.835 47.9179 186.856 45.4765 186.856 43.0344C186.897 39.9249 186.877 36.817 186.856 33.7207L186.856 33.7158C186.835 30.6123 186.815 27.5206 186.856 24.4305L186.856 24.4305V24.4171C186.856 21.5427 187.027 18.9238 188.168 16.4916C190.762 11.0795 195.666 7.46267 201.778 7.38545L201.782 7.38537C206.357 7.30663 210.231 8.63459 213.496 11.8164L213.498 11.8181C216.212 14.4497 217.674 17.757 217.752 21.5426Z" fill="white" stroke="white" stroke-width="2"/>
</svg>
