<svg width="86" height="91" viewBox="0 0 86 91" fill="none" xmlns="http://www.w3.org/2000/svg">
<path d="M67.0944 15.9948C54.2762 7.18301 44.5798 8.2216 44.167 8.26645L43.7848 8.32033L43.6025 8.59976C41.9492 11.0443 37.3991 17.6656 36.0245 18.8263C34.8755 19.7868 34.1728 21.3789 33.4521 23.0322C32.9373 24.2131 32.4135 25.4247 31.6898 26.4108C30.9299 27.5195 29.5986 28.7595 28.2004 30.113C26.5768 31.6667 24.9134 33.2419 23.8864 34.8049C23.5976 35.2195 23.3304 35.6738 23.0236 36.1497C21.3557 38.7565 19.2745 41.9745 17.8693 43.1261C17.5157 43.4216 9.27196 50.4863 5.91856 57.2274C1.14937 66.8496 1.71123 69.3477 2.74119 70.4844C3.66669 71.5237 8.46756 74.4391 15.2682 76.4448C20.7516 78.062 27.5477 79.0669 34.6433 77.9276C42.8241 76.6086 51.4067 73.4756 58.8152 69.1299C61.4302 67.6021 63.7876 65.9317 65.8908 64.2197C65.9792 64.1458 66.0676 64.0719 66.156 63.998C70.2525 60.6081 73.3075 56.911 75.0286 53.2204C80.5949 41.2344 80.2962 25.0863 67.0944 15.9948ZM32.9849 27.3259C33.7845 26.1956 34.3264 24.9227 34.8899 23.6895C35.1626 23.1035 35.4047 22.5085 35.6899 21.9929C38.3334 24.7717 42.8539 30.6697 40.8305 33.8047C38.9712 36.7216 35.8997 38.7812 33.5746 38.7618C32.6139 38.745 31.8626 38.3568 31.382 37.6154C30.8367 36.7548 30.4445 35.9394 30.0739 35.1637C30.4952 35.6545 30.9834 36.0317 31.5599 36.335C31.7869 36.4686 32.0319 36.5409 32.277 36.6132C33.1041 36.8571 33.9116 36.8287 34.6689 36.519C35.8843 36.0111 36.7777 34.6753 36.8476 33.1965C36.9446 31.6258 36.1672 30.197 34.7566 29.4477C33.2721 28.6101 32.9231 27.8741 32.8513 27.553C32.9091 27.4701 32.9668 27.3872 32.9849 27.3259ZM31.7254 28.8869C32.1105 29.5003 32.8111 30.1734 33.9857 30.8197C35.2125 31.5147 35.2818 32.6347 35.2471 33.091C35.1868 33.9728 34.7192 34.7679 34.0719 35.0434C33.3939 35.3099 32.72 35.1112 32.2786 34.9143C31.466 34.5081 30.8016 33.7124 30.6023 32.9206C30.2162 31.4073 30.9926 29.9036 31.7254 28.8869ZM28.92 31.6247C28.8673 32.1423 28.9154 32.6563 29.0339 33.1577C28.809 32.7915 28.5353 32.4775 28.2651 32.2646C28.46 32.0555 28.6945 31.8248 28.92 31.6247ZM34.3762 76.3494C18.2562 78.9587 4.83032 70.4009 3.92641 69.4012C3.49604 68.9411 2.94823 66.847 7.36887 57.955C10.0217 52.5733 16.2365 46.7428 18.2444 44.9027C18.0086 50.3309 18.2999 64.8108 28.0091 69.3737C29.4162 70.0219 30.8811 70.5872 32.3822 71.0299C37.0385 72.4032 42.1337 72.7398 47.3435 72.0106C48.49 71.849 49.624 71.617 50.7579 71.385C45.3231 73.7804 39.6131 75.5283 34.3762 76.3494ZM73.5602 52.5541C71.821 56.306 68.759 59.8011 64.9061 62.9297C54.5254 71.0301 39.6604 73.1099 28.6665 67.9349C18.5771 63.1933 19.7524 45.5474 19.9564 43.2751C21.3566 41.6889 22.918 39.2173 24.3674 37.0126C24.6743 36.5366 24.9721 36.0914 25.2302 35.6677C25.7013 34.9737 26.313 34.2544 26.995 33.5226C27.3556 33.4291 27.6293 33.743 28.491 35.5632C28.8832 36.3786 29.3743 37.423 30.0276 38.482C30.5423 39.3335 31.3312 39.9327 32.2809 40.2128C32.6791 40.3303 33.0954 40.3864 33.5605 40.3903C36.4516 40.41 40.0082 38.0604 42.1653 34.6982C45.1274 30.0741 38.4706 22.6131 36.5312 20.6083C36.6864 20.4209 36.8415 20.2334 37.0183 20.0856C38.7067 18.6511 43.515 11.606 44.7063 9.82493C46.5323 9.7304 55.2363 9.79854 66.2009 17.3306C78.6354 25.8626 78.8448 41.1847 73.5602 52.5541Z" fill="white"/>
<path d="M50.7876 71.394C45.3527 73.7894 39.6121 75.5282 34.3752 76.3493C18.2552 78.9586 4.82934 70.4008 3.92543 69.4012C3.49506 68.941 2.94725 66.8469 7.36789 57.955C10.0207 52.5732 16.2356 46.7427 18.2434 44.9026C18.0077 50.3308 18.2989 64.8107 28.0081 69.3736C29.4153 70.0218 30.8801 70.5872 32.3812 71.0299C37.0375 72.4032 42.1327 72.7397 47.3425 72.0105C48.5197 71.8579 49.6446 71.6566 50.7876 71.394Z" fill="#56BB7F"/>
<path d="M29.0338 33.1574C28.8088 32.7912 28.5351 32.4772 28.2649 32.2643C28.4995 32.0336 28.725 31.8335 28.9595 31.6028C28.8671 32.142 28.9153 32.656 29.0338 33.1574Z" fill="#56BB7F"/>
<path d="M34.0716 35.0432C33.3936 35.3097 32.7197 35.1109 32.2782 34.9141C31.4657 34.5079 30.8013 33.7122 30.602 32.9204C30.2159 31.4071 30.9833 29.9341 31.725 28.8867C32.1102 29.5001 32.8107 30.1732 33.9854 30.8195C35.2122 31.5145 35.2814 32.6345 35.2468 33.0908C35.2171 33.9816 34.7099 34.7983 34.0716 35.0432Z" fill="#56BB7F"/>
<path d="M40.8301 33.8046C38.9709 36.7215 35.8994 38.781 33.5743 38.7617C32.6136 38.7449 31.8623 38.3567 31.3817 37.6152C30.8364 36.7547 30.4442 35.9393 30.0736 35.1636C30.4949 35.6544 30.983 36.0316 31.5595 36.3349C31.7865 36.4685 32.0316 36.5407 32.2767 36.613C33.1038 36.857 33.9113 36.8286 34.6686 36.5188C35.8839 36.011 36.7774 34.6751 36.8473 33.1964C36.9442 31.6256 36.1669 30.1969 34.7563 29.4476C33.2718 28.61 32.9228 27.874 32.851 27.5529C32.9088 27.47 32.9575 27.4177 33.0152 27.3348C33.8148 26.2045 34.3567 24.9316 34.9202 23.6984C35.1929 23.1124 35.435 22.5174 35.7203 22.0018C38.3331 24.7716 42.8536 30.6696 40.8301 33.8046Z" fill="white"/>
<path d="M73.5603 52.5538C71.821 56.3057 68.759 59.8008 64.9061 62.9294C54.5254 71.0298 39.6604 73.1096 28.6666 67.9346C18.5772 63.193 19.7525 45.5471 19.9564 43.2749C21.3566 41.6887 22.918 39.217 24.3675 37.0123C24.6743 36.5364 24.9721 36.0911 25.2303 35.6674C25.7014 34.9734 26.3131 34.2542 26.9951 33.5224C27.3556 33.4288 27.6293 33.7427 28.491 35.5629C28.8832 36.3783 29.3743 37.4228 30.0276 38.4817C30.5423 39.3333 31.3313 39.9325 32.2809 40.2125C32.6791 40.33 33.0955 40.3861 33.5605 40.39C36.4516 40.4097 40.0082 38.0601 42.1653 34.6979C45.1274 30.0738 38.4706 22.6128 36.5312 20.6081C36.6864 20.4206 36.8416 20.2331 37.0184 20.0853C38.7068 18.6508 43.515 11.6057 44.7063 9.82464C46.5323 9.73012 55.2363 9.79826 66.2009 17.3303C78.6355 25.8623 78.8448 41.1844 73.5603 52.5538Z" fill="#56BB7F"/>
</svg>
