<svg width="86" height="91" viewBox="0 0 86 91" fill="none" xmlns="http://www.w3.org/2000/svg">
<path d="M66.5411 15.9225C53.723 7.11075 44.0266 8.14934 43.6138 8.19419L43.2316 8.24807L43.0493 8.52749C41.396 10.972 36.8458 17.5934 35.4713 18.754C34.3222 19.7146 33.6196 21.3066 32.8989 22.9599C32.3841 24.1409 31.8603 25.3525 31.1366 26.3385C30.3767 27.4472 29.0454 28.6872 27.6472 30.0408C26.0235 31.5944 24.3602 33.1696 23.3332 34.7326C23.0444 35.1472 22.7772 35.6016 22.4704 36.0775C20.8025 38.6843 18.7213 41.9022 17.3161 43.0538C16.9625 43.3494 8.71874 50.4141 5.36534 57.1552C0.596146 66.7773 1.15801 69.2754 2.18796 70.4122C3.11347 71.4515 7.91433 74.3668 14.715 76.3725C20.1984 77.9898 26.9945 78.9946 34.0901 77.8553C42.2708 76.5363 50.8535 73.4033 58.262 69.0577C60.877 67.5299 63.2343 65.8595 65.3376 64.1474C65.426 64.0735 65.5144 63.9996 65.6028 63.9257C69.6993 60.5358 72.7543 56.8388 74.4754 53.1481C80.0417 41.1621 79.743 25.014 66.5411 15.9225ZM32.4317 27.2536C33.2312 26.1233 33.7732 24.8504 34.3367 23.6172C34.6094 23.0312 34.8515 22.4362 35.1367 21.9206C37.7802 24.6994 42.3007 30.5975 40.2772 33.7325C38.418 36.6494 35.3465 38.7089 33.0214 38.6895C32.0607 38.6727 31.3094 38.2846 30.8288 37.5431C30.2835 36.6825 29.8913 35.8672 29.5207 35.0915C29.942 35.5822 30.4301 35.9594 31.0066 36.2628C31.2336 36.3963 31.4787 36.4686 31.7238 36.5409C32.5509 36.7848 33.3584 36.7564 34.1157 36.4467C35.331 35.9388 36.2245 34.603 36.2944 33.1242C36.3913 31.5535 35.614 30.1247 34.2034 29.3755C32.7189 28.5378 32.3699 27.8018 32.2981 27.4808C32.3559 27.3979 32.4136 27.3149 32.4317 27.2536ZM31.1721 28.8147C31.5573 29.4281 32.2578 30.1011 33.4324 30.7474C34.6593 31.4425 34.7285 32.5625 34.6939 33.0187C34.6336 33.9005 34.166 34.6956 33.5187 34.9711C32.8407 35.2377 32.1668 35.0389 31.7253 34.8421C30.9128 34.4358 30.2484 33.6401 30.0491 32.8483C29.663 31.335 30.4394 29.8314 31.1721 28.8147ZM28.3668 31.5525C28.314 32.07 28.3622 32.584 28.4807 33.0854C28.2558 32.7192 27.9821 32.4053 27.7119 32.1923C27.9068 31.9832 28.1413 31.7525 28.3668 31.5525ZM33.823 76.2771C17.7029 78.8864 4.2771 70.3286 3.37318 69.329C2.94282 68.8688 2.39501 66.7748 6.81565 57.8828C9.46844 52.5011 15.6833 46.6705 17.6911 44.8304C17.4554 50.2586 17.7466 64.7385 27.4559 69.3014C28.863 69.9496 30.3279 70.515 31.8289 70.9577C36.4852 72.331 41.5805 72.6675 46.7903 71.9384C47.9368 71.7767 49.0707 71.5447 50.2047 71.3127C44.7699 73.7082 39.0599 75.456 33.823 76.2771ZM73.007 52.4818C71.2678 56.2338 68.2058 59.7289 64.3528 62.8574C53.9722 70.9578 39.1072 73.0376 28.1133 67.8626C18.0239 63.121 19.1992 45.4751 19.4032 43.2029C20.8034 41.6167 22.3648 39.1451 23.8142 36.9403C24.1211 36.4644 24.4189 36.0191 24.677 35.5954C25.1481 34.9014 25.7598 34.1822 26.4418 33.4504C26.8024 33.3568 27.0761 33.6708 27.9378 35.4909C28.3299 36.3063 28.8211 37.3508 29.4744 38.4098C29.9891 39.2613 30.778 39.8605 31.7276 40.1405C32.1259 40.258 32.5422 40.3141 33.0072 40.318C35.8984 40.3377 39.455 37.9881 41.612 34.6259C44.5741 30.0019 37.9173 22.5408 35.9779 20.5361C36.1331 20.3486 36.2883 20.1611 36.4651 20.0134C38.1535 18.5788 42.9618 11.5338 44.1531 9.75266C45.979 9.65813 54.6831 9.72628 65.6477 17.2583C78.0822 25.7903 78.2915 41.1124 73.007 52.4818Z" fill="white"/>
<path d="M50.2348 71.3217C44.8 73.7171 39.0594 75.4559 33.8225 76.2771C17.7024 78.8864 4.2766 70.3285 3.37269 69.3289C2.94233 68.8688 2.39451 66.7747 6.81516 57.8827C9.46795 52.501 15.6828 46.6705 17.6907 44.8303C17.4549 50.2585 17.7462 64.7384 27.4554 69.3013C28.8625 69.9496 30.3274 70.5149 31.8284 70.9576C36.4847 72.3309 41.58 72.6675 46.7898 71.9383C47.9669 71.7857 49.0918 71.5843 50.2348 71.3217Z" fill="#F29768"/>
<path d="M28.4805 33.0851C28.2556 32.7189 27.9819 32.405 27.7117 32.192C27.9463 31.9613 28.1717 31.7612 28.4063 31.5305C28.3139 32.0697 28.362 32.5837 28.4805 33.0851Z" fill="#F29768"/>
<path d="M33.5188 34.9709C32.8409 35.2374 32.1669 35.0387 31.7255 34.8419C30.913 34.4356 30.2486 33.6399 30.0493 32.8481C29.6631 31.3348 30.4305 29.8618 31.1723 28.8145C31.5575 29.4278 32.258 30.1009 33.4326 30.7472C34.6595 31.4423 34.7287 32.5622 34.694 33.0185C34.6644 33.9094 34.1571 34.726 33.5188 34.9709Z" fill="#F29768"/>
<path d="M40.2774 33.7323C38.4182 36.6492 35.3467 38.7088 33.0215 38.6894C32.0608 38.6726 31.3096 38.2844 30.829 37.543C30.2836 36.6824 29.8915 35.867 29.5209 35.0913C29.9422 35.5821 30.4303 35.9593 31.0068 36.2626C31.2338 36.3962 31.4789 36.4685 31.7239 36.5408C32.551 36.7847 33.3586 36.7563 34.1159 36.4466C35.3312 35.9387 36.2247 34.6029 36.2945 33.1241C36.3915 31.5534 35.6142 30.1246 34.2035 29.3753C32.7191 28.5377 32.3701 27.8017 32.2983 27.4806C32.356 27.3977 32.4047 27.3454 32.4625 27.2625C33.262 26.1322 33.804 24.8593 34.3675 23.6261C34.6402 23.0401 34.8823 22.4451 35.1675 21.9295C37.7803 24.6993 42.3009 30.5973 40.2774 33.7323Z" fill="white"/>
<path d="M73.0071 52.4815C71.2678 56.2335 68.2058 59.7286 64.3529 62.8571C53.9722 70.9575 39.1072 73.0373 28.1134 67.8624C18.024 63.1207 19.1992 45.4748 19.4032 43.2026C20.8034 41.6164 22.3648 39.1448 23.8142 36.94C24.1211 36.4641 24.4189 36.0188 24.677 35.5952C25.1481 34.9011 25.7598 34.1819 26.4418 33.4501C26.8024 33.3565 27.0761 33.6705 27.9378 35.4906C28.33 36.306 28.8211 37.3505 29.4744 38.4095C29.9891 39.261 30.778 39.8602 31.7277 40.1403C32.1259 40.2577 32.5422 40.3139 33.0073 40.3177C35.8984 40.3374 39.455 37.9878 41.6121 34.6257C44.5742 30.0016 37.9174 22.5405 35.978 20.5358C36.1332 20.3483 36.2883 20.1609 36.4651 20.0131C38.1536 18.5785 42.9618 11.5335 44.1531 9.75238C45.9791 9.65785 54.6831 9.726 65.6477 17.258C78.0822 25.7901 78.2916 41.1121 73.0071 52.4815Z" fill="#F29768"/>
</svg>
