<svg width="49" height="50" viewBox="0 0 49 50" fill="none" xmlns="http://www.w3.org/2000/svg">
<path d="M18.2053 49.3714C22.8142 49.1482 27.7873 47.1385 32.1791 43.6859C37.1947 39.772 41.4613 34.1026 44.5486 27.2289C48.0573 19.487 47.4244 13.8904 46.2815 10.5599C45.1032 7.10354 43.1757 5.31742 42.8824 5.07182C42.2915 4.42214 34.857 -3.1107 17.2885 2.64295C8.67827 5.48322 4.59361 11.9723 2.6947 16.9415C1.30034 20.5963 0.648038 24.611 0.751102 28.3193C0.811003 30.4745 1.12269 32.5276 1.71533 34.3825C3.98431 41.5831 10.7846 46.9132 11.077 47.1272C12.5796 48.5127 14.8358 49.5285 18.2053 49.3714ZM2.94687 34.0311C1.44629 29.2832 1.8099 22.8976 3.91734 17.4151C5.72789 12.702 9.56693 6.53698 17.7045 3.86844C27.3563 0.713753 33.8142 1.73959 37.6129 3.28341C36.1755 3.10132 34.489 3.11647 32.5896 3.48645C27.4294 4.48629 20.3358 9.21927 16.7142 14.0461C16.1267 14.6651 7.35954 24.4562 7.72599 37.6411C7.76211 38.9406 7.89452 40.2691 8.1241 41.6584C8.12674 41.7535 8.20444 42.2588 8.41377 42.9191C6.44299 40.7218 4.06414 37.5843 2.94687 34.0311ZM11.8457 46.1542C9.78829 44.2765 9.42982 41.6855 9.39273 41.4962L9.39185 41.4646C9.16403 40.1387 9.06518 38.8727 9.02995 37.6049C8.6679 24.5784 17.6002 15.0047 17.6921 14.8753L17.754 14.8102C21.1291 10.2757 28.0344 5.64308 32.8466 4.71636C38.2595 3.64607 41.7578 5.83261 42.0811 6.01394C42.5378 6.41359 49.5968 13.037 43.4196 26.6893C40.4224 33.3702 36.2469 38.8785 31.4185 42.6603C27.2131 45.9491 22.4919 47.8566 18.1692 48.0719C15.1186 48.2519 13.1522 47.3549 11.8457 46.1542Z" fill="white"/>
<path d="M31.4197 42.6921C36.248 38.9102 40.3917 33.4028 43.4207 26.7211C49.5979 13.0688 42.5071 6.44626 42.0822 6.04572C41.758 5.8327 38.2606 3.67784 32.8477 4.74813C28.0355 5.67486 21.1302 10.3074 17.7551 14.8419L17.6933 14.9071C17.6005 15.0048 8.66903 24.6102 9.03108 37.6367C9.06632 38.9045 9.19697 40.1696 9.39298 41.4963L9.39386 41.528C9.43007 41.6856 9.75674 44.2775 11.8468 46.186C13.1533 47.3867 15.1198 48.2837 18.1394 48.1363C22.493 47.8884 27.2142 45.9809 31.4197 42.6921ZM15.1545 44.9522C14.5034 44.4311 14.2005 43.8368 14.0282 43.3658C13.6457 43.3447 13.2279 43.1977 12.8383 42.9231C12.287 42.5578 10.689 41.1749 10.5921 37.6884C10.578 37.1813 10.5931 36.5782 10.6718 35.9734C11.0926 31.6479 12.3632 29.2654 12.9128 28.4254C12.6363 27.6401 12.5552 25.8661 14.2667 22.1708C16.0675 18.2511 18.1666 17.0508 19.111 16.6757C19.2436 15.7204 19.8225 13.6426 22.533 11.5372C24.9626 9.62999 26.7737 9.51622 27.7331 9.67987C28.0909 8.81351 29.1044 7.48486 32.0463 6.83215C35.5571 6.03675 37.7895 7.33864 38.5686 7.88792C40.5617 7.4519 42.0378 9.02855 42.5422 9.99782C43.8998 11.895 43.8564 13.7676 43.7839 14.5943C44.3086 15.1507 44.9835 16.5275 44.6007 19.9321C44.2205 23.4318 43.3051 24.8529 42.8104 25.3741L42.8121 25.4375C42.887 28.1316 40.3742 31.6271 40.0977 31.9836C38.3924 34.7589 37.0804 35.6518 36.2915 35.8957C36.1245 36.7568 35.3991 38.1409 33.1399 40.4557C29.9831 43.6836 27.8479 43.5844 26.7551 43.2024C26.2073 44.1058 24.7177 45.4794 20.5611 45.9438C18.1519 46.2962 16.3594 45.9337 15.1545 44.9522Z" fill="#F29768"/>
<path d="M8.44577 42.918C6.44319 40.7216 4.06434 37.5841 2.91527 34.0318C1.41468 29.2839 1.77829 22.8983 3.88574 17.4157C5.69628 12.7027 9.53532 6.53764 17.6729 3.8691C27.3247 0.714402 33.7826 1.74024 37.5813 3.28406C36.1439 3.10197 34.4574 3.11712 32.558 3.4871C27.3977 4.48694 20.3042 9.21993 16.6826 14.0467C16.0951 14.6657 7.32793 24.4568 7.69438 37.6418C7.7305 38.9413 7.86291 40.2698 8.09249 41.6591C8.15962 41.7841 8.23644 42.2577 8.44577 42.918Z" fill="#F29768"/>
<path d="M20.5634 46.0391C24.72 45.5746 26.2096 44.201 26.7574 43.2977C27.8184 43.6805 29.9846 43.7472 33.1423 40.551C35.4014 38.2361 36.1586 36.8511 36.2939 35.991C37.1146 35.7461 38.3948 34.8541 40.1 32.0789C40.3448 31.7232 42.8885 28.1951 42.8145 25.5328L42.8127 25.4694C43.3384 24.9155 44.222 23.4953 44.603 20.0274C44.9858 16.6228 44.3101 15.2142 43.7863 14.6896C43.8906 13.862 43.9022 11.9902 42.5445 10.0931C42.0083 9.12469 40.564 7.54716 38.571 7.98318C37.8236 7.43301 35.5595 6.13202 32.0486 6.92742C29.1067 7.58012 28.0615 8.90966 27.7354 9.77513C26.776 9.61148 24.965 9.72526 22.5354 11.6325C19.8248 13.7378 19.2469 15.8474 19.1134 16.7709C18.169 17.1461 16.0698 18.3463 14.269 22.2661C12.5584 25.993 12.6387 27.7354 12.9151 28.5207C12.3655 29.3606 11.095 31.7432 10.6741 36.0686C10.5963 36.7052 10.5804 37.2766 10.5945 37.7837C10.6914 41.2701 12.2894 42.653 12.8406 43.0183C13.2302 43.293 13.6481 43.44 14.0306 43.4611C14.2019 43.9004 14.5058 44.5263 15.1568 45.0474C16.3591 45.9339 18.1516 46.2964 20.5634 46.0391ZM35.012 35.6777C34.9873 35.9321 34.7318 37.0494 32.1935 39.6258C29.3769 42.4953 27.716 42.2877 27.1047 42.051L29.0317 28.9291C29.0626 28.8966 29.0944 28.8957 29.1253 28.8631L35.012 35.6777ZM43.3247 19.8409C42.941 23.2138 42.1122 24.3152 41.8649 24.5759L30.7069 26.2182L43.0211 15.7893C43.2887 16.2576 43.6058 17.359 43.3247 19.8409ZM41.4463 10.6628L41.4808 10.757C42.6724 12.405 42.5583 14.0259 42.4779 14.5673L29.8836 25.2261C29.8518 25.2269 29.8509 25.1952 29.8509 25.1952L38.7953 9.18227C40.4403 8.81936 41.3801 10.5695 41.4463 10.6628ZM32.3038 8.09392C35.0558 7.47821 36.8297 8.31705 37.5753 8.80383L28.9022 24.27L28.7743 10.5075C28.8035 10.4115 28.9511 8.8532 32.3038 8.09392ZM23.2933 12.563C25.4428 10.8856 26.9376 10.844 27.5454 10.954L27.6617 25.4464C27.6308 25.479 27.599 25.4799 27.5681 25.5124L20.329 16.9909C20.4077 16.386 20.7382 14.5372 23.2933 12.563ZM15.3963 22.7423C17.0177 19.2398 18.7723 18.2395 19.464 17.9348L26.6713 26.4572C26.6413 26.5215 26.6104 26.5541 26.5803 26.6183L14.0424 27.8549C13.963 27.2862 13.9543 25.8274 15.3963 22.7423ZM41.5202 25.9176C41.3504 27.8255 39.7353 30.4079 39.0603 31.3148L39.0294 31.3474C37.3541 34.0584 36.2869 34.5955 35.9088 34.7329L30.0221 27.9183C30.0822 27.7898 30.1749 27.692 30.2032 27.5644L41.5202 25.9176ZM13.5413 41.8887C12.536 41.2188 11.5935 39.3736 11.9171 36.1293C12.3424 31.9622 13.5855 29.7391 14.0141 29.1245L26.2348 27.9284C26.2374 28.0235 26.2409 28.1503 26.2436 28.2454L14.1535 42.1572C14.0254 42.129 13.801 42.0718 13.5413 41.8887ZM15.9874 44.0093C15.4662 43.5798 15.2621 43.1096 15.1915 42.8578L27.005 29.3027C27.1985 29.3924 27.4547 29.4488 27.6773 29.4426L25.9643 41.0994L25.8989 41.0377L25.776 42.3416C25.7769 42.3733 25.3827 44.224 20.4018 44.8065C18.4335 44.9881 16.899 44.7453 15.9874 44.0093Z" fill="white"/>
<path d="M28.934 24.2685L28.8061 10.506C28.8035 10.4109 28.9511 8.85258 32.3356 8.09242C35.0876 7.4767 36.8615 8.31554 37.6071 8.80233L28.934 24.2685Z" fill="#F29768"/>
<path d="M29.9155 25.2251C29.8837 25.226 29.8828 25.1943 29.8828 25.1943L38.8272 9.18134C40.4095 8.8519 41.3811 10.6012 41.4474 10.6945L41.4818 10.7887C42.6734 12.4367 42.5593 14.0575 42.4789 14.599L29.9155 25.2251Z" fill="#F29768"/>
<path d="M30.7069 26.218L43.0211 15.7891C43.2888 16.2575 43.6067 17.3905 43.3247 19.8407C42.941 23.2136 42.1123 24.3151 41.8649 24.5757L30.7069 26.218Z" fill="#F29768"/>
<path d="M35.8773 34.7337L29.9906 27.9191C30.0507 27.7906 30.1435 27.6929 30.1718 27.5652L41.4888 25.9185C41.319 27.8263 39.7039 30.4087 39.0288 31.3156L38.9979 31.3482C37.3545 34.0583 36.2881 34.6272 35.8773 34.7337Z" fill="#F29768"/>
<path d="M27.1049 42.0507L29.0318 28.9289C29.0627 28.8963 29.0945 28.8954 29.1255 28.8628L35.0122 35.6774C34.9874 35.9318 34.732 37.0491 32.1937 39.6255C29.377 42.495 27.7162 42.2874 27.1049 42.0507Z" fill="#F29768"/>
<path d="M15.9873 44.0089C15.4661 43.5793 15.2621 43.1092 15.1914 42.8574L27.005 29.3023C27.1984 29.392 27.4546 29.4484 27.6773 29.4422L25.9642 41.0989L25.8988 41.0373L25.7759 42.3412C25.7768 42.3729 25.3827 44.2236 20.4018 44.8061C18.4335 44.9877 16.8989 44.7448 15.9873 44.0089Z" fill="#F29768"/>
<path d="M14.1527 42.1252C14.0573 42.1278 13.8338 42.1023 13.5741 41.9192C12.5688 41.2494 11.6263 39.4041 11.9499 36.1598C12.3752 31.9928 13.6183 29.7696 14.0469 29.1551L26.2676 27.959C26.2702 28.0541 26.2737 28.1808 26.2764 28.2759L14.1527 42.1252Z" fill="#F29768"/>
<path d="M14.0733 27.8222C13.9621 27.2544 13.986 25.8264 15.4272 22.7096C17.0486 19.2071 18.8032 18.2068 19.4949 17.9021L26.7022 26.4245C26.6722 26.4888 26.6412 26.5214 26.6112 26.5856L14.0733 27.8222Z" fill="#F29768"/>
<path d="M27.5681 25.5122L20.329 16.9907C20.3767 16.4184 20.7391 14.5686 23.2615 12.5637C25.411 10.8862 26.9058 10.8447 27.5136 10.9547L27.6299 25.4471C27.6308 25.4788 27.599 25.4797 27.5681 25.5122Z" fill="#F29768"/>
</svg>
