<svg xmlns="http://www.w3.org/2000/svg" width="358" height="177" viewBox="0 0 358 177" fill="none" >
<path d="M356.262 101.615H356.262L356.262 101.628C356.315 105.508 356.395 109.387 356.474 113.274L356.477 113.396C356.557 117.325 356.637 121.263 356.691 125.228C356.798 134.026 356.906 142.817 356.906 151.607C356.906 154.732 356.49 157.593 355.27 160.439L355.267 160.446C353.121 165.554 349.357 169.115 344.349 171.058L344.343 171.06C339.875 172.826 335.674 173.298 331.766 172.511C327.859 171.725 324.168 169.665 320.743 166.241C318.115 163.613 316.476 160.258 315.65 156.441C314.973 153.209 314.787 149.959 314.747 146.66C314.731 145.347 314.739 144.005 314.746 142.652C314.758 140.66 314.77 138.645 314.706 136.669C314.492 126.272 314.385 115.982 314.277 105.579C314.278 104.612 314.355 103.73 314.441 102.748C314.472 102.389 314.504 102.017 314.535 101.622C325.244 101.309 335.786 100.996 346.328 100.683C349.63 100.585 352.933 100.487 356.24 100.389C356.262 100.822 356.262 101.227 356.262 101.615Z" stroke="white" stroke-width="2"/>
<path d="M3.31099 142.454H3.30407C4.36746 138.275 6.78086 135.245 11.8796 131.493L12.7561 130.848L12.0395 130.029C7.69616 125.065 5.69917 119.486 7.2179 113.002C8.34321 108.298 10.7811 104.647 14.6542 101.895C21.5232 97.0468 31.3027 98.2359 37.3243 103.747L37.3268 103.749C42.9042 108.82 45.9503 119.702 38.7266 128.553L38.0327 129.404L38.9438 130.016C52.4876 139.114 52.8929 154.581 47.1258 163.955C41.239 173.455 28.7446 178.488 17.752 174.379L17.7423 174.375C11.7658 172.212 7.46093 168.09 4.80199 163.534C2.28897 159.228 1.28068 154.594 1.67154 150.936C2.56127 150.788 3.49466 150.788 4.5207 150.81C4.63601 150.812 4.75268 150.815 4.8706 150.818C6.01858 150.845 7.28469 150.874 8.55479 150.662L9.03039 150.583L9.26455 150.162C9.92177 148.979 10.0333 147.786 10.0474 146.699C10.0518 146.357 10.0479 146.037 10.044 145.727C10.035 144.997 10.0267 144.327 10.1313 143.595L10.2944 142.454H9.14135H9.12689H9.11244H9.098H9.08356H9.06912H9.05469H9.04027H9.02585H9.01143H8.99702H8.98261H8.96821H8.95381H8.93942H8.92503H8.91065H8.89627H8.8819H8.86753H8.85316H8.8388H8.82445H8.8101H8.79575H8.78141H8.76707H8.75274H8.73841H8.72409H8.70977H8.69545H8.68114H8.66684H8.65254H8.63824H8.62395H8.60966H8.59538H8.5811H8.56682H8.55255H8.53829H8.52402H8.50977H8.49551H8.48126H8.46702H8.45278H8.43854H8.42431H8.41008H8.39586H8.38164H8.36742H8.35321H8.33901H8.3248H8.3106H8.29641H8.28222H8.26803H8.25385H8.23967H8.22549H8.21132H8.19716H8.18299H8.16884H8.15468H8.14053H8.12638H8.11224H8.0981H8.08396H8.06983H8.05571H8.04158H8.02746H8.01334H7.99923H7.98512H7.97102H7.95692H7.94282H7.92873H7.91463H7.90055H7.88647H7.87239H7.85831H7.84424H7.83017H7.8161H7.80204H7.78799H7.77393H7.75988H7.74583H7.73179H7.71775H7.70371H7.68968H7.67565H7.66162H7.6476H7.63358H7.61957H7.60555H7.59154H7.57754H7.56353H7.54954H7.53554H7.52155H7.50756H7.49357H7.47959H7.46561H7.45163H7.43766H7.42369H7.40972H7.39576H7.3818H7.36784H7.35388H7.33993H7.32598H7.31204H7.2981H7.28416H7.27022H7.25629H7.24236H7.22843H7.21451H7.20058H7.18667H7.17275H7.15884H7.14493H7.13102H7.11712H7.10322H7.08932H7.07542H7.06153H7.04764H7.03375H7.01987H7.00599H6.99211H6.97823H6.96436H6.95049H6.93662H6.92276H6.9089H6.89503H6.88118H6.86732H6.85347H6.83962H6.82577H6.81193H6.79809H6.78425H6.77041H6.75658H6.74275H6.72892H6.71509H6.70126H6.68744H6.67362H6.65981H6.64599H6.63218H6.61837H6.60456H6.59075H6.57695H6.56315H6.54935H6.53556H6.52176H6.50797H6.49418H6.48039H6.46661H6.45282H6.43904H6.42526H6.41149H6.39771H6.38394H6.37017H6.3564H6.34264H6.32887H6.31511H6.30135H6.28759H6.27384H6.26008H6.24633H6.23258H6.21883H6.20508H6.19134H6.1776H6.16386H6.15012H6.13638H6.12265H6.10891H6.09518H6.08145H6.06772H6.054H6.04027H6.02655H6.01283H5.99911H5.98539H5.97168H5.95796H5.94425H5.93054H5.91683H5.90312H5.88941H5.87571H5.86201H5.84831H5.83461H5.82091H5.80721H5.79351H5.77982H5.76613H5.75244H5.73875H5.72506H5.71137H5.69769H5.684H5.67032H5.65664H5.64296H5.62928H5.6156H5.60192H5.58825H5.57458H5.5609H5.54723H5.53356H5.51989H5.50623H5.49256H5.47889H5.46523H5.45157H5.43791H5.42424H5.41058H5.39693H5.38327H5.36961H5.35596H5.3423H5.32865H5.315H5.30134H5.28769H5.27404H5.2604H5.24675H5.2331H5.21945H5.20581H5.19216H5.17852H5.16488H5.15124H5.1376H5.12396H5.11032H5.09668H5.08304H5.0694H5.05577H5.04213H5.02849H5.01486H5.00123H4.98759H4.97396H4.96033H4.9467H4.93307H4.91944H4.90581H4.89218H4.87855H4.86492H4.85129H4.83766H4.82404H4.81041H4.79679H4.78316H4.76954H4.75591H4.74229H4.72866H4.71504H4.70142H4.68779H4.67417H4.66055H4.64693H4.6333H4.61968H4.60606H4.59244H4.57882H4.5652H4.55158H4.53796H4.52434H4.51072H4.4971H4.48348H4.46986H4.45624H4.44262H4.429H4.41538H4.40176H4.38814H4.37452H4.3609H4.34728H4.33366H4.32004H4.30642H4.2928H4.27919H4.26557H4.25194H4.23832H4.2247H4.21108H4.19746H4.18384H4.17022H4.1566H4.14298H4.12935H4.11573H4.10211H4.08849H4.07486H4.06124H4.04762H4.03399H4.02037H4.00674H3.99312H3.97949H3.96586H3.95224H3.93861H3.92498H3.91135H3.89772H3.88409H3.87046H3.85683H3.8432H3.82957H3.81594H3.80231H3.78867H3.77504H3.7614H3.74777H3.73413H3.7205H3.70686H3.69322H3.67958H3.66594H3.6523H3.63866H3.62502H3.61137H3.59773H3.58409H3.57044H3.55679H3.54315H3.5295H3.51585H3.5022H3.48855H3.4749H3.46124H3.44759H3.43394H3.42028H3.40662H3.39296H3.37931H3.36565H3.35198H3.33832H3.32466H3.31099Z" stroke="white" stroke-width="2"/>
<path d="M109.397 150.278C115.322 149.9 120.949 149.523 126.573 149.145C128.571 149.011 130.568 148.877 132.579 148.743L133.645 148.672L133.504 147.613C133.256 145.757 132.047 144.914 131.267 144.37C131.166 144.299 131.072 144.234 130.988 144.172C129.669 143.061 128.333 141.955 126.997 140.849C124.186 138.521 121.372 136.191 118.695 133.803L118.69 133.799C116.116 131.533 114.056 128.753 112.612 125.556L112.612 125.556L112.609 125.55C110.9 121.83 110.784 117.889 111.809 113.884C113.964 105.89 119.242 101.017 127.242 99.3763C137.811 97.2217 147.021 102.539 151.129 111.473L151.133 111.482L151.137 111.49C152.472 114.257 153.249 117.134 152.877 120.407C149.105 120.638 145.303 120.838 141.388 121.045C138.45 121.2 135.448 121.359 132.348 121.536L130.285 121.654L131.658 123.199C132.057 123.647 132.356 124.047 132.638 124.422L132.661 124.452C132.925 124.804 133.203 125.175 133.522 125.494L133.543 125.515L133.565 125.535C135.498 127.254 137.432 128.945 139.362 130.634L139.364 130.636C141.295 132.326 143.223 134.013 145.151 135.726L145.153 135.728C147.943 138.196 150.631 140.687 152.584 143.77C154.325 146.587 155.171 149.361 155.208 152.117C155.245 154.876 154.474 157.682 152.88 160.562C150.442 164.918 147.304 168.014 143.608 169.951C139.909 171.89 135.594 172.698 130.759 172.387C121.289 171.665 114.542 166.56 111.136 157.59C110.68 156.319 110.37 155.009 110.078 153.603C109.995 153.203 109.913 152.792 109.829 152.373C109.694 151.695 109.554 150.995 109.397 150.278Z" stroke="white" stroke-width="2"/>
<path d="M82.0297 149.213L81.0523 149.17L80.9872 150.146C80.6654 154.973 80.3436 159.683 80.0219 164.394C79.8283 167.227 79.6348 170.061 79.4411 172.921H79.4351H79.4263H79.4176H79.4088H79.4H79.3913H79.3825H79.3737H79.365H79.3562H79.3474H79.3386H79.3299H79.3211H79.3124H79.3036H79.2948H79.2861H79.2773H79.2685H79.2598H79.251H79.2423H79.2335H79.2247H79.216H79.2072H79.1985H79.1897H79.1809H79.1722H79.1634H79.1547H79.1459H79.1372H79.1284H79.1197H79.1109H79.1022H79.0934H79.0847H79.0759H79.0672H79.0584H79.0497H79.0409H79.0322H79.0234H79.0147H79.006H78.9972H78.9885H78.9797H78.971H78.9623H78.9535H78.9448H78.9361H78.9273H78.9186H78.9098H78.9011H78.8924H78.8836H78.8749H78.8662H78.8575H78.8487H78.84H78.8313H78.8226H78.8138H78.8051H78.7964H78.7877H78.7789H78.7702H78.7615H78.7528H78.7441H78.7353H78.7266H78.7179H78.7092H78.7005H78.6918H78.6831H78.6744H78.6656H78.6569H78.6482H78.6395H78.6308H78.6221H78.6134H78.6047H78.596H78.5873H78.5786H78.5699H78.5612H78.5525H78.5438H78.5351H78.5264H78.5177H78.509H78.5003H78.4917H78.483H78.4743H78.4656H78.4569H78.4482H78.4395H78.4309H78.4222H78.4135H78.4048H78.3961H78.3875H78.3788H78.3701H78.3614H78.3528H78.3441H78.3354H78.3267H78.3181H78.3094H78.3007H78.2921H78.2834H78.2748H78.2661H78.2574H78.2488H78.2401H78.2315H78.2228H78.2141H78.2055H78.1968H78.1882H78.1795H78.1709H78.1622H78.1536H78.145H78.1363H78.1277H78.119H78.1104H78.1017H78.0931H78.0845H78.0758H78.0672H78.0586H78.0499H78.0413H78.0327H78.0241H78.0154H78.0068H77.9982H77.9896H77.9809H77.9723H77.9637H77.9551H77.9465H77.9379H77.9292H77.9206H77.912H77.9034H77.8948H77.8862H77.8776H77.869H77.8604H77.8518H77.8432H77.8346H77.826H77.8174H77.8088H77.8002H77.7916H77.783H77.7744H77.7659H77.7573H77.7487H77.7401H77.7315H77.7229H77.7144H77.7058H77.6972H77.6886H77.6801H77.6715H77.6629H77.6544H77.6458H77.6372H77.6287H77.6201H77.6115H77.603H77.5944H77.5859H77.5773H77.5688H77.5602H77.5517H77.5431H77.5346H77.526H77.5175H77.5089H77.5004H77.4919H77.4833H77.4748H77.4663H77.4577H77.4492H77.4407H77.4321H77.4236H77.4151H77.4066H77.3981H77.3895H77.381H77.3725H77.364H77.3555H77.347H77.3385H77.3299H77.3214H77.3129H77.3044H77.2959H77.2874H77.2789H77.2704H77.262H77.2535H77.245H77.2365H77.228H77.2195H77.211H77.2025H77.1941H77.1856H77.1771H77.1686H77.1602H77.1517H77.1432H77.1348H77.1263H77.1178H77.1094H77.1009H77.0924H77.084H77.0755H77.0671H77.0586H77.0502H77.0417H77.0333H77.0248H77.0164H77.008H76.9995H76.9911H76.9826H76.9742H76.9658H76.9574H76.9489H76.9405H76.9321H76.9237H76.9152H76.9068H76.8984H76.89H76.8816H76.8732H76.8648H76.8564H76.848H76.8396H76.8312H76.8228H76.8144H76.806H76.7976H76.7892H76.7808H76.7724H76.764H76.7556H76.7473H76.7389H76.7305H76.7221H76.7138H76.7054H76.697H76.6887H76.6803H76.6719H76.6636H76.6552H76.6469H76.6385H76.6301H76.6218H76.6134H76.6051H76.5968H76.5884H76.5801H76.5717H76.5634H76.5551H76.5467H76.5384H76.5301H76.5218H76.5134H76.5051H76.4968H76.4885H76.4802H76.4719H76.4636H76.4552H76.4469H76.4386H76.4303H76.422H76.4137H76.4055H76.3972H76.3889H76.3806H76.3723H76.364H76.3557H76.3475H76.3392H76.3309H76.3226H76.3144H76.3061H76.2978H76.2896H76.2813H76.2731H76.2648H76.2565H76.2483H76.24H76.2318H76.2236H76.2153H76.2071H76.1988H76.1906H76.1824H76.1741H76.1659H76.1577H76.1495H76.1412H76.133H76.1248H76.1166H76.1084H76.1002H76.092H76.0838H76.0756H76.0674H76.0592H76.051H76.0428H76.0346H76.0264H76.0182H76.01H76.0018H76.0012C71.5232 172.708 67.0432 172.388 62.5494 172.067C62.2423 172.034 61.9117 172.036 61.624 172.043C61.5088 172.046 61.4021 172.049 61.3005 172.052C61.1178 172.058 60.9519 172.063 60.7839 172.063C60.6439 172.063 60.5353 172.059 60.4531 172.052C60.3635 171.805 60.3178 171.492 60.3085 171.082C60.3026 170.821 60.3114 170.547 60.3231 170.246C60.3244 170.212 60.3258 170.178 60.3271 170.144C60.3373 169.888 60.3482 169.611 60.349 169.338C60.6702 163.825 61.0181 158.285 61.3662 152.743L61.3663 152.741C61.7149 147.19 62.0637 141.637 62.3857 136.11L62.386 136.103C62.5652 132.591 62.7323 129.083 62.8992 125.576C63.2325 118.576 63.5655 111.584 63.9938 104.586C64.0281 104.187 63.9903 103.797 63.9573 103.488C63.9524 103.442 63.9476 103.398 63.9429 103.355C63.9128 103.078 63.8892 102.862 63.8892 102.648C63.8892 102.416 63.9192 102.248 63.9773 102.111C64.0067 102.042 64.0495 101.966 64.1179 101.883C67.5638 102.047 71.0863 102.185 74.6618 102.324C77.5072 102.435 80.3863 102.548 83.2871 102.676C83.1294 105.294 82.953 107.809 82.7777 110.309C82.6023 112.811 82.4278 115.299 82.2741 117.862L82.2364 118.49L82.7867 118.796C83.9128 119.421 85.0509 119.659 86.1001 119.774C86.6078 119.829 87.1085 119.857 87.5715 119.883L87.6063 119.885C88.0888 119.912 88.5279 119.938 88.9485 119.987L88.9559 119.988L88.9634 119.989C92.9269 120.396 96.2167 121.903 98.8153 124.897C100.739 127.229 101.94 129.842 102.342 132.749C102.653 135.245 102.655 137.75 102.655 140.328C102.558 143.53 102.283 146.824 101.991 150.321C95.3488 149.827 88.8776 149.52 82.0297 149.213ZM60.2681 172.022C60.2685 172.022 60.2738 172.024 60.283 172.027C60.2723 172.024 60.2678 172.023 60.2681 172.022Z" stroke="white" stroke-width="2"/>
<path d="M278.947 172.978C275.877 173.049 272.794 173.121 269.65 173.213V173.21V173.199V173.188V173.178V173.167V173.156V173.146V173.135V173.124V173.114V173.103V173.093V173.082V173.071V173.061V173.05V173.04V173.029V173.018V173.008V172.997V172.987V172.976V172.966V172.955V172.944V172.934V172.923V172.913V172.902V172.892V172.881V172.871V172.86V172.85V172.839V172.829V172.818V172.808V172.797V172.787V172.777V172.766V172.756V172.745V172.735V172.724V172.714V172.704V172.693V172.683V172.672V172.662V172.652V172.641V172.631V172.62V172.61V172.6V172.589V172.579V172.569V172.558V172.548V172.538V172.527V172.517V172.507V172.496V172.486V172.476V172.465V172.455V172.445V172.435V172.424V172.414V172.404V172.393V172.383V172.373V172.363V172.352V172.342V172.332V172.322V172.312V172.301V172.291V172.281V172.271V172.26V172.25V172.24V172.23V172.22V172.21V172.199V172.189V172.179V172.169V172.159V172.149V172.138V172.128V172.118V172.108V172.098V172.088V172.078V172.068V172.057V172.047V172.037V172.027V172.017V172.007V171.997V171.987V171.977V171.967V171.957V171.947V171.936V171.926V171.916V171.906V171.896V171.886V171.876V171.866V171.856V171.846V171.836V171.826V171.816V171.806V171.796V171.786V171.776V171.766V171.756V171.746V171.736V171.726V171.716V171.706V171.696V171.686V171.676V171.666V171.657V171.647V171.637V171.627V171.617V171.607V171.597V171.587V171.577V171.567V171.557V171.547V171.537V171.528V171.518V171.508V171.498V171.488V171.478V171.468V171.458V171.449V171.439V171.429V171.419V171.409V171.399V171.389V171.38V171.37V171.36V171.35V171.34V171.33V171.321V171.311V171.301V171.291V171.281V171.272V171.262V171.252V171.242V171.232V171.223V171.213V171.203V171.193V171.183V171.174V171.164V171.154V171.144V171.135V171.125V171.115V171.105V171.096V171.086V171.076V171.066V171.057V171.047V171.037V171.027V171.018V171.008V170.998V170.989V170.979V170.969V170.959V170.95V170.94V170.93V170.921V170.911V170.901V170.892V170.882V170.872V170.863V170.853V170.843V170.834V170.824V170.814V170.805V170.795V170.785V170.776V170.766V170.756V170.747V170.737V170.727V170.718V170.708V170.698V170.689V170.679V170.67V170.66V170.65V170.641V170.631V170.621V170.612V170.602V170.593V170.583V170.573V170.564V170.554V170.545V170.535V170.525V170.516V170.506V170.497V170.487V170.477V170.468V170.458V170.449V170.439V170.43V170.42V170.41V170.401V170.391V170.382V170.372V170.363V170.353V170.344V170.334V170.324V170.315V170.305V170.296V170.286V170.277V170.267V170.258V170.248V170.239V170.229V170.219V170.21V170.2V170.191V170.181V170.172V170.162V170.153V170.143V170.134V170.124V170.115V170.105V170.096V170.086V170.077V170.067V170.058V170.048V170.039V170.029V170.02V170.01V170.001V169.991V169.982V169.972V169.963V169.953V169.944V169.934V169.925V169.915V169.906V169.896V169.887V169.877V169.868V169.858V169.849V169.839V169.83V169.821V169.811V169.802V169.792V169.783V169.773V169.764V169.754V169.745V169.735V169.726V169.716V169.707V169.697V169.688V169.679V169.669V169.66V169.65V169.641V169.631V169.622V169.612V169.603V169.593V169.584V169.575V169.565V169.556V169.546V169.537V169.527V169.518V169.508V169.499V169.49V169.48V169.471V169.461V169.452V169.442V169.433V169.424V169.414V169.405V169.395V169.386V169.376V169.367V169.357V169.348V169.339V169.329V169.32V169.31V169.301V169.291V169.282V169.273V169.263V169.254V169.244V169.235V169.225V169.216V169.207V169.197V169.188V169.178V169.169V169.159V169.15V169.141V169.131V169.122V169.112V169.103V169.093V169.083L269.65 169.073C269.543 163.819 269.462 158.565 269.382 153.308L269.382 153.307C269.302 148.052 269.221 142.794 269.114 137.536C269.006 129.805 268.792 122.075 268.577 114.46L268.577 114.46C268.523 112.575 268.443 110.692 268.362 108.817L268.362 108.813C268.282 106.94 268.202 105.075 268.148 103.211C268.149 103.03 268.165 102.866 268.188 102.625C268.191 102.594 268.194 102.561 268.198 102.528C268.204 102.46 268.211 102.389 268.217 102.315C274.337 101.757 280.374 101.473 286.655 101.623C286.708 104.673 286.781 107.663 286.854 110.649L286.854 110.651C286.934 113.95 287.014 117.245 287.068 120.619L287.082 121.515L287.974 121.599C291.667 121.947 295.372 121.893 299.085 121.84C300.81 121.815 302.537 121.79 304.264 121.805C304.39 126.04 304.372 130.225 304.353 134.456C304.348 135.704 304.342 136.957 304.34 138.215C301.92 138.6 299.48 138.644 296.99 138.632C296.55 138.63 296.107 138.626 295.663 138.622C293.34 138.601 290.965 138.58 288.614 138.811L287.694 138.901L287.712 139.825C287.817 145.332 287.947 150.813 288.078 156.316L288.087 156.7C288.214 162.008 288.34 167.338 288.444 172.737C285.3 172.829 282.194 172.902 279.073 172.975L278.947 172.978Z" stroke="white" stroke-width="2"/>
<path d="M23.7318 40.753H22.7654L22.7324 41.7188C22.5234 47.8299 22.3408 53.885 22.159 59.9127C21.9744 66.0319 21.7907 72.1227 21.5812 78.2151C20.7789 78.2994 19.623 78.361 18.2262 78.3949C16.3111 78.4413 14.0209 78.4348 11.7399 78.3814C9.45847 78.3281 7.19664 78.2281 5.33763 78.0889C4.00893 77.9894 2.94218 77.8733 2.2249 77.7524C2.55843 65.3075 2.8638 52.8251 3.17097 40.2686C3.43934 29.2983 3.7091 18.2715 4.00023 7.16382C6.06442 7.21775 8.09325 7.24864 10.104 7.27925C14.507 7.34628 18.8231 7.41199 23.233 7.71546C23.399 10.192 23.2804 12.6658 23.1357 15.1979C23.1241 15.4011 23.1123 15.6047 23.1005 15.8087C22.9497 18.4136 22.7951 21.0861 22.9479 23.7865L22.9976 24.6648L23.8751 24.7275C30.6645 25.2125 37.4484 25.3468 44.2197 25.454C44.7882 25.463 45.3566 25.4719 45.9249 25.4807C51.8095 25.5719 57.6844 25.6631 63.5768 25.9642C63.5515 27.0801 63.5515 28.1616 63.5515 29.2068V29.2147C63.5515 30.573 63.5514 31.8661 63.4988 33.129L63.1769 40.8531L62.8551 48.5772L62.8548 48.584C62.5525 57.2513 55.1711 64.0622 46.952 64.5707C39.8115 64.9781 34.445 62.1544 30.3386 56.4054C28.3711 53.6509 27.9473 50.4733 27.7338 46.9491L27.7336 46.9473C27.6811 46.1066 27.6547 45.29 27.6278 44.4434L27.6263 44.3965C27.6 43.5683 27.5729 42.7118 27.5193 41.8015L27.4639 40.8602H26.521C26.0721 40.8602 25.6447 40.8354 25.1851 40.8083L25.1737 40.8076C24.7247 40.7812 24.244 40.753 23.7318 40.753Z" stroke="white" stroke-width="2"/>
<path d="M235.036 64.5408L235.037 64.5517C235.091 65.5188 235.196 66.4822 235.3 67.4267L235.309 67.5151C235.416 68.4878 235.519 69.4448 235.572 70.4223C235.57 70.8744 235.526 71.2699 235.463 71.7955C228.529 72.1039 221.642 72.4122 214.756 72.7206L214.696 72.7233L214.687 72.7236C207.817 73.0313 200.947 73.3389 194.03 73.6465C193.886 72.0221 193.798 70.5171 193.713 69.0677C193.706 68.9571 193.7 68.8469 193.693 68.737C193.264 58.5511 192.835 48.3591 192.299 38.1661C192.212 36.0414 192.092 33.9242 191.972 31.8127C191.793 28.6393 191.613 25.4789 191.549 22.3254C191.55 20.3618 191.756 18.3845 192.072 16.3846C193.59 7.70399 201.723 2.2526 208.507 1.22467L208.507 1.22469L208.513 1.22372C218.214 -0.307944 229.094 6.15289 231.96 16.5926L231.96 16.5926L231.964 16.6059C233.002 20.1941 233.183 23.7842 233.371 27.5078C233.389 27.8727 233.408 28.2389 233.427 28.6065C233.695 34.6004 233.962 40.5676 234.23 46.5346L234.232 46.5718L234.233 46.5913C234.5 52.5657 234.768 58.5399 235.036 64.5408Z" stroke="white" stroke-width="2"/>
<path d="M259.851 165.982C259.851 153.967 259.959 142.059 259.959 130.044C259.959 125.967 259.959 121.89 259.1 117.814C256.633 106.764 245.583 99.4691 235.284 100.542C228.097 101.293 219.407 106.55 217.261 115.668C216.832 117.599 216.51 119.745 216.403 121.783C216.296 127.04 216.403 132.404 216.403 137.661C216.403 147.852 216.403 158.044 216.403 168.235C216.403 170.059 216.51 171.99 216.51 174.135C230.993 174.135 245.261 174.243 259.744 174.243C259.851 173.385 260.066 172.634 260.066 171.883C260.066 169.952 259.851 168.021 259.851 165.982Z" stroke="white" stroke-width="2"/>
<path d="M168.988 52.6955C169.202 51.9446 169.31 51.5155 169.631 50.9791C171.133 48.1898 172.635 45.4006 174.03 42.6113C177.355 36.2818 179.394 29.6305 178.965 22.4428C178.643 16.5424 176.605 11.2857 172.635 7.10185C167.164 1.41605 160.298 -0.836815 152.574 0.665095C143.777 2.38156 138.091 7.63825 135.517 16.2206C134.229 20.619 134.766 25.0175 134.551 29.5232C134.551 29.9523 134.766 30.4887 134.98 31.1324C136.375 31.2397 137.662 31.347 138.842 31.347C144.313 31.4543 149.785 31.5615 155.256 31.5615C157.08 31.5615 157.08 31.7761 156.972 33.4926C156.543 38.4274 154.29 42.8259 152.359 47.3316C152.252 47.6534 151.823 47.9753 151.501 48.2971C151.072 48.1898 150.643 48.0825 150.214 47.9753C144.85 46.3661 139.915 47.4389 135.195 50.2281C126.827 55.4848 127.9 67.2855 135.838 71.3622C142.812 74.9024 149.57 74.9024 156.221 70.6112C157.08 70.0748 157.831 69.4311 158.582 69.002C165.233 74.0441 172.635 74.7951 180.681 74.5805C180.788 73.615 181.003 72.6495 181.003 71.7913C181.11 67.8219 181.11 63.9599 181.218 59.9905C181.218 58.7032 181.218 57.3086 181.11 55.8066C176.819 55.4848 172.85 54.7339 168.988 52.6955Z" stroke="white" stroke-width="2"/>
<path d="M105.1 42.6443L105.109 42.6438L105.119 42.6432C109.449 42.3445 113.773 42.1504 118.22 41.9508C119.844 41.8779 121.484 41.8042 123.147 41.7245C123.179 42.0046 123.212 42.2862 123.245 42.5691C123.424 44.1011 123.607 45.6726 123.683 47.2607L123.686 47.397C123.792 51.5338 123.895 55.5363 123.79 59.5349L123.789 59.548V59.5612C123.789 63.4921 121.83 66.7956 119.137 69.5931C110.724 78.2082 98.8609 78.0083 90.6495 71.5418L90.6472 71.5399C85.937 67.8538 83.2854 62.8594 82.8753 56.8116L82.8751 56.808C82.3749 49.8055 81.9703 42.8086 81.5653 35.8038C81.3627 32.3 81.16 28.7942 80.9451 25.2847C80.9186 24.7288 80.883 24.2248 80.7932 23.81C80.7012 23.3852 80.5247 22.9153 80.1098 22.5642C79.7037 22.2206 79.2169 22.1174 78.7983 22.0801C78.3821 22.0431 77.8806 22.0609 77.3309 22.0871C74.4998 22.1847 71.7491 22.2826 68.5185 22.4618C68.0514 17.242 67.6646 12.2528 67.2821 7.11248C72.5075 6.45037 77.7427 6.1249 83.0322 5.83385C83.6791 5.79825 84.327 5.76317 84.9757 5.72803C89.6392 5.47548 94.3485 5.22044 99.0956 4.75497C99.2407 5.5096 99.3666 6.24195 99.4402 6.96968C99.6002 9.42474 99.7337 11.9074 99.8675 14.3967L99.8677 14.4004C100.002 16.8924 100.136 19.3911 100.297 21.864L100.298 21.8701C100.513 24.8779 100.754 27.9118 100.995 30.9409L100.996 30.9434C101.237 33.9721 101.478 36.9961 101.692 39.9926C101.718 40.455 101.747 40.8935 101.827 41.2473C101.912 41.624 102.093 42.085 102.559 42.3893C102.968 42.6559 103.438 42.6886 103.775 42.694C104.064 42.6987 104.422 42.6798 104.815 42.6591C104.908 42.6541 105.003 42.6491 105.1 42.6443Z" stroke="white" stroke-width="2"/>
<path d="M286.639 22.4629L286.639 22.4629L286.639 22.4728C286.692 24.2352 286.746 26.0242 286.799 27.8136L286.8 27.8363C286.853 29.6272 286.907 31.4184 286.96 33.1831C286.959 33.321 286.931 33.489 286.854 33.8087C286.837 33.8789 286.818 33.9557 286.797 34.0391C286.776 34.1247 286.753 34.2172 286.729 34.3165C280.433 34.324 274.301 34.4185 267.925 34.5168C267.626 34.5214 267.326 34.526 267.026 34.5307L266.033 34.5459L266.041 35.5382C266.094 42.4691 266.121 49.3472 266.148 56.1877L266.148 56.3064C266.174 62.9099 266.2 69.4784 266.249 76.0221C266.086 76.046 265.896 76.0706 265.679 76.0952C265.026 76.169 264.199 76.2352 263.245 76.2925C261.339 76.4069 258.964 76.4837 256.554 76.5171C254.144 76.5504 251.708 76.5403 249.679 76.4822C248.184 76.4393 246.954 76.3711 246.121 76.2829C246.026 73.9855 245.941 71.6958 245.941 69.3235C245.941 66.1637 245.968 63.0032 245.995 59.8378L245.995 59.8357C246.022 56.6746 246.049 53.5085 246.049 50.3418C246.102 46.311 246.075 42.2819 246.049 38.2645L246.049 38.2595C246.022 34.2349 245.995 30.2219 246.049 26.2106L246.049 26.2106V26.1972C246.049 22.463 246.269 19.0085 247.776 15.79C251.177 8.68247 257.619 3.91206 265.659 3.81029L265.664 3.81022C271.654 3.70693 276.749 5.45214 281.04 9.64086L281.041 9.64256C284.61 13.1093 286.537 17.473 286.639 22.4629Z" stroke="white" stroke-width="2"/>
<path d="M205.428 119.766L205.428 119.775C205.482 121.545 205.535 123.342 205.589 125.139C205.642 126.93 205.696 128.721 205.749 130.486C205.748 130.614 205.723 130.75 205.645 131.062C205.636 131.099 205.626 131.138 205.616 131.179C205.583 131.307 205.547 131.452 205.507 131.619C199.215 131.627 193.086 131.721 186.714 131.82C186.415 131.824 186.115 131.829 185.815 131.833L184.822 131.849L184.83 132.841C184.883 139.772 184.91 146.65 184.937 153.49L184.937 153.609C184.963 160.213 184.989 166.781 185.038 173.325C184.875 173.349 184.685 173.373 184.468 173.398C183.815 173.472 182.988 173.538 182.034 173.595C180.128 173.71 177.753 173.786 175.343 173.82C172.933 173.853 170.497 173.843 168.468 173.785C166.973 173.742 165.743 173.674 164.91 173.586C164.815 171.288 164.73 168.999 164.73 166.626C164.73 163.466 164.757 160.306 164.784 157.141L164.784 157.138C164.811 153.977 164.838 150.811 164.838 147.644C164.891 143.614 164.865 139.585 164.838 135.567L164.838 135.562C164.811 131.538 164.784 127.525 164.838 123.513L164.838 123.513V123.5C164.838 119.766 165.058 116.311 166.565 113.093C169.966 105.985 176.408 101.215 184.448 101.113L184.453 101.113C190.443 101.01 195.538 102.755 199.829 106.944L199.83 106.945C203.399 110.412 205.326 114.776 205.428 119.766Z" stroke="white" stroke-width="2"/>
</svg>