<svg width="76" height="82" viewBox="0 0 76 82" fill="none" xmlns="http://www.w3.org/2000/svg">
<path d="M72.7988 1.34583L72.3866 0.295898L71.7525 1.12312C69.8184 2.52303 54.3454 13.6905 50.9845 16.4585C48.9236 18.1448 41.2822 23.8399 33.9579 29.185L33.8628 29.1214L33.6409 29.4077C28.3141 33.3211 23.241 37.0118 20.6728 38.8253C14.5533 43.1523 4.21691 49.611 4.12179 49.6746L4.02667 49.7382L3.96326 49.8337C3.86814 49.9291 -4.24882 60.1103 3.07547 69.337C3.13888 69.4643 3.32912 69.687 3.64619 69.9097C10.3363 76.5275 19.6899 80.5681 31.4848 81.9044C31.9921 81.968 32.4994 81.9998 33.0067 81.9998C40.2993 81.9998 48.7333 76.6547 49.1138 76.4002C59.7356 69.2097 65.855 60.5557 69.0891 54.5425C72.6403 48.0202 73.6232 43.2477 73.6866 43.0568C78.9817 17.6039 72.8622 1.50491 72.7988 1.34583ZM51.7772 17.413C53.5528 15.9495 58.9429 12.0042 63.7624 8.44084C62.4307 10.9861 60.0844 15.2177 57.2625 19.7356L39.3164 26.8306C45.0236 22.599 50.1601 18.7493 51.7772 17.413ZM56.1527 21.5809C54.6625 23.9035 53.0455 26.2579 51.3967 28.4214C47.8772 33.0984 43.7236 37.6481 39.6969 41.6887L36.4945 29.2804L56.1527 21.5809ZM34.5921 30.2986C34.8457 30.1077 35.0994 29.9168 35.353 29.7577L38.6823 42.7387C33.1653 48.2111 28.0605 52.6017 25.2703 54.9243C23.9386 56.0378 22.6703 57.056 21.4654 57.9786L34.5921 30.2986ZM19.2777 59.5376C13.8875 63.3874 9.95585 65.1054 7.51443 64.66C7.10224 64.5964 6.75346 64.4373 6.43639 64.2464L31.3263 34.1801L19.2777 59.5376ZM21.402 39.8752C23.3044 38.5389 26.6019 36.1527 30.3434 33.4165L5.5486 63.3556C5.51689 63.3237 5.48519 63.2601 5.45348 63.2283C2.79011 58.5831 6.78517 50.3109 7.3876 49.1337C10.8754 46.9066 17.1533 42.8659 21.402 39.8752ZM4.37545 68.8279C4.21691 68.7325 4.1535 68.637 4.1535 68.637L4.09009 68.5416C-2.37811 60.3966 4.12179 51.6472 4.88276 50.6609C4.97788 50.5973 5.16812 50.47 5.42177 50.3109C4.09009 53.4607 2.02914 59.6649 4.37545 63.801C5.04129 64.9782 6.0242 65.6781 7.32418 65.9008C7.64125 65.9645 7.95832 65.9963 8.3071 65.9963C12.0802 65.9963 17.9143 62.6556 26.0946 55.8469C31.0726 51.7108 43.6285 40.7979 52.443 29.1532C54.4723 26.4806 56.4064 23.5535 58.182 20.7537L58.2454 20.7219L58.2137 20.6582C62.4624 13.9132 65.6014 7.70907 66.1087 6.72276C67.4721 5.73646 68.7086 4.81379 69.755 4.08202C69.3745 4.65471 68.9623 5.35467 68.4867 6.15007C67.916 7.10456 67.2184 8.47265 66.3306 10.1907C63.6038 15.4722 59.0698 24.2853 51.1113 34.8801C40.87 48.4338 19.9752 65.0736 12.7461 67.9053C7.22906 70.0688 5.10471 69.337 4.40715 68.8916C4.40715 68.8916 4.37545 68.8598 4.37545 68.8279ZM72.4183 42.7705C72.3866 42.9614 68.2647 61.8602 48.3846 75.3184C48.2894 75.3821 38.714 81.459 31.5799 80.6317C21.1167 79.4545 12.6192 76.082 6.30957 70.6415C7.83149 70.7051 10.051 70.3233 13.19 69.0825C20.5459 66.1872 41.7261 49.3564 52.0625 35.6437C60.1161 24.9852 64.6819 16.0767 67.4087 10.7952C68.2965 9.10898 68.9623 7.74088 69.533 6.85003C70.6745 4.94106 71.4671 3.73204 71.9744 2.96846C73.2744 7.04093 76.8573 21.5809 72.4183 42.7705Z" fill="white"/>
<path d="M63.7941 8.47266C62.4624 11.0179 60.1161 15.2495 57.2942 19.7674L39.3164 26.8306C45.0236 22.6309 50.1601 18.7811 51.7772 17.4448C53.5845 15.9813 58.9429 12.0043 63.7941 8.47266Z" fill="#F29768"/>
<path d="M30.3436 33.417L5.54886 63.356C5.51715 63.3242 5.48545 63.2606 5.45374 63.2288C2.79037 58.5836 6.78543 50.3114 7.38786 49.1342C10.8756 46.9071 17.1536 42.8982 21.4023 39.8757C23.3047 38.5076 26.6022 36.1214 30.3436 33.417Z" fill="#F29768"/>
<path d="M56.1529 21.5811C54.6627 23.9036 53.0456 26.258 51.3969 28.4215C47.8774 33.0985 43.7238 37.6482 39.697 41.6889L36.4946 29.2806L56.1529 21.5811Z" fill="#F29768"/>
<path d="M31.3264 34.2119L19.2778 59.5694C13.8876 63.4192 9.95598 65.1373 7.51456 64.6918C7.10237 64.6282 6.75359 64.4691 6.43652 64.2782L31.3264 34.2119Z" fill="#F29768"/>
<path d="M38.6822 42.707C33.1652 48.1794 28.0604 52.57 25.2702 54.8926C23.9385 56.0062 22.6702 57.0243 21.4653 57.947L34.592 30.2987C34.8456 30.1078 35.0993 29.9169 35.3529 29.7578L38.6822 42.707Z" fill="#F29768"/>
<path d="M69.7553 4.146C69.3748 4.71869 68.9626 5.41864 68.487 6.21405C67.9163 7.16853 67.2187 8.53663 66.3309 10.2547C63.6041 15.5362 59.0701 24.3493 51.1116 34.9441C40.8703 48.4341 19.9755 65.074 12.7463 67.9056C7.22935 70.0691 5.10499 69.3373 4.40744 68.8919C4.40744 68.8919 4.37573 68.8601 4.34403 68.8283C4.18549 68.701 4.12208 68.6374 4.12208 68.6374L4.05867 68.5419C-2.40953 60.397 4.09037 51.6475 4.85134 50.6612C4.94646 50.5976 5.1367 50.4703 5.39035 50.3113C4.05867 53.4611 1.99772 59.6652 4.34403 63.8013C5.00987 64.9785 5.99278 65.6785 7.29276 65.9012C7.60983 65.9648 7.9269 65.9966 8.27568 65.9966C12.0488 65.9966 17.8829 62.6559 26.0632 55.8473C31.0412 51.7112 43.5971 40.7982 52.4116 29.1535C54.4409 26.481 56.375 23.5539 58.1506 20.754L58.214 20.7222L58.1823 20.6586C62.431 13.9136 65.57 7.70941 66.0773 6.72311C67.4407 5.80044 68.7089 4.87777 69.7553 4.146Z" fill="#F29768"/>
<path d="M72.4184 42.7708C72.3867 42.9617 68.2648 61.8605 48.3846 75.3187C48.2895 75.3824 38.714 81.4593 31.5799 80.632C21.1167 79.4548 12.6192 76.0823 6.30957 70.6418C7.8315 70.7054 10.051 70.3236 13.19 69.0828C20.5459 66.1875 41.7261 49.3567 52.0626 35.644C60.1161 24.9855 64.6819 16.077 67.4087 10.7955C68.2965 9.10927 68.9623 7.74118 69.533 6.85032C70.6745 4.94135 71.4672 3.73234 71.9745 2.96875C73.2745 7.04122 76.8573 21.5812 72.4184 42.7708Z" fill="#F29768"/>
</svg>
