<?xml version="1.0" encoding="utf-8"?>
<!-- Generator: Adobe Illustrator 24.1.1, SVG Export Plug-In . SVG Version: 6.00 Build 0)  -->
<svg version="1.1" id="Layer_1" xmlns="http://www.w3.org/2000/svg" xmlns:xlink="http://www.w3.org/1999/xlink" x="0px" y="0px"
	 viewBox="0 0 358 177" style="enable-background:new 0 0 358 177;" xml:space="preserve">
<style type="text/css">
	.st0{fill:#FFFFFF;}
</style>
<path class="st0" d="M357.7,125.7v-0.5c-0.1-4-0.1-7.9-0.2-11.8v-0.2c-0.1-3.9-0.2-7.7-0.2-11.5l0,0c0-0.4,0-0.8,0-1.3v-1l-10.9,0.3
	c-10.5,0.3-21.1,0.6-31.8,0.9h-0.9l-0.2,2c-0.1,1-0.2,1.9-0.2,2.9c0.1,10.1,0.2,20.6,0.4,31.1c0.1,2,0.1,4,0,5.9v0.2
	c0,1.3,0,2.6,0,3.9c0,2.8,0.2,6.4,0.9,10c0.9,4.2,2.7,7.6,5.4,10.3c3.5,3.5,7.4,5.7,11.5,6.5c1.3,0.3,2.6,0.4,3.9,0.4
	c3,0,6-0.6,9.2-1.9c5.3-2.1,9.3-5.9,11.5-11.2c1.2-2.7,1.7-5.7,1.7-9.2C357.9,143,357.8,134.2,357.7,125.7z M354.3,160.1
	c-2,4.8-5.5,8.2-10.4,10.1c-4.2,1.7-8.3,2.2-12,1.4c-3.8-0.8-7.3-2.8-10.5-6c-2.4-2.4-4-5.5-4.8-9.3c-0.7-3.4-0.8-6.8-0.9-9.6
	c0-1.3,0-2.5,0-3.8v-0.2c0-2,0-4,0-6c-0.2-10.5-0.3-21-0.4-31.1c0-0.9,0.1-1.8,0.2-2.7v-0.2c10.4-0.3,20.7-0.6,30.9-0.9l8.9-0.3
	c0,0.1,0,0.1,0,0.2l0,0c0.1,3.9,0.1,7.7,0.2,11.7v0.1c0.1,3.9,0.2,7.9,0.2,11.8v0.5c0.1,8.5,0.2,17.3,0.2,25.9
	C355.9,154.9,355.4,157.6,354.3,160.1z"/>
<path class="st0" d="M39.5,129.2L39.5,129.2c7.3-8.9,5-20.3-1.5-26.2c-6.6-6.1-16.9-6.9-23.9-1.9c-4.1,2.9-6.6,6.7-7.8,11.7
	c-1.5,6.4,0.2,12.4,5,17.9c-5.3,3.9-7.8,7.2-9,11.5L2,143.5h7.1C9,144.3,9,145,9,145.7c0,0.3,0,0.6,0,0.9c0,1-0.1,2-0.7,3l0,0
	c-1.2,0.2-2.4,0.2-3.5,0.1H4.4c-1,0-2,0-3,0.1l-0.8,0.1l-0.1,0.8c-0.4,4.1,0.8,8.9,3.3,13.2c2.2,3.7,6.3,8.7,13.5,11.3
	c2.7,1,5.6,1.5,8.4,1.5c8.7,0,17.4-4.6,22.2-12.3C54.2,154.3,53.4,138.5,39.5,129.2z M46.3,163.4c-5.9,9.5-18,13.8-28.2,10
	c-6.6-2.4-10.4-7-12.4-10.4c-2.1-3.6-3.2-7.7-3.1-11.2c0.6,0,1.2,0,1.9,0h0.3c1.2,0,2.5,0.1,3.9-0.2l1-0.2l0.5-0.8
	c0.8-1.4,0.9-2.8,0.9-3.9c0-0.4,0-0.7,0-1c0-0.7,0-1.3,0.1-2l0.3-2.3H4.6c1.1-3.3,3.4-5.9,7.8-9.2l1.8-1.3l-1.4-1.6
	c-4.4-5.1-6-10.4-4.6-16.1c1.1-4.5,3.4-7.9,7-10.5c6.3-4.4,15.5-3.7,21.4,1.8c4.9,4.4,8.5,14.6,1.3,23.4l-1.4,1.7l1.8,1.2
	C51.2,139.5,52,154.1,46.3,163.4z"/>
<path class="st0" d="M145.8,135c-1.8-1.6-3.7-3.2-5.5-4.9l-0.5-0.4c-1.9-1.6-3.7-3.3-5.6-4.9c-0.3-0.3-0.5-0.6-0.8-1s-0.6-0.8-1-1.3
	l0,0c3.1-0.2,6.1-0.3,9-0.5h0.3c3.8-0.2,7.5-0.4,11.2-0.6l0.8-0.1l0.1-0.8c0.4-3.1-0.2-6.1-1.8-9.5c-4.5-9.9-14.3-14.8-25-12.7
	c-8.4,1.7-14,7-16.2,15.2c-1.1,4.5-0.9,8.6,0.9,12.3c1.5,3.3,3.6,6.2,6.3,8.6c2.7,2.4,5.6,4.8,8.3,7.1l0.2,0.2
	c1.3,1.1,2.5,2.1,3.8,3.2l0.3,0.2c0.7,0.5,1.6,1.1,1.8,2.6l-6,0.4c-5.6,0.4-11.2,0.8-17.2,1.1l-1.2,0.1l0.3,1.1
	c0.2,0.7,0.3,1.4,0.4,2.1l0.3,1.2c0.3,1.3,0.6,2.7,1.1,4.1c3.6,9.4,10.6,14.7,20.5,15.4c0.7,0,1.4,0.1,2,0.1c4.2,0,8-0.9,11.3-2.6
	c3.9-2.1,7.2-5.4,9.7-9.8c1.7-3,2.5-6,2.5-8.9c0-3-1-5.9-2.8-8.9C151.4,140,148.7,137.5,145.8,135z M152,160.1
	c-2.3,4.1-5.3,7.1-8.9,9c-3.5,1.8-7.7,2.6-12.3,2.3c-9-0.7-15.5-5.6-18.8-14.1c-0.5-1.3-0.8-2.6-1-3.9l-0.3-1.2
	c-0.1-0.3-0.1-0.6-0.2-1c5.5-0.4,10.8-0.7,16-1.1l8.1-0.5l-0.3-2.1c-0.3-2.3-1.8-3.4-2.7-3.9l-0.2-0.1c-1.3-1.1-2.5-2.1-3.8-3.2
	l-0.2-0.2c-2.8-2.3-5.6-4.6-8.3-7c-2.5-2.2-4.4-4.8-5.8-7.9c-1.5-3.3-1.8-7-0.7-11c2-7.6,7-12.2,14.7-13.8c9.7-2,18.6,2.5,22.8,11.6
	c1.3,2.7,1.8,5.1,1.7,7.5c-3.4,0.2-6.8,0.4-10.3,0.6h-0.3c-2.9,0.2-5.9,0.3-9,0.5l-4.1,0.2l2.7,3.1c0.4,0.4,0.6,0.8,1,1.2
	c0.3,0.4,0.6,0.8,1,1.2l0.1,0.1c1.9,1.7,3.7,3.3,5.6,4.9l0.5,0.4c1.8,1.6,3.7,3.2,5.5,4.8c2.7,2.4,5.4,4.9,7.2,7.8
	c1.6,2.6,2.4,5.2,2.5,7.8C154.2,154.7,153.5,157.4,152,160.1z"/>
<path class="st0" d="M99.6,124.2c-2.7-3.1-6.1-4.8-10.5-5.2c-0.4-0.1-0.9-0.1-1.4-0.1c-0.4,0-0.9-0.1-1.4-0.1
	c-1.2-0.1-2.1-0.4-2.9-0.9c0.2-2.5,0.3-5,0.5-7.4v-0.1c0.2-2.5,0.4-5,0.5-7.6l0.1-1h-1c-2.9-0.1-5.8-0.2-8.6-0.4
	c-3.6-0.1-7.1-0.3-10.5-0.4h-0.5l-0.3,0.4c-0.1,0.1-0.2,0.3-0.3,0.5c-0.1,0.3-0.2,0.6-0.2,0.9c0,0.2,0,0.5,0.1,0.8v0.1
	c0,0.2,0.1,0.6,0,0.9c-0.4,7-0.8,14.1-1.1,21c-0.2,3.5-0.3,7-0.5,10.5c-0.3,5.5-0.7,11.1-1,16.6s-0.7,11.1-1,16.7c0,0.3,0,0.5,0,0.8
	v0.1c0,0.3,0,0.6,0,0.8H59l0.8,1.8h0.1v0.1l0.6,0.1c0.2,0,0.5,0,1,0h0.3c0.2,0,0.5,0,0.8,0h0.1c4.4,0.3,8.9,0.6,13.4,0.8h4.3
	l0.7-9.6c0.3-4.7,0.6-9.3,1-14.1l0,0c6.7,0.3,13.3,0.6,19.9,1.1l1,0.1l0.1-1c0.3-3.5,0.6-6.8,0.7-10.1c0-2.5,0-5.1-0.3-7.7
	C102.9,129.6,101.7,126.8,99.6,124.2z M101.1,149.3c-6.4-0.5-12.6-0.8-19-1l-2-0.1l-0.1,2c-0.3,4.8-0.6,9.5-1,14.1l-0.5,7.7h-2.4v1
	l-0.1-1c-4.4-0.2-8.9-0.5-13.3-0.8h-0.1c-0.2,0-0.5,0-0.7,0c-0.1,0-0.2,0-0.3,0h-0.3c0-0.2,0-0.5,0-0.8h-1l1-0.1c0-0.3,0-0.6,0-0.8
	c0.3-5.5,0.7-11,1-16.6s0.7-11.1,1-16.7c0.2-3.5,0.3-7,0.5-10.5c0.3-6.9,0.7-14,1.1-21c0-0.5,0-0.9,0-1.3v-0.1c0-0.1,0-0.2,0-0.3
	c3.2,0.1,6.4,0.3,9.7,0.4c2.5,0.1,5,0.2,7.6,0.3c-0.1,2.3-0.3,4.4-0.4,6.6v0.1c-0.2,2.5-0.3,4.9-0.5,7.4l-0.1,1.3l1.1,0.6
	c1.4,0.8,2.8,1,3.7,1.1c0.5,0.1,1,0.1,1.6,0.1c0.5,0,0.9,0.1,1.3,0.1c3.9,0.4,6.9,1.9,9.2,4.5c1.8,2.2,2.9,4.7,3.3,7.3
	c0.3,2.5,0.3,5,0.3,7.4C101.6,143.2,101.3,146.1,101.1,149.3z"/>
<path class="st0" d="M305.2,120.8h-1c-1.7,0-3.4,0-5.1,0h-0.2c-3.6,0.1-7.3,0.1-10.9-0.2l0,0c-0.1-3.4-0.1-6.6-0.2-10v-0.3
	c-0.1-2.9-0.1-5.7-0.2-8.7v-1h-1c-5.8-0.1-11.9,0.1-18.6,0.7l-0.8,0.1l-0.1,1l1,0.1h-1c0,0.3,0,0.5,0,0.7c0.1,1.8,0.1,3.7,0.2,5.6
	s0.2,3.7,0.2,5.6c0.2,6.7,0.4,15,0.5,23.1c0.1,5.3,0.2,10.5,0.3,15.8c0.1,5.3,0.2,10.5,0.3,15.8v5.1h1c3.1-0.1,6.2-0.2,9.3-0.2h0.1
	c3.1-0.1,6.2-0.1,9.4-0.2h1v-1c-0.1-5.4-0.2-10.7-0.4-16v-0.4c-0.1-5.5-0.3-11-0.4-16.5l0,0c2.3-0.2,4.7-0.2,7-0.2h1.3
	c2.8,0,5.2-0.1,7.5-0.4l0.8-0.1v-4.6c0-4.1,0-8.4-0.1-12.7L305.2,120.8z M303.4,134.5v2.9c-2,0.2-4,0.3-6.3,0.3h-1.3
	c-2.3,0-4.7,0-7.2,0.2l-1.8,0.2v1.8c0.1,5.5,0.2,11,0.4,16.5v0.4c0.1,5,0.2,10,0.3,15c-2.8,0.1-5.6,0.1-8.4,0.2H279
	c-2.7,0.1-5.5,0.1-8.3,0.2v-3.1c-0.1-5.3-0.2-10.5-0.3-15.8c-0.1-5.3-0.2-10.5-0.3-15.8c-0.1-8-0.3-16.4-0.5-23.1
	c-0.1-1.9-0.1-3.8-0.2-5.6v-0.1c-0.1-1.8-0.2-3.7-0.2-5.5c5.9-0.5,11.3-0.7,16.5-0.6c0,2.6,0.1,5.2,0.2,7.7v0.4
	c0.1,3.3,0.2,6.6,0.2,9.9v1.8l1.8,0.2c3.7,0.4,7.5,0.3,11.2,0.2h0.1c1.4,0,2.7,0,4.1,0C303.4,126.7,303.4,130.7,303.4,134.5z"/>
<path class="st0" d="M5.3,79.1c1.8,0.1,4.1,0.2,6.5,0.3c1.3,0,2.5,0,3.7,0c1,0,1.9,0,2.8,0c1.4,0,2.6-0.1,3.4-0.2l0.9-0.1v-0.9
	c0.2-6.1,0.4-12.2,0.6-18.3c0.2-6,0.4-12.1,0.6-18.2c0.5,0,0.9,0,1.4,0.1c0.5,0,0.9,0.1,1.4,0.1l0,0c0.1,0.9,0.1,1.7,0.1,2.6
	c0,0.9,0.1,1.7,0.1,2.5v0.1c0.2,3.3,0.6,6.8,2.8,9.9c4.4,6.2,10.1,9,17.5,8.6c9.1-0.6,16.5-8,16.8-17l0.6-15.4
	c0.1-1.3,0.1-2.6,0.1-4c0-1,0-2.1,0-3.2v-1h-1c-5.9-0.3-11.9-0.4-17.7-0.5h-1.7c-6.9-0.1-13.6-0.2-20.3-0.7c-0.1-2.6,0-5.3,0.2-7.9
	v-0.6c0.1-2.6,0.3-5.1,0.1-7.6l-0.1-0.9l-0.9-0.1C18.9,6.4,14.4,6.3,10,6.3c-2,0-4-0.1-6-0.1H3v1C2.7,18,2.5,28.8,2.2,39.6v0.9
	c-0.3,12.4-0.6,24.8-1,37.2v0.9l0.9,0.1C2.8,78.9,3.9,79,5.3,79.1z M4.2,40.5v-0.9C4.4,29.2,4.7,18.7,5,8.2c1.7,0,3.4,0.1,5.1,0.1
	c4.2,0.1,8.1,0.1,12.2,0.4c0.1,2.1,0,4.3-0.1,6.5v0.6c-0.2,2.6-0.3,5.3-0.2,8.1l0.1,1.8l1.8,0.1c6.7,0.5,13.5,0.6,20.4,0.7H46
	c5.5,0.1,11.1,0.2,16.7,0.4c0,0.8,0,1.5,0,2.3c0,1.4,0,2.6-0.1,3.9L62,48.6c-0.3,7.8-7,14.5-15,15c-6.6,0.4-11.8-2.2-15.7-7.7
	c-1.9-2.7-2.2-5.9-2.4-8.9v-0.1c0-0.8-0.1-1.6-0.1-2.4c0-0.8-0.1-1.7-0.1-2.6L28.6,40h-1.9c-0.4,0-0.8,0-1.3-0.1
	c-0.5,0-1-0.1-1.5-0.1H22l-0.1,1.9c-0.2,6.1-0.4,12.2-0.6,18.2c-0.2,5.8-0.4,11.6-0.5,17.4c-0.7,0-1.5,0.1-2.4,0.1
	c-1.9,0-4.1,0-6.4,0c-2.3-0.1-4.6-0.2-6.4-0.3c-1-0.1-1.8-0.1-2.4-0.2C3.6,64.8,3.9,52.7,4.2,40.5z"/>
<path class="st0" d="M179.8,74.6l0.9-0.1l0.2-1.4c0.1-0.6,0.1-1,0.1-1.4c0-1.6,0.1-3.2,0.1-4.7v-2.3c0-1.6,0-3.2,0.1-4.8l0,0
	c0-1.1,0-2.1-0.1-3.3v-0.9l-0.9-0.1c-4.6-0.4-8-1.3-11.2-3l-0.1-0.1l0.1-0.3c0.2-0.6,0.3-1,0.5-1.4l0.1-0.1c1.4-2.7,2.9-5.4,4.3-8.1
	l0.1-0.1c3.7-7.1,5.3-13.7,4.9-20.2c-0.2-3-0.8-5.8-1.8-8.3c-1.1-2.6-2.6-5-4.5-7c-5.5-5.7-12.4-7.9-20.1-6.4
	c-4.4,0.9-8,2.6-10.9,5.2c-2.8,2.6-4.9,6.1-6.2,10.3c-0.7,2.4-0.8,4.8-0.9,6.6c0,0.9,0,1.8,0,2.7c0,1.3,0,2.7-0.1,4
	c0,0.2,0,0.4,0.1,0.7l0.2,0.9l1.1,0.1c1,0.1,2,0.1,2.9,0.1l0,0h1.4c4.9,0.1,10,0.2,15,0.2c0.4,0,0.7,0,1,0.1s0.4,0.1,0.5,0.3
	s0.2,0.4,0.2,0.6c0,0.3,0,0.6,0,1c-0.4,4.2-2.1,8.1-3.7,11.8c-0.3,0.7-0.6,1.3-0.9,2c-0.1,0.2-0.2,0.4-0.3,0.5s-0.2,0.2-0.2,0.2
	c-0.1,0.1-0.2,0.2-0.3,0.3l0,0l-1.3-0.3c-5-1.5-9.9-0.8-15,2.3c-3.8,2.4-6,6.5-5.8,10.9s2.7,8.3,6.4,10.2c7.1,3.6,14,3.4,20.4-0.8
	h0.1c0.4-0.2,0.7-0.5,1.1-0.7h0.1c0.4-0.3,0.8-0.5,1.1-0.8l0,0c6.3,4.8,13.2,5.6,19.7,5.6C178.8,74.6,179.3,74.6,179.8,74.6z
	 M158.7,66.6l-1.2,0.6c-0.5,0.3-0.9,0.6-1.3,0.9h-0.1c-0.3,0.2-0.7,0.5-1,0.7L155,69c-3.1,2-6.2,2.9-9.4,2.9c-2.9,0-5.9-0.8-8.9-2.4
	c-3.1-1.6-5.2-4.9-5.4-8.5c-0.2-3.7,1.6-7.1,4.8-9.1c4.6-2.7,8.9-3.4,13.3-2.1l2.6,0.6l0.8-0.8c0,0,0.1-0.1,0.2-0.2
	c0.1-0.1,0.2-0.2,0.3-0.3c0.3-0.3,0.6-0.6,0.8-1.1c0.3-0.7,0.6-1.3,0.9-2c1.6-3.7,3.5-7.9,3.9-12.5c0-0.4,0.1-0.9,0-1.3
	c0-0.5-0.1-1.1-0.6-1.7c-0.6-0.8-1.4-0.9-1.7-1c-0.5-0.1-1-0.1-1.4-0.1c-5,0-10.1-0.1-15-0.2h-1.4c-0.7,0-1.4,0-2.3-0.1
	c0-1.2,0-2.5,0-3.7c0-0.9,0-1.8,0-2.7c0.1-2.5,0.3-4.4,0.8-6.1c1.2-3.9,3.1-7.1,5.6-9.4c2.6-2.3,5.9-3.9,9.9-4.7
	c7-1.4,13.2,0.6,18.2,5.8c1.8,1.9,3.2,4,4.1,6.4c1,2.3,1.5,4.9,1.7,7.7c0.4,6-1.1,12.1-4.4,18.6l-0.3,0.6c-1.4,2.7-2.9,5.5-4.3,8.3
	c-0.4,0.7-0.6,1.3-0.8,1.9c0,0.1-0.1,0.2-0.1,0.3l-0.4,1.2l1.2,1l0.1,0.1c3.2,1.7,6.7,2.7,11.1,3.2c0,0.8,0,1.6,0,2.3
	c0,1.6-0.1,3.2-0.1,4.8V67c0,1.6,0,3.1-0.1,4.8c0,0.2,0,0.5-0.1,0.8c-6.4,0-13.1-0.6-19.1-5.2L158.7,66.6z"/>
<path class="st0" d="M124.8,59.6c0.1-4,0-8-0.1-12.2v-0.2c-0.1-1.6-0.3-3.2-0.4-4.8l-0.2-1.8h-0.9c-1.7,0.1-3.3,0.2-4.9,0.2
	c-4.5,0.2-8.7,0.4-13.1,0.7l0,0h-0.3c-0.4,0-0.7,0-1,0c-0.2,0-0.5,0-0.7-0.1c-0.1-0.1-0.2-0.2-0.3-0.5c-0.1-0.3-0.1-0.7-0.1-1.1
	c-0.2-2.9-0.4-5.8-0.7-8.8v-0.5c-0.2-3-0.5-6-0.7-8.9c-0.2-2.4-0.3-4.9-0.4-7.5c-0.1-2.5-0.3-5-0.4-7.5c-0.1-0.8-0.2-1.6-0.4-2.3
	L100,3.4l-1,0.4c-4.7,0.5-9.5,0.7-14.1,1H83c-5.1,0.3-10.5,0.6-15.8,1.3l-0.9,0.1l0.1,0.9c0.4,4.7,0.7,9.9,1.2,15.4l0.1,1l1-0.1
	c3.1-0.2,5.7-0.3,8.8-0.4c0.5,0,1,0,1.3,0c0.4,0,0.6,0.1,0.8,0.3c0.2,0.1,0.3,0.4,0.4,0.7c0.1,0.4,0.1,0.8,0.1,1.3
	c0.2,3.5,0.4,7,0.6,10.5c0.4,6.9,0.8,14,1.3,21c0.4,6.4,3.2,11.6,8.2,15.4c4.2,3.3,9,5,13.8,5c5.8,0,11.5-2.4,16-7
	C123.2,66.8,124.8,63.3,124.8,59.6z M91.3,70.8c-4.5-3.5-7-8.2-7.4-14c-0.5-7-0.9-14.1-1.3-21.1c-0.2-3.5-0.4-7-0.6-10.4
	c0-0.6-0.1-1.2-0.2-1.6c-0.2-0.8-0.5-1.4-1-1.8s-1.1-0.6-1.9-0.7c-0.2,0-0.4,0-0.6,0c-0.3,0-0.6,0-1,0c-2.8,0.1-5.1,0.2-7.9,0.3
	c-0.4-4.9-0.7-9.3-1-13.5c5-0.6,10-0.9,14.7-1.2L85,6.7c4.3-0.2,8.8-0.5,13.2-0.9c0.1,0.4,0.1,0.8,0.2,1.2c0.2,2.5,0.3,4.9,0.4,7.4
	v0.1c0.1,2.5,0.3,4.9,0.4,7.4c0.2,3,0.5,6,0.7,9.1v0.3c0.2,2.9,0.5,5.8,0.7,8.7c0,0.5,0.1,1,0.2,1.4c0.2,0.8,0.6,1.4,1.2,1.8
	c0.6,0.4,1.3,0.5,1.7,0.5c0.3,0,0.7,0,1.2,0h0.2c4.3-0.3,8.6-0.5,13.1-0.7c1.3-0.1,2.7-0.1,4-0.2c0.2,1.5,0.3,3,0.4,4.5v0.2
	c0.1,4.2,0.2,8.1,0.1,12v0.1c0,3.2-1.4,6.3-4.4,9.3C110.9,76.6,99.7,77.4,91.3,70.8z"/>
<path class="st0" d="M267.2,76c0-6.5-0.1-13.1-0.1-19.7v-0.2c0-6.8-0.1-13.6-0.1-20.5h0.9c6.4-0.1,12.5-0.2,18.8-0.2h0.8l0.3-1.3
	c0.1-0.3,0.1-0.6,0.1-0.9l-0.3-10.7l0,0c-0.1-5.1-2.1-9.8-5.8-13.4L281.7,9c-4.3-4.2-9.6-6.2-16.1-6.1c-8,0.1-15.1,4.8-18.8,12.6
	c-1.7,3.6-1.8,7.5-1.8,10.8c-0.1,4,0,8,0,11.9v0.2c0,3.9,0.1,8,0,12.1c0,3.2,0,6.3-0.1,9.5c0,3.2-0.1,6.3-0.1,9.5
	c0,2.4,0.1,4.8,0.2,7v0.9l0.9,0.1c0.8,0.1,2.1,0.2,3.6,0.2c1.2,0,2.7,0.1,4.2,0.1c0.9,0,1.8,0,2.7,0c2.5,0,4.9-0.1,6.7-0.2
	c1-0.1,1.8-0.1,2.5-0.2c0.2,0,0.4-0.1,0.6-0.1l0.9-0.1L267.2,76z M265,33.6v2c0.1,6.9,0.1,13.7,0.1,20.5v0.2c0,6.3,0,12.6,0.1,18.8
	c-0.6,0.1-1.3,0.1-2.1,0.2c-1.8,0.1-4.2,0.2-6.6,0.2c-2.5,0-4.9,0-6.8,0c-1,0-1.9-0.1-2.6-0.1c-0.1-1.9-0.1-4-0.1-6
	c0-3.2,0-6.3,0.1-9.5c0-3.2,0.1-6.3,0.1-9.5c0.1-4,0-8.1,0-12.1v-0.2c0-3.9-0.1-7.9,0-11.9c0-3.9,0.3-7.1,1.6-10
	c3.4-7.1,9.7-11.3,17-11.4c5.9-0.1,10.6,1.7,14.5,5.4l0.1,0.1c3.4,3.3,5.2,7.4,5.3,12.1l0.3,10.7c0,0,0,0,0,0.1
	c-6,0-11.9,0.1-18,0.2L265,33.6z"/>
<path class="st0" d="M206.4,119.7c-0.1-5.2-2.1-9.9-5.9-13.5c-4.3-4.2-9.6-6.2-16.1-6.1c-8,0.1-15.1,4.8-18.8,12.6
	c-1.7,3.6-1.8,7.5-1.8,10.8c-0.1,4,0,8.1,0,12.1c0,3.7,0.1,8,0,12.1c0,3.2,0,6.3-0.1,9.5c0,3.2-0.1,6.3-0.1,9.5c0,2.4,0.1,4.8,0.2,7
	v0.9l0.9,0.1c0.9,0.1,2.1,0.2,3.6,0.2c1.3,0,2.7,0.1,4.2,0.1c0.9,0,1.8,0,2.7,0c2.5,0,4.9-0.1,6.7-0.2c1-0.1,1.8-0.1,2.5-0.2
	c0.2,0,0.4-0.1,0.6-0.1l0.9-0.1v-0.9c0-6.5-0.1-13.1-0.1-19.7v-0.1c0-6.8-0.1-13.7-0.1-20.7h0.9c6.1-0.1,12.4-0.2,18.8-0.2h0.8
	l0.3-1.3c0.1-0.4,0.1-0.6,0.1-0.8L206.4,119.7L206.4,119.7z M204.7,130.6c-6.2,0-12.2,0.1-18,0.2h-2.9v2c0.1,6.9,0.1,13.8,0.1,20.6
	v0.1c0,6.3,0.1,12.6,0.1,18.8c-0.6,0.1-1.3,0.1-2.1,0.2c-1.8,0.1-4.2,0.2-6.6,0.2c-2.5,0-4.9,0-6.8,0c-1,0-1.9-0.1-2.6-0.1
	c-0.1-1.9-0.1-4-0.1-6c0-3.2,0-6.3,0.1-9.5c0-3.2,0.1-6.3,0.1-9.5c0.1-4.1,0-8.4,0-12.1c0-3.9-0.1-8,0-12c0-3.9,0.3-7.1,1.6-10
	c3.4-7.1,9.7-11.3,17-11.4c5.9-0.1,10.7,1.7,14.7,5.5c3.4,3.3,5.2,7.4,5.3,12.1l0.3,10.7C204.7,130.5,204.7,130.6,204.7,130.6z
	 M205.5,131L205.5,131h0.1H205.5z"/>
<path class="st0" d="M236.1,67.9l0-0.2c0-0.5,0-1-0.1-1.5c0-0.5-0.1-1-0.1-1.5l-0.1-1.8c-0.4-11-0.8-22.5-1.3-34l0-1.1
	c-0.1-3.9-0.3-7.4-1.4-11.1c-2.9-10.5-14-17.9-24.7-16.4c-7.4,1.1-15.9,7-17.7,16.1c-0.4,2.1-0.6,4.1-0.5,6.2
	c0.1,2.6,0.2,5.2,0.3,7.9l0.3,7.9c0.1,2.5,0.2,5,0.3,7.5c0.1,2.5,0.2,5,0.3,7.5l0.6,15.4c0,1.3,0.1,2.7,0.2,4.2l0.1,2l43.6-1.7
	l0.1-0.9c0.1-0.6,0.1-1.3,0.1-1.9C236.3,69.8,236.2,68.9,236.1,67.9z M193,38.5l-0.3-8c-0.1-2.6-0.2-5.2-0.3-7.8
	c0-1.9,0.1-3.9,0.5-5.7c1.5-8.2,9.1-13.6,15.9-14.6c0.9-0.1,1.7-0.2,2.6-0.2c8.9,0,17.5,6.3,19.9,15.1c1,3.5,1.2,7.1,1.3,10.7l0,1.1
	c0.5,11.6,0.9,23.1,1.3,34.2l0.1,1.5c0,1,0.1,1.9,0.2,2.9l0,0.2c0.1,0.9,0.2,1.9,0.2,2.9c0.1,0.2,0.1,0.5,0,0.7l-18.3,0.7l-2.7-50.6
	l0-0.3l-2.1,0.1l2.7,50.8l-19.5,0.8l0-0.1c-0.1-1.4-0.2-2.8-0.2-4.1c-0.1-2.5-0.2-5-0.3-7.5c-0.1-2.5-0.2-5-0.3-7.5L193,38.5z"/>
<path class="st0" d="M260.4,168.3l0-0.2c0-0.5,0-1,0-1.5c0-0.5,0-1,0-1.5l0-1.8c-0.1-11-0.2-22.5-0.4-34l0-1.1
	c0-3.9-0.1-7.4-1.1-11.1c-2.6-10.6-13.5-18.3-24.3-17c-7.5,0.9-16.1,6.6-18.1,15.6c-0.4,2.1-0.7,4.1-0.7,6.2c0,2.6,0.1,5.2,0.1,7.9
	l0.1,7.9c0,2.5,0.1,5,0.1,7.6c0,2.5,0.1,5,0.1,7.6l0.2,15.4c0,1.3,0,2.7,0.1,4.2l0.1,2l43.6-0.6l0.1-0.9c0.1-0.6,0.2-1.2,0.2-1.9
	C260.5,170.2,260.5,169.3,260.4,168.3z M218.1,137.8l-0.1-8c0-2.6-0.1-5.3-0.1-7.8c0-1.9,0.2-3.9,0.7-5.7
	c1.7-8.2,9.5-13.3,16.3-14.2c0.9-0.1,1.8-0.1,2.6-0.1c8.9,0.2,17.4,6.8,19.5,15.6c0.9,3.5,1,7.1,1,10.7l0,1.1
	c0.2,11.6,0.3,23.1,0.4,34.3l0,1.5c0,1,0,1.9,0.1,2.9l0,0.2c0.1,0.9,0.1,1.9,0.1,2.9c0,0.2,0.1,0.5,0,0.7l-18.3,0.2l-1.4-50.6l0-0.3
	l-2.1,0.1l1.4,50.9l-19.5,0.2l0-0.1c0-1.4-0.1-2.8-0.1-4.1c0-2.5-0.1-5-0.1-7.6c0-2.5-0.1-5-0.1-7.5L218.1,137.8z"/>
</svg>
