<svg width="319" height="36" viewBox="0 0 319 36" fill="none" xmlns="http://www.w3.org/2000/svg">
<path d="M298.535 1.25784C305.147 1.0648 311.614 0.871754 318.129 0.678711C318.178 1.0648 318.178 1.40262 318.178 1.69219C318.226 5.21522 318.322 8.73826 318.371 12.3096C318.419 16.2669 318.467 20.2243 318.467 24.1817C318.467 25.6295 318.274 26.9808 317.695 28.3321C316.681 30.7452 314.896 32.4343 312.531 33.3513C308.381 34.9921 304.616 34.2682 301.431 31.083C300.176 29.8282 299.404 28.2356 299.018 26.45C298.391 23.4578 298.68 20.4656 298.584 17.4735C298.487 12.7922 298.439 8.15914 298.391 3.47784C298.391 2.75393 298.487 2.07828 298.535 1.25784Z" fill="white"/>
<path d="M157.807 23.5064C158.917 23.2168 160.075 23.5064 161.233 23.3134C161.716 22.4447 161.426 21.5277 161.571 20.5142C160.461 20.5142 159.448 20.5142 158.386 20.5142C158.82 18.1977 159.979 16.6534 162.536 14.7712C160.509 12.4547 159.544 9.80033 160.268 6.71164C160.799 4.49164 161.957 2.75425 163.791 1.45121C167.073 -0.865308 171.706 -0.286177 174.553 2.31991C177.208 4.73295 178.655 9.89685 175.229 14.0955C181.551 18.3425 181.744 25.5816 179.042 29.9733C176.291 34.4133 170.451 36.7781 165.287 34.8477C159.689 32.8207 157.228 27.126 157.807 23.5064Z" fill="white"/>
<path d="M206.116 23.1683C209.928 22.927 213.451 22.6857 217.071 22.4444C216.974 21.7205 216.492 21.4792 216.106 21.1897C214.272 19.6453 212.341 18.101 210.556 16.5084C209.349 15.4466 208.384 14.1436 207.708 12.6475C206.888 10.8618 206.84 8.97968 207.322 7.09751C208.336 3.33316 210.845 1.01664 214.61 0.244469C219.58 -0.769007 223.924 1.74056 225.854 5.93925C226.53 7.33881 226.916 8.83489 226.627 10.5723C223.538 10.7653 220.401 10.9101 217.023 11.1031C217.409 11.5375 217.602 11.8753 217.843 12.1166C219.58 13.661 221.318 15.1571 223.055 16.7014C224.31 17.8114 225.565 18.9697 226.482 20.4175C228.123 23.0718 228.123 25.7262 226.627 28.4288C224.358 32.4827 220.739 34.2683 216.25 33.9788C211.81 33.6409 208.625 31.2279 207.033 27.0292C206.598 25.8227 206.454 24.5679 206.116 23.1683Z" fill="white"/>
<path d="M194.34 23.5549C194.099 27.1745 193.858 30.6493 193.616 34.2206C192.941 34.2206 192.265 34.2206 191.638 34.2206C189.611 34.1241 187.584 33.9793 185.557 33.8345C185.122 33.7862 184.399 33.931 184.302 33.6897C184.061 33.2554 184.157 32.6762 184.157 32.1454C184.447 27.1745 184.785 22.1554 185.074 17.1845C185.316 12.455 185.509 7.72541 185.798 2.99585C185.846 2.46498 185.509 1.83759 186.136 1.35498C189.128 1.49976 192.217 1.59629 195.402 1.74107C195.257 4.25063 195.064 6.61541 194.919 9.02845C195.788 9.51106 196.705 9.41453 197.525 9.51106C199.408 9.7041 201 10.428 202.255 11.8758C203.172 12.9858 203.751 14.2406 203.944 15.6402C204.089 16.7984 204.089 17.9567 204.089 19.115C204.041 20.7076 203.896 22.3484 203.751 24.0858C200.614 23.8445 197.574 23.6997 194.34 23.5549Z" fill="white"/>
<path d="M286.856 1.25781C286.905 4.29824 287.001 7.19388 287.05 10.2343C289.607 10.4756 292.117 10.2826 294.771 10.3308C294.868 13.0817 294.82 15.7843 294.82 18.5352C292.31 19.0178 289.8 18.6317 287.339 18.873C287.436 23.9404 287.58 28.9595 287.677 34.1234C284.54 34.2199 281.5 34.2682 278.314 34.3647C278.314 33.496 278.314 32.7721 278.314 32.0482C278.218 27.3186 278.17 22.5891 278.073 17.8595C278.025 14.3847 277.928 10.91 277.832 7.48345C277.783 5.79432 277.687 4.10519 277.639 2.41606C277.639 2.17476 277.687 1.98172 277.687 1.59563C280.727 1.30607 283.72 1.16128 286.856 1.25781Z" fill="white"/>
<path d="M10.3278 3.04982C7.1426 2.80851 4.05391 2.85678 0.820433 2.76025C0.530869 13.7637 0.289565 24.5741 0 35.3363C1.25478 35.7224 8.15607 35.8672 9.6039 35.5776C9.79694 30.0276 9.94172 24.4294 10.1348 18.7828C10.5691 18.7828 10.9552 18.8311 11.3895 18.8311C11.4378 19.6515 11.4378 20.3754 11.4861 21.1476C11.5826 22.7402 11.7756 24.2846 12.7409 25.6359C14.6713 28.3385 17.2291 29.6898 20.6074 29.4967C24.5165 29.2554 28.0395 26.022 28.1843 21.8715C28.2808 19.555 28.3773 17.2385 28.4739 14.922C28.5221 13.7637 28.4739 12.5572 28.5221 11.2542C22.393 10.9163 16.3121 11.1094 10.2313 10.675C10.0865 8.1172 10.5691 5.60764 10.3278 3.04982Z" fill="white"/>
<path d="M105.643 29.0144C105.401 23.6092 105.16 18.2522 104.919 12.847C104.822 11.0131 104.774 9.17918 104.243 7.34527C102.892 2.42266 97.7762 -0.617765 93.1915 0.106147C90.0063 0.588755 86.1454 3.14658 85.4215 7.29701C85.2767 8.21396 85.1802 9.13092 85.1802 10.0479C85.2284 12.4126 85.4215 14.8257 85.518 17.1905C85.7593 21.7752 85.9523 26.36 86.1454 30.9448C86.1937 31.7652 86.2419 32.6339 86.3384 33.5991C92.8536 33.3096 99.2723 33.02 105.788 32.7304C105.836 32.2961 105.884 32.0065 105.884 31.6687C105.836 30.7517 105.691 29.8831 105.643 29.0144Z" fill="white"/>
<path d="M274.357 30.6491C274.357 25.2439 274.405 19.887 274.405 14.4818C274.405 12.6479 274.405 10.814 274.019 8.98004C272.909 4.00918 267.938 0.727444 263.305 1.21005C260.071 1.54788 256.162 3.91266 255.197 8.01483C255.004 8.88352 254.859 9.84874 254.811 10.7657C254.763 13.1305 254.811 15.5435 254.811 17.9083C254.811 22.4931 254.811 27.0778 254.811 31.6626C254.811 32.4831 254.859 33.3517 254.859 34.317C261.374 34.317 267.793 34.3652 274.308 34.3652C274.357 33.9791 274.453 33.6413 274.453 33.3035C274.453 32.4348 274.357 31.5661 274.357 30.6491Z" fill="white"/>
<path d="M75.4794 23.7056C75.5759 23.3677 75.6242 23.1747 75.769 22.9334C76.4446 21.6786 77.1203 20.4238 77.7477 19.1691C79.2437 16.3217 80.1607 13.3295 79.9677 10.096C79.8229 7.44168 78.9059 5.0769 77.1203 3.19473C74.659 0.636909 71.5703 -0.376568 68.0955 0.299084C64.1381 1.07126 61.5803 3.43604 60.422 7.2969C59.8429 9.27559 60.0842 11.2543 59.9877 13.2812C59.9877 13.4743 60.0842 13.7156 60.1807 14.0051C60.8081 14.0534 61.3873 14.1017 61.9181 14.1017C64.3794 14.1499 66.8407 14.1982 69.302 14.1982C70.1225 14.1982 70.1225 14.2947 70.0742 15.0669C69.8812 17.2869 68.8677 19.2656 67.999 21.2925C67.9507 21.4373 67.7577 21.5821 67.6129 21.7269C67.4199 21.6786 67.2268 21.6304 67.0338 21.5821C64.6207 20.8582 62.4007 21.3408 60.2773 22.5956C56.5129 24.9604 56.9955 30.269 60.5668 32.103C63.7038 33.6956 66.7442 33.6956 69.7364 31.7651C70.1225 31.5238 70.4603 31.2343 70.7981 31.0412C73.7903 33.3095 77.1203 33.6473 80.7398 33.5508C80.7881 33.1164 80.8846 32.6821 80.8846 32.296C80.9329 30.5103 80.9329 28.773 80.9811 26.9873C80.9811 26.4082 80.9811 25.7808 80.9329 25.1051C79.0024 24.9604 77.2168 24.6225 75.4794 23.7056Z" fill="white"/>
<path d="M55.2587 18.3009C52.3148 18.4456 49.5156 18.5422 46.7165 18.7352C45.7513 18.7835 45.703 18.8317 45.6548 17.963C45.4617 15.2604 45.2204 12.5096 45.0274 9.80695C44.8826 7.58696 44.7861 5.3187 44.6413 3.0987C44.593 2.61609 44.4965 2.13349 44.4 1.65088C39.2843 2.18175 34.2652 2.13349 29.2461 2.80914C29.4391 5.41522 29.6322 7.92478 29.8735 10.5791C31.5144 10.4826 32.8657 10.4343 34.2652 10.3861C35.2787 10.3378 35.3752 10.3861 35.4235 11.3996C35.713 16.1291 35.9543 20.8587 36.2922 25.5882C36.4852 28.4356 37.74 30.8004 39.96 32.5378C43.8209 35.5782 49.4191 35.6747 53.3765 31.6208C54.6313 30.3178 55.5965 28.7252 55.5965 26.7948C55.6448 24.9608 55.5965 23.1269 55.5482 21.2448C55.5 20.2313 55.3552 19.2178 55.2587 18.3009Z" fill="white"/>
<path d="M129.001 14.922C128.952 13.3294 128.904 11.6885 128.856 10.0959C128.807 7.73116 127.891 5.65594 126.201 4.01508C124.174 2.03638 121.761 1.21595 118.962 1.26421C115.15 1.31247 112.109 3.58073 110.517 6.91072C109.793 8.45507 109.696 10.0959 109.696 11.7851C109.648 15.4046 109.744 19.0242 109.696 22.6437C109.696 25.4911 109.648 28.3385 109.648 31.1859C109.648 32.3924 109.696 33.5507 109.744 34.7089C111.192 34.9985 118.673 34.902 119.686 34.5642C119.638 28.435 119.638 22.2577 119.59 15.9838C122.727 15.9355 125.719 15.8872 128.807 15.8872C128.904 15.4046 129.001 15.1633 129.001 14.922Z" fill="white"/>
<path d="M250.467 14.6749C250.419 13.0823 250.371 11.4415 250.323 9.84886C250.274 7.48408 249.357 5.40887 247.668 3.768C245.641 1.78931 243.228 0.968881 240.429 1.01714C236.616 1.0654 233.576 3.33366 231.983 6.66365C231.26 8.208 231.163 9.84886 231.163 11.538C231.115 15.1575 231.211 18.7771 231.163 22.3967C231.163 25.2441 231.115 28.0914 231.115 30.9388C231.115 32.1453 231.163 33.3036 231.211 34.4619C232.659 34.7514 240.14 34.6549 241.153 34.3171C241.105 28.188 241.105 22.0106 241.056 15.7367C244.193 15.6884 247.186 15.6402 250.274 15.6402C250.371 15.1093 250.467 14.9162 250.467 14.6749Z" fill="white"/>
</svg>
