<?xml version="1.0" encoding="utf-8"?>
<!-- Generator: Adobe Illustrator 24.1.1, SVG Export Plug-In . SVG Version: 6.00 Build 0)  -->
<svg version="1.1" id="Layer_1" xmlns="http://www.w3.org/2000/svg" xmlns:xlink="http://www.w3.org/1999/xlink" x="0px" y="0px"
	 viewBox="0 0 136 40" style="enable-background:new 0 0 136 40;" xml:space="preserve">
<style type="text/css">
	.st0{fill:#FFFFFF;}
</style>
<path class="st0" d="M11,2.8C7.6,2.5,4.3,2.5,0.8,2.4C0.6,14.2,0.3,25.8,0,37.3c1.3,0.4,8.7,0.6,10.2,0.3c0.2-5.9,0.4-11.9,0.6-18
	c0.5,0,0.9,0.1,1.3,0.1c0.1,0.9,0.1,1.7,0.1,2.5c0.1,1.7,0.3,3.4,1.3,4.8c2.1,2.9,4.8,4.3,8.4,4.1c4.2-0.3,7.9-3.7,8.1-8.2
	c0.1-2.5,0.2-5,0.3-7.4c0.1-1.2,0-2.5,0.1-3.9c-6.5-0.4-13-0.2-19.5-0.6C10.8,8.1,11.3,5.5,11,2.8z"/>
<path class="st0" d="M111.9,33.9c0,0.4,0,0.7-0.1,1.1c-3.2,0.1-6.3,0.3-9.5,0.4l-1.7-25.8l-0.8,0.1l1.7,25.8
	c-3.5,0.2-6.9,0.3-10.4,0.5h0c-0.1-1-0.2-2-0.2-2.8c-0.2-4.9-0.4-9.8-0.7-14.7c0-0.3,0-0.7,0-1c0-0.8-0.1-1.5-0.1-2.3
	c0-0.2,0-0.5,0-0.7c0-0.6-0.1-1.1-0.1-1.7c0-0.6-0.1-1.3-0.1-1.9c0-1,0.1-2,0.3-2.9c0.8-4.5,4.9-7.2,8.3-7.7
	c4.9-0.8,10.3,2.5,11.8,7.8c0.6,2,0.6,3.9,0.7,5.9c0.3,5.8,0.5,11.5,0.8,17.3C111.7,32,111.8,32.9,111.9,33.9z"/>
<path class="st0" d="M78.9,29.2c0.1-0.4,0.2-0.6,0.3-0.8c0.7-1.3,1.4-2.7,2.1-4c1.6-3.1,2.6-6.3,2.4-9.7c-0.2-2.8-1.1-5.4-3-7.4
	c-2.6-2.7-5.9-3.8-9.6-3.1c-4.2,0.8-6.9,3.4-8.2,7.5c-0.6,2.1-0.4,4.2-0.5,6.4c0,0.2,0.1,0.5,0.2,0.8c0.7,0.1,1.3,0.1,1.9,0.1
	c2.6,0.1,5.2,0.1,7.9,0.1c0.9,0,0.9,0.1,0.8,0.9c-0.2,2.4-1.3,4.5-2.2,6.7c-0.1,0.2-0.3,0.3-0.4,0.5c-0.2-0.1-0.4-0.1-0.6-0.2
	c-2.6-0.8-4.9-0.3-7.2,1.1c-4,2.5-3.5,8.2,0.3,10.2c3.3,1.7,6.6,1.7,9.8-0.4c0.4-0.3,0.8-0.6,1.1-0.8c3.2,2.4,6.7,2.8,10.6,2.7
	c0.1-0.5,0.2-0.9,0.2-1.3c0.1-1.9,0.1-3.8,0.1-5.7c0-0.6,0-1.3-0.1-2C82.7,30.6,80.8,30.1,78.9,29.2z"/>
<path class="st0" d="M57.4,18.2c-3.1,0.2-6.1,0.3-9.1,0.5c-1,0.1-1.1,0.1-1.1-0.8c-0.2-2.9-0.5-5.8-0.7-8.7
	c-0.2-2.4-0.3-4.8-0.4-7.2c-0.1-0.5-0.2-1-0.3-1.6C40.3,0.9,35,0.8,29.6,1.6c0.2,2.7,0.4,5.5,0.6,8.3c1.7-0.1,3.2-0.2,4.7-0.2
	c1.1-0.1,1.2,0,1.2,1.1c0.3,5.1,0.6,10.1,0.9,15.2c0.2,3.1,1.5,5.6,3.9,7.4c4.1,3.3,10.1,3.4,14.3-1c1.3-1.4,2.4-3.1,2.4-5.2
	c0.1-2,0-3.9-0.1-5.9C57.6,20.2,57.5,19.1,57.4,18.2z"/>
<path class="st0" d="M136,18.6c-0.1-1.7-0.1-3.5-0.2-5.2c-0.1-2.5-1-4.8-2.8-6.5c-2.2-2.1-4.7-3-7.7-2.9c-4.1,0.1-7.3,2.5-9,6
	c-0.8,1.7-0.9,3.4-0.9,5.2c-0.1,3.9,0.1,7.8,0,11.6c0,3.1-0.1,6.1-0.1,9.2c0,1.3,0.1,2.5,0.1,3.8c1.5,0.3,9.5,0.2,10.6-0.2
	c-0.1-6.6-0.1-13.2-0.1-19.9c3.3-0.1,6.5-0.1,9.8-0.1C135.9,19.1,136,18.9,136,18.6z"/>
</svg>
