<svg width="85" height="84" viewBox="0 0 85 84" fill="none" xmlns="http://www.w3.org/2000/svg">
<path d="M63.6611 58.6964C71.5193 48.1074 72.4395 35.7013 70.6824 27.6239C69.1142 20.5016 59.5885 13.5849 54.9259 11.9078C50.8709 10.4418 46.5113 8.68399 46.4881 8.65773L46.4588 8.7304C46.0986 8.53446 45.709 8.41119 45.3921 8.31721C41.4315 7.32875 35.2869 11.1215 28.5066 18.748C18.4135 30.1429 17.8991 40.4142 18.5633 48.1015C18.7572 50.174 19.4564 51.7066 20.6871 52.6761L20.6052 52.7951C20.7011 52.8507 22.3555 54.1938 24.087 55.0948C24.2555 55.1796 24.424 55.2645 24.5926 55.3493C22.4924 56.7841 19.5311 58.0915 15.6916 58.3518L15.805 60.1215C20.3927 59.8079 23.7944 58.2049 26.1371 56.4622C26.9381 57.157 27.4855 57.9354 27.7099 58.7189C27.7926 60.9831 28.3901 63.3536 30.0369 65.2175C30.3152 65.5326 30.6198 65.8244 30.9507 66.093C31.4007 66.4434 31.9031 66.7474 32.4875 66.9324C38.8972 70.0576 55.2884 69.9737 63.6611 58.6964ZM26.1009 54.2504C25.8133 54.0838 25.5752 53.9202 25.3108 53.7798C25.8611 53.7143 26.3882 53.6226 26.892 53.5047C26.6525 53.763 26.3898 53.9951 26.1009 54.2504ZM27.497 55.3542C27.6284 55.2382 27.786 55.0989 27.9174 54.9829C27.8788 55.2039 27.8402 55.425 27.8248 55.6723C27.7321 55.5673 27.6161 55.436 27.497 55.3542ZM36.0669 65.2658C34.3281 65.6802 32.9724 65.5223 32.0524 64.7457C27.4 60.9093 30.4097 52.0329 30.4653 51.937L31.1618 49.9193L29.267 50.8454C29.2407 50.8687 24.7371 53.0245 22.1722 51.5509C21.0915 50.9631 20.4728 49.7334 20.3099 47.9607C19.6025 40.1714 20.213 30.7502 29.824 19.9214C35.9383 13.0235 41.7599 9.23574 44.9877 10.0302C46.2584 10.3566 47.1599 11.4299 47.5933 13.2441C47.6475 13.5702 48.1092 16.5281 47.9708 18.7539C47.8324 20.9798 48.6674 21.9249 49.1668 22.2783C49.7853 22.7136 50.5272 22.7593 51.215 22.4788L51.317 22.4355C51.4453 22.3689 54.2534 20.7293 57.0935 22.5674C59.8116 24.3732 60.4161 34.2167 55.2249 46.236C51.1101 55.7147 41.8136 63.8815 36.0669 65.2658ZM46.9881 66.5087C43.549 67.1164 40.2751 67.0639 37.6456 66.6291C44.545 64.273 53.0546 55.586 56.7971 46.9037C62.3344 34.1113 61.7265 23.5228 58.0035 21.109C57.0743 20.4808 56.1004 20.1727 55.2393 20.0452C56.0694 19.8728 57.0447 19.7591 58.1855 19.7796L58.2204 18.0191C54.8476 17.9605 52.6065 18.8653 51.262 19.726C51.7206 18.3391 52.0678 16.3496 51.6388 14.064L49.9062 14.3794C50.2638 16.2138 49.9645 17.8339 49.6171 19.029C49.6202 18.9795 49.6232 18.9301 49.6263 18.8806C49.7832 16.358 49.2411 13.0972 49.224 12.972L49.2039 12.8963C49.063 12.3663 48.9191 11.8858 48.7459 11.4779C50.3212 12.0961 52.3588 12.867 54.3005 13.5823C58.524 15.1331 67.5302 21.6207 68.9436 28.0383C70.6496 35.7401 69.7631 47.6021 62.2588 57.6916C57.8738 63.529 51.5308 65.7207 46.9881 66.5087Z" fill="white"/>
<path d="M46.9882 66.5087C43.5491 67.1164 40.2752 67.0639 37.6457 66.629C44.5452 64.273 53.0547 55.586 56.7972 46.9037C62.3345 34.1113 61.7266 23.5228 58.0036 21.109C57.0744 20.4808 56.1005 20.1726 55.2395 20.0452C56.0695 19.8728 57.0448 19.7591 58.1856 19.7796L58.2205 18.0191C54.8477 17.9605 52.6066 18.8653 51.2621 19.726C51.7208 18.3391 52.0679 16.3496 51.639 14.064L49.9063 14.3794C50.2639 16.2138 49.9646 17.8339 49.6172 19.029C49.6203 18.9795 49.6234 18.9301 49.6264 18.8806C49.7833 16.358 49.2412 13.0972 49.2241 12.972L49.204 12.8963C49.0632 12.3663 48.9193 11.8857 48.746 11.4779C50.3213 12.0961 52.3589 12.867 54.3006 13.5823C58.5241 15.1331 67.5303 21.6207 68.9437 28.0383C70.6497 35.7401 69.7632 47.6021 62.2589 57.6915C57.8739 63.529 51.5309 65.7206 46.9882 66.5087Z" fill="#56BB7F"/>
<path d="M27.8245 55.6723C27.7317 55.5673 27.6389 55.4623 27.4967 55.3543C27.628 55.2382 27.7856 55.099 27.917 54.9829C27.8784 55.204 27.8399 55.425 27.8245 55.6723Z" fill="#56BB7F"/>
<path d="M26.1005 54.2504C25.8129 54.0837 25.5748 53.9201 25.3104 53.7797C25.8607 53.7143 26.3878 53.6226 26.8917 53.5046C26.6521 53.763 26.3894 53.995 26.1005 54.2504Z" fill="#56BB7F"/>
<path d="M55.2016 46.2096C60.3929 34.1903 59.7883 24.3468 57.0703 22.541C54.2564 20.6797 51.422 22.3425 51.2937 22.4091L51.1917 22.4524C50.4777 22.7561 49.7388 22.661 49.1435 22.2519C48.6441 21.8985 47.8091 20.9534 47.9475 18.7275C48.0859 16.5017 47.6243 13.5438 47.5701 13.2177C47.1134 11.3773 46.2614 10.307 44.9644 10.0038C41.7366 9.20934 35.9645 13.0002 29.8007 19.895C20.1897 30.7238 19.5792 40.145 20.2866 47.9343C20.4495 49.707 21.0682 50.9367 22.1489 51.5245C24.7401 52.9749 29.2174 50.8422 29.2437 50.819L31.1385 49.8929L30.442 51.9106C30.4127 51.9833 27.403 60.8597 32.0291 64.7193C32.9491 65.4959 34.3048 65.6537 36.0436 65.2394C41.8135 63.8814 51.11 55.7145 55.2016 46.2096ZM33.7051 47.3448L34.1325 44.8636C34.168 44.692 34.6185 42.2371 36.3689 39.2415C35.9455 39.6624 35.4958 40.1064 34.9967 40.5474L33.1315 42.1953L33.5589 39.7141C33.5943 39.5425 34.3797 35.2959 38.5692 32.2021L40.0775 31.1033L39.9607 32.9829C39.9545 33.0818 39.8698 34.0448 39.0526 35.6082C39.9056 34.6677 40.9332 33.713 42.1293 32.8432L43.6376 31.7444L43.5208 33.624C43.5085 33.8218 43.0867 39.0094 35.5471 45.6706L33.682 47.3185L33.7051 47.3448Z" fill="#56BB7F"/>
<path d="M43.521 33.6239L43.6378 31.7443L42.1295 32.8431C40.9334 33.7129 39.9321 34.6444 39.0529 35.6082C39.87 34.0447 39.9316 33.0555 39.9609 32.9828L40.0778 31.1032L38.5695 32.2021C34.3799 35.2958 33.5946 39.5424 33.5591 39.714L33.1317 42.1952L34.9969 40.5473C35.496 40.1063 35.9457 39.6623 36.3691 39.2415C34.6188 42.237 34.1682 44.6919 34.1327 44.8635L33.7054 47.3447L35.5705 45.6968C43.1101 39.0355 43.5056 33.8712 43.521 33.6239ZM40.8987 36.2679C40.2391 37.6921 39.0511 39.6299 37.0269 41.839C37.7745 40.1968 38.9919 38.1863 40.8987 36.2679Z" fill="white"/>
<path d="M37.0266 41.8392C37.7974 40.2233 38.9916 38.1865 40.8984 36.2681C40.2126 37.7154 39.0508 39.6301 37.0266 41.8392Z" fill="white"/>
</svg>
