<?xml version="1.0" encoding="utf-8"?>
<!-- Generator: Adobe Illustrator 24.1.1, SVG Export Plug-In . SVG Version: 6.00 Build 0)  -->
<svg version="1.1" id="Layer_1" xmlns="http://www.w3.org/2000/svg" xmlns:xlink="http://www.w3.org/1999/xlink" x="0px" y="0px"
	 viewBox="0 0 178 89" style="enable-background:new 0 0 178 89;" xml:space="preserve">
<style type="text/css">
	.st0{fill:#FFFFFF;}
</style>
<path class="st0" d="M155.9,50.1c7.3-0.2,14.5-0.4,21.7-0.6c0.1,0.4,0.1,0.8,0.1,1.1c0.1,3.9,0.2,7.8,0.2,11.8
	c0.1,4.4,0.1,8.8,0.1,13.1c0,1.6-0.2,3.1-0.9,4.6c-1.1,2.7-3.1,4.5-5.7,5.6c-4.6,1.8-8.8,1-12.3-2.5c-1.4-1.4-2.2-3.2-2.7-5.1
	c-0.7-3.3-0.4-6.6-0.5-9.9c-0.1-5.2-0.2-10.3-0.2-15.5C155.8,51.8,155.9,51,155.9,50.1z"/>
<path class="st0" d="M0.1,74.8c1.2-0.3,2.5,0,3.8-0.2c0.5-1,0.2-2,0.4-3.1c-1.2,0-2.4,0-3.5,0c0.5-2.6,1.8-4.3,4.6-6.4
	c-2.2-2.6-3.3-5.5-2.5-8.9c0.6-2.5,1.9-4.4,3.9-5.8c3.6-2.6,8.8-1.9,11.9,1c2.9,2.7,4.5,8.4,0.7,13c7,4.7,7.2,12.7,4.2,17.6
	c-3,4.9-9.5,7.5-15.2,5.4C2.2,85.1-0.5,78.8,0.1,74.8z"/>
<path class="st0" d="M53.6,74.4c4.2-0.3,8.1-0.5,12.1-0.8c-0.1-0.8-0.6-1.1-1.1-1.4c-2-1.7-4.2-3.4-6.1-5.2
	c-1.3-1.2-2.4-2.6-3.2-4.3c-0.9-2-1-4.1-0.4-6.1c1.1-4.2,3.9-6.7,8.1-7.6c5.5-1.1,10.3,1.7,12.5,6.3c0.7,1.5,1.2,3.2,0.9,5.1
	c-3.4,0.2-6.9,0.4-10.6,0.6c0.4,0.5,0.6,0.9,0.9,1.1c1.9,1.7,3.8,3.4,5.8,5.1c1.4,1.2,2.8,2.5,3.8,4.1c1.8,2.9,1.8,5.9,0.2,8.9
	c-2.5,4.5-6.5,6.5-11.5,6.1c-4.9-0.4-8.4-3-10.2-7.7C54.1,77.3,54,76,53.6,74.4z"/>
<path class="st0" d="M40.5,74.8c-0.3,4-0.5,7.9-0.8,11.8c-0.7,0-1.5,0-2.2,0c-2.2-0.1-4.5-0.3-6.7-0.4c-0.5-0.1-1.3,0.1-1.4-0.2
	c-0.3-0.5-0.2-1.1-0.2-1.7c0.3-5.5,0.7-11.1,1-16.6c0.3-5.2,0.5-10.5,0.8-15.7c0.1-0.6-0.3-1.3,0.4-1.8c3.3,0.2,6.7,0.3,10.3,0.4
	c-0.2,2.8-0.4,5.4-0.5,8.1c1,0.5,2,0.4,2.9,0.5c2.1,0.2,3.8,1,5.2,2.6c1,1.2,1.7,2.6,1.9,4.2c0.2,1.3,0.2,2.6,0.2,3.8
	c-0.1,1.8-0.2,3.6-0.4,5.5C47.5,75.2,44.1,75,40.5,74.8z"/>
<path class="st0" d="M143,50.1c0.1,3.4,0.2,6.6,0.2,9.9c2.8,0.3,5.6,0.1,8.6,0.1c0.1,3,0.1,6,0.1,9.1c-2.8,0.5-5.6,0.1-8.3,0.4
	c0.1,5.6,0.3,11.2,0.4,16.9c-3.5,0.1-6.8,0.2-10.4,0.3c0-1,0-1.8,0-2.6c-0.1-5.2-0.2-10.5-0.3-15.7c-0.1-3.8-0.2-7.7-0.3-11.5
	c-0.1-1.9-0.2-3.7-0.2-5.6c0-0.3,0.1-0.5,0.1-0.9C136.2,50.2,139.5,50,143,50.1z"/>
<path class="st0" d="M11.7,3.4C8.2,3.1,4.8,3.2,1.2,3.1C0.9,15.2,0.6,27.2,0.3,39.1c1.4,0.4,9,0.6,10.6,0.3
	c0.2-6.1,0.4-12.3,0.6-18.6c0.5,0,0.9,0.1,1.4,0.1c0.1,0.9,0.1,1.7,0.1,2.6c0.1,1.8,0.3,3.5,1.4,5c2.1,3,5,4.5,8.7,4.3
	c4.3-0.3,8.2-3.8,8.4-8.4c0.1-2.6,0.2-5.1,0.3-7.7c0.1-1.3,0-2.6,0.1-4.1c-6.8-0.4-13.5-0.2-20.3-0.6C11.5,9,12,6.2,11.7,3.4z"/>
<path class="st0" d="M83.9,26.3c0.1-0.4,0.2-0.6,0.3-0.9c0.7-1.4,1.5-2.8,2.2-4.2c1.7-3.2,2.7-6.5,2.5-10c-0.2-2.9-1.2-5.6-3.2-7.6
	c-2.7-2.8-6.1-4-10-3.2c-4.4,0.9-7.2,3.5-8.5,7.7c-0.6,2.2-0.4,4.4-0.5,6.6c0,0.2,0.1,0.5,0.2,0.8c0.7,0.1,1.3,0.1,1.9,0.1
	c2.7,0.1,5.5,0.1,8.2,0.1c0.9,0,0.9,0.1,0.9,1c-0.2,2.5-1.3,4.6-2.3,6.9c-0.1,0.2-0.3,0.3-0.4,0.5C75,24,74.8,24,74.5,23.9
	c-2.7-0.8-5.1-0.3-7.5,1.1c-4.2,2.6-3.6,8.5,0.3,10.5c3.5,1.8,6.8,1.8,10.2-0.4c0.4-0.3,0.8-0.6,1.2-0.8c3.3,2.5,7,2.9,11,2.8
	c0.1-0.5,0.2-1,0.2-1.4c0.1-2,0.1-3.9,0.1-5.9c0-0.6,0-1.3-0.1-2.1C87.8,27.6,85.8,27.3,83.9,26.3z"/>
<path class="st0" d="M61.5,20.3c-3.3,0.2-6.4,0.3-9.5,0.5c-1.1,0.1-1.1,0.1-1.2-0.9c-0.2-3-0.5-6-0.7-9c-0.2-2.5-0.3-5-0.4-7.4
	c-0.1-0.5-0.2-1.1-0.3-1.6c-5.7,0.6-11.2,0.5-16.8,1.3c0.2,2.9,0.4,5.7,0.7,8.6c1.8-0.1,3.3-0.2,4.9-0.2c1.1-0.1,1.2,0,1.3,1.1
	c0.3,5.2,0.6,10.5,1,15.7c0.2,3.2,1.6,5.8,4.1,7.7c4.3,3.4,10.5,3.5,14.9-1c1.4-1.4,2.5-3.2,2.5-5.3c0.1-2,0-4.1-0.1-6.1
	C61.8,22.4,61.6,21.3,61.5,20.3z"/>
<path class="st0" d="M143.2,16.5c-0.1-1.8-0.1-3.6-0.2-5.3c-0.1-2.6-1.1-4.9-2.9-6.7c-2.2-2.2-4.9-3.1-8-3c-4.2,0.1-7.6,2.6-9.4,6.3
	c-0.8,1.7-0.9,3.5-0.9,5.4c-0.1,4,0.1,8,0,12c0,3.2-0.1,6.3-0.1,9.5c0,1.3,0.1,2.6,0.1,3.9c1.6,0.3,9.9,0.2,11-0.2
	c-0.1-6.8-0.1-13.6-0.1-20.6c3.5-0.1,6.8-0.1,10.2-0.1C143,17.1,143.2,16.8,143.2,16.5z"/>
<path class="st0" d="M102.7,65c-0.1-1.8-0.1-3.6-0.2-5.3c-0.1-2.6-1.1-4.9-2.9-6.7c-2.2-2.2-4.9-3.1-8-3c-4.2,0.1-7.6,2.6-9.4,6.3
	c-0.8,1.7-0.9,3.5-0.9,5.4c-0.1,4,0.1,8,0,12c0,3.2-0.1,6.3-0.1,9.5c0,1.3,0.1,2.6,0.1,3.9c1.6,0.3,9.9,0.2,11-0.2
	c-0.1-6.8-0.1-13.6-0.1-20.6c3.5-0.1,6.8-0.1,10.2-0.1C102.6,65.5,102.7,65.3,102.7,65z"/>
<path class="st0" d="M117.5,35c0,0.4-0.1,0.7-0.1,1.2c-3.3,0.1-6.5,0.3-9.8,0.4L105.9,10l-0.8,0.1l1.8,26.6
	c-3.6,0.2-7.1,0.3-10.7,0.5l0,0c-0.1-1.1-0.2-2-0.2-2.9c-0.2-5.1-0.4-10.1-0.7-15.2c0-0.4,0-0.7-0.1-1.1c0-0.8-0.1-1.6-0.1-2.4
	c0-0.2,0-0.5,0-0.7c0-0.6-0.1-1.2-0.1-1.8c0-0.7-0.1-1.3-0.1-2c0-1,0.1-2,0.3-3c0.8-4.6,5-7.4,8.5-7.9c5-0.8,10.6,2.6,12.1,8
	c0.6,2,0.6,4,0.7,6.1c0.3,6,0.5,11.9,0.8,17.8C117.3,33,117.4,34,117.5,35z"/>
<path class="st0" d="M129.2,85.6c0,0.4-0.1,0.7-0.2,1.2c-3.3,0-6.5,0-9.8,0l-0.5-26.6l-0.8,0l0.5,26.6c-3.6,0-7.1,0-10.7,0l0,0
	c-0.1-1.1-0.1-2-0.1-2.9c0-5.1,0-10.1,0-15.2c0-0.4,0-0.7,0-1.1c0-0.8,0-1.6,0-2.4c0-0.2,0-0.5,0-0.7c0-0.6,0-1.2,0-1.8
	c0-0.7,0-1.3,0-2c0-1,0.2-2,0.4-3c1-4.5,5.4-7.2,8.9-7.5c5.1-0.6,10.5,3.1,11.7,8.5c0.5,2,0.5,4.1,0.5,6.1c0,6,0,11.9,0,17.8
	C129.1,83.6,129.1,84.6,129.2,85.6z"/>
</svg>
