<svg xmlns="http://www.w3.org/2000/svg" width="451" height="132" viewBox="0 0 451 132" fill="none">
<path d="M35.8343 63.6905H34.8679L34.8349 64.6564C34.503 74.3599 34.2124 83.9925 33.9231 93.5828C33.6241 103.49 33.3266 113.352 32.9864 123.201C31.6706 123.37 29.6094 123.488 27.0914 123.549C24.0339 123.623 20.3814 123.613 16.746 123.528C13.1103 123.443 9.50207 123.283 6.53227 123.061C4.11419 122.88 2.19369 122.662 1.0212 122.427C2.0267 84.8095 2.868 47.1896 3.70782 9.08023C7.21726 9.17524 10.6547 9.22725 14.0538 9.27867C21.2999 9.38829 28.3714 9.49527 35.5933 10.0106C35.9134 14.1587 35.7157 18.2542 35.4758 22.4317C35.4581 22.7406 35.4401 23.05 35.4221 23.3599C35.1814 27.5035 34.9354 31.7365 35.1771 36.0857L35.226 36.9649L36.1043 37.0277C46.8854 37.7976 57.661 38.011 68.4319 38.1816C69.3365 38.1959 70.2411 38.21 71.1456 38.224C80.6946 38.372 90.2402 38.52 99.8169 39.0233C99.7626 40.9942 99.7626 42.9004 99.7626 44.7446V44.752C99.7626 46.9097 99.7624 48.9784 99.6781 51.0011L98.6543 75.5671L98.654 75.5739C98.1616 89.686 86.1557 100.739 72.8046 101.565C61.2283 102.226 52.5035 97.6291 45.8625 88.334C42.6279 83.8067 41.9507 78.6029 41.6103 72.9893L41.6102 72.9874C41.526 71.6402 41.4838 70.3329 41.441 68.9877L41.4388 68.9161C41.3969 67.5973 41.3539 66.2421 41.2692 64.8024L41.2138 63.8611H40.2709C39.5369 63.8611 38.8402 63.8204 38.1113 63.7776L38.0992 63.7769C37.3813 63.7346 36.6315 63.6905 35.8343 63.6905Z" stroke="white" stroke-width="2"/>
<path d="M369.288 102.608L369.289 102.618C369.445 105.422 369.741 108.224 370.048 111.123C370.079 111.413 370.11 111.705 370.141 111.997C370.137 112.813 370.05 113.53 369.934 114.491C369.925 114.571 369.915 114.654 369.905 114.738C358.674 115.237 347.522 115.736 336.371 116.235C325.252 116.733 314.133 117.231 302.936 117.728C302.675 114.919 302.524 112.338 302.379 109.869C302.369 109.691 302.358 109.513 302.348 109.336C301.666 93.1353 300.983 76.928 300.13 60.7199C299.993 57.3613 299.802 54.0002 299.612 50.6428C299.325 45.5824 299.039 40.5304 298.936 35.5081C298.937 32.3415 299.271 29.1613 299.776 25.9582C302.245 11.8324 315.446 3.02508 326.412 1.36394L326.412 1.36396L326.418 1.36299C342.138 -1.11849 359.735 9.3316 364.375 26.2296L364.375 26.2296L364.378 26.2429C366.051 32.0184 366.342 37.7958 366.639 43.7065C366.669 44.29 366.698 44.8749 366.729 45.4612C367.155 55.0019 367.581 64.5001 368.007 73.9981L368.009 74.0327L368.012 74.1138C368.438 83.5976 368.863 93.0814 369.288 102.608Z" stroke="white" stroke-width="2"/>
<path d="M261.761 96.4215C262.102 95.2273 262.273 94.545 262.785 93.692C265.174 89.2564 267.563 84.8209 269.781 80.3854C275.071 70.3201 278.313 59.7431 277.63 48.3131C277.118 38.9302 273.876 30.571 267.563 23.9177C258.86 14.876 247.939 11.2935 235.653 13.6818C221.661 16.4114 212.617 24.7707 208.521 38.4184C206.474 45.4129 207.327 52.4074 206.986 59.5725C206.986 60.2549 207.327 61.1079 207.668 62.1315C209.886 62.3021 211.934 62.4727 213.811 62.4727C222.514 62.6433 231.216 62.8139 239.919 62.8139C242.82 62.8139 242.82 63.1551 242.649 65.8846C241.967 73.7321 238.383 80.7266 235.312 87.8917C235.141 88.4035 234.458 88.9152 233.947 89.427C233.264 89.2564 232.581 89.0858 231.899 88.9152C223.367 86.3563 215.518 88.0623 208.009 92.4978C194.699 100.857 196.406 119.623 209.033 126.105C220.125 131.735 230.875 131.735 241.455 124.911C242.82 124.058 244.014 123.035 245.209 122.352C255.788 130.37 267.563 131.565 280.361 131.223C280.531 129.688 280.872 128.153 280.872 126.788C281.043 120.476 281.043 114.334 281.214 108.022C281.214 105.975 281.214 103.757 281.043 101.369C274.217 100.857 268.074 99.4923 261.761 96.4215Z" stroke="white" stroke-width="2"/>
<path d="M160.11 62.4478L160.119 62.4473L160.129 62.4466C167.025 61.9712 173.914 61.662 180.99 61.3443C183.751 61.2204 186.541 61.0952 189.371 60.9583C189.415 61.354 189.46 61.7521 189.505 62.1519C189.806 64.7976 190.116 67.5205 190.116 70.1495V70.1623L190.117 70.1751L190.123 70.4152C190.291 76.9888 190.455 83.3673 190.287 89.7418L190.287 89.755V89.7681C190.287 96.232 187.06 101.625 182.719 106.132C169.111 120.066 149.898 119.739 136.618 109.283L136.616 109.282C128.991 103.316 124.692 95.219 124.029 85.4355L124.029 85.4319C123.233 74.2928 122.589 63.1592 121.944 52.0178C121.622 46.4455 121.3 40.8711 120.958 35.2932C120.916 34.4051 120.86 33.6477 120.729 33.0409C120.595 32.424 120.355 31.8236 119.838 31.3855C119.329 30.9548 118.699 30.8082 118.081 30.753C117.464 30.6982 116.705 30.724 115.823 30.7659C111.158 30.9268 106.635 31.0879 101.261 31.3924C100.626 22.838 99.9913 14.4259 99.3567 6.01954C107.876 4.91566 116.405 4.38447 125.006 3.91135C126.035 3.85471 127.066 3.7989 128.098 3.74303C135.693 3.3318 143.348 2.91728 151.066 2.14466C151.341 3.53962 151.589 4.90183 151.726 6.25802C151.981 10.1694 152.193 14.1242 152.406 18.0857L152.406 18.0875C152.62 22.0523 152.833 26.0238 153.09 29.9536L153.09 29.9598C153.432 34.741 153.816 39.5641 154.2 44.3824L154.2 44.3834C154.584 49.2008 154.967 54.0134 155.308 58.7828C155.349 59.5297 155.394 60.1782 155.509 60.6857C155.629 61.2158 155.863 61.7738 156.421 62.1374C156.921 62.4633 157.519 62.5178 158.042 62.5262C158.478 62.5332 159.021 62.5046 159.645 62.4718C159.795 62.4639 159.95 62.4557 160.11 62.4478Z" stroke="white" stroke-width="2"/>
<path d="M449.488 44.4096L449.488 44.4195C449.573 47.2182 449.658 50.0591 449.743 52.9005L449.744 52.9489L449.744 52.9512C449.83 55.8026 449.915 58.6542 450 61.4635C449.998 62.0515 449.904 62.5405 449.552 63.8612C439.362 63.8685 429.453 64.0212 419.139 64.1802C418.663 64.1875 418.187 64.1949 417.71 64.2022L416.718 64.2175L416.725 65.2098C416.81 76.2317 416.853 87.1696 416.895 98.0463L416.896 98.2379C416.938 108.909 416.979 119.522 417.06 130.094C416.693 130.16 416.214 130.229 415.625 130.295C414.573 130.414 413.245 130.52 411.722 130.612C408.679 130.794 404.893 130.917 401.053 130.97C397.213 131.023 393.33 131.007 390.092 130.914C387.412 130.837 385.231 130.709 383.88 130.535C383.721 126.712 383.574 122.899 383.574 118.94C383.574 113.913 383.616 108.884 383.659 103.851L383.659 103.849C383.702 98.8197 383.744 93.7858 383.744 88.7512C383.83 82.346 383.787 75.9425 383.744 69.5506L383.744 69.5457C383.702 63.1466 383.659 56.7592 383.744 50.3735H383.744V50.3601C383.744 44.4097 384.091 38.8025 386.549 33.5578C392.04 22.0814 402.474 14.3349 415.52 14.1699L415.524 14.1698C425.19 14.0032 433.452 16.8248 440.404 23.6096L440.406 23.6113C446.192 29.2309 449.323 36.3173 449.488 44.4096Z" stroke="white" stroke-width="2"/>
</svg>
