<?xml version="1.0" encoding="utf-8"?>
<!-- Generator: Adobe Illustrator 24.1.1, SVG Export Plug-In . SVG Version: 6.00 Build 0)  -->
<svg version="1.1" id="Layer_1" xmlns="http://www.w3.org/2000/svg" xmlns:xlink="http://www.w3.org/1999/xlink" x="0px" y="0px"
	 viewBox="0 0 451 132" style="enable-background:new 0 0 451 132;" xml:space="preserve">
<style type="text/css">
	.st0{fill:#FFFFFF;}
</style>
<g>
	<path class="st0" d="M71.2,37.2l-2.7,0C57.5,37,46.8,36.8,36.2,36c-0.2-4.3,0-8.5,0.2-12.6l-1-0.1l1-0.1l0-0.8
		c0.3-4.4,0.4-8.4,0.1-12.6l-0.1-0.9L35.7,9c-7.3-0.5-14.2-0.6-21.6-0.7l-0.1,0C10.6,8.2,7.2,8.2,3.7,8.1l-1,0l0,1
		C1.9,47.6,1,85.3,0,122.4l0,0.8l0.8,0.2c1.2,0.2,3.1,0.5,5.6,0.7c2.9,0.2,6.5,0.4,10.3,0.5c2,0,4,0.1,5.9,0.1c1.6,0,3.1,0,4.5,0
		c2.6-0.1,4.7-0.2,6-0.4l0.8-0.1l0-0.8c0.3-9.7,0.6-19.5,0.9-29.2l0-0.4c0.3-9.6,0.6-19.2,0.9-28.9c0.8,0,1.5,0,2.2,0.1
		c0.7,0,1.5,0.1,2.2,0.1c0.1,1.4,0.1,2.8,0.2,4.2c0,1.4,0.1,2.7,0.2,4c0.3,5.3,0.9,11,4.4,15.9c7,9.9,16.1,14.3,27.8,13.6
		c14.5-0.9,26.3-12.7,26.8-27l1-24.6c0.1-2.1,0.1-4.1,0.1-6.3c0-1.8,0-3.7,0.1-5.7l0-1l-1-0.1C90.3,37.5,80.6,37.4,71.2,37.2z
		 M98.8,44.8c0,2.2,0,4.2-0.1,6.2l-1,24.6c-0.5,13-11.6,24.2-24.9,25c-10.9,0.6-19.5-3.6-26.1-12.8c-3.2-4.5-3.8-9.8-4.1-14.8
		c-0.1-1.3-0.1-2.6-0.2-4.1c0-1.3-0.1-2.7-0.2-4.1l-0.1-1.9h-1.9c-0.7,0-1.4,0-2.1-0.1c-0.7,0-1.5-0.1-2.3-0.1h-1.9l-0.1,1.9
		c-0.3,9.7-0.6,19.3-0.9,28.9l0,0.4c-0.3,9.5-0.6,18.9-0.9,28.4c-1.2,0.1-2.9,0.2-4.9,0.2c-3,0.1-6.6,0.1-10.3,0
		c-3.7-0.1-7.3-0.3-10.2-0.5c-1.9-0.1-3.4-0.3-4.6-0.5C3,85,3.9,48,4.7,10.1c3.1,0.1,6.2,0.1,9.2,0.2l0.1,0
		c7.1,0.1,13.7,0.2,20.6,0.7c0.2,3.7,0.1,7.4-0.2,11.4l-0.1,0.9c-0.2,4.1-0.5,8.4-0.2,12.8l0.1,1.8L36,38c10.7,0.8,21.4,1,32.4,1.2
		l2.7,0c9.1,0.1,18.4,0.3,27.7,0.7C98.8,41.6,98.8,43.2,98.8,44.8z"/>
	<path class="st0" d="M370.3,102.6L369,74.1l-1,0l1-0.2l-1.3-28.5l-0.1-1.8c-0.3-6.1-0.6-11.8-2.3-17.7
		c-4.6-16.8-22.1-28.3-39.1-25.6c-11.8,1.8-25,11.1-27.5,25.4c-0.6,3.6-0.9,6.8-0.9,9.7c0.1,5.1,0.4,10.2,0.7,15.2l0,0.3
		c0.2,3.2,0.4,6.5,0.5,9.8c0.9,16.3,1.5,32.7,2.2,48.6l0,0.7c0.1,2.5,0.3,5,0.6,7.8l0.1,0.9l1,0c11.2-0.5,22.3-1,33.4-1.5
		c11.2-0.5,22.3-1,33.5-1.5l0.9-0.1l0.1-1.1c0.1-1,0.2-1.7,0.2-2.6l-0.1-1C370.7,108.1,370.4,105.4,370.3,102.6z M369,113.8
		c-10.9,0.5-21.8,1-32.7,1.5c-10.8,0.5-21.6,1-32.5,1.5c-0.2-2.4-0.3-4.6-0.5-6.7l0-0.6c-0.7-15.9-1.4-32.4-2.2-48.6
		c-0.1-3.3-0.3-6.6-0.5-9.8l0-0.3c-0.3-5-0.6-10.1-0.7-15.1c0-2.8,0.3-5.9,0.8-9.4c2.3-13.4,14.8-22.1,25.8-23.8
		c1.6-0.2,3.1-0.4,4.7-0.4c14.4,0,28.2,10.2,32.2,24.5c1.6,5.7,1.9,11.3,2.2,17.2l2.6,58.9l0,0c0.2,2.8,0.5,5.6,0.8,8.6l0.1,0.8
		C369.1,112.6,369.1,113.1,369,113.8z"/>
	<path class="st0" d="M281.1,101.4l-0.9-0.1c-6.9-0.6-12.8-2.1-18.3-4.8l-0.1-0.1c0-0.1,0.1-0.2,0.1-0.3l0-0.1
		c0.3-0.9,0.5-1.6,0.9-2.4l0.2-0.5c2.3-4.2,4.6-8.6,6.7-12.8l0,0c5.9-11.2,8.5-21.7,7.8-32.1c-0.3-4.7-1.2-9.2-2.9-13.2
		c-1.7-4.1-4.1-7.9-7.2-11.2c-8.7-9.1-19.8-12.6-31.9-10.2c-6.9,1.4-12.7,4.1-17.3,8.3c-4.5,4.1-7.8,9.6-9.9,16.5
		c-1.1,3.8-1.3,7.4-1.4,10.5c0,1.4,0,2.9,0,4.4c0,2.1,0,4.2-0.1,6.3c0,0.3,0.1,0.7,0.2,1.1c0.1,0.2,0.2,0.5,0.2,0.8l0.2,0.6l0.7,0.1
		c2.2,0.2,3.9,0.3,5.5,0.3c0,0,0,0,0,0c8.6,0.2,17.4,0.3,26.1,0.3c0.6,0,1.2,0,1.7,0.1c0.4,0.1,0.7,0.2,0.8,0.4
		c0.2,0.2,0.2,0.5,0.3,0.9c0,0.4,0,0.9,0,1.5l0,0.1c-0.5,5.3-2.3,10.4-4.1,14.6c-0.6,1.4-1.2,2.8-1.8,4.2l-1.4,3.2
		c-0.1,0.3-0.4,0.6-0.5,0.7c-0.1,0.1-0.3,0.3-0.4,0.4l-0.1,0.1c-0.1,0.1-0.2,0.2-0.3,0.3l0,0l-1.9-0.5l-0.1,0
		c-7.9-2.4-15.8-1.2-23.9,3.6c-6.1,3.8-9.5,10.3-9.2,17.4c0.3,6.9,4.2,13.2,10.3,16.2c11.4,5.8,21.9,5.5,32.2-1l0.2,0l0.2-0.2
		c0.6-0.4,1.2-0.8,1.7-1.2l0.1-0.1c0.5-0.4,1.1-0.8,1.8-1.2l0,0l0,0c9.9,7.5,20.8,8.9,31.3,8.9c1,0,2,0,3,0l0.8,0l0.3-2.3
		c0.1-0.9,0.2-1.6,0.2-2.2c0.1-3.2,0.1-6.3,0.2-9.4l0-1.9c0-2.5,0.1-5,0.1-7.5v0c0-1.8,0-3.7-0.1-5.8L281.1,101.4z M279.1,115.5
		l0,1.9c0,3-0.1,6.2-0.2,9.4c0,0.5-0.1,1.1-0.2,1.9l-0.1,0.6c-10.8,0.2-22.1-0.8-32.2-8.5l-1-0.8l-1.2,0.6c-0.7,0.4-1.5,0.9-1.9,1.3
		c-0.1,0-0.1,0.1-0.2,0.1c-0.5,0.3-1,0.7-1.5,1l-0.3,0.2c-9.7,6.2-19.6,6.6-30.4,1.1c-5.4-2.8-8.9-8.3-9.2-14.6
		c-0.3-6.3,2.8-12.1,8.3-15.6c7.6-4.5,14.9-5.6,22.2-3.4l3.3,0.8l0.8-0.8c0.1-0.1,0.1-0.1,0.2-0.2l0.2-0.2c0.1-0.1,0.3-0.3,0.5-0.4
		c0.4-0.4,0.8-0.8,1-1.4l1.4-3.2c0.6-1.4,1.2-2.8,1.8-4.3c1.8-4.3,3.8-9.5,4.2-15.2l0-0.1c0-0.6,0.1-1.2,0-1.7
		c0-0.9-0.3-1.5-0.7-2.1c-0.5-0.6-1.2-1-2-1.1c-0.6-0.1-1.3-0.1-2-0.1c-8.7,0-17.5-0.2-26.1-0.3c-1.4,0-2.8-0.1-4.7-0.2
		c0,0,0-0.1,0-0.1c-0.2-0.5-0.1-0.5-0.1-0.5c0.1-2.1,0.1-4.3,0.1-6.3c0-1.5,0-2.9,0-4.3c0.1-3,0.3-6.5,1.3-10
		c1.9-6.5,5.1-11.7,9.3-15.6c4.2-3.9,9.7-6.5,16.3-7.8c11.6-2.3,21.7,1,30.1,9.7c2.9,3.1,5.2,6.6,6.8,10.5c1.6,3.8,2.5,8.1,2.7,12.6
		c0.6,9.9-1.9,20-7.5,30.9l-0.2,0.2v0.2c-2.1,4.2-4.4,8.4-6.6,12.6l-0.2,0.4c-0.6,1-0.8,1.8-1.1,2.8l-0.1,0.2c0,0.1,0,0.1-0.1,0.2
		l-0.4,1.3l1.2,0.9l0.2,0.1c5.6,2.7,11.4,4.3,18.3,5c0.1,1.7,0.1,3.2,0.1,4.8C279.1,110.5,279.1,113,279.1,115.5z"/>
	<path class="st0" d="M191.1,70.1c0-2.7-0.3-5.4-0.6-8.1l-0.2-2.1l-0.9,0c-2.7,0.1-5.4,0.3-8.1,0.4l-0.3,0
		c-7.2,0.3-13.9,0.6-20.8,1.1l-0.5,0c-0.6,0-1.1,0.1-1.5,0.1c-0.4,0-0.8,0-1.1-0.2c-0.2-0.2-0.4-0.4-0.5-0.8
		c-0.1-0.4-0.1-1.1-0.2-1.8c-0.3-4.8-0.7-9.6-1.1-14.4c-0.4-4.8-0.8-9.6-1.1-14.4c-0.3-3.8-0.5-7.7-0.7-11.5l0-0.6
		c-0.2-3.9-0.4-7.7-0.7-11.6c-0.1-1.4-0.4-2.9-0.7-4.2l-0.2-0.9L151,1.1c-7.7,0.8-15.4,1.2-22.9,1.6L125,2.9
		c-8.3,0.5-17.1,1-25.7,2.1l-0.9,0.1l0.1,1.1c0.6,8.4,1.3,16.7,1.9,25.3l0.1,1l1-0.1c5.2-0.3,9.5-0.5,14.6-0.6c0.8,0,1.5-0.1,2.1,0
		c0.6,0.1,0.9,0.2,1.2,0.4c0.3,0.2,0.4,0.6,0.6,1.1c0.1,0.6,0.2,1.3,0.2,2.1c0.3,5.6,0.7,11.1,1,16.7l0,0.1
		c0.6,10.9,1.3,22.2,2.1,33.3c0.7,10.1,5,18.4,13,24.6l0.1,0c6.7,5.2,14.3,7.8,22,7.8c9.2,0,18.2-3.7,25.4-11.1
		c5.3-5.5,7.8-11.1,7.8-17.1c0.2-6.4,0-12.7-0.2-19.4L191.1,70.1z M189.3,89.8c0,5.5-2.4,10.6-7.3,15.7c-12.5,12.8-30.9,14-44.8,3.1
		l-0.1-0.1c-7.4-5.8-11.5-13.6-12.1-23.1c-0.8-11.1-1.4-22.4-2.1-33.3l0-0.1c-0.3-5.6-0.6-11.1-1-16.7c0-1-0.1-1.7-0.3-2.4
		c-0.2-1-0.6-1.7-1.2-2.2c-0.8-0.7-1.7-0.8-2.3-0.9c-0.7-0.1-1.5,0-2.4,0c-4.8,0.2-8.8,0.3-13.6,0.6c-0.6-7.9-1.2-15.7-1.8-23.4
		c8.3-1,16.7-1.5,24.6-2l3.1-0.2c7.2-0.4,14.7-0.8,22.1-1.5c0.2,1.1,0.4,2.1,0.5,3.1c0.2,3.8,0.5,7.7,0.7,11.6l0,0.6
		c0.2,3.9,0.4,7.7,0.7,11.6c0.3,4.8,0.7,9.6,1.1,14.4c0.4,4.8,0.8,9.6,1.1,14.4c0,0.8,0.1,1.5,0.2,2.1c0.2,0.9,0.7,1.6,1.3,2.1
		c0.7,0.5,1.5,0.5,2.2,0.6c0.4,0,1,0,1.7-0.1l0.5,0c6.9-0.5,13.6-0.8,20.8-1.1l0.3,0c2.4-0.1,4.8-0.2,7.2-0.3l0,0.3
		c0.3,2.6,0.6,5.3,0.6,7.9l0,0.3C189.3,77.1,189.5,83.4,189.3,89.8z"/>
	<path class="st0" d="M450.5,44.4L450.5,44.4c-0.2-8.3-3.4-15.7-9.4-21.5c-6.9-6.7-15.3-9.9-25.6-9.7c-12.8,0.2-24,7.6-29.9,20
		c-2.7,5.7-2.9,11.9-2.9,17.2c-0.1,6.3,0,12.8,0,19l0,0.2c0,6.3,0.1,12.8,0,19.2c0,5,0,10.1-0.1,15.1c0,5-0.1,10.1-0.1,15.1
		c0,3.9,0.1,7.8,0.3,11.6l0,0.8l0.8,0.1c1.3,0.2,3.5,0.3,6.3,0.4c2,0.1,4.3,0.1,6.7,0.1c1.4,0,2.9,0,4.3,0c3.9-0.1,7.7-0.2,10.7-0.4
		c1.6-0.1,2.9-0.2,4-0.3c0.6-0.1,1.1-0.1,1.5-0.2l0.8-0.2l0-0.8c-0.1-10.6-0.1-21.2-0.2-31.9l0-0.2c0-10.9-0.1-21.8-0.2-32.8l1.4,0
		c10.4-0.2,20.2-0.3,30.4-0.3l0.8,0l0.2-0.7c0.4-1.3,0.5-1.9,0.5-2.7L450.5,44.4z M448.8,62.9c-10,0-19.5,0.2-29.7,0.3l-3.4,0.1l0,2
		c0.1,11,0.1,22,0.2,32.8l0,0.2c0,10.4,0.1,20.7,0.2,31c-0.2,0-0.3,0-0.5,0.1c-1,0.1-2.3,0.2-3.9,0.3c-2.9,0.2-6.7,0.3-10.6,0.4
		c-3.9,0.1-7.8,0-10.9-0.1c-2.2-0.1-4-0.2-5.3-0.3c-0.1-3.6-0.3-7.1-0.3-10.7c0-5,0-10.1,0.1-15.1s0.1-10.1,0.1-15.1
		c0.1-6.4,0-12.9,0-19.2l0-0.2c0-6.2-0.1-12.7,0-19c0-6.4,0.5-11.6,2.7-16.4c5.6-11.6,16.1-18.7,28.1-18.8
		c9.8-0.2,17.7,2.8,24.2,9.2c5.7,5.5,8.6,12.3,8.8,20.1l0.5,17C449,61.8,449,62.1,448.8,62.9z"/>
</g>
</svg>
