<svg width="54" height="42" viewBox="0 0 54 42" fill="none" xmlns="http://www.w3.org/2000/svg">
<path d="M53.8603 12.7514V12.6435L53.8244 12.5717C53.7885 12.4279 52.6748 9.19264 50.8427 6.28094C49.1184 3.54898 47.2862 1.46405 46.9988 1.17648C46.46 0.45754 45.3104 0.637275 44.1968 0.852957C41.718 1.28432 29.3243 7.9345 25.4804 10.7024C21.421 13.6501 9.42247 20.2643 7.98551 20.5878H7.73404L7.48257 20.7675C7.30295 20.9113 3.09985 24.0387 1.55513 26.3034C1.23181 26.6628 0.513335 27.5256 0.872574 28.3883C1.05219 28.8556 2.63284 33.4928 4.42904 36.009C6.15338 38.4175 11.2546 41.5808 20.7026 41.5808C23.9357 41.5808 27.6718 41.2213 31.9467 40.3227C49.9805 36.5842 54.938 21.7741 53.8603 12.7514ZM2.92024 27.4896L3.02801 27.3458C4.2135 25.5485 7.73404 22.8165 8.45252 22.2773C11.2187 21.4146 23.325 14.4409 26.5222 12.1043C30.6535 9.0848 42.5802 2.86598 44.4483 2.54246C44.592 2.50652 44.8075 2.47057 44.9871 2.43462C44.4483 3.11761 43.1909 4.37575 40.4607 6.7123C33.2041 12.9311 7.73403 26.6628 3.89018 27.3458C3.42317 27.4177 3.06393 27.4537 2.84839 27.4896C2.92024 27.5256 2.92024 27.5256 2.92024 27.4896ZM31.5875 38.5613C15.6732 41.8684 7.84181 37.6626 5.90192 34.9666C4.8242 33.4568 3.78242 30.9405 3.13579 29.3229C3.49502 29.287 3.89018 29.251 4.24942 29.1791C8.41659 28.4242 34.1381 14.5847 41.6821 8.15018C44.3405 5.88552 45.8134 4.44765 46.5678 3.44114C47.2862 4.30386 48.328 5.66984 49.298 7.21556C50.8427 9.6959 51.8845 12.5357 52.0641 13.039C53.0341 21.4505 48.364 35.0744 31.5875 38.5613Z" fill="white"/>
<path d="M45.0235 2.50635C44.4846 3.18934 43.2273 4.44748 40.4971 6.78403C33.2405 13.0028 7.77041 26.7346 3.92656 27.4176C3.45955 27.4895 3.10031 27.5254 2.88477 27.5614L2.92069 27.5254L3.02846 27.3816C4.21395 25.5843 7.73449 22.8523 8.45297 22.3131C11.2191 21.4504 23.3255 14.4767 26.5227 12.1401C30.6539 9.12058 42.5807 2.90176 44.4487 2.57824C44.6283 2.57824 44.8439 2.54229 45.0235 2.50635Z" fill="#56BB7F"/>
<path d="M31.5875 38.5611C15.6732 41.8682 7.84176 37.6624 5.90187 34.9664C4.82416 33.4566 3.78237 30.9403 3.13574 29.3227C3.49498 29.2868 3.89013 29.2508 4.24937 29.1789C8.41654 28.424 34.138 14.5845 41.6821 8.14996C44.3404 5.88531 45.8133 4.44743 46.5677 3.44092C47.2862 4.30364 48.328 5.66963 49.2979 7.21534C50.8427 9.69568 51.8845 12.5355 52.0641 13.0387C53.034 21.4503 48.3639 35.0742 31.5875 38.5611Z" fill="#56BB7F"/>
</svg>
