<?xml version="1.0" encoding="utf-8"?>
<!-- Generator: Adobe Illustrator 24.1.1, SVG Export Plug-In . SVG Version: 6.00 Build 0)  -->
<svg width="230" height="54" version="1.1" id="Layer_1" xmlns="http://www.w3.org/2000/svg" xmlns:xlink="http://www.w3.org/1999/xlink" x="0px" y="0px"
	 viewBox="0 0 230 54" style="enable-background:new 0 0 230 54;" xml:space="preserve">
<style type="text/css">
	.st0{fill:#FFFFFF;}
</style>
<g>
	<path class="st0" d="M194.1,52.9c-4.9,0-11.6,0-20-0.1c-15.3-0.1-36.2-0.4-58.6-0.6c-21.9-0.3-42.7-0.6-58.6-0.9
		c-8.1-0.1-15-0.3-20-0.4c-4.5-0.1-7.3-0.2-8.4-0.3c-0.3,0-0.6,0-0.9,0c-2.1,0.1-3.1,0-4-0.3c-0.5-0.1-0.9-0.3-1.4-0.5l-0.2-0.1
		c-0.4-0.2-0.9-0.4-1.5-0.6c-0.4-0.2-0.9-0.3-1.4-0.3c-6.1-1-11.1-4.5-14.2-9.9l0,0c-2.3-1.8-3.4-4.6-3.1-7.8l0,0
		c-2.8-9.5,1.1-19.4,9.6-24.6l0,0l0.9-0.9C13.9,4,14.9,3.1,16,2.5c1.3-0.7,2.8-1,5.4-0.9c0.3,0,0.5,0,0.8,0c0.5,0,1.3-0.1,2.6-0.1
		c1.5,0,3.6-0.1,6.1-0.1c4.8,0,11.6,0,20.2,0.1c19.2,0.1,42.7,0.4,59.1,0.6c38.8,0.5,79.1,1.1,87.2,1.4c0.3,0,0.5,0,0.8,0.1l0.7,0.1
		c0.2,0,0.4,0,0.6,0l0.1,0l0.5,0c1.5-0.1,2,0,2.5,0.1l0.4,0.1c0.6,0.2,1.3,0.2,1.9,0.2c6.2,0.1,11.2,2.2,15.1,6.2
		c0.2,0.2,0.4,0.4,0.6,0.5c5.2,4.3,8.4,10.4,8.8,16.9c0.4,6.3-1.9,12.3-6.5,17c-0.2,0.2-0.4,0.5-0.6,0.7c-3.2,4.3-7.9,6.7-14.2,7
		c-0.4,0-0.8,0.1-1.2,0.1c-0.5,0.1-0.7,0.2-0.9,0.2l-0.2,0l-1.7,0.1l-0.1,0c-0.2,0-0.5-0.1-1.1-0.1c-0.3,0-1.3,0.1-2.8,0.1
		C198.7,52.9,196.6,52.9,194.1,52.9z M28.2,48.5l0.2,0c0.4,0,1.7,0.1,8.7,0.3c5,0.1,11.8,0.3,19.9,0.4c15.8,0.3,36.6,0.6,58.5,0.9
		c22.4,0.3,43.2,0.5,58.6,0.6c12.6,0.1,21.6,0.1,26,0.1c2.1,0,2.5-0.1,2.6-0.1l0.3,0c0.2,0,0.4,0,0.6,0c0.4,0,0.8,0,1.2,0l0.1,0
		c0.4,0,0.7-0.1,1.1-0.2c0.3-0.1,0.7-0.1,1.2-0.3l0.3,0c6.1-0.2,10.7-2.3,13.5-6.5l0.2-0.3c4.3-4.4,6.6-10,6.2-15.8
		c-0.4-6-3.4-11.7-8.3-15.7l-0.2-0.2c-3.8-4.1-8.7-6-15-5.9l-0.1,0l-0.9-0.2c-0.7-0.2-1.5-0.3-2.2-0.2c-0.1,0-0.3,0-0.5,0l-0.4,0
		l-0.2,0c-0.2,0-0.4,0-0.7,0.1l-0.1,0l-0.8-0.1c-0.3,0-0.6-0.1-0.9-0.1c-8.2-0.3-48.3-0.9-87-1.4c-16.4-0.2-40-0.5-59.1-0.6
		c-8.6-0.1-15.4-0.1-20.2-0.1c-2.5,0-4.6,0-6.1,0.1c-2.1,0-2.6,0.1-2.6,0.1l-0.3,0c-2.9-0.1-4,0.2-4.9,0.7c-0.9,0.5-1.7,1.3-3.1,2.6
		l-0.8,0.7c-0.3,0.3-0.6,0.5-1,0.7c-7.4,4.8-10.7,13.6-8.2,22L4,30.7l0,0.4c-0.2,2.5,0.6,4.7,2.4,6.1l0.3,0.2l0.2,0.3
		c2.9,5.1,7.5,8.2,13.4,9l0.3,0.1c1.1,0.3,1.8,0.6,2.5,0.9l0.2,0.1c0.5,0.2,0.9,0.4,1.2,0.5C25.1,48.5,26,48.6,28.2,48.5L28.2,48.5z
		"/>
</g>
<path class="st0" d="M58,15.2c0.1,0.4,0.1,0.7,0.1,1c0.1,2.1,0.3,4.3,0.4,6.4c0.1,2,0.2,4,0.4,6c0,0.5,0.2,0.9,0.8,1.1
	c0.5,0.2,0.9,0.4,1.3,0.6c0.4,0.2,0.7,0.5,0.7,1c0,1.4,0.1,2.8,0.2,4.2c0,0.4,0,0.8,0,1.2c-1.5-0.5-2.7-1.4-4.1-1.9
	c-0.1,0.2-0.3,0.3-0.4,0.4c-1.8,1.7-3.8,2.4-6.3,1.8c-2.9-0.7-4.9-3.3-5-6.3c-0.1-3.7-0.4-7.4-0.6-11c-0.1-1.2-0.2-2.3-0.2-3.5
	c0-0.5,0.1-0.6,0.5-0.6c0.9,0,1.8-0.1,2.7-0.1c0.7,0,1.5-0.1,2.2-0.1c2-0.1,4-0.3,6.1-0.3C57.1,15.3,57.5,15.3,58,15.2z"/>
<path class="st0" d="M67.6,30.4c0-2.1,0.1-4.1,0.1-6.3c-0.4,0-0.7-0.1-1.1-0.1c-1.5-0.1-3.1-0.1-4.6-0.2c-0.1,0-0.2,0-0.4-0.1
	c-0.1-1.4,0.2-2.6,0.7-3.8c1.2-2.3,3.2-3.6,5.7-4.3c1.1-0.3,2.2-0.5,3.3-0.4c2.6,0.1,5.1,0.9,6.9,2.8c1.4,1.5,2.3,3.3,2.4,5.3
	c0.1,1.2,0,2.5,0,3.7c-0.1,3-0.2,6-0.2,9c0,0.3,0,0.5,0,0.9c-2.4,0-4.8-0.1-7.2-0.1c0-0.4,0-0.6,0-0.9c0-1.4,0.1-2.9,0.1-4.3
	c0-0.1,0-0.2,0-0.2c0-0.7-0.1-0.7-0.7-0.8c-1.3-0.1-2.6-0.1-4-0.2C68.3,30.4,68,30.4,67.6,30.4z"/>
<path class="st0" d="M137.9,30.4c0.6,0.1,0.9,0.1,1.3,0.2c1.6,0.1,2.6,1.2,2.5,2.6c0,0.9,0.1,1.9,0.1,2.8c0,0.2,0,0.4,0,0.7
	c-1.9,0.3-3.7,0.1-5.7,0.2c0-0.5-0.1-0.9-0.1-1.4c-0.9,0-1.8,0-2.7,0c0,0.5-0.1,0.9-0.1,1.4c-2,0.1-4,0.1-6.1,0.1
	c-0.1-2.4-0.1-4.7-0.2-7c1.8-0.2,3.5,0,5.2-0.1c0.1,0.2,0.2,0.4,0.3,0.5c0.4,0.1,1.7-2,1.8-3c-0.3,0-0.5,0.1-0.7,0.1
	c-1.8,0.3-3.4-0.3-4.5-1.7c-2-2.5-2-5.7-0.1-8.2c2.6-3.4,7.5-3.6,10.6-0.4c1.3,1.3,1.9,3,1.8,4.9c-0.1,2.7-1.1,5.1-2.6,7.3
	C138.4,29.6,138.2,29.9,137.9,30.4z"/>
<path class="st0" d="M186.4,30.2c2.6-0.2,4.9-0.4,7.4-0.6c-0.1-0.5-0.4-0.6-0.6-0.8c-1.3-1-2.6-2-3.8-3c-0.8-0.7-1.5-1.5-1.9-2.5
	c-0.6-1.2-0.6-2.4-0.3-3.6c0.6-2.5,2.3-4,4.9-4.6c3.3-0.7,6.3,0.9,7.6,3.6c0.5,0.9,0.7,1.9,0.6,3c-2.1,0.1-4.2,0.3-6.4,0.4
	c0.3,0.3,0.4,0.5,0.6,0.6c1.2,1,2.4,2,3.5,3c0.9,0.7,1.7,1.5,2.3,2.4c1.1,1.7,1.2,3.5,0.2,5.2c-1.5,2.7-3.9,3.9-6.9,3.7
	c-3-0.2-5.1-1.7-6.2-4.5C186.7,32,186.6,31.2,186.4,30.2z"/>
<path class="st0" d="M93.5,16c0.7,0,1.4-0.1,2.1-0.1c2.7,0,5.3,0,8-0.1c2,0,4.1-0.1,6.2-0.2c0.3,1.7,0.1,3.3,0.2,5
	c-1.2,0-2.3,0.1-3.5,0.1c0,0.3-0.1,0.6-0.1,0.8c0,1.3,0.1,2.6,0.1,3.9c0,2.2,0.2,4.4,0,6.6c-0.3,2.5-2.3,4.7-5,5.2
	c-1.7,0.3-3.3,0-4.8-0.9c-1.4-0.9-2.3-2.1-2.7-3.6c-0.3-1.1-0.4-2.3-0.4-3.4c0-2.4-0.1-4.8-0.1-7.2C93.5,20.1,93.5,18,93.5,16z"/>
<path class="st0" d="M118.8,20c1.2,0.1,2.3,0.2,3.5,0.3c1.1,0.1,2.3,0.2,3.5,0.3c0,1.7-0.2,3.5-0.3,5.3c-1.2,0-2.4-0.1-3.5-0.1
	c-1.1-0.1-2.3-0.1-3.4-0.2c-0.2,1.4-0.3,2.6-0.3,4c2.2,0.2,4.3,0.3,6.5,0.5c0.3,2.9-0.8,5.2-3.4,6.5c-3.9,2-8.5-0.1-9.6-4.2
	c-0.2-0.6-0.2-1.2-0.2-1.9c0.1-1.8,0.2-3.6,0.3-5.4c0.2-3,0.4-5.9,0.5-8.9c0-0.3,0-0.5,0.1-0.8c0.8,0,1.5,0,2.2,0.1
	c0.8,0,1.7,0.1,2.5,0.2c0.4,0,0.9,0,1.3,0c0.6,0,0.7,0.1,0.6,0.7c-0.1,1-0.1,2.1-0.2,3.1C118.8,19.6,118.8,19.8,118.8,20z"/>
<path class="st0" d="M177.2,20c1.2,0.1,2.3,0.2,3.5,0.3c1.1,0.1,2.3,0.2,3.5,0.3c0,1.7-0.2,3.5-0.3,5.3c-1.2,0-2.4-0.1-3.5-0.1
	c-1.1-0.1-2.3-0.1-3.4-0.2c-0.2,1.4-0.3,2.6-0.3,4c2.2,0.2,4.3,0.3,6.5,0.5c0.3,2.9-0.8,5.2-3.4,6.5c-3.9,2-8.5-0.1-9.6-4.2
	c-0.2-0.6-0.2-1.2-0.2-1.9c0.1-1.8,0.2-3.6,0.3-5.4c0.2-3,0.4-5.9,0.5-8.9c0-0.3,0-0.5,0.1-0.8c0.8,0,1.5,0,2.2,0.1
	c0.8,0,1.7,0.1,2.5,0.2c0.4,0,0.9,0,1.3,0c0.6,0,0.7,0.1,0.6,0.7c-0.1,1-0.1,2.1-0.2,3.1C177.2,19.6,177.2,19.8,177.2,20z"/>
<path class="st0" d="M158.8,31.7c3.1,0.2,6-0.2,9,0c0,1.7,0,3.4,0,5.2c-0.2,0-0.5,0.1-0.8,0.1c-2,0-4,0-6.1,0.1
	c-2.7,0-5.3,0.1-8,0.2c-0.3,0-0.6,0-0.9,0c0-0.9-0.1-1.8-0.1-2.7c0-0.6-0.1-1.2,0-1.8c0-0.3,0.1-0.7,0.2-0.9c2-3.5,4.1-7,6.1-10.4
	c0-0.1,0-0.1,0.1-0.3c-0.9-0.3-1.8-0.7-2.8-1c0.7-1.7,1.4-3.3,2.1-5.1c2.9,0.9,5.9,1.8,8.8,2.7C163.9,22.3,161.4,26.9,158.8,31.7z"
	/>
<path class="st0" d="M37,36.9c0-0.6,0-1.5-0.1-2.5c0-0.7,0-1.6,0-2.6c0-0.2-0.1-0.5-0.1-0.9c-0.7,0.2-1.4,0.3-2,0.3
	c-1.4,0.2-3.3-0.8-4-2.6c-0.5-0.7-0.6-1.5-0.5-2.3c-0.2-2.4-0.2-4.9-0.2-7.2c-0.2-0.9-0.2-1.8-0.1-2.4c-0.1-0.4-0.1-0.6,0-0.7
	c2.1-0.3,4.2-0.3,6.4-0.2c0,0,0.1,0.2,0.1,0.6c0,1.3,0,2.7,0.1,4.3c0,0.2,0.1,0.6,0.1,1.1c2.1-0.2,4.1-0.2,6.1-0.2
	c0.2,0.4,0.2,0.9,0.1,1.5c0.2,3.3,0.2,6.5,0.2,9.7c0.2,1.2,0.2,2.3,0.1,3.2c0.1,0.4,0.1,0.7,0,0.8C41.2,37.1,39.1,37.1,37,36.9z"/>
</svg>
