<?xml version="1.0" encoding="utf-8"?>
<!-- Generator: Adobe Illustrator 24.1.1, SVG Export Plug-In . SVG Version: 6.00 Build 0)  -->
<svg version="1.1" id="Layer_1" xmlns="http://www.w3.org/2000/svg" xmlns:xlink="http://www.w3.org/1999/xlink" x="0px" y="0px"
	 viewBox="0 0 156 89" style="enable-background:new 0 0 156 89;" xml:space="preserve">
<style type="text/css">
	.st0{fill:#FFFFFF;}
</style>
<path class="st0" d="M0,1.3c1.3-0.1,2.4-0.2,3.6-0.2C8.2,1,12.7,1,17.2,1c3.5-0.1,6.9-0.2,10.5-0.3c0.4,2.9,0.2,5.8,0.3,8.8
	c-2,0.1-3.9,0.2-5.9,0.2c-0.1,0.6-0.1,1-0.1,1.4c0.1,2.3,0.2,4.5,0.2,6.7c0,3.8,0.4,7.6,0,11.5c-0.5,4.4-3.9,8.2-8.5,9
	c-2.9,0.6-5.7,0.1-8.2-1.5c-2.4-1.5-3.9-3.6-4.6-6.3c-0.6-2-0.6-4-0.6-6C0.2,20.3,0.1,16.2,0,12C0,8.4,0,4.9,0,1.3z"/>
<path class="st0" d="M0.4,49.9c1.3-0.1,2.4-0.1,3.6-0.1c4.5,0.1,9.1,0.2,13.6,0.2c3.5,0.1,6.9,0,10.5-0.1c0.3,2.9,0.1,5.8,0.1,8.8
	c-2,0-3.9,0.1-5.9,0.1c-0.1,0.6-0.1,1-0.1,1.4c0,2.3,0.1,4.5,0.1,6.7c-0.1,3.8,0.2,7.7-0.3,11.5c-0.6,4.4-4.1,8.1-8.8,8.8
	c-3,0.5-5.7-0.1-8.2-1.7c-2.3-1.5-3.8-3.7-4.5-6.5c-0.5-2-0.5-4-0.4-6c0.1-4.2,0.1-8.4,0.1-12.5C0.2,57,0.4,53.5,0.4,49.9z"/>
<path class="st0" d="M87.8,51.4c7.5-0.7,14.9-1.4,22.3-2.2c0.1,0.4,0.1,0.8,0.2,1.2c0.3,4,0.7,8.1,1,12.1c0.4,4.5,0.7,9,1,13.5
	c0.1,1.6,0,3.2-0.6,4.8c-1,2.8-2.9,4.9-5.5,6.1c-4.6,2.2-9,1.7-12.8-1.7c-1.5-1.4-2.5-3.1-3.1-5.1c-1-3.3-0.9-6.8-1.2-10.2
	c-0.5-5.3-0.9-10.6-1.3-15.9C87.7,53.2,87.8,52.4,87.8,51.4z"/>
<path class="st0" d="M72.7,69.4c-0.6,1.5-0.2,3-0.4,4.6c4.5,0.3,9,0.5,13.6,0.8c-0.2,3.2-0.4,6.2-0.7,9.4c-4.5-0.2-8.8-0.4-13.3-0.6
	c-0.1,1.5-0.2,3-0.3,4.6c-3.6-0.2-7.1-0.3-10.8-0.5c0-0.6,0-1,0-1.5c0.1-0.6,0.1-1.2,0.1-1.9c0.1-1.1,0-1.2-1.1-1.3
	c-0.6-0.1-1.2-0.1-1.9-0.2c-0.4-1.6,0-3.1,0-4.7c0-1.5,0.2-3.1,0.3-4.7c0.8,0.1,1.4,0.1,2.2,0.1c1.2,0.1,1.3-0.1,1.4-1.2
	c0.1-2.2,0.2-4.4,0.3-6.6c0.1-2.2,0.2-4.3,0.4-6.5c0.2-2.4,0.9-4.5,2.6-6.3c3-3.3,8.1-4.4,12.1-2.6c4.2,1.8,6.6,5.1,7.1,9.4
	c0.5,4.1-1.3,7.7-5.2,9.5c-1.7,0.8-3.7,0.8-5.6,0.4C73.2,69.6,73.1,69.5,72.7,69.4z"/>
<path class="st0" d="M105.5,26.8c4.4-0.4,8.4-0.8,12.5-1.2c-0.1-0.8-0.7-1-1.1-1.4c-2.2-1.7-4.4-3.4-6.5-5.2
	c-1.4-1.2-2.6-2.6-3.4-4.4c-1-2-1.2-4.1-0.6-6.3c1-4.4,3.9-7.1,8.1-8.1c5.6-1.3,10.7,1.4,13.1,6.1c0.8,1.6,1.3,3.3,1,5.2
	c-3.5,0.3-7.1,0.6-11,0.9c0.4,0.5,0.7,0.8,1,1.1c2,1.7,4,3.4,6.1,5.1c1.5,1.2,3,2.5,4,4.1c2,3,2,6,0.4,9.1
	c-2.5,4.7-6.6,6.9-11.7,6.7c-5.1-0.2-8.8-2.9-10.8-7.6C106.2,29.8,106,28.4,105.5,26.8z"/>
<path class="st0" d="M43.9,74.9C44,79,44,83,44.1,87.1c-0.8,0.1-1.5,0.2-2.3,0.2c-2.3,0.1-4.6,0.1-6.9,0.1c-0.5,0-1.3,0.2-1.5-0.1
	c-0.3-0.4-0.3-1.2-0.3-1.8c-0.1-5.7-0.2-11.4-0.3-17.1c-0.1-5.4-0.3-10.8-0.4-16.3c0-0.6-0.4-1.3,0.2-1.9c3.4-0.1,6.9-0.2,10.6-0.4
	c0.1,2.9,0.1,5.6,0.1,8.3c1,0.5,2,0.3,3,0.3c2.2,0.1,4.1,0.7,5.6,2.3c1.1,1.2,1.9,2.5,2.2,4.1c0.3,1.3,0.4,2.6,0.4,3.9
	c0.1,1.8,0.1,3.7,0.1,5.7C51.1,74.7,47.6,74.8,43.9,74.9z"/>
<path class="st0" d="M145.1,26c-0.2,4.1-0.3,8.1-0.4,12.2c-0.8,0-1.5,0.1-2.3,0.1c-2.3-0.1-4.6-0.2-6.9-0.2c-0.5,0-1.3,0.1-1.4-0.1
	c-0.3-0.5-0.2-1.2-0.2-1.8c0.2-5.7,0.4-11.4,0.5-17.1c0.1-5.4,0.2-10.8,0.3-16.3c0-0.6-0.4-1.3,0.3-1.9C138.3,1,141.8,1,145.5,1
	c-0.1,2.9-0.2,5.6-0.3,8.3c1,0.6,2,0.4,3,0.5c2.2,0.2,4,0.9,5.5,2.5c1,1.2,1.8,2.6,2,4.2c0.2,1.3,0.3,2.6,0.3,3.9
	c0,1.8-0.1,3.7-0.2,5.7C152.3,26.2,148.7,26.1,145.1,26z"/>
<path class="st0" d="M82.8,1.2c3.5,0,7.1,0.1,10.7,0.1c0,1.4,0,2.6,0,3.9c-0.1,2-0.1,4-0.2,6.1c-0.1,5.7-0.2,11.4-0.3,17.1
	c0,0.1,0.1,0.2,0.1,0.6c3.4,0,6.8,0.1,10.3,0.1c-0.1,3.3-0.2,6.4-0.3,9.6c-0.2,0.1-0.4,0.1-0.7,0.1c-4.7-0.1-9.5-0.1-14.2-0.1
	c-1.5,0-3.1,0.1-4.6,0.1c-0.4,0-0.9,0-1.3-0.1C82,37.2,82.3,5.6,82.8,1.2z"/>
<path class="st0" d="M68.9,0.8C69,4.2,69.1,7.6,69.1,11c2.9,0.3,5.8,0.1,8.8,0.1c0.1,3.1,0.1,6.2,0.1,9.4c-2.9,0.6-5.7,0.1-8.5,0.4
	c0.1,5.8,0.3,11.5,0.4,17.4c-3.6,0.1-7.1,0.2-10.7,0.3c0-1,0-1.8,0-2.6c-0.1-5.4-0.2-10.8-0.3-16.2c-0.1-4-0.2-7.9-0.3-11.9
	C58.6,6,58.5,4,58.4,2.1c0-0.3,0.1-0.5,0.1-0.9C61.9,0.8,65.3,0.7,68.9,0.8z"/>
<path class="st0" d="M54.6,37.2c0,0.4-0.1,0.7-0.2,1.2c-3.4,0-6.7,0-10.1,0.1L43.6,11l-0.9,0l0.7,27.4c-3.7,0-7.4,0-11.1,0.1l0,0
	c-0.1-1.1-0.1-2.1-0.1-3c0-5.2,0-10.4-0.1-15.7c0-0.4,0-0.7,0-1.1c0-0.8,0-1.6,0-2.5c0-0.2,0-0.5,0-0.7c0-0.6,0-1.2,0-1.8
	c0-0.7,0-1.3,0-2c0-1,0.2-2.1,0.4-3.1c1-4.7,5.5-7.4,9.1-7.8c5.2-0.6,10.9,3.1,12.2,8.7c0.5,2.1,0.5,4.2,0.5,6.3
	c0,6.2,0.1,12.2,0.1,18.4C54.4,35.1,54.5,36.1,54.6,37.2z"/>
</svg>
