<svg width="81" height="65" viewBox="0 0 81 65" fill="none" xmlns="http://www.w3.org/2000/svg">
<path d="M80.3579 39.0269C79.582 37.3047 80.3931 34.8092 80.3931 34.774L80.6752 33.9305L79.8289 33.825C79.4057 33.7196 75.4561 32.8409 73.1639 31.0484C70.4838 28.9746 60.4687 22.8589 58.8113 21.9802C57.048 21.0663 55.4259 20.3282 55.3553 20.2931L55.038 20.1525L54.8264 20.2579C53.8037 20.4688 50.9825 21.0312 50.1715 21.699C49.572 22.1911 48.3024 22.0505 47.7382 22.0153C47.2445 21.9802 46.504 21.1015 46.4334 20.6445C46.3982 20.3634 46.2571 20.1525 46.0455 19.9767C45.6223 19.6604 45.0934 19.7307 44.4586 19.8361C43.9296 19.9064 43.2244 20.0119 42.8364 19.801C42.1312 19.4144 42.0959 19.2738 41.9901 18.7817C41.9548 18.6411 41.9196 18.4654 41.849 18.2896C41.4964 17.2352 40.1563 16.708 38.4284 16.0753C38.1463 15.9699 37.8994 15.8644 37.6173 15.759C36.7357 15.4075 36.5594 15.056 36.383 14.6342C36.242 14.3531 36.1009 13.9664 35.713 13.6852C35.5367 13.5447 35.3251 13.4041 35.0783 13.2283C34.2672 12.7011 33.0329 11.8927 32.9271 10.9789C32.7155 9.3269 31.9397 7.95612 30.917 7.4992C30.4939 7.28831 29.6828 6.16358 29.3654 4.8631C29.0833 3.63292 28.1664 3.00026 27.1438 2.33245C26.7206 2.05126 26.2621 1.73493 25.8037 1.3483C24.5694 0.258713 22.771 0.11812 21.9599 0.153268C21.7836 0.0126765 21.5367 -0.0224707 21.2898 0.0126773C18.0808 0.821081 2.00017 5.56606 0.272214 20.5391C-0.609399 28.2014 0.660123 35.9339 3.93972 42.8932C6.97247 49.3253 11.4863 54.5975 16.7055 57.7257C19.9145 59.6588 23.0883 61.0999 26.2621 62.0137C31.2344 63.5251 36.5241 64.2632 42.0254 64.2632C47.0682 64.2632 52.2873 63.6305 57.577 62.3652C66.7105 60.1509 73.5518 56.6009 75.9145 55.0544C80.64 51.9263 81.4158 41.3467 80.3579 39.0269ZM21.9599 1.62949C22.5946 1.62949 23.9699 1.73493 24.8868 2.50819C25.3805 2.92996 25.9095 3.28144 26.3679 3.59777C27.3201 4.23044 27.849 4.61706 27.9901 5.24973C28.3427 6.83139 29.3654 8.41305 30.3176 8.83482C30.7055 9.01056 31.3755 9.81897 31.5165 11.2249C31.6929 12.7714 33.2445 13.8258 34.2672 14.4937C34.4788 14.6342 34.6903 14.7748 34.7961 14.8451C34.9019 14.9154 34.9725 15.056 35.0783 15.3021C35.3251 15.8644 35.6778 16.6025 37.1236 17.1649C37.4057 17.2703 37.6878 17.3758 37.9699 17.4812C38.9926 17.8679 40.4032 18.3951 40.5443 18.7817C40.5795 18.9223 40.6148 19.0629 40.6501 19.2035C40.8264 19.9767 41.038 20.504 42.2017 21.1366C43.0128 21.5584 44.0002 21.453 44.7055 21.3475C44.8465 21.3124 45.0228 21.3124 45.1286 21.2772C45.446 22.2614 46.5392 23.3861 47.5972 23.4915C47.8793 23.5267 48.2672 23.5618 48.6904 23.5618C49.4662 23.5618 50.383 23.4212 51.0531 22.894C51.2294 22.7534 51.7584 22.5777 52.3931 22.3668C52.2168 22.5777 52.0757 22.8237 52.0052 23.0698C51.9347 23.2104 51.8994 23.3509 51.8289 23.5267C51.4762 24.5811 51.2294 25.2489 49.5367 25.2138C47.844 25.1435 47.4208 25.8465 47.1387 26.6549C46.9624 27.1118 46.8566 27.4281 46.116 27.7444C45.0934 28.1662 44.0354 28.2365 43.0128 28.342C41.9196 28.4123 40.8969 28.5177 40.0153 28.9746C39.5216 29.2558 39.0631 29.6073 38.64 29.9236C37.582 30.7672 36.8767 31.2592 36.1362 30.8726L35.7836 30.6969C34.1614 29.8885 32.1513 28.8692 30.0354 30.1697C29.7181 30.3805 29.4359 30.3805 29.0833 30.1697C28.3075 29.6776 27.7432 28.342 27.7785 27.9905C28.0606 26.6549 26.8616 25.8113 25.5568 24.8975C24.5342 24.1593 24.2521 23.2806 24.5342 22.8237C24.6047 22.7534 24.64 22.648 24.7105 22.5777C25.4158 21.5935 25.5216 20.8906 24.2521 19.4847C23.9699 19.1683 23.6526 18.852 23.3352 18.5708C22.1715 17.4461 21.5014 16.708 21.713 15.7941C21.7483 15.6184 21.7836 15.4426 21.8188 15.2669C22.2067 13.5798 22.6652 11.5061 21.0077 10.1353C20.1614 9.39719 20.8667 3.52748 21.9599 1.62949ZM17.446 56.6009C8.20672 51.0124 -0.186225 36.9181 1.68279 20.7851C3.12864 8.13186 15.6475 3.21115 20.373 1.80523C19.3503 4.51162 18.5392 9.88926 20.1261 11.1546C21.043 11.8927 20.8667 13.1229 20.4435 14.8803C20.4082 15.056 20.373 15.2318 20.3377 15.4075C19.9851 17.1297 21.2546 18.3951 22.383 19.4847C22.7004 19.7658 22.9825 20.047 23.2294 20.3282C23.9699 21.1366 23.9347 21.1718 23.582 21.6638C23.5115 21.7341 23.4762 21.8396 23.4057 21.945C22.6299 23.1401 23.1941 24.792 24.781 25.9167C25.7684 26.6197 26.509 27.1821 26.4385 27.5687C26.2621 28.4474 27.038 30.3102 28.2369 31.1538C29.048 31.7513 29.9649 31.7865 30.8113 31.2592C32.2571 30.3454 33.6677 31.0835 35.1841 31.8568L35.5367 32.0325C37.1236 32.8058 38.4636 31.7865 39.5569 30.9429C39.98 30.6266 40.3679 30.3102 40.7558 30.0994C41.3553 29.7479 42.2017 29.7127 43.1891 29.6424C44.2823 29.5721 45.4813 29.4667 46.7155 28.9395C48.0203 28.4123 48.3377 27.5687 48.514 27.0415C48.6904 26.5846 48.7256 26.4791 49.5367 26.5143C52.2521 26.6197 52.8163 24.9678 53.2042 23.9133C53.2395 23.7727 53.31 23.6321 53.3453 23.5267C53.5921 22.9292 54.4737 22.1911 55.1438 21.7693C55.708 22.0153 56.907 22.5777 58.1765 23.2455C60.0455 24.2296 69.8138 30.2048 72.3176 32.1731C73.6576 33.2275 75.4208 33.9656 76.9019 34.4929C75.8087 34.9498 74.4687 35.723 73.0229 37.0938C71.5065 38.4997 70.5191 40.0814 69.3553 41.9442C66.8516 45.916 63.7483 50.907 53.5569 56.6361C40.7558 63.736 29.2949 63.7711 17.446 56.6009ZM75.1035 53.9648C72.8465 55.4762 66.1815 58.9207 57.2244 61.0647C51.582 62.4355 45.975 63.0682 40.5795 62.9276C45.0228 62.1543 49.5367 60.4672 54.2269 57.8311C64.7357 51.9263 67.9448 46.7947 70.5191 42.6823C71.6123 40.9249 72.5997 39.3784 73.9397 38.1131C76.0556 36.18 77.8188 35.5473 78.8062 35.3716C78.5946 36.4611 78.4183 38.1834 79.0883 39.6596C79.7936 41.2061 79.2294 51.1882 75.1035 53.9648Z" fill="white"/>
<path d="M51.0536 22.8588C50.3836 23.4211 49.4667 23.5266 48.6909 23.5266C48.2677 23.5266 47.8798 23.4914 47.5977 23.4563C46.5045 23.3508 45.4465 22.2261 45.1291 21.242C44.9881 21.242 44.847 21.2771 44.706 21.3123C44.0007 21.4177 43.0133 21.5583 42.2022 21.1014C41.0385 20.4687 40.8269 19.9415 40.6506 19.1682C40.6153 19.0628 40.58 18.9222 40.5448 18.7465C40.4037 18.3247 38.9931 17.8326 37.9705 17.446C37.6883 17.3405 37.4062 17.2351 37.1241 17.1297C35.6783 16.5673 35.3609 15.8292 35.0788 15.2668C34.973 15.0208 34.9024 14.9153 34.7967 14.8099C34.6909 14.7044 34.4793 14.599 34.2677 14.4584C33.245 13.7906 31.6934 12.7713 31.5171 11.1896C31.3407 9.78372 30.706 9.01047 30.3181 8.79958C29.3659 8.3778 28.3433 6.79614 27.9906 5.21448C27.8495 4.54667 27.3206 4.16004 26.3684 3.56253C25.91 3.2462 25.4163 2.92986 24.8873 2.47294C24.0057 1.69968 22.5951 1.59424 21.9604 1.59424C20.8672 3.49223 20.1619 9.36195 21.0082 10.0298C22.6657 11.3654 22.2072 13.4743 21.8193 15.1614C21.7841 15.3371 21.7488 15.5128 21.7135 15.6886C21.5372 16.6024 22.2072 17.3405 23.3357 18.4653C23.6531 18.7465 23.9705 19.0628 24.2526 19.3791C25.5221 20.785 25.4163 21.488 24.711 22.4721C24.6405 22.5424 24.6052 22.6127 24.5347 22.7182C24.2526 23.1751 24.5347 24.0538 25.5574 24.7919C26.8269 25.7058 28.0611 26.5845 27.779 27.8849C27.7438 28.2364 28.308 29.572 29.0838 30.0641C29.4012 30.275 29.7186 30.275 30.0359 30.0641C32.1518 28.7636 34.1972 29.7829 35.7841 30.5913L36.1367 30.7671C36.8773 31.1537 37.5825 30.6616 38.6405 29.8181C39.0989 29.4666 39.5221 29.1151 40.0158 28.8691C40.8974 28.377 41.9201 28.3067 43.0133 28.2364C44.036 28.1661 45.0939 28.0607 46.1166 27.6389C46.8571 27.3226 46.9982 26.9711 47.1392 26.5493C47.4213 25.7409 47.8445 25.038 49.5372 25.1083C51.2299 25.1785 51.4415 24.4756 51.8294 23.4211C51.8647 23.2806 51.9352 23.14 52.0057 22.9642C52.1115 22.7182 52.2173 22.5073 52.3936 22.2613C51.7236 22.5073 51.2299 22.7182 51.0536 22.8588ZM27.4264 17.0242L26.0158 16.8485C26.1921 15.5831 25.1342 15.3371 24.8168 15.302L24.9931 13.896C26.1216 14.0366 27.7085 14.9856 27.4264 17.0242ZM27.6027 11.5411C27.3206 9.92431 25.9805 9.85402 25.8042 9.85402V8.4481C26.7211 8.4481 28.5548 9.04562 28.978 11.2951L27.6027 11.5411ZM30.2475 25.5652C29.7891 23.5969 28.308 23.5617 28.308 23.5617V22.1558C29.2249 22.1558 31.0586 22.7885 31.6228 25.2488L30.2475 25.5652ZM32.9982 21.3826C32.9982 20.0118 31.5523 19.7658 31.4113 19.7306L31.5876 18.3247C32.575 18.4653 34.4087 19.2385 34.4087 21.3474H32.9982V21.3826ZM37.7941 26.4439C37.3004 25.1082 35.643 25.53 35.4667 25.5652L35.0788 24.2296C36.1367 23.9484 38.3231 23.9132 39.0989 25.9518L37.7941 26.4439ZM43.8596 25.3543C43.4012 23.632 41.109 23.8078 41.0032 23.8078L40.8621 22.4019C42.0964 22.2964 44.6002 22.683 45.1997 25.0028L43.8596 25.3543Z" fill="#F1BB23"/>
<path d="M75.104 53.9649C72.8471 55.4762 66.1821 58.9207 57.2249 61.0648C51.5826 62.4355 45.9755 63.0682 40.5801 62.9276C45.0234 62.1544 49.5373 60.4672 54.2274 57.8311C64.7363 51.9263 67.9453 46.7947 70.5196 42.6824C71.6128 40.925 72.6002 39.3785 73.9403 38.1131C76.0562 36.18 77.8194 35.5473 78.8068 35.3716C78.5952 36.4612 78.4189 38.1834 79.0889 39.6596C79.7942 41.2061 79.23 51.1882 75.104 53.9649Z" fill="#F1BB23"/>
<path d="M76.8667 34.4577C75.7735 34.9146 74.4335 35.6878 72.9876 37.0586C71.4712 38.4645 70.4838 40.0462 69.3201 41.909C66.8163 45.8808 63.7131 50.8718 53.5216 56.6009C40.7559 63.7711 29.2949 63.7711 17.446 56.6009C8.20675 51.0124 -0.186194 36.918 1.68282 20.7851C3.12867 8.13181 15.6476 3.2111 20.373 1.80518C19.3503 4.51157 18.5392 9.88921 20.1262 11.1545C21.043 11.8926 20.8667 13.1228 20.4435 14.8802C20.4083 15.056 20.373 15.2317 20.3377 15.4074C19.9851 17.1297 21.2546 18.395 22.3831 19.4846C22.7005 19.7658 22.9826 20.047 23.2294 20.3282C23.97 21.1366 23.9347 21.1717 23.5821 21.6638C23.5115 21.7341 23.4763 21.8395 23.4057 21.945C22.6299 23.14 23.1942 24.792 24.7811 25.9167C25.7685 26.6197 26.509 27.182 26.4385 27.5687C26.2622 28.4474 27.038 30.3102 28.237 31.1537C29.0481 31.7513 29.9649 31.7864 30.8113 31.2592C32.2571 30.3453 33.6677 31.0835 35.1841 31.8567L35.5367 32.0324C37.1236 32.8057 38.4637 31.7864 39.5569 30.9429C39.9801 30.6265 40.368 30.3102 40.7559 30.0993C41.3554 29.7478 42.2017 29.7127 43.1891 29.6424C44.2823 29.5721 45.4813 29.4666 46.7156 28.9394C48.0204 28.4122 48.3377 27.5687 48.5141 27.0414C48.6904 26.5845 48.7256 26.4791 49.5367 26.5142C52.2521 26.6197 52.8163 24.9677 53.2042 23.9133C53.2395 23.7727 53.31 23.6321 53.3453 23.5266C53.5921 22.9291 54.4738 22.191 55.1438 21.7692C55.708 22.0153 56.907 22.5776 58.1765 23.2455C60.0455 24.2296 69.8138 30.2048 72.3176 32.173C73.6224 33.1923 75.3856 33.9656 76.8667 34.4577Z" fill="#F1BB23"/>
<path d="M27.426 17.0242L26.0154 16.8484C26.1917 15.5831 25.1338 15.3371 24.8164 15.3019L24.9927 13.896C26.1212 14.0366 27.7081 14.9856 27.426 17.0242Z" fill="white"/>
<path d="M31.6225 25.2488L30.2472 25.5651C29.7887 23.5968 28.3076 23.5617 28.3076 23.5617V22.1558C29.2245 22.1558 31.0582 22.7884 31.6225 25.2488Z" fill="white"/>
<path d="M34.4086 21.3826H32.998C32.998 20.0118 31.5522 19.7658 31.4111 19.7306L31.5875 18.3247C32.5396 18.4653 34.4086 19.2737 34.4086 21.3826Z" fill="white"/>
<path d="M39.0983 25.9519L37.7935 26.444C37.2998 25.1084 35.6424 25.5302 35.466 25.5653L35.0781 24.2297C36.1361 23.9134 38.3225 23.9134 39.0983 25.9519Z" fill="white"/>
<path d="M45.199 25.0032L43.8237 25.3546C43.3652 23.6324 41.073 23.8081 40.9672 23.8081L40.8262 22.4022C42.0957 22.2968 44.5995 22.6834 45.199 25.0032Z" fill="white"/>
<path d="M29.0127 11.2952L27.6374 11.5413C27.3552 9.92446 26.0152 9.85416 25.8389 9.85416V8.44824C26.7557 8.44824 28.5895 9.04576 29.0127 11.2952Z" fill="white"/>
</svg>
