<?xml version="1.0" encoding="utf-8"?>
<!-- Generator: Adobe Illustrator 24.1.1, SVG Export Plug-In . SVG Version: 6.00 Build 0)  -->
<svg version="1.1" id="Layer_1" xmlns="http://www.w3.org/2000/svg" xmlns:xlink="http://www.w3.org/1999/xlink" x="0px" y="0px"
	 viewBox="0 0 330 187" style="enable-background:new 0 0 330 187;" xml:space="preserve">
<style type="text/css">
	.st0{fill:#FFFDFD;}
</style>
<g>
	<path class="st0" d="M0.6,51.8c0,4.1,0.1,8.4,1.3,12.7c1.7,5.9,5,10.4,9.8,13.4c3.9,2.5,8.2,3.7,12.6,3.7c1.6,0,3.1-0.2,4.8-0.5
		c9.6-1.8,17-9.7,18.1-19.1c0.5-5.4,0.4-10.9,0.2-16.1c-0.1-2.6-0.2-5.4-0.2-8.1C47,35.4,47,33,46.9,30.6c-0.1-2.3-0.2-4.7-0.2-7.1
		c0-0.7,0.1-1.4,0.1-2.1l0.1-0.9c2.1-0.1,4.1-0.1,6.1-0.2l0.1,0c1.7-0.1,3.5-0.1,5.3-0.2l1,0l0-1c0-1.7,0-3.5,0-5.2v-0.1
		c0-1,0-2,0-3.1c0-2.4-0.1-5.4-0.5-8.3l-0.1-0.9l-1.3,0c-7.2,0.2-14,0.4-20.9,0.5C31.6,2.2,26.8,2.2,22,2.2l-0.3,0
		c-4.7,0-9.4,0.1-14.1,0.1c-2.2,0-4.5,0.2-6.7,0.4L0,2.9v22.4C0.1,34,0.3,42.7,0.6,51.1L0.6,51.8z M2,25.2V4.6
		c1.8-0.2,3.7-0.3,5.6-0.3c4.7-0.1,9.4-0.1,14.1-0.1l0.3,0c4.8,0,9.6-0.1,14.4-0.1C43.2,4,49.9,3.8,56.9,3.6
		c0.3,2.6,0.3,5.1,0.4,7.2c0,1,0,2,0,3v0.1c0,1.4,0,2.8,0,4.3c-1.5,0.1-2.9,0.1-4.3,0.2l-0.1,0c-2,0.1-4,0.2-6,0.2l-1.8,0l-0.2,2.6
		c-0.1,0.8-0.2,1.5-0.2,2.4c0.1,2.4,0.1,4.7,0.2,7.1c0.1,2.4,0.2,4.7,0.2,7.1c0,2.8,0.1,5.5,0.2,8.2c0.2,5.4,0.4,10.5-0.2,15.8
		c-1,8.6-7.7,15.7-16.5,17.4c-5.7,1.1-11.1,0.1-15.9-3c-4.5-2.8-7.4-6.8-8.9-12.3c-1.1-4-1.2-8.1-1.2-12.2l0-0.7
		C2.3,42.6,2.1,33.9,2,25.3l-1,0L2,25.2z"/>
	<path class="st0" d="M59.6,105.6l-0.9,0c-6.3,0.1-13.4,0.2-20.4,0.1v0l-1.1,0l-28.7-1.5c-2.2,0-4.5,0.1-6.5,0.2l0,0
		c-0.2,0-0.3,0-0.5,0l-0.6,0l0.1,2l0.1,0c0,1-0.1,2-0.1,3.1c-0.1,1.3-0.1,2.5-0.2,3.5c-0.1,5.5-0.2,10.1-0.2,14.9
		c0,3.5-0.1,7-0.1,10.5l0,2.8c0,4.4-0.1,8.8-0.1,13.2c-0.1,3.6-0.1,7.7,0.7,11.7l0,0l0.3,1l0,0c0,0,0,0,0,0l0.1,0.2l0.2,0.7l0.1,0
		c1.6,5.4,4.7,9.7,9.3,12.7c4,2.7,8.3,4,12.9,4c1.4,0,2.8-0.1,4.3-0.4l0.1,0c9.2-1.4,16.7-8.6,18.4-17.7l0,0l0,0l0,0l0.1-0.9
		c0,0,0,0,0,0l0-0.1c0,0,0-0.1,0-0.1l0.1-0.8l0,0l0,0l0,0c0.6-5.4,0.6-10.7,0.5-15.9c0-2.4-0.1-4.9,0-7.3c0-0.9,0-1.9,0-2.8
		c0-1.5,0-3-0.1-4.5l0-1.2c0-1.9-0.1-3.8-0.1-5.7c0-0.7,0.1-1.3,0.1-2.1c0-0.3,0.1-0.6,0.1-0.9h0c2,0,3.9,0,5.9-0.1l1.9,0
		c1.2,0,2.4,0,3.7,0l1,0l0-1c0-1.5,0-3,0.1-4.5c0.1-3.9,0.2-8-0.2-12.2L59.6,105.6z M57.9,118.7L57.9,118.7c0,1.2,0,2.3-0.1,3.5
		c-0.9,0-1.8,0-2.7,0l-1.9,0c-2,0-3.9,0.1-5.9,0.1h-1.8l-0.2,1.8c0,0.3-0.1,0.6-0.1,0.9c-0.1,0.8-0.2,1.5-0.2,2.3c0,2,0,3.9,0.1,5.8
		l0,1.2c0,1.5,0.1,3,0.1,4.5c0,0.9,0,1.8,0,2.8c0,2.5,0,5,0,7.4c0.1,5.4,0.1,11-0.6,16.6l0,0l0,0c0,0,0,0,0,0l0,0
		c-1.2,8.6-8.1,15.5-16.8,16.9l-0.1,0c-5.8,1-11-0.1-15.8-3.3c-4.1-2.7-6.9-6.6-8.4-11.5l0,0l-0.3-1c-1-4.1-1-8.2-0.9-12.2
		c0.1-4.4,0.1-8.8,0.1-13.2l-1,0l1-0.1l0-2.7c0-3.5,0-7,0.1-10.6c-0.1-4.7,0-9.3,0.2-14.8c0-1,0.1-2.2,0.1-3.5
		c0.1-1.1,0.1-2.3,0.1-3.3c1.7-0.1,3.6-0.1,5.4-0.1l27.8,1.4l0,0.1h1c6.9,0.1,14.1,0,20.5-0.1C58.1,111.4,58,115.1,57.9,118.7z"/>
	<path class="st0" d="M236.4,131.9c-0.4-4.3-0.7-8.5-1.1-12.8l0-0.4c-0.4-4.1-0.7-8.3-1.1-12.5l0-0.1c0-0.2-0.1-0.4-0.1-0.7
		c-0.1-0.5-0.2-1-0.2-1.6l-0.1-1l-1,0.1c-16.6,1.7-33.2,3.3-47.2,4.7l-0.9,0.1l0,2.5c0,1.4,0,2.6,0.1,3.7l0.2,2.4
		c0.2,2.8,0.4,5.5,0.7,8.2c0.6,7.1,1.2,15.2,1.9,23.1c0.2,1.8,0.3,3.6,0.4,5.4l0,0.8c0.3,5.1,0.6,10.4,2.1,15.6
		c1.3,4.6,3.5,8.3,6.8,11.3c5.1,4.4,10.6,6.6,16.5,6.6c3.8,0,7.8-1,11.8-2.9c5.7-2.7,9.9-7.3,12.1-13.5l0,0
		c1.1-3.2,1.5-6.6,1.2-10.5C237.9,151.1,237.2,141.8,236.4,131.9z M235.4,170.4c-2,5.7-5.8,9.9-11,12.4c-9.4,4.6-18.2,3.4-26.1-3.5
		c-3-2.7-5.1-6.1-6.2-10.4c-1.5-4.9-1.8-10.1-2.1-15.1l0-0.8c-0.1-1.8-0.2-3.6-0.4-5.4c-0.7-7.9-1.4-15.9-1.9-23
		c-0.2-2.7-0.4-5.5-0.7-8.2l-0.2-2.5c-0.2-1-0.1-2.1-0.1-3.5l0-0.7c13.6-1.3,29.4-2.8,45.4-4.5c0,0.2,0.1,0.5,0.1,0.7
		c0,0.2,0.1,0.5,0.1,0.7l0,0c0.3,4.1,0.7,8.3,1.1,12.4l0,0.4c0.4,4.2,0.8,8.5,1.1,12.8c0.8,9.9,1.5,19.2,2.1,28.6
		C236.8,164.3,236.4,167.4,235.4,170.4z"/>
	<path class="st0" d="M167.6,157.3c-4.9-0.3-9.8-0.5-14.7-0.8c0.2-1.4,0.2-2.6,0.2-4l0-0.9c0-1.4,0.1-3.1,0.7-4.8v0l0,0
		c0.2,0.1,0.3,0.1,0.5,0.2c0.1,0,0.2,0.1,0.3,0.1c0.3,0.1,0.5,0.1,0.8,0.1l0,0c4.4,1,8.5,0.8,11.8-0.8c8-3.9,12-11.2,11-20.2
		c-1.1-9.4-6.2-16.3-14.9-19.9c-8.6-3.6-19.2-1.3-25.7,5.6c-3.2,3.5-5,7.9-5.5,13.4c-0.5,4.6-0.7,9.2-0.9,13.6l-0.7,13.9
		c0,0.4-0.1,1-0.2,1.4c-0.1,0.4-0.2,0.6-0.4,0.8c-0.2,0.2-0.5,0.3-0.9,0.3c-0.4,0.1-1,0-1.5,0c-0.7-0.1-1.5-0.1-2.2-0.1l0,1l-0.1-1
		c-0.4,0-0.8,0-1.2-0.1l-1,0l-0.1,1c-0.1,0.9-0.1,1.7-0.2,2.5l0,0.2c-0.2,2.2-0.4,4.2-0.4,6.3c0,1.1-0.1,2.3-0.2,3.4l0,0.1
		c0,0.5-0.1,1-0.1,1.5c-0.1,1.2-0.1,2.7,0.2,4.3l0.1,0.7l0.8,0.1c1.2,0.1,2.2,0.2,3.2,0.3l0.1,0c0.5,0.1,1,0.1,1.4,0.2
		c0.4,0.1,0.6,0.2,0.7,0.4c0.1,0.2,0.2,0.4,0.3,0.8c0,0.4,0,0.9,0,1.4c0,1.4-0.1,2.7-0.2,3.9l0,3.2l22.7,1l0.1-1
		c0.1-1.7,0.2-3.3,0.4-4.9l0.3-3.8c4.8,0.2,9.4,0.4,14.2,0.6l0.3,0c4.3,0.2,8.5,0.4,12.8,0.5l1,0l0.1-1c0.2-3,0.4-6,0.6-8.9
		c0.2-2.9,0.4-5.9,0.6-8.9l0.1-1l-1-0.1C176.2,157.8,171.9,157.5,167.6,157.3z M178.8,167.7l0,0.2c-0.2,2.6-0.4,5.3-0.6,8
		c-4-0.2-7.9-0.3-11.8-0.5l-0.3,0c-4.7-0.2-9.4-0.4-14.1-0.6l-1.9-0.1l-0.4,5.8c-0.1,1.3-0.2,2.6-0.3,3.9l-18.9-0.9v-1l-1,0l1-0.1
		c0.1-1.2,0.2-2.6,0.2-4c0-0.5,0.1-1.1,0-1.6c-0.1-0.8-0.3-1.4-0.7-1.9c-0.4-0.5-1-0.8-1.8-1c-0.5-0.1-1-0.2-1.5-0.2l-0.2,0
		c-0.8-0.1-1.6-0.1-2.5-0.2c-0.1-0.8-0.1-1.8,0-3c0-0.5,0.1-1,0.1-1.5l-1-0.1l1,0c0.1-1.2,0.2-2.4,0.2-3.6c0-2,0.2-4,0.4-6.1l0-0.2
		c0-0.5,0.1-1.1,0.1-1.6c0.1,0,0.2,0,0.2,0l0.1,0c0.7,0,1.4,0.1,2.1,0.1l0.1,0c0.6,0,1.2,0,1.8,0c0.8-0.1,1.4-0.4,1.9-0.8
		c0.5-0.5,0.8-1,1-1.8c0.1-0.6,0.2-1.2,0.2-1.8l0.7-13.9c0.2-4.4,0.5-9,0.9-13.6c0.5-5.2,2.1-9,5-12.2c5.9-6.3,15.5-8.4,23.4-5.1
		c8,3.4,12.7,9.7,13.7,18.3c1,8.2-2.5,14.6-9.8,18.1c-2.8,1.4-6.5,1.6-10.4,0.7l-0.5-0.1c0,0-0.1,0-0.1,0c-0.1,0-0.1-0.1-0.3-0.1
		c-0.2-0.1-0.3-0.1-0.6-0.2l-1.8-0.6l-0.7,1.8c-0.8,1.9-0.9,3.8-0.9,5.5l0,0.9c0,1.2,0,2.4-0.2,3.6l-0.4,2.2l2.2,0.1
		c4.9,0.3,9.8,0.6,14.7,0.8c4,0.2,7.9,0.4,11.9,0.7C179.2,162.6,179,165.1,178.8,167.7z"/>
	<path class="st0" d="M272.2,48.5c-2.2-3.5-5.3-6.1-8.5-8.7l-6.4-5.4c-2.1-1.8-4.3-3.6-6.4-5.4c-0.3-0.3-0.6-0.6-1-1l-0.4-0.4
		c-0.2-0.3-0.5-0.6-0.8-0.9h0c2.4-0.2,4.8-0.4,7.2-0.6l0.6-0.1c5-0.4,9.8-0.9,14.6-1.2l0.9-0.1l0.1-0.9c0.2-3.3-0.5-6.5-2.3-10.2
		c-5.3-10.4-16.4-15.6-27.6-12.9C233,3,227.2,8.7,225,17.8c-1.2,4.6-0.8,9.1,1.3,13.3c1.5,3.4,3.9,6.5,7.1,9.2
		c3.1,2.6,6.3,5.1,9.5,7.6c1.4,1.1,2.8,2.2,4.2,3.3c0.1,0.1,0.3,0.2,0.5,0.3c0.7,0.5,1.7,1.2,1.9,2.6l-3.7,0.4c-7,0.7-14,1.3-21.5,2
		l-1.2,0.1l0.3,1.1c0.2,0.7,0.4,1.4,0.5,2.1c0.1,0.5,0.3,1.1,0.4,1.6c0.3,1.4,0.8,2.9,1.4,4.3c4.2,10.1,12.1,15.6,22.7,16.1
		c0.5,0,1,0,1.5,0c10.3,0,18.4-4.9,23.3-14.1c1.7-3.3,2.5-6.6,2.4-9.7C275.4,54.8,274.3,51.6,272.2,48.5z M271.4,66.8
		c-4.8,9.1-12.5,13.5-22.9,13c-9.8-0.4-17.1-5.6-21-14.9c-0.6-1.3-0.9-2.7-1.3-4c-0.1-0.5-0.2-1-0.4-1.5c-0.1-0.3-0.2-0.7-0.2-1
		c7-0.6,13.7-1.3,20.3-1.9l5.8-0.5l-0.3-2.1c-0.3-2.3-1.9-3.4-2.7-4c-0.1-0.1-0.2-0.1-0.3-0.3c-1.4-1.1-2.8-2.2-4.3-3.4
		c-3.1-2.5-6.3-5-9.4-7.5c-2.9-2.5-5.1-5.3-6.6-8.6c-1.9-3.8-2.2-7.7-1.1-11.9c2-8.3,7.3-13.6,15.7-15.7C253,0.2,263.2,5,268,14.5
		c1.5,3.1,2.1,5.7,2.1,8.3c-4.5,0.4-9,0.8-13.7,1.2l-0.6,0.1c-2.3,0.2-4.7,0.4-7.2,0.6l-4,0.3l2.6,3c0.3,0.3,0.5,0.6,0.8,0.9
		l0.3,0.4c0.3,0.4,0.7,0.8,1.2,1.2c2.2,1.8,4.3,3.6,6.4,5.4l0.9,0.7c1.8,1.5,3.7,3.1,5.6,4.6c3.1,2.5,6.1,5.1,8.1,8.3
		c1.9,2.8,2.9,5.6,3,8.5C273.7,60.9,272.9,63.8,271.4,66.8z"/>
	<path class="st0" d="M114.4,137.2c-0.5-3.1-2.1-6.1-4.7-8.7c-2.9-3-6.9-4.7-11.8-4.8c-0.5,0-1,0-1.6,0l-0.2,0c-0.4,0-0.9,0-1.4,0
		c-0.9,0-2-0.1-3.2-0.7h0c-0.1-2.9-0.1-5.8-0.1-8.8l0-0.3c0-2.5-0.1-5-0.1-7.5l0-1l-1,0c-6.8,0.3-13.5,0.5-20,0.7l-1.5,0l-0.3,0.4
		c-0.4,0.6-0.4,1.2-0.4,1.6c0,0.3,0.1,0.6,0.1,0.9l0,0.1c0.1,0.3,0.1,0.7,0.1,1c0.1,5.8,0.3,11.6,0.5,17.2l0,0.2
		c0.2,5.6,0.3,11.3,0.5,16.9c0.1,6.1,0.2,12.1,0.3,18.1c0.1,6,0.2,12.1,0.3,18.1c0,0.7,0,1.3,0.1,2c0.1,0.6,0.2,1.1,0.4,1.4l0.2,0.5
		l0.6,0c0.1,0,0.1,0,0.2,0c0.1,0,0.3,0,0.4,0c0.2,0,0.4,0,0.6-0.1l-0.1-1l0.2,1l0.2,0c0.3,0,0.6-0.1,0.9-0.1
		c2.4-0.1,4.9-0.1,7.3-0.1c2.5,0,4.9-0.1,7.3-0.1c1.1,0,2-0.1,3.1-0.2l1.7-0.2l0-0.9c0-4-0.1-7.9-0.1-11.7l0-0.3
		c0-4.3-0.1-8.6-0.1-12.9c1.8-0.1,3.7-0.1,5.5-0.2c5.3-0.1,10.7-0.3,16.1-0.6l0.9-0.1l0-3.2c0-3,0-5.9-0.1-8.8
		C115.2,142.1,114.9,139.5,114.4,137.2z M113.4,154.3l0,1.3c-5,0.3-10.1,0.4-15.1,0.5c-1.8,0-3.6,0.1-5.5,0.2l-2,0.1l0,2
		c0.1,4.4,0.1,8.6,0.1,12.9l0,0.3c0,3.6,0,7.2,0.1,10.8c-0.9,0.1-1.8,0.2-2.8,0.2c-2.4,0.1-4.9,0.1-7.3,0.1c-2.4,0-4.9,0.1-7.3,0.1
		c-0.4,0-0.7,0-1.1,0.1l-0.3,0c-0.1,0-0.2,0-0.2,0c0-0.1,0-0.1,0-0.2c-0.1-0.5-0.1-1.2-0.1-1.8c-0.1-6.1-0.2-12.1-0.3-18.2
		c-0.1-6-0.2-12-0.3-18.1c-0.1-5.7-0.3-11.4-0.5-17l0-0.1c-0.2-5.6-0.3-11.4-0.5-17.2c0-0.5-0.1-0.9-0.2-1.4l0-0.1
		c0-0.2-0.1-0.4-0.1-0.6l0.3,0c6.1-0.2,12.4-0.4,18.9-0.7c0,2.2,0.1,4.3,0.1,6.5l0,0.3c0,2.9,0.1,5.8,0.1,8.7l0,1.2l1.1,0.5
		c1.6,0.7,3,0.9,4.1,0.9c0.5,0,1,0,1.5,0l0.2,0c0.5,0,1,0,1.5,0c4.4,0.1,7.8,1.5,10.4,4.2c2.3,2.4,3.7,5,4.2,7.8
		c0.5,2.2,0.8,4.6,0.9,8C113.5,148.4,113.5,151.3,113.4,154.3z"/>
	<path class="st0" d="M329.3,35.2c-0.6-3.3-2-6.3-4.3-9c-2.8-3.2-6.6-5-11.5-5.4c-0.5-0.1-1-0.1-1.6-0.1l-0.2,0
		c-0.5,0-0.9,0-1.4-0.1c-0.9-0.1-2-0.2-3.3-0.9v0c0.1-5.2,0.3-10.2,0.5-15.6l0.1-2l-1,0c-3.4,0-6.7-0.1-10-0.1l-0.4,0
		c-3.6,0-7.1-0.1-10.6-0.1l-0.5,0l-0.3,0.3c-0.2,0.2-0.3,0.4-0.4,0.6c-0.1,0.3-0.2,0.6-0.2,1c0,0.3,0.1,0.7,0.1,1.1
		c0,0.3,0.1,0.7,0.1,1c-0.1,5.7-0.2,11.4-0.3,17l0,0.2c-0.1,5.7-0.2,11.4-0.3,17.2c-0.2,8-0.4,16.1-0.7,24
		c-0.1,4.1-0.3,8.1-0.4,12.2l0,0.6c0,0.5,0,0.9,0,1.4c0,0.6,0.1,1,0.3,1.4l0.2,0.6l0.6,0.1c0.3,0,0.8,0,1.5,0c0.3,0,0.5,0,0.8,0
		c2.5,0.1,4.9,0.1,7.4,0.2c2.4,0.1,4.9,0.2,7.3,0.2c0.7,0,1.5,0,2.3-0.1c0.5,0,1,0,1.5,0l0.9,0l0-0.9c0.2-4,0.3-8,0.4-12.1
		c0.1-4.3,0.3-8.5,0.5-12.9h0c3.8,0.1,7.6,0.1,11.4,0.2l0.3,0c3.4,0.1,6.7,0.2,10.1,0.2l1,0l0-1c0-1.1,0.1-2.2,0.1-3.3l0-0.1
		c0.1-2.5,0.2-5.1,0.2-7.6C329.8,40.1,329.7,37.5,329.3,35.2z M327.6,51l0,0.1c0,0.8-0.1,1.6-0.1,2.3c-3-0.1-6.1-0.1-9.1-0.2l-0.3,0
		c-3.8-0.1-7.6-0.2-11.4-0.2l-2,0l-0.1,1.9c-0.2,4.4-0.3,8.6-0.5,13c-0.1,3.7-0.3,7.3-0.4,11c-0.2,0-0.4,0-0.6,0
		c-0.8,0-1.5,0.1-2.2,0.1c-2.4-0.1-4.8-0.1-7.3-0.2c-2.4-0.1-4.9-0.2-7.4-0.2c-0.3,0-0.6,0-1,0c-0.2,0-0.3,0-0.5,0
		c0-0.1,0-0.1,0-0.2c0-0.4,0-0.8,0-1.2l0-0.6c0.1-4.1,0.2-8.1,0.4-12.3c0.3-7.9,0.5-16,0.7-24c0.1-5.7,0.2-11.4,0.3-17.2l0-0.2
		c0.1-5.6,0.2-11.3,0.3-16.9l0-0.1c0-0.5-0.1-0.9-0.1-1.3c0-0.2-0.1-0.5-0.1-0.6c3.2,0,6.5,0.1,9.9,0.1l0.3,0c3,0,5.9,0,9,0.1
		c-0.2,5.4-0.4,10.4-0.5,15.6l0,1.2l1.1,0.6c1.5,0.8,3,1,4,1.1c0.5,0,1,0.1,1.5,0.1l0.2,0c0.5,0,1,0,1.5,0.1
		c4.4,0.3,7.8,1.9,10.2,4.7c2.1,2.4,3.4,5.1,3.9,8c0.4,2.1,0.6,4.7,0.6,7.9C327.8,46,327.7,48.5,327.6,51z"/>
	<path class="st0" d="M216.8,81.8c0.2,0,0.4,0,0.6-0.1l0.8-0.1l0-0.8c0.1-3.1,0.2-6.1,0.3-9.1l0-0.8c0.1-2.9,0.2-5.8,0.2-8.8l0-1
		l-1,0c-3.4,0-6.7,0-10-0.1l-0.1,0c-3.6,0-7.1-0.1-10.6-0.1h0c-0.1-0.3-0.1-0.6-0.2-0.8c0-0.1-0.1-0.3-0.1-0.4
		c0.1-5.7,0.2-11.3,0.3-17l0-1.2c0.1-6,0.2-12,0.3-18.1l0.4-12.9V2.6l-1,0c-3.5,0-7,0-10.5-0.1l-0.1,0c-3.4,0-6.8-0.1-10.1-0.1
		l-0.9,0l-0.1,0.9c-0.5,6.4-0.9,26.1-1,41.1c-0.1,9.3-0.1,18.2-0.1,24.9c0,3.5,0.1,6.4,0.1,8.4c0,1.1,0.1,1.9,0.1,2.6l0.1,1.3
		l0.9,0.1c0.6,0,1.2,0,1.9,0c1.6,0,3.3,0,4.9-0.1c1.6,0,3.3-0.1,4.9-0.1C196.7,81.6,206.9,81.7,216.8,81.8z M181.7,79.7
		c-1.6,0-3.2,0.1-4.9,0.1c-0.3,0-0.6,0-0.9,0c0-0.6-0.1-1.2-0.1-2c-0.1-2.1-0.1-4.9-0.1-8.4c0-6.7,0-15.6,0.1-24.9
		c0.1-14.3,0.5-32.9,0.9-40c3.1,0,6.1,0,9.2,0.1l0.2,0c3.1,0,6.2,0,9.4,0.1v6.1l1,0l-1,0.1l-0.3,12.8l0,0.1
		c-0.1,6.1-0.2,12.1-0.3,18.1l0,1.2c-0.1,5.6-0.2,11.3-0.3,16.9l0,0.1c0,0.4,0.1,0.7,0.1,0.9c0,0.1,0.1,0.3,0.1,0.6l0.3,1.7h1.7
		c3.5,0,7,0,10.6,0.1l0.1,0c3,0,6,0,9,0.1c-0.1,2.6-0.1,5.2-0.2,7.7l0,0.8c-0.1,2.7-0.1,5.4-0.2,8.1c-9.7-0.1-19.7-0.2-29.5-0.2
		C185,79.6,183.4,79.6,181.7,79.7z"/>
	<path class="st0" d="M123.7,10.7c0.1,2,0.2,4,0.2,6c0.2,7.7,0.5,16.4,0.6,25.1c0.1,5.7,0.2,11.4,0.3,17.1l0,0.5
		c0.1,5.5,0.2,11.1,0.3,16.7v5.5l1,0c3.4-0.1,6.8-0.2,10.2-0.3l0.2,0c3.4-0.1,6.8-0.2,10.2-0.3l1,0l0-1c-0.1-5.9-0.3-11.7-0.4-17.5
		l0-0.7c-0.1-5.9-0.3-11.7-0.4-17.6c2.5-0.2,5.1-0.2,7.5-0.2l1.4,0c2.5,0,5.4,0,8.2-0.5l0.8-0.1l0-0.9c0-1.4,0-2.8,0-4.2l0-0.1
		c0-4.5,0-9.2-0.1-13.8l0-1l-1,0c-1.9,0-3.9,0-5.7,0c-3.9,0.1-8,0.1-12-0.3c-0.1-3.7-0.1-7.3-0.2-10.8c-0.1-3.3-0.2-6.5-0.2-9.9l0-1
		l-1,0c-6.5-0.2-12.9,0.1-20.3,0.8l-0.8,0.1l-0.1,1.2c0,0.3,0,0.5,0,0.8c0.1,2,0.1,4,0.2,5.9L123.7,10.7z M125.5,4.3
		c6.6-0.6,12.5-0.8,18.3-0.7c0.1,3,0.1,6,0.2,8.9c0.1,3.6,0.2,7.2,0.2,10.8l0,1.8l1.8,0.2c4.1,0.4,8.2,0.3,12.2,0.3
		c1.6,0,3.1,0,4.7,0c0.1,4.3,0.1,8.6,0.1,12.7l0,0.1c0,1.1,0,2.2,0,3.3c-2.2,0.3-4.4,0.3-7.1,0.3l-1.4,0c-2.5,0-5.1,0-7.8,0.2
		l-1.8,0.2l0,1.8c0.1,5.9,0.3,11.7,0.4,17.6l0,0.7c0.1,5.5,0.3,11,0.4,16.5c-3.1,0.1-6.1,0.2-9.3,0.2l-0.1,0c-3,0.1-6.1,0.1-9.2,0.2
		V76c-0.1-5.5-0.2-11.1-0.3-16.6l0-0.5c-0.1-5.7-0.2-11.4-0.3-17.1c-0.1-8.7-0.4-17.4-0.6-25.1c-0.1-2-0.1-4-0.2-6l0-0.3
		c-0.1-2-0.2-3.9-0.2-5.9C125.5,4.4,125.5,4.3,125.5,4.3z"/>
	<path class="st0" d="M115.4,72.6c0-6.4,0-12.8,0.1-19.2l0-0.3c0-6.5,0.1-13,0.1-19.5c0-4.4,0-8.9-0.9-13.3
		C112,8.7,100.4,0.3,88.8,1.5C80.8,2.4,71.4,8.3,69.1,18c-0.5,2.2-0.8,4.5-0.9,6.7c-0.1,3.8-0.1,7.7,0,11.5c0,1.9,0,3.8,0,5.7v33.2
		c0,0.9,0,1.9,0.1,3l0,0.1c0,0.8,0,1.5,0.1,2.4l0,1l1,0c7.6,0.1,15.1,0.1,22.6,0.1c7.5,0,15.1,0.1,22.7,0.1l0.9-0.1l0.2-1.3
		c0.1-0.4,0.1-0.8,0.1-1.3c0-0.7-0.1-1.4-0.1-2.2C115.5,75.6,115.4,74.1,115.4,72.6z M113.7,79.7c-7.3-0.1-14.6-0.1-21.9-0.1
		c-7.2,0-14.3-0.1-21.6-0.1c0-0.5,0-0.9,0-1.4l0-0.1c0-1-0.1-2-0.1-2.9V41.9c0-1.9,0-3.8,0-5.8c0-3.8-0.1-7.7,0-11.4
		c0.1-2,0.4-4.2,0.9-6.3c2.1-8.8,10.6-14.1,18-14.9h0c10.6-1.1,21.2,6.6,23.6,17.2c0.9,4.2,0.9,8.4,0.9,12.9c0,6.5,0,13-0.1,19.5
		l0,0.3c0,6.4-0.1,12.8-0.1,19.2c0,1.5,0.1,3,0.2,4.5c0.1,0.7,0.1,1.4,0.1,2.1C113.8,79.3,113.8,79.5,113.7,79.7z"/>
</g>
</svg>
