<svg width="66" height="134" viewBox="0 0 66 134" fill="none" xmlns="http://www.w3.org/2000/svg">
<path d="M64.7808 119.468C64.4987 118.273 64.2166 117.043 64.6045 115.742C65.3803 112.966 65.204 112.333 64.1461 110.786C63.7582 110.259 63.7934 109.17 63.8287 108.221C63.864 107.237 63.8992 106.323 63.5466 105.655C63.5113 105.585 63.5113 105.549 63.5113 105.549C63.5113 105.479 63.6524 105.339 63.7229 105.233C64.005 104.882 64.5692 104.214 64.1461 103.23C63.8992 102.632 63.6171 102.316 63.4408 102.105C63.4055 102.07 63.3702 102.035 63.335 101.999C63.335 101.964 63.3703 101.894 63.4055 101.789C63.476 101.578 63.5466 101.402 63.6524 101.226C63.9697 100.594 64.1461 99.996 63.4408 99.047C63.2645 98.801 63.1234 98.6253 62.9823 98.4847C62.7002 98.1684 62.7002 98.1684 62.9118 97.5357C63.4408 96.0243 63.5466 93.81 62.665 92.6853C62.0302 91.8769 61.607 91.3145 61.7833 90.9279L61.8891 90.717C62.3123 89.8734 63.1939 88.0809 61.8891 86.4641C61.5718 86.0423 61.6423 85.726 61.8891 85.0933C62.1007 84.4606 62.4181 83.5819 61.7128 82.7735C61.607 82.6681 61.5365 82.5626 61.466 82.4572C61.1486 82.0706 61.1486 82.0706 61.1486 81.3325C61.1486 81.0864 61.1486 80.8052 61.1486 80.4538C61.1486 77.2904 60.7959 75.6033 60.0201 74.8301C60.0201 74.8301 60.0201 74.7949 60.0554 74.7949C60.3375 74.338 60.8312 73.5296 60.267 72.0534C59.9496 71.245 59.738 70.3311 59.5264 69.5579C59.1738 68.0817 58.9269 67.203 58.2922 66.8866C57.869 66.6758 57.5163 66.2188 57.1637 65.3753C57.0579 65.1292 57.2342 64.6723 57.4458 64.2154C57.6927 63.5827 58.0453 62.7743 57.7985 61.9308C57.5869 61.1575 57.0932 60.6654 56.7405 60.314C56.3879 59.9625 56.3174 59.8922 56.3526 59.7516C56.3879 59.5407 56.4584 59.3298 56.4937 59.0486C56.7053 58.1699 57.0226 57.01 56.3526 55.8502C56 55.2526 55.6826 54.7957 55.3652 54.4091C55.0831 53.9873 54.8363 53.671 54.5894 53.2492C54.5189 53.1086 54.5189 53.0383 54.6247 52.6517C54.7657 52.019 54.9773 51.1052 54.5541 49.2423C53.9194 46.2899 50.6045 38.4519 48.3123 36.343C46.4786 34.6911 43.1637 31.6683 35.6876 32.9688C35.7229 30.9302 35.7582 26.7476 35.7229 24.6739C35.6524 22.4596 39.3904 8.47067 40.801 3.26876L40.9068 2.81184L38.4735 0.808404L37.1335 5.37764L37.5919 1.51136L32.9723 1.12474L28.9874 21.9675L28.4937 20.7725L27.33 5.86972L21.6876 4.4638L19.7834 0L15.34 1.37077L15.6574 3.02273L15.5164 2.77669L12.1662 4.60439L15.8337 14.0241C15.8337 14.0241 15.8338 13.9889 15.7985 13.9889C13.7531 10.5093 9.02771 6.11575 8.85138 5.90486L8.32242 5.41279L6.38287 7.62712L5.8539 8.22463L6.52393 8.68155C6.52393 8.68155 8.60453 10.0875 10.6499 15.5706C10.9673 16.4493 11.4257 17.3983 11.9899 18.4527L4.19647 13.2508L2.01008 17.7146L6.38287 20.4561L1.19899 18.4878L0 21.9324L0.670023 22.1784C0.811081 22.2487 16.1511 27.6263 22.2166 33.9881C22.5693 34.5153 22.8866 34.9371 23.0982 35.2886C23.4156 35.8158 23.6272 36.343 23.7682 36.8702C22.7808 37.3975 17.9144 40.139 16.0806 43.9701C14.5642 47.1686 14.9874 49.629 15.2343 51.1052C15.3048 51.5621 15.3753 51.9487 15.3753 52.1948C15.34 52.476 15.2695 52.7923 15.199 53.1438C14.9521 54.3036 14.5995 55.8502 15.7985 57.3615C16.7506 58.5917 16.9269 60.2437 17.1033 62.1417C17.1385 62.5283 17.1738 62.9149 17.2091 63.3367C17.4559 65.4807 18.3023 69.3118 19.607 71.1395C20.0655 71.7722 20.4887 72.1237 20.8413 72.4049C21.3703 72.8266 21.5819 73.0375 21.6524 74.0568C21.7934 76.3063 22.1814 78.0988 23.5567 79.4345C23.9446 79.8211 23.9093 79.8914 23.8388 80.2429C23.733 80.6295 23.5567 81.227 23.9798 82.0354C24.4383 82.9493 25.1083 83.0899 25.5315 83.1602C25.8489 83.2305 25.9194 83.2305 26.0604 83.6874C26.1662 84.074 26.3073 84.4958 26.4131 84.9176C26.801 86.3586 27.1889 87.7997 28.0705 88.7487C28.3879 89.065 28.529 89.4516 28.67 89.9789C28.9169 90.7521 29.2342 91.7011 30.3627 92.5447C31.1033 93.107 31.1385 93.3531 31.1738 93.8803C31.209 94.2669 31.209 94.8293 31.5264 95.4971C31.9496 96.3758 33.0428 97.3599 34.1007 98.3089C34.7002 98.8713 35.6171 99.6797 35.7934 99.996C35.7934 100.101 35.7934 100.172 35.7934 100.277C35.7934 101.156 35.8287 102.316 37.3803 103.616C37.9093 104.073 37.874 104.179 37.8035 104.6C37.733 105.022 37.6272 105.655 38.0856 106.428C38.932 107.764 41.7179 110.716 42.7053 111.384C43.199 111.735 43.199 111.876 43.2695 112.228C43.2695 112.368 43.3048 112.474 43.34 112.614C43.5163 113.317 43.7985 113.985 44.3627 115.004C44.6801 115.567 44.9975 115.883 45.2796 116.164C45.5617 116.445 45.8085 116.656 45.9849 117.148C46.3728 118.273 46.7959 118.73 47.2544 119.257C47.3249 119.327 47.3954 119.398 47.466 119.503C47.6423 119.714 47.7834 120.03 47.9597 120.417C48.136 120.839 48.3476 121.331 48.7002 121.788C48.9471 122.139 49.0529 122.35 49.1587 122.596C49.2997 122.877 49.476 123.229 49.864 123.791C50.1108 124.143 50.2166 124.424 50.3224 124.67C50.4987 125.092 50.675 125.549 51.3803 126.041C52.2619 126.673 52.5088 126.99 52.6499 127.447C52.6851 127.552 52.6851 127.658 52.7204 127.728C52.8262 128.466 53.0378 129.099 54.5189 129.977C55.2594 130.434 55.7884 130.575 56.2468 130.68C56.8111 130.821 57.199 130.926 58.01 131.7C58.8917 132.578 60.0201 133.035 61.0781 133.035C61.3602 133.035 61.607 133 61.8891 132.93C63.0176 132.649 63.8992 131.735 64.3224 130.399C64.9219 128.536 64.9572 126.709 64.9924 125.127C65.0277 124.213 65.0277 123.334 65.1687 122.631C65.2393 121.542 64.9924 120.487 64.7808 119.468ZM34.136 2.6361L36.005 2.81184L34.5944 14.0592L35.9698 14.3404L39.1788 3.47965L39.2494 3.54995C38.4383 6.46723 34.1713 22.2487 34.2418 24.9199C34.2771 26.9937 34.2418 31.1411 34.2418 33.1797C32.7607 32.4065 31.068 31.4223 29.34 29.9461C29.2342 29.8406 29.1285 29.7352 28.9874 29.6298L34.136 2.6361ZM25.9899 6.9593L26.7657 16.5899L22.3577 6.04546L25.9899 6.9593ZM13.9295 5.23705L14.9874 4.67468L18.5138 10.6498L16.9622 2.39006L18.9723 1.7574L28.4937 24.4982L27.7179 28.4699C25.1436 25.9392 21.7229 21.9675 19.1133 18.6636L13.9295 5.23705ZM1.79849 21.0536L2.0806 20.2804L12.5189 24.2521L13.1537 22.9868L3.84382 17.1874L4.7607 15.2894L13.5416 21.1239C15.2342 23.9709 17.3149 26.9937 19.1486 29.6298C12.9068 25.3066 4.267 21.9675 1.79849 21.0536ZM21.7934 30.8951C18.5491 26.2907 13.6121 19.2962 11.9899 15.0433C10.403 10.8256 8.78085 8.82215 7.89924 7.9786L8.39295 7.41623C9.69773 8.68155 13.0126 12.0206 14.5642 14.6567C16.5743 18.1012 24.4735 27.5912 28.3879 30.9302C30.5038 32.7579 32.5844 33.8475 34.2771 34.7262C35.2292 35.2183 36.0403 35.6401 36.6045 36.0618C35.1939 37.0811 31.4206 39.3658 25.1788 39.9633C25.4609 38.7331 25.6373 36.6242 24.2972 34.4802C23.8035 33.7421 22.9219 32.4767 21.7934 30.8951ZM63.6524 122.315C63.5113 123.123 63.476 124.072 63.4408 125.057C63.4055 126.568 63.3702 128.29 62.8413 129.942C62.5592 130.856 62.0655 131.383 61.3954 131.559C60.6196 131.77 59.6322 131.418 58.8564 130.68C57.7985 129.661 57.1284 129.485 56.4937 129.309C56.0705 129.204 55.7179 129.099 55.1184 128.747C54.0957 128.15 54.0604 127.904 53.9899 127.517C53.9899 127.376 53.9546 127.236 53.9194 127.06C53.6725 126.181 53.1435 125.654 52.1561 124.881C51.7682 124.6 51.6977 124.424 51.5567 124.072C51.4509 123.791 51.2745 123.44 50.9572 122.948C50.6045 122.456 50.4635 122.174 50.3577 121.928C50.2166 121.647 50.0755 121.366 49.7582 120.909C49.5818 120.663 49.4408 120.417 49.335 120.171C50.6398 119.96 53.2141 119.503 55.0478 118.835L54.5541 117.535C52.6146 118.273 49.6876 118.73 48.7002 118.871C48.6297 118.765 48.5592 118.66 48.4886 118.554C48.4181 118.484 48.3476 118.378 48.2771 118.308C47.8891 117.851 47.5718 117.535 47.2896 116.656C47.0075 115.883 46.6196 115.461 46.267 115.145C46.0201 114.899 45.8085 114.688 45.597 114.301C44.9975 113.212 44.7859 112.684 44.7153 112.263C44.6801 112.157 44.6801 112.087 44.6801 112.017C44.5743 111.419 44.4332 110.857 43.5163 110.224C42.9169 109.802 41.3652 108.221 40.272 106.92C41.9647 106.639 45.1032 106.006 48.4534 104.811L47.9597 103.476C44.1511 104.882 40.4836 105.479 39.2846 105.655C39.1083 105.339 39.1436 105.198 39.1788 104.846C39.3199 104.144 39.3551 103.405 38.2619 102.492C37.204 101.613 37.204 100.98 37.204 100.242C37.204 100.101 37.204 99.9609 37.204 99.8555C37.1687 99.1525 36.4282 98.4847 35.0529 97.2545C34.1713 96.4812 33.0781 95.4971 32.796 94.8644C32.5844 94.4427 32.5844 94.1263 32.5491 93.7748C32.5491 93.6694 32.5491 93.564 32.5138 93.4585C34.7355 93.1422 41.2594 92.1229 47.7128 89.5571L47.1839 88.2566C40.4836 90.8927 33.6776 91.8769 31.9496 92.0877C31.7733 91.8417 31.4912 91.6308 31.1738 91.3496C30.398 90.7873 30.1864 90.1546 29.9748 89.4868C29.7985 88.9244 29.5869 88.2918 29.0579 87.7294C28.4232 87.0616 28.0705 85.7611 27.7531 84.5309C27.6473 84.1092 27.5063 83.6522 27.4005 83.2305C27.0126 81.9651 26.2368 81.8245 25.7783 81.7542C25.4609 81.6839 25.3904 81.6839 25.2494 81.4028C25.073 81.0864 25.1436 80.9107 25.2141 80.5944C25.2494 80.5241 25.2494 80.4186 25.2846 80.3483C27.0478 80.3483 31.8438 80.1374 38.0151 78.5909L37.6625 77.2201C31.3854 78.8018 26.4131 78.9424 25.0025 78.9424C24.8967 78.7667 24.7557 78.5909 24.5441 78.4152C23.4861 77.3959 23.204 75.9548 23.063 73.9514C22.9572 72.4049 22.4635 71.9128 21.7582 71.3153C21.4408 71.0692 21.1234 70.7881 20.7708 70.296C19.7834 68.9252 18.937 65.5862 18.6549 63.1609C18.6196 62.9501 18.6196 62.7392 18.5844 62.5283C20.9118 62.458 27.8942 62.1768 34.2771 60.2437L33.8892 58.908C27.6473 60.7709 20.5944 61.0872 18.4786 61.1224C18.3023 59.4001 18.0201 57.7833 16.9622 56.4828C16.1864 55.4987 16.398 54.4794 16.6448 53.425C16.7154 53.0383 16.8212 52.6517 16.8212 52.3002C16.8564 51.8784 16.7859 51.4215 16.6801 50.8591C16.4332 49.3829 16.0806 47.3795 17.3854 44.5677C18.8312 41.5801 22.534 39.2252 23.9798 38.3465C23.9798 39.5415 23.5919 40.4202 23.5567 40.4905L23.063 41.5801L24.262 41.5098C33.5012 40.9123 38.0151 36.8351 38.2267 36.6945L38.7204 36.2376L38.2619 35.7104C37.8388 35.2534 37.3098 34.8317 36.6398 34.445C42.9169 33.5663 45.6322 36.0618 47.3249 37.6084C48.0655 38.2762 48.9823 39.7524 49.864 41.4746C48.2418 42.6697 42.0352 46.8171 31.5264 49.0315L31.8086 50.4022C42.3174 48.1879 48.4886 44.2162 50.4987 42.7751C51.733 45.3409 52.7909 48.1879 53.1436 49.7696C53.4962 51.3161 53.3199 52.0542 53.2141 52.5814C53.1083 53.0383 53.0025 53.5304 53.3199 54.1279C53.602 54.6551 53.8841 55.0769 54.2015 55.4987C54.4836 55.8853 54.7657 56.2719 55.0831 56.8343C55.471 57.5021 55.2947 58.2051 55.0831 58.9783C55.0478 59.1541 54.9773 59.3298 54.9773 59.5056C53.9194 60.2788 48.9471 63.6882 43.5516 65.1995L43.9395 66.5352C48.9471 65.1292 53.4609 62.2471 55.2594 61.0169C55.4005 61.2278 55.5768 61.4035 55.7531 61.5441C56.0705 61.8253 56.3174 62.1065 56.4231 62.4931C56.5289 62.8798 56.3174 63.3718 56.1058 63.8991C55.8237 64.5669 55.5415 65.3401 55.8237 66.1134C56.2821 67.2733 56.8463 67.9762 57.5869 68.3277C57.7632 68.5737 57.9748 69.4524 58.1158 70.0851C58.3274 70.8935 58.5743 71.8425 58.8917 72.7563C59.209 73.5999 58.9975 73.9162 58.7859 74.2677C58.6448 74.4786 58.398 74.9004 58.5037 75.3573C57.3753 76.3063 54.0957 78.8018 50.1461 80.0671L50.5692 81.4028C54.6599 80.1023 57.9395 77.6419 59.2443 76.5523C59.4559 77.185 59.6675 78.38 59.6675 80.6646C59.6675 81.0161 59.6675 81.2973 59.6675 81.5082C59.6675 82.6329 59.6675 82.8087 60.3375 83.5468C60.408 83.6171 60.4786 83.7225 60.5844 83.828C60.7607 84.0389 60.7254 84.2146 60.5138 84.8121C60.3022 85.4799 59.9496 86.4992 60.7607 87.5185C61.4307 88.3621 61.0781 89.3111 60.5844 90.2952L60.4786 90.5061C60.1964 91.0685 60.267 91.6308 60.4786 92.1229C59.4206 92.7556 56.7405 94.1615 53.1083 95.0753L53.4257 96.4461C57.2695 95.4971 60.0554 94.0209 61.1838 93.3531C61.2896 93.4937 61.3954 93.5991 61.5012 93.7397C61.9597 94.3021 61.9597 95.9892 61.5365 97.2545C61.0781 98.5198 61.3249 98.9768 61.8891 99.6094C61.9949 99.7149 62.136 99.8906 62.277 100.066C62.5239 100.383 62.5239 100.383 62.3476 100.769C62.2418 100.945 62.136 101.191 62.0302 101.472C61.7481 102.351 61.9949 102.773 62.3476 103.159C62.4886 103.335 62.665 103.511 62.806 103.897C62.8765 104.073 62.8765 104.108 62.5944 104.46C62.3123 104.811 61.7481 105.479 62.277 106.463C62.4181 106.744 62.4181 107.412 62.4181 108.08C61.7833 108.713 59.3148 110.786 55.4357 111.454L55.6826 112.825C58.8564 112.298 61.1486 110.892 62.4534 109.908C62.4886 110.576 62.6297 111.208 62.9823 111.7C63.7934 112.86 63.9345 113.071 63.2645 115.496C62.806 117.148 63.1234 118.624 63.4408 119.925C63.4408 119.995 63.476 120.066 63.476 120.101C62.806 120.698 60.9017 122.139 58.0453 122.456L58.1864 123.862C60.7607 123.58 62.6297 122.491 63.7229 121.717C63.7229 121.823 63.7229 122.069 63.6524 122.315Z" fill="white"/>
<path d="M34.2066 24.8498C34.2418 26.9235 34.2066 31.0709 34.2066 33.1095C32.7255 32.3363 31.0328 31.3521 29.3048 29.8759C29.199 29.7705 29.0932 29.665 28.9521 29.5596L34.1008 2.60107L35.9698 2.77681L34.5592 14.0242L35.9345 14.3054L39.1436 3.44463L39.2141 3.51492C38.4383 6.43221 34.1713 22.1785 34.2066 24.8498Z" fill="#F1BB23"/>
<path d="M26.7303 16.625L22.3223 6.08057L25.9898 6.95927L26.7303 16.625Z" fill="#F1BB23"/>
<path d="M28.494 24.4629L27.7182 28.4347C25.1439 25.904 21.7233 21.9323 19.1137 18.6284L13.8945 5.23698L14.9525 4.67461L18.4789 10.6498L16.9273 2.38999L18.9374 1.75732L28.494 24.4629Z" fill="#F1BB23"/>
<path d="M19.149 29.5948C12.9072 25.3067 4.26734 21.9677 1.79883 21.0538L2.08094 20.2806L12.5192 24.2523L13.154 22.987L3.84417 17.1875L4.76104 15.2896L13.5419 21.1241C15.2346 23.936 17.3152 26.9938 19.149 29.5948Z" fill="#F1BB23"/>
<path d="M25.1439 39.963C25.426 38.7329 25.6023 36.624 24.2622 34.48C23.7685 33.7067 22.8869 32.4414 21.7585 30.8597C18.5141 26.2553 13.5771 19.2609 11.9549 15.008C10.368 10.7902 8.74587 8.78678 7.86426 7.94323L8.35796 7.38086C9.66274 8.64619 12.9776 11.9852 14.5292 14.6213C16.5393 18.0658 24.4386 27.5558 28.3529 30.8949C30.4688 32.7226 32.5494 33.8121 34.2421 34.6908C35.1942 35.1829 36.0053 35.6047 36.5695 36.0265C35.1942 37.0809 31.4209 39.3655 25.1439 39.963Z" fill="#F1BB23"/>
<path d="M63.6523 122.315C63.5113 123.124 63.476 124.073 63.4408 125.057C63.4055 126.568 63.3702 128.29 62.8413 129.942C62.5592 130.856 62.0654 131.383 61.3954 131.559C60.6196 131.77 59.6322 131.419 58.8564 130.681C57.7984 129.661 57.1284 129.485 56.4937 129.31C56.0705 129.204 55.7178 129.099 55.1184 128.747C54.0957 128.15 54.0604 127.904 53.9899 127.517C53.9899 127.377 53.9546 127.236 53.9193 127.06C53.6725 126.182 53.1435 125.654 52.1561 124.881C51.7682 124.6 51.6977 124.424 51.5566 124.073C51.4508 123.792 51.2745 123.44 50.9571 122.948C50.6045 122.456 50.4634 122.175 50.3576 121.929C50.2166 121.647 50.0755 121.366 49.7581 120.909C49.5818 120.663 49.4408 120.417 49.335 120.171C50.6398 119.96 53.2141 119.503 55.0478 118.836L54.5541 117.535C52.6146 118.273 49.6876 118.73 48.7002 118.871C48.6297 118.765 48.5592 118.66 48.4886 118.554C48.4181 118.484 48.3476 118.379 48.277 118.308C47.8891 117.852 47.5717 117.535 47.2896 116.656C47.0075 115.883 46.6196 115.461 46.267 115.145C46.0201 114.899 45.8085 114.688 45.5969 114.302C44.9974 113.212 44.7859 112.685 44.7153 112.263C44.6801 112.158 44.6801 112.087 44.6801 112.017C44.5743 111.419 44.4332 110.857 43.5163 110.224C42.9168 109.803 41.3652 108.221 40.272 106.92C41.9647 106.639 45.1032 106.007 48.4534 104.812L47.9597 103.476C44.1511 104.882 40.4836 105.479 39.2846 105.655C39.1083 105.339 39.1435 105.198 39.1788 104.847C39.3199 104.144 39.3551 103.406 38.2619 102.492C37.204 101.613 37.204 100.98 37.204 100.242C37.204 100.102 37.204 99.9612 37.204 99.8557C37.1687 99.1528 36.4282 98.485 35.0529 97.2548C34.1712 96.4815 33.078 95.4974 32.7959 94.8647C32.5843 94.4429 32.5843 94.1266 32.5491 93.7751C32.5491 93.6697 32.5491 93.5642 32.5138 93.4588C34.7355 93.1425 41.2594 92.1232 47.7128 89.5574L47.1838 88.2569C40.4836 90.893 33.6775 91.8771 31.9496 92.088C31.7733 91.842 31.4911 91.6311 31.1738 91.3499C30.3979 90.7875 30.1864 90.1549 29.9748 89.4871C29.7984 88.9247 29.5869 88.292 29.0579 87.7297C28.4231 87.0619 28.0705 85.7614 27.7531 84.5312C27.6473 84.1094 27.5063 83.6525 27.4005 83.2307C27.0126 81.9654 26.2367 81.8248 25.7783 81.7545C25.4609 81.6842 25.3904 81.6842 25.2493 81.403C25.073 81.0867 25.1435 80.911 25.2141 80.5946C25.2493 80.5243 25.2493 80.4189 25.2846 80.3486C27.0478 80.3486 31.8438 80.1377 38.0151 78.5912L37.6624 77.2204C31.3854 78.8021 26.4131 78.9427 25.0025 78.9427C24.8967 78.7669 24.7556 78.5912 24.544 78.4154C23.4861 77.3962 23.204 75.9551 23.0629 73.9516C22.9571 72.4051 22.4634 71.9131 21.7582 71.3155C21.4408 71.0695 21.1234 70.7883 20.7707 70.2963C19.7833 68.9255 18.937 65.5864 18.6549 63.1612C18.6196 62.9503 18.6196 62.7394 18.5843 62.5285C20.9118 62.4583 27.8942 62.1771 34.277 60.2439L33.8891 58.9083C27.6473 60.7712 20.5944 61.0875 18.4785 61.1226C18.3022 59.4004 18.0201 57.7836 16.9622 56.4831C16.1864 55.499 16.3979 54.4797 16.6448 53.4252C16.7153 53.0386 16.8211 52.652 16.8211 52.3005C16.8564 51.8787 16.7859 51.4218 16.6801 50.8594C16.4332 49.3832 16.0806 47.3798 17.3854 44.5679C18.8312 41.5803 22.534 39.2254 23.9798 38.3467C23.9798 39.5418 23.5919 40.4205 23.5566 40.4908L23.0629 41.5803L24.2619 41.51C33.5012 40.9125 38.0151 36.8354 38.2267 36.6948L38.7204 36.2379L38.2619 35.7106C37.8387 35.2537 37.3098 34.8319 36.6398 34.4453C42.9168 33.5666 45.6322 36.0621 47.3249 37.6086C48.0655 38.2764 48.9823 39.7527 49.8639 41.4749C48.2418 42.6699 42.0352 46.8174 31.5264 49.0317L31.8085 50.4025C42.3173 48.1882 48.4886 44.2164 50.4987 42.7754C51.733 45.3412 52.7909 48.1882 53.1435 49.7698C53.4962 51.3163 53.3199 52.0545 53.2141 52.5817C53.1083 53.0386 53.0025 53.5307 53.3199 54.1282C53.602 54.6554 53.8841 55.0772 54.2015 55.4989C54.4836 55.8856 54.7657 56.2722 55.0831 56.8346C55.471 57.5024 55.2947 58.2053 55.0831 58.9786C55.0478 59.1543 54.9773 59.3301 54.9773 59.5058C53.9193 60.2791 48.9471 63.6884 43.5516 65.1998L43.9395 66.5354C48.9471 65.1295 53.4609 62.2474 55.2594 61.0172C55.4005 61.2281 55.5768 61.4038 55.7531 61.5444C56.0705 61.8256 56.3173 62.1068 56.4231 62.4934C56.5289 62.88 56.3173 63.3721 56.1058 63.8993C55.8236 64.5671 55.5415 65.3404 55.8236 66.1136C56.2821 67.2735 56.8463 67.9765 57.5869 68.328C57.7632 68.574 57.9748 69.4527 58.1158 70.0854C58.3274 70.8938 58.5743 71.8428 58.8916 72.7566C59.209 73.6002 58.9974 73.9165 58.7859 74.268C58.6448 74.4789 58.3979 74.9006 58.5037 75.3576C57.3753 76.3066 54.0957 78.8021 50.1461 80.0674L50.5692 81.403C54.6599 80.1026 57.9395 77.6422 59.2443 76.5526C59.4559 77.1853 59.6675 78.3803 59.6675 80.6649C59.6675 81.0164 59.6675 81.2976 59.6675 81.5085C59.6675 82.6332 59.6675 82.8089 60.3375 83.5471C60.408 83.6173 60.4785 83.7228 60.5843 83.8282C60.7607 84.0391 60.7254 84.2149 60.5138 84.8124C60.3022 85.4802 59.9496 86.4995 60.7607 87.5188C61.4307 88.3623 61.078 89.3113 60.5843 90.2955L60.4785 90.5064C60.1964 91.0687 60.267 91.6311 60.4785 92.1232C59.4206 92.7558 56.7405 94.1617 53.1083 95.0756L53.4256 96.4464C57.2695 95.4974 60.0554 94.0212 61.1838 93.3533C61.2896 93.4939 61.3954 93.5994 61.5012 93.74C61.9596 94.3023 61.9597 95.9894 61.5365 97.2548C61.078 98.5201 61.3249 98.977 61.8891 99.6097C61.9949 99.7151 62.136 99.8909 62.277 100.067C62.5239 100.383 62.5239 100.383 62.3476 100.77C62.2418 100.945 62.136 101.191 62.0302 101.473C61.7481 102.351 61.9949 102.773 62.3476 103.16C62.4886 103.335 62.6649 103.511 62.806 103.898C62.8765 104.073 62.8765 104.109 62.5944 104.46C62.3123 104.812 61.7481 105.479 62.277 106.464C62.4181 106.745 62.4181 107.413 62.4181 108.08C61.7833 108.713 59.3148 110.787 55.4357 111.455L55.6826 112.825C58.8564 112.298 61.1486 110.892 62.4534 109.908C62.4886 110.576 62.6297 111.209 62.9823 111.701C63.7934 112.86 63.9345 113.071 63.2644 115.497C62.806 117.149 63.1234 118.625 63.4408 119.925C63.4408 119.996 63.476 120.066 63.476 120.101C62.806 120.698 60.9017 122.14 58.0453 122.456L58.1864 123.862C60.7607 123.581 62.6297 122.491 63.7229 121.718C63.7229 121.823 63.7229 122.069 63.6523 122.315Z" fill="#F1BB23"/>
</svg>
