<svg width="244" height="34" viewBox="0 0 244 34" fill="none" xmlns="http://www.w3.org/2000/svg">
<path d="M0 1.11111C1.0644 1.01856 2.03625 0.926 3.0081 0.926C6.84921 0.879721 10.644 0.879721 14.4389 0.833443C17.3544 0.787164 20.2699 0.694608 23.278 0.602051C23.6483 3.05481 23.4632 5.46128 23.5557 7.96032C21.8434 8.0066 20.2699 8.09915 18.6039 8.14543C18.5576 8.6545 18.5114 8.97844 18.5114 9.34867C18.5576 11.2461 18.6502 13.0972 18.6965 14.9946C18.6965 18.1878 19.0204 21.3811 18.6965 24.6205C18.28 28.3228 15.4107 31.4698 11.5233 32.2102C9.07057 32.673 6.75665 32.2565 4.62784 30.9144C2.63787 29.6649 1.38835 27.86 0.740455 25.5924C0.27767 23.9264 0.231392 22.2603 0.231392 20.548C0.138835 17.0309 0.0462784 13.56 0 10.0428C0 7.08103 0 4.11921 0 1.11111Z" fill="white"/>
<path d="M149.252 1.60134C150.316 1.55507 151.288 1.50879 152.26 1.50879C156.055 1.55507 159.896 1.64762 163.691 1.6939C166.606 1.74018 169.522 1.6939 172.53 1.64762C172.807 4.10038 172.622 6.50686 172.622 9.00589C170.91 9.00589 169.336 9.05217 167.67 9.05217C167.624 9.56123 167.578 9.88518 167.578 10.2554C167.578 12.1528 167.67 14.004 167.624 15.9014C167.578 19.0946 167.809 22.3341 167.393 25.5273C166.884 29.1833 163.922 32.3302 160.035 32.9318C157.535 33.3483 155.268 32.8856 153.185 31.4972C151.242 30.2014 149.992 28.3503 149.39 26.0826C148.974 24.4166 148.974 22.7043 149.02 21.0383C149.067 17.5211 149.067 14.004 149.113 10.5331C149.067 7.57126 149.205 4.60944 149.252 1.60134Z" fill="white"/>
<path d="M222.557 2.85114C228.851 2.24952 235.053 1.6479 241.3 1C241.347 1.37023 241.393 1.6479 241.439 1.97185C241.717 5.35017 242.041 8.72849 242.318 12.1068C242.642 15.9016 242.92 19.6502 243.151 23.445C243.244 24.7871 243.151 26.1292 242.689 27.4712C241.856 29.8314 240.282 31.59 238.107 32.6082C234.266 34.4593 230.564 33.9965 227.324 31.1735C226.028 30.0166 225.195 28.5819 224.733 26.8696C223.9 24.0929 223.992 21.1774 223.714 18.3081C223.298 13.8654 222.974 9.42267 222.604 4.93366C222.511 4.33205 222.557 3.68415 222.557 2.85114Z" fill="white"/>
<path d="M209.922 17.9845C209.413 19.2803 209.784 20.4835 209.552 21.8256C213.347 22.057 217.096 22.2421 220.937 22.4735C220.752 25.1577 220.566 27.6567 220.381 30.3408C216.633 30.202 212.977 30.0169 209.182 29.8781C209.089 31.1738 208.997 32.3771 208.904 33.7192C205.85 33.5803 202.934 33.4415 199.88 33.3027C199.88 32.7936 199.88 32.4234 199.88 32.0531C199.926 31.5441 199.973 31.035 199.973 30.4797C200.019 29.5541 199.973 29.5078 199.047 29.4153C198.538 29.369 198.029 29.3227 197.427 29.2764C197.057 27.9344 197.427 26.6386 197.427 25.2965C197.427 24.0007 197.612 22.7049 197.705 21.3165C198.353 21.3628 198.908 21.3628 199.51 21.4091C200.482 21.4554 200.62 21.3165 200.667 20.391C200.759 18.5398 200.852 16.735 200.944 14.8838C201.037 13.079 201.13 11.2741 201.315 9.46927C201.5 7.4793 202.101 5.67444 203.49 4.14725C206.035 1.41682 210.246 0.491254 213.671 1.92589C217.188 3.40679 219.178 6.1835 219.595 9.8395C220.011 13.3104 218.53 16.2722 215.244 17.8457C213.81 18.5398 212.144 18.5398 210.57 18.1696C210.339 18.1696 210.2 18.0771 209.922 17.9845Z" fill="white"/>
<path d="M88.5771 22.492C92.2331 22.1681 95.6115 21.8441 99.0361 21.5202C98.9435 20.826 98.4345 20.6409 98.1105 20.3632C96.3056 18.9286 94.4545 17.494 92.6497 16.0131C91.4464 14.9949 90.4746 13.7917 89.8267 12.3571C88.9937 10.6448 88.8548 8.88619 89.3176 7.08133C90.1969 3.42533 92.5571 1.15769 96.1205 0.278403C100.841 -0.832279 105.099 1.48164 107.089 5.41531C107.736 6.75738 108.153 8.14573 107.968 9.81176C105.006 10.0431 101.998 10.3208 98.7584 10.5985C99.1286 11.015 99.3137 11.2927 99.5914 11.5241C101.304 12.9587 102.97 14.347 104.682 15.7817C105.932 16.7998 107.181 17.8642 108.06 19.2526C109.726 21.7516 109.773 24.2969 108.431 26.8885C106.348 30.8222 102.923 32.6733 98.6196 32.4882C94.362 32.3031 91.2613 30.0817 89.5953 26.1018C89.1325 25.0374 88.9474 23.8341 88.5771 22.492Z" fill="white"/>
<path d="M185.766 22.5651C185.812 26.036 185.812 29.368 185.859 32.8389C185.211 32.8852 184.609 32.9777 183.961 32.9777C182.018 33.024 180.074 33.024 178.13 33.0703C177.714 33.0703 177.019 33.2554 176.881 33.024C176.649 32.6538 176.649 32.0522 176.649 31.5431C176.557 26.7301 176.51 21.9635 176.418 17.1505C176.325 12.6152 176.14 8.07994 176.048 3.49838C176.048 2.98932 175.677 2.3877 176.233 1.87863C179.102 1.78608 182.064 1.69352 185.118 1.55469C185.164 3.96116 185.164 6.22881 185.211 8.54273C186.09 8.95923 186.923 8.77412 187.756 8.8204C189.561 8.86668 191.181 9.42202 192.43 10.7178C193.356 11.6897 194.05 12.8466 194.281 14.1887C194.513 15.2531 194.605 16.3638 194.652 17.4745C194.744 19.0016 194.698 20.5751 194.698 22.2411C191.782 22.4263 188.82 22.4725 185.766 22.5651Z" fill="white"/>
<path d="M121.758 21.8443C121.62 25.3152 121.527 28.6472 121.388 32.1181C120.74 32.1181 120.092 32.1644 119.491 32.1644C117.547 32.1181 115.603 32.0255 113.66 31.9792C113.243 31.9792 112.549 32.0718 112.456 31.8867C112.225 31.4702 112.271 30.9148 112.271 30.4058C112.41 25.5928 112.595 20.8261 112.688 16.0132C112.78 11.4779 112.827 6.94263 112.919 2.36106C112.919 1.852 112.595 1.25038 113.197 0.787598C116.066 0.833876 119.028 0.833876 122.082 0.880154C121.99 3.28663 121.897 5.55427 121.851 7.86819C122.73 8.33098 123.563 8.19214 124.396 8.2847C126.201 8.42353 127.775 9.02515 128.978 10.4135C129.857 11.4316 130.459 12.6349 130.69 13.9769C130.875 15.0413 130.922 16.1983 130.922 17.2627C130.922 18.7899 130.829 20.3634 130.783 22.0294C127.775 21.9831 124.813 21.8906 121.758 21.8443Z" fill="white"/>
<path d="M69.4629 0.972168C72.4247 0.972168 75.3865 1.01845 78.4409 1.01845C78.4409 2.17541 78.4409 3.23981 78.4409 4.30421C78.3946 6.01651 78.3483 7.68254 78.302 9.39484C78.2095 14.2078 78.1632 18.9745 78.0707 23.7874C78.0707 23.88 78.1169 23.9725 78.1632 24.2502C80.9862 24.2502 83.8555 24.2965 86.8173 24.2965C86.7247 27.0269 86.6784 29.6648 86.5859 32.3952C86.4008 32.4415 86.2157 32.4878 86.0305 32.4878C82.0506 32.4415 78.0707 32.3952 74.0907 32.3952C72.7949 32.3952 71.4991 32.4415 70.2033 32.4415C69.8331 32.4415 69.4629 32.4415 69.1389 32.3952C68.815 31.2382 69.0464 4.67444 69.4629 0.972168Z" fill="white"/>
<path d="M57.8489 0.648185C57.8952 3.56372 57.9878 6.34043 58.0341 9.25597C60.4868 9.48736 62.8933 9.30225 65.4386 9.34853C65.5312 11.9864 65.4849 14.578 65.4849 17.2159C63.0784 17.6786 60.6719 17.3084 58.3117 17.5398C58.4043 22.399 58.5431 27.212 58.6357 32.1638C55.6276 32.2563 52.712 32.3026 49.6577 32.3952C49.6577 31.5622 49.6577 30.868 49.6577 30.1738C49.5651 25.6385 49.5188 21.1032 49.4263 16.568C49.38 13.2359 49.2874 9.90387 49.1949 6.6181C49.1486 4.99836 49.056 3.37861 49.0098 1.75887C49.0098 1.52747 49.056 1.34236 49.056 0.972134C51.9716 0.694463 54.7946 0.555628 57.8489 0.648185Z" fill="white"/>
<path d="M45.8151 28.832C45.8151 23.6488 45.8614 18.5119 45.8614 13.3287C45.8614 11.5701 45.8614 9.81157 45.4911 8.05299C44.4267 3.28631 39.6601 0.139382 35.2636 0.602166C32.163 0.926115 28.3681 3.19376 27.4426 7.12742C27.2574 7.96043 27.1186 8.886 27.0723 9.76529C27.026 12.0329 27.0723 14.3469 27.0723 16.6145C27.0723 21.0109 27.0723 25.4074 27.0723 29.8038C27.0723 30.5906 27.1186 31.4236 27.1186 32.3492C33.4125 32.3954 39.5212 32.3954 45.8151 32.4417C45.8614 32.0715 45.9539 31.7475 45.9539 31.4236C45.9076 30.5443 45.8151 29.7113 45.8151 28.832Z" fill="white"/>
</svg>
