<?xml version="1.0" encoding="utf-8"?>
<!-- Generator: Adobe Illustrator 24.1.1, SVG Export Plug-In . SVG Version: 6.00 Build 0)  -->
<svg width="152" height="44" version="1.1" id="Layer_1" xmlns="http://www.w3.org/2000/svg" xmlns:xlink="http://www.w3.org/1999/xlink" x="0px" y="0px"
	 viewBox="0 0 152 44" style="enable-background:new 0 0 152 44;" xml:space="preserve">
<style type="text/css">
	.st0{fill:#FFFFFF;}
</style>
<g>
	<path class="st0" d="M121.7,43.4c-4.2,0-9.8,0.4-17,0.4c-13.2-0.1-10.1-0.1-29.3-0.3c-18.8-0.2-14.2,0.2-27.8,0
		c-6.9-0.1-12.3,0.2-16.5,0.1c-3.8-0.1-6.2-0.2-7.2-0.2c-0.3,0-0.5,0-0.8,0c-1.8,0.1-2.6,0-3.4-0.3c-0.4-0.1-0.8-0.3-1.2-0.5
		l-0.2-0.1c-0.4-0.2-0.8-0.3-1.3-0.5c-0.4-0.1-0.8-0.2-1.2-0.3c-5.2-0.9-9.5-3.9-12.2-8.5l0,0c-2-1.5-2.9-4-2.7-6.7l0,0
		C-1.4,18.4,1.9,9.9,9.2,5.4l0,0L10,4.6c1.2-1.2,2-2,3-2.5c1.1-0.6,2.4-0.8,4.6-0.8c0.2,0,0.4,0,0.7,0c0.4,0,1.2-0.1,2.2-0.1
		c1.3,0,3.1,0,5.3-0.1c4.1,0,10,0,17.3,0c16.4,0.1,15.5-0.6,29.6-0.4c33.3,0.4,44.9,0,51.9,0.2c0.2,0,0.5,0,0.7,0.1l0.6,0.1
		c0.2,0,0.4,0,0.5,0l0.1,0l0.5,0c1.3-0.1,1.7,0,2.1,0.1l0.3,0.1c0.5,0.1,1.1,0.2,1.6,0.2c5.3,0.1,9.6,1.9,12.9,5.3
		c0.2,0.2,0.3,0.3,0.5,0.5c4.5,3.7,7.2,8.9,7.5,14.4c0.3,5.4-1.7,10.6-5.5,14.6c-0.2,0.2-0.3,0.4-0.5,0.6c-2.7,3.7-6.8,5.7-12.2,6
		c-0.3,0-0.7,0.1-1,0.1c-0.4,0.1-0.6,0.1-0.8,0.2l-0.2,0l-1.5,0.1l-0.1,0c-0.2,0-0.4-0.1-0.9-0.1c-0.3,0-1.1,0.1-2.4,0.1
		C125.6,43.4,123.9,43.4,121.7,43.4z M23.5,41.6l0.2,0c0.3,0,1.5,0.1,7.4,0.3c4.3,0.1,9.6-0.2,16.5-0.1c13.6,0.2,9-0.2,27.8,0
		c19.2,0.3,16.2,0.2,29.3,0.3c10.8,0.1,18.4-0.4,22.2-0.4c1.8,0,2.1-0.1,2.2-0.1l0.2,0c0.2,0,0.4,0,0.5,0c0.4,0,0.7,0,1.1,0l0.1,0
		c0.3,0,0.6-0.1,0.9-0.1c0.3-0.1,0.6-0.1,1-0.2l0.2,0c5.2-0.1,9.1-2,11.6-5.6l0.2-0.2c3.7-3.7,5.6-8.6,5.3-13.6
		c-0.3-5.2-2.9-10.1-7.1-13.4L143,8.3c-3.2-3.5-7.4-5.2-12.8-5l-0.1,0L129.3,3c-0.6-0.2-1.2-0.2-1.9-0.2c-0.1,0-0.3,0-0.4,0l-0.3,0
		l-0.2,0c-0.2,0-0.4,0-0.6,0l-0.1,0l-0.6-0.1c-0.3,0-0.5-0.1-0.8-0.1c-7-0.2-18.5,0.2-51.7-0.2C58.6,2.4,59.5,3.1,43.1,3
		c-7.4,0-13.2-0.1-17.3,0c-2.2,0-3.9,0-5.2,0.1c-1.8,0-2.2,0.1-2.2,0.1l-0.2,0c-2.5-0.1-3.5,0.2-4.2,0.6c-0.8,0.4-1.5,1.1-2.6,2.2
		l-0.7,0.6C10.2,6.7,10,6.9,9.7,7.1c-6.3,4.1-9.1,11.7-7,18.9l0.1,0.3l0,0.3c-0.2,2.1,0.5,4,2,5.2L5,32.1l0.2,0.3
		c2.5,4.4,6.4,7,11.5,7.7l0.2,0c0.9,0.3,1.6,0.6,2.1,0.8l0.2,0.1c0.4,0.2,0.7,0.3,1.1,0.4C20.8,41.6,21.6,41.7,23.5,41.6L23.5,41.6z
		"/>
</g>
<path class="st0" d="M59.6,12.8c0,0.3,0.1,0.6,0.1,0.9c0.1,1.8,0.1,3.6,0.1,5.4c0.1,1.7,0.1,3.4,0.1,5.1c0,0.4,0.1,0.8,0.6,1
	c0.4,0.1,0.7,0.4,1.1,0.6c0.3,0.2,0.5,0.4,0.5,0.8c0,1.2,0,2.4,0.1,3.5c0,0.3,0,0.6,0,1c-1.2-0.5-2.2-1.2-3.3-1.7
	c-0.1,0.1-0.2,0.3-0.3,0.4c-1.5,1.4-3.2,1.9-5.2,1.3c-2.4-0.7-3.9-2.9-3.9-5.4c0-3.1-0.1-6.2-0.2-9.3c0-1-0.1-1.9-0.1-2.9
	c0-0.4,0.1-0.5,0.4-0.5c0.7,0,1.5,0,2.2,0c0.6,0,1.2,0,1.8-0.1c1.6,0,3.3,0,4.9-0.1C58.8,12.8,59.2,12.8,59.6,12.8z"/>
<path class="st0" d="M89.7,31.2c-3.6-0.1-7.1-0.2-10.7-0.4c0-0.6,0-1,0-1.5c0.1-2.5,0.2-5,0.2-7.5c0.1-1.3,0.1-2.6,0.1-3.9
	c0-0.5,0.1-1,0.2-1.5c0.6-2.2,2.8-3.5,4.6-3.6c2.5-0.2,5.2,1.7,5.7,4.4c0.2,1,0.2,2,0.1,3c-0.1,3-0.2,5.9-0.3,8.9c0,0.5,0,1,0,1.5
	C89.8,30.8,89.7,31,89.7,31.2z"/>
<path class="st0" d="M68.9,25.5c0.1,0.4,0.1,0.7,0.1,1c1.2-1.3,1.3-3-0.2-4c-0.8-0.6-1.6-1-2.6-1.2c-0.2,0-0.4-0.1-0.6-0.1
	c-0.3-0.1-0.4-0.2-0.5-0.5c-0.3-1.5-0.3-3,0.3-4.5c0.7-1.7,2-2.6,3.7-3.1c2.4-0.6,5.4,0.9,6.3,2.8c0.7,1.3,0.9,2.8,0.7,4.2
	c-0.2,1.5-0.7,2.9-1.4,4.2c-0.3,0.7-0.8,1.3-1.3,2c0.2,0,0.4,0,0.7,0.1c0.6,0,1.1,0.1,1.6,0.4c0.8,0.4,1.1,1.2,1.2,2
	c0.1,0.6,0,1.2-0.1,1.9c0,0.1-0.1,0.2-0.1,0.2c-1.6,0-3.3,0.1-4.9,0.1c0-0.2-0.1-0.4-0.1-0.6c0-0.3-0.1-0.5-0.5-0.5
	c-0.8,0-1.6,0-2.4,0c0,0.4-0.1,0.7-0.1,1.1c-0.4,0.2-3.7,0.2-4.7,0.1c-0.1-1.8-0.1-3.6-0.1-5.4C65.8,25.4,67.3,25.6,68.9,25.5z"/>
<path class="st0" d="M110.1,21.3c-1.7,0-3.4,0-5.1,0c-0.1-0.1-0.1-0.2-0.1-0.2c0-1.2-0.1-2.4,0-3.5c0.1-2.5,2.1-4.3,4.4-4.6
	c1.7-0.2,3.2,0.2,4.4,1.3c1,0.9,1.5,2,1.6,3.4c0,1.7,0.1,3.5,0.1,5.2c0,0.1,0,0.2,0.1,0.3c1,0,2,0,3,0c0,1.5,0.1,2.9,0.1,4.3
	c-1,0-2,0.1-3,0.1c0,1.2,0,2.3,0,3.5c-1.7,0-3.4,0-5.1,0c0-0.1-0.1-0.2-0.1-0.4c0-1.3,0-2.7-0.1-4c0-1.6-0.1-3.1-0.1-4.7
	C110.2,21.8,110.1,21.6,110.1,21.3z"/>
<path class="st0" d="M39.6,25.9c2.5,0.1,4.9-0.2,7.4,0c0,1.4,0,2.9,0,4.4c-0.2,0-0.4,0.1-0.6,0.1c-1.6,0-3.3,0-4.9,0.1
	c-2.2,0-4.3,0.1-6.5,0.1c-0.2,0-0.4,0-0.7,0c0-0.8-0.1-1.5-0.1-2.2c0-0.5-0.1-1-0.1-1.5c0-0.3,0.1-0.6,0.2-0.8
	c1.7-2.9,3.3-5.8,5-8.7c0-0.1,0-0.1,0.1-0.3c-0.8-0.3-1.5-0.6-2.3-0.8c0.6-1.4,1.2-2.8,1.7-4.2c2.4,0.7,4.8,1.5,7.2,2.2
	C43.8,18.1,41.7,22,39.6,25.9z"/>
<path class="st0" d="M102.7,19.8c-1.7,0.1-3.3,0.2-5.1,0.2c0.1,3.4,0.3,6.8,0.4,10.2c-0.6,0.2-4.7,0.4-5.4,0.3
	c0-0.6-0.1-1.3-0.1-1.9c-0.1-1.6-0.1-3.1-0.1-4.7c-0.1-2-0.2-4-0.2-6c0-0.9,0-1.8,0.3-2.7c0.8-1.9,2.4-3.1,4.5-3.3
	c1.5-0.1,2.9,0.3,4,1.4c1,0.9,1.5,2,1.6,3.3c0.1,0.9,0.1,1.8,0.2,2.6C102.8,19.5,102.8,19.6,102.7,19.8z"/>
</svg>
