<svg width="437" height="226" viewBox="0 0 437 226" fill="none" xmlns="http://www.w3.org/2000/svg">
<path d="M428.57 3.70134C430.031 7.1004 430.866 9.69969 431.387 13.1987C431.909 16.7977 437.022 207.398 436.5 211.097C436.083 214.696 434.1 217.595 432.639 221.094C428.257 221.494 424.292 222.594 419.806 222.893C415.423 223.193 411.041 223.493 406.554 223.693C402.172 223.893 397.686 223.893 393.303 223.993C388.921 224.093 384.434 223.693 380.052 223.693C375.67 223.693 48.1003 225.792 43.718 225.792C39.2314 225.792 34.8491 225.492 30.4668 225.392C25.9802 225.292 21.5979 224.393 17.2156 224.293C12.729 224.193 8.24242 224.193 3.86014 223.993C1.56466 222.993 2.08636 218.394 1.46032 213.396C1.1473 209.997 0.208248 206.398 0.729948 202.699C1.25165 198.2 -1.14782 9.09951 0.730302 7.10007C5.11258 6.80015 8.66014 3.50106 13.1468 3.30112C17.529 3.10117 22.0157 4.20086 26.5023 4.00092C30.8846 3.80097 35.2668 1.60157 39.7534 1.5016C289.423 -2.19733 371.705 2.10178 376.192 2.10178C380.574 2.00181 385.06 3.80131 389.547 3.70134C394.034 3.70134 398.416 4.10123 402.798 4.10123C407.285 4.10123 411.667 1.10205 416.154 1.20203C420.536 1.20203 424.188 3.60137 428.57 3.70134Z" fill="#E7524C"/>
</svg>
