<?xml version="1.0" encoding="utf-8"?>
<!-- Generator: Adobe Illustrator 24.1.1, SVG Export Plug-In . SVG Version: 6.00 Build 0)  -->
<svg width="152" height="44" version="1.1" id="Layer_1" xmlns="http://www.w3.org/2000/svg" xmlns:xlink="http://www.w3.org/1999/xlink" x="0px" y="0px"
	 viewBox="0 0 152 44" style="enable-background:new 0 0 152 44;" xml:space="preserve">
<style type="text/css">
	.st0{fill:#FFFFFF;}
</style>
<g>
	<path class="st0" d="M121.5,43.2c-4.2,0-9.9,0.6-17.2,0.6c-13.3-0.1-9-0.2-28.4-0.5c-19-0.3-14.4,0.2-28.1,0
		c-7-0.1-12.4,0.2-16.7,0.1c-3.9-0.1-6.3-0.2-7.3-0.2c-0.3,0-0.5,0-0.8,0c-1.8,0.1-2.7,0-3.4-0.3c-0.4-0.1-0.8-0.3-1.2-0.5l-0.2-0.1
		C18,42.2,17.5,42,17,41.8c-0.4-0.1-0.8-0.2-1.2-0.3c-5.3-0.9-9.6-3.9-12.3-8.6l0,0c-2-1.6-3-4-2.7-6.8l0,0C-1.6,18,1.8,9.4,9.1,4.8
		l0,0l0.8-0.8c1.2-1.2,2.1-2,3-2.5c1.1-0.6,2.5-0.8,4.6-0.8c0.2,0,0.4,0,0.7,0c0.4,0,1.2-0.1,2.2-0.1c1.3,0,3.1,0,5.3-0.1
		c4.2,0,10.1,0,17.5,0c16.6,0.1,14.7-0.1,28.9,0c33.6,0.4,45-0.5,52.1-0.3c0.2,0,0.5,0,0.7,0.1l0.6,0.1c0.2,0,0.4,0,0.6,0l0.1,0
		l0.5,0c1.3-0.1,1.7,0,2.2,0.1l0.3,0.1c0.5,0.1,1.1,0.2,1.7,0.2c5.3,0.1,9.7,1.9,13,5.4c0.2,0.2,0.3,0.3,0.5,0.5
		c4.5,3.7,7.3,9,7.6,14.6c0.3,5.4-1.7,10.7-5.6,14.8c-0.2,0.2-0.4,0.4-0.5,0.6c-2.8,3.7-6.9,5.8-12.3,6c-0.3,0-0.7,0.1-1,0.1
		c-0.4,0.1-0.6,0.1-0.8,0.2l-0.2,0l-1.5,0.1l-0.1,0c-0.2,0-0.4-0.1-0.9-0.1c-0.3,0-1.1,0.1-2.4,0.1
		C125.4,43.2,123.6,43.2,121.5,43.2z M23.5,41.4l0.2,0c0.3,0,1.5,0.1,7.5,0.3c4.3,0.1,9.7-0.2,16.7-0.1c13.7,0.2,9.1-0.3,28.1,0
		c19.4,0.3,15.1,0.4,28.4,0.5c10.9,0.1,18.5-0.6,22.3-0.6c1.8,0,2.2-0.1,2.2-0.1l0.2,0c0.2,0,0.4,0,0.5,0c0.4,0,0.7,0,1.1,0l0.1,0
		c0.3,0,0.6-0.1,1-0.1c0.3-0.1,0.6-0.1,1-0.2l0.2,0c5.3-0.1,9.2-2,11.7-5.6l0.2-0.2c3.8-3.8,5.7-8.7,5.4-13.7
		c-0.3-5.2-2.9-10.2-7.2-13.6l-0.2-0.1c-3.3-3.6-7.5-5.2-13-5.1l-0.1,0L129,2.4c-0.6-0.2-1.3-0.2-1.9-0.2c-0.1,0-0.3,0-0.4,0l-0.3,0
		l-0.2,0c-0.2,0-0.4,0-0.6,0l-0.1,0l-0.7-0.1c-0.3,0-0.5-0.1-0.8-0.1c-7.1-0.2-18.4,0.7-51.9,0.3C58,2.3,59.8,2.5,43.3,2.4
		c-7.4,0-13.3-0.1-17.5,0c-2.2,0-4,0-5.3,0.1c-1.8,0-2.2,0.1-2.3,0.1l-0.2,0c-2.5-0.1-3.5,0.2-4.3,0.6c-0.8,0.4-1.5,1.1-2.7,2.2
		L10.4,6c-0.3,0.2-0.5,0.4-0.8,0.6c-6.4,4.2-9.2,11.8-7.1,19.1L2.5,26l0,0.3c-0.2,2.2,0.5,4.1,2,5.2l0.3,0.2L5,32.1
		c2.5,4.4,6.5,7.1,11.6,7.8l0.2,0c0.9,0.3,1.6,0.6,2.1,0.8l0.2,0.1c0.4,0.2,0.7,0.3,1.1,0.4C20.8,41.4,21.5,41.5,23.5,41.4
		L23.5,41.4z"/>
</g>
<path class="st0" d="M73.8,13.1c0,0.3,0,0.6,0,0.8c0,1.7,0,3.4,0,5.1c0,1.6,0,3.2,0,4.8c0,0.4,0.1,0.7,0.5,0.9
	c0.3,0.1,0.6,0.4,0.9,0.5c0.3,0.2,0.5,0.4,0.5,0.8c0,1.1,0,2.2-0.1,3.3c0,0.3,0,0.6,0,1c-1.1-0.5-1.9-1.2-2.9-1.7
	c-0.1,0.1-0.2,0.2-0.3,0.3c-1.4,1.2-2.9,1.7-4.7,1.1c-2.1-0.7-3.4-2.9-3.4-5.2c0.1-2.9,0.1-5.8,0.1-8.7c0-0.9,0-1.8,0-2.7
	c0-0.4,0.1-0.4,0.4-0.4c0.7,0,1.3,0,2,0c0.5,0,1.1,0,1.6,0c1.5,0,2.9,0,4.4,0C73.1,13.1,73.4,13.1,73.8,13.1z"/>
<path class="st0" d="M37.9,30.1c-3.2,0.1-6.4,0.1-9.6,0.2c0-0.5,0-0.9,0-1.4c0-2.4-0.1-4.7-0.2-7.1c0-1.2-0.1-2.5-0.1-3.7
	c0-0.5,0-0.9,0.1-1.4c0.4-2.1,2.3-3.4,3.9-3.6c2.3-0.3,4.7,1.3,5.4,3.9c0.2,0.9,0.2,1.9,0.3,2.8c0.1,2.8,0.1,5.6,0.2,8.4
	c0,0.4,0.1,0.9,0.1,1.4C38,29.7,37.9,29.9,37.9,30.1z"/>
<path class="st0" d="M105.4,17.1c0.9,0.1,1.7,0.1,2.6,0.2c0.8,0.1,1.7,0.1,2.6,0.2c0,1.4-0.2,2.7-0.2,4.2c-0.9,0-1.7,0-2.6-0.1
	c-0.8,0-1.7-0.1-2.5-0.1c-0.2,1.1-0.2,2.1-0.2,3.2c1.6,0.1,3.2,0.3,4.8,0.4c0.2,2.3-0.6,4.1-2.5,5.2c-2.8,1.6-6.3,0-7-3.3
	c-0.1-0.5-0.1-1-0.1-1.5c0-1.4,0.1-2.9,0.2-4.3c0.1-2.3,0.3-4.7,0.4-7c0-0.2,0-0.4,0-0.6c0.6,0,1.1,0,1.6,0.1c0.6,0,1.2,0.1,1.8,0.1
	c0.3,0,0.6,0,1,0c0.5,0,0.5,0.1,0.5,0.5c0,0.8-0.1,1.6-0.1,2.4C105.3,16.7,105.4,16.9,105.4,17.1z"/>
<path class="st0" d="M54.5,30.2c0-2.9,0.1-5.8,0.1-8.8c-1.6-0.1-3.1,0-4.6-0.1c0-0.3,0-0.5,0-0.7c0-1,0-2.1,0.1-3.1
	c0.1-2.5,1.8-4,3.9-4.3c2.9-0.4,5.4,2,5.6,4.9c0,0.6,0,1.1,0,1.7c0,1.9-0.1,3.8-0.1,5.7c0,0.2,0,0.4,0,0.6c0.9,0,1.8,0.1,2.7,0.1
	c0.1,1.3,0,2.7-0.1,4.1C61.7,30.4,55.2,30.3,54.5,30.2z"/>
<path class="st0" d="M93.1,30.5c0-0.6,0-1.3,0-2c0-0.7,0.1-1.3,0.1-2c0-0.2,0-0.5-0.1-0.7c-0.5,0-1,0.1-1.5,0.1
	c-1,0-2.4-0.8-2.9-2.2c-0.2-0.6-0.3-1.2-0.3-1.9c0-1.9,0.1-3.8,0.1-5.7c0-0.6,0-1.3,0-2c0-0.2,0-0.3,0-0.6c1.6,0,3.2,0.1,4.8,0.1
	c0,0.2,0,0.3,0,0.5c0,1.1-0.1,2.3-0.1,3.4c0,0.3,0,0.5,0,0.9c1.5,0,3,0,4.5,0.1c0,0.4,0,0.8,0,1.2c0,2.6-0.1,5.2-0.2,7.8
	c0,0.8,0,1.7,0,2.6c0,0.2,0,0.4,0,0.6C96.1,30.6,94.7,30.5,93.1,30.5z"/>
<path class="st0" d="M86.8,20.2c-1.5,0.1-3,0.3-4.5,0.4c0.3,3.2,0.5,6.4,0.8,9.6c-0.5,0.2-4.2,0.5-4.9,0.4c0-0.6-0.1-1.2-0.2-1.8
	c-0.1-1.5-0.2-2.9-0.3-4.4c-0.1-1.9-0.3-3.7-0.4-5.6c0-0.8-0.1-1.7,0.2-2.5c0.6-1.8,2.1-3.1,3.9-3.2c1.4-0.1,2.6,0.2,3.7,1.1
	c0.9,0.8,1.4,1.8,1.5,3.1c0.1,0.8,0.2,1.7,0.3,2.5C86.9,19.8,86.8,19.9,86.8,20.2z"/>
<path class="st0" d="M112.7,13.4c1.5,0.1,3,0.2,4.6,0.3c0,0.6,0,1.2-0.1,1.7c-0.1,0.9-0.1,1.8-0.2,2.7c-0.2,2.6-0.4,5.2-0.5,7.7
	c0,0.1,0,0.1,0,0.2c1.4,0.1,2.9,0.2,4.4,0.3c-0.1,1.5-0.2,2.9-0.4,4.3c-0.1,0-0.2,0-0.3,0c-2-0.1-4.1-0.3-6.1-0.4
	c-0.7,0-1.3-0.1-2-0.1c-0.2,0-0.4,0-0.5,0C111.6,29.7,112.4,15.3,112.7,13.4z"/>
<path class="st0" d="M44,13.2c0,1.6,0.1,3.1,0.1,4.6c1.3,0.1,2.5,0,3.8,0c0,1.4,0,2.8,0,4.2c-1.2,0.2-2.5,0-3.7,0.2
	c0,2.6,0.1,5.2,0.1,7.9c-1.5,0-3,0.1-4.6,0.1c0-0.4,0-0.8,0-1.2c0-2.4-0.1-4.9-0.1-7.3c0-1.8-0.1-3.6-0.1-5.4c0-0.9-0.1-1.7-0.1-2.6
	c0-0.1,0-0.2,0-0.4C41,13.2,42.5,13.1,44,13.2z"/>
</svg>
