<svg width="78" height="73" viewBox="0 0 78 73" fill="none" xmlns="http://www.w3.org/2000/svg">
<path d="M58.6514 38.3711C56.7488 35.3366 53.1903 33.8547 50.8298 34.0311C49.4557 34.137 48.6101 33.643 47.7998 33.149C46.4962 32.3728 45.1221 31.5612 42.5501 33.8194L42.4444 33.89L42.374 33.9958C42.3035 34.1017 36.7368 43.9106 28.281 46.9098C22.9961 48.7798 21.1288 53.8607 21.622 58.0595C22.1153 62.2936 24.793 65.2928 28.4571 65.6809C29.2323 65.7867 30.1483 65.822 31.1348 65.822C38.5689 65.822 50.865 62.9287 57.4535 51.4967C61.1881 45.0397 60.1664 40.8057 58.6514 38.3711ZM56.2203 50.8616C49.1034 63.1757 35.0808 65.0458 28.6333 64.3401C25.0044 63.952 23.3484 60.6353 23.0666 57.9537C22.6438 54.2841 24.2645 49.8736 28.8095 48.2859C37.4062 45.2514 42.9377 36.007 43.6071 34.8427C45.3335 33.3607 45.9324 33.7136 47.1303 34.4193C48.0464 34.9485 49.1738 35.6189 50.9707 35.4778C52.6619 35.3719 55.7623 36.3952 57.4887 39.1473C58.7571 41.2291 59.6027 44.9339 56.2203 50.8616Z" fill="white"/>
<path d="M38.1814 22.5285C37.6881 21.717 37.1949 20.8701 37.3006 19.4941C37.4767 17.13 36.0322 13.5664 32.967 11.661C30.5359 10.1438 26.308 9.12057 19.79 12.896C6.8949 20.3762 4.88664 35.1602 5.62652 41.8994C6.04931 45.5689 9.04408 48.2505 13.2367 48.7445C13.6595 48.7798 14.0823 48.8151 14.5051 48.8151C18.4159 48.8151 22.7143 46.8039 24.3702 42.0405C27.365 33.5371 37.1596 27.9622 37.2653 27.9269L37.371 27.8564L37.4415 27.7505C39.7668 25.2101 38.9565 23.834 38.1814 22.5285ZM36.5607 26.7626C35.3628 27.433 26.1671 32.9725 23.1371 41.5818C21.5516 46.1335 17.1476 47.7565 13.4834 47.3331C10.8057 47.0156 7.49385 45.3572 7.10629 41.723C6.40164 35.266 8.26897 21.1877 20.5651 14.0956C23.6303 12.2961 26.1319 11.6963 28.1049 11.6963C29.9017 11.6963 31.2758 12.2256 32.2623 12.8607C35.0104 14.5896 36.0674 17.7299 35.9265 19.3882C35.7856 21.1877 36.455 22.3521 36.9835 23.2342C37.6529 24.4338 38.0404 25.0336 36.5607 26.7626Z" fill="white"/>
<path d="M77.0429 37.5241C73.731 26.3391 63.0908 24.8219 58.5458 24.1868C57.7355 24.0809 56.9604 23.9398 56.2557 23.7634C61.7167 19.494 67.0016 9.61447 68.0586 7.568C68.2348 7.21516 68.1291 6.82704 67.7767 6.61534L67.1778 6.2625L66.7902 6.79176C63.3022 11.7668 58.4753 14.6954 55.7624 16.0714C56.749 14.272 57.2422 12.9665 57.3127 12.8606L57.5241 12.3313L55.0578 10.7788L54.7055 10.9553C52.5563 12.1196 50.5833 13.7074 48.9626 15.2952C49.3854 9.61447 53.4371 4.39244 57.4536 2.76938C59.8847 1.78142 61.5406 1.78143 62.1748 1.81672C62.5623 1.852 62.8794 1.56972 62.9499 1.21688C63.0203 0.828759 62.7737 0.475921 62.4214 0.370069C60.9064 -0.0533387 55.4806 -1.006 50.3719 3.79262C46.9191 7.03875 45.2279 10.8141 44.4176 13.3899C42.3389 6.43891 37.8996 3.4045 29.8666 2.87524C20.0367 2.24012 6.68356 8.62653 1.22253 28.6678C-1.63131 39.1472 1.04637 47.3684 3.7945 52.414C6.78927 57.883 10.383 60.8116 10.5239 60.9527L10.5944 60.988C10.6296 61.0233 12.814 62.4699 16.1259 65.6455C21.0937 70.4088 26.8013 72.8081 33.2136 72.8081C37.512 72.8081 42.0922 71.7143 46.9543 69.562C63.8659 62.0818 67.0016 46.6274 64.5706 35.6894C63.6898 31.8434 61.5758 29.3029 59.1095 27.574C62.6328 27.574 65.3105 28.7384 65.3457 28.7737C71.8989 31.42 74.7176 36.148 75.5984 38.0534C75.7393 38.3356 75.9859 38.4768 76.2678 38.4768C76.3735 38.4768 76.4439 38.4415 76.5496 38.4415C76.9372 38.3004 77.1486 37.9122 77.0429 37.5241ZM63.5488 12.5783C61.1178 16.4243 57.7355 21.1876 54.4589 23.3047C53.1905 22.9165 52.1687 22.5637 51.4993 22.2814C52.6972 20.9406 53.719 19.5646 54.5293 18.2591C55.551 17.8357 59.5676 16.1067 63.5488 12.5783ZM55.0226 12.4019L55.7977 12.8959C55.0578 14.5895 52.4506 19.988 48.117 23.5869C48.117 23.5869 48.117 23.5869 48.0818 23.5869C46.602 23.1282 46.0031 22.105 45.7564 21.2935C46.602 20.1291 50.3014 15.0482 55.0226 12.4019ZM51.3232 4.85114C52.7677 3.51035 54.2122 2.66353 55.5863 2.16956C51.2879 4.63943 47.2714 10.4966 47.5533 16.8477C46.7077 17.7651 46.0383 18.6119 45.5098 19.2823C45.4041 18.2943 45.2632 17.377 45.1222 16.5301C45.2632 15.648 46.2849 9.5792 51.3232 4.85114ZM63.1613 36.0422C65.4866 46.451 62.4919 61.1644 46.3554 68.327C34.7991 73.4432 24.9692 72.2083 17.0772 64.6575C13.8358 61.5525 11.6866 60.0706 11.3695 59.8589C11.0524 59.6119 7.70531 56.7186 4.99241 51.7083C1.1873 44.722 0.376952 37.1007 2.56137 29.056C7.77578 9.86146 20.4595 3.72205 29.7609 4.32188C39.2736 4.92171 43.1844 9.22636 44.2062 20.1997C44.171 21.5052 44.8404 24.0809 47.6942 24.9277C48.1522 25.0689 48.7512 25.21 49.4558 25.3511C53.6133 26.3038 61.3996 28.0327 63.1613 36.0422ZM65.9094 27.5035C65.7333 27.4329 61.7872 25.704 56.9604 26.3391C54.3532 25.0336 51.6403 24.4338 49.8082 24.0103C50.0548 23.7986 50.2662 23.5869 50.4776 23.34C51.5698 23.8339 54.5646 25.0336 58.3344 25.5628C61.3997 25.9862 66.6493 26.7272 70.7363 30.1498C69.3974 29.1971 67.812 28.2444 65.9094 27.5035Z" fill="white"/>
<path d="M70.7362 30.1849C69.3974 29.197 67.7767 28.2443 65.9094 27.5034C65.7332 27.4328 61.7872 25.7039 56.9603 26.339C54.3531 25.0335 51.6402 24.4336 49.8081 24.0102C50.0547 23.7985 50.2661 23.5868 50.4775 23.3398C51.5697 23.8338 54.5645 25.0335 58.3344 25.5627C61.3996 26.0214 66.6492 26.7624 70.7362 30.1849Z" fill="#F39070"/>
<path d="M63.549 12.5781C61.118 16.4241 57.7357 21.1874 54.4591 23.3045C53.1907 22.9163 52.1689 22.5635 51.4995 22.2812C52.6974 20.9404 53.7192 19.5644 54.5295 18.2589C55.5512 17.8354 59.5678 16.1065 63.549 12.5781Z" fill="#F39070"/>
<path d="M47.5531 16.8123C46.7075 17.7297 46.0381 18.5765 45.5096 19.2469C45.4039 18.2589 45.263 17.3416 45.1221 16.4947C45.2278 15.6479 46.2847 9.54379 51.323 4.85102C52.7675 3.51023 54.212 2.66341 55.5861 2.16943C51.2877 4.63931 47.3065 10.4612 47.5531 16.8123Z" fill="#F39070"/>
<path d="M55.7976 12.8958C55.0577 14.5895 52.4505 19.9879 48.1169 23.5869C48.1169 23.5869 48.1169 23.5869 48.0817 23.5869C46.6019 23.1282 46.003 22.105 45.7563 21.2934C46.5667 20.0938 50.3013 15.0482 54.9873 12.4019L55.7976 12.8958Z" fill="#F39070"/>
<path d="M63.1611 36.0422C61.3643 28.068 53.6131 26.3038 49.4557 25.3864C48.7511 25.21 48.1521 25.1041 47.6941 24.963C44.8402 24.0809 44.1708 21.5052 44.2061 20.2349C43.1843 9.26162 39.2735 4.95698 29.7607 4.35715C20.4593 3.7926 7.77563 9.89674 2.56122 29.0912C0.3768 37.136 1.18715 44.7573 4.99226 51.7436C7.70516 56.7539 11.0875 59.6472 11.3693 59.8942C11.6864 60.1059 13.8356 61.5878 17.077 64.6928C24.9339 72.2435 34.799 73.4785 46.3552 68.3623C62.4917 61.1644 65.5217 46.451 63.1611 36.0422ZM14.5755 48.815C14.1527 48.815 13.6947 48.7797 13.3071 48.7444C9.07923 48.2504 6.08447 45.5689 5.69691 41.8993C4.95703 35.1248 6.93005 20.3761 19.8604 12.8959C26.3784 9.12049 30.6063 10.1437 33.0373 11.6609C36.0673 13.5663 37.5471 17.13 37.371 19.494C37.2653 20.8701 37.7585 21.7169 38.2518 22.5284C39.0269 23.8339 39.8372 25.21 37.6176 27.7857L37.5471 27.8916L37.4414 27.9621C37.3357 28.0327 27.5411 33.5723 24.5463 42.0757C22.7847 46.8038 18.4863 48.815 14.5755 48.815ZM57.4182 51.5671C50.8298 62.9991 38.5336 65.8924 31.0996 65.8924C30.113 65.8924 29.2322 65.8571 28.4219 65.7513C24.7577 65.3279 22.08 62.364 21.5868 58.13C21.0935 53.8959 22.9961 48.815 28.2457 46.9802C36.7368 43.9811 42.3035 34.1721 42.3387 34.0663L42.4092 33.9604L42.5149 33.8899C45.0869 31.667 46.4609 32.4432 47.7645 33.2195C48.5749 33.7134 49.4205 34.2074 50.7945 34.1016C53.1551 33.9251 56.7136 35.3718 58.6162 38.4415C60.1664 40.8055 61.1881 45.0396 57.4182 51.5671Z" fill="#F39070"/>
<path d="M57.4536 39.1118C55.7272 36.3597 52.5915 35.3364 50.9356 35.4423C49.1387 35.5834 48.0113 34.913 47.0952 34.3838C45.8973 33.6781 45.2984 33.3252 43.572 34.8072C42.9026 36.0068 37.3711 45.216 28.7743 48.2504C24.2294 49.8382 22.6087 54.2487 23.0315 57.9182C23.3486 60.5998 24.9692 63.9165 28.5982 64.3046C35.0457 65.0103 49.1035 63.1402 56.1852 50.8261C59.6028 44.9337 58.7572 41.2289 57.4536 39.1118ZM29.8313 61.7289C29.8313 61.7289 29.021 59.8235 30.9235 56.7538C32.6499 54.0369 32.8965 52.2375 32.967 51.8846C32.8965 52.8726 32.1214 64.3399 29.8313 61.7289ZM35.8208 60.7056C35.8208 60.7056 34.482 59.1179 35.4333 55.6247C36.2789 52.6256 36.0322 50.8261 35.9618 50.4027C36.2436 51.5318 38.7451 62.5404 35.8208 60.7056ZM53.12 40.2762C53.12 40.2762 52.3096 41.8287 49.3149 41.5464C46.6724 41.2994 45.3336 41.864 45.087 42.0051C45.7564 41.617 53.6485 37.1006 53.12 40.2762ZM42.4798 58.5886C42.4798 58.5886 40.5772 57.7065 40.0135 54.1428C39.485 50.932 38.4633 49.4148 38.2871 49.1325C38.8156 49.8734 45.9326 59.012 42.4798 58.5886ZM47.3066 54.7073C47.3066 54.7073 45.2279 54.3898 43.6777 51.1789C42.3036 48.3562 40.9295 47.1566 40.6125 46.9096C41.4933 47.5094 50.7242 54.1428 47.3066 54.7073ZM51.7107 49.9087C51.7107 49.9087 49.7024 50.4733 46.9191 48.2151C44.3471 46.0981 42.5503 45.6394 42.3036 45.6041C42.973 45.6747 54.635 47.8975 51.7107 49.9087ZM54.4236 45.2512C54.4236 45.2512 52.662 46.3803 49.3501 45.0042C46.0383 43.6282 44.1357 43.8399 44.1357 43.8399C44.1357 43.8399 56.7137 42.3932 54.4236 45.2512Z" fill="#F39070"/>
<path d="M36.9838 23.2341C36.4554 22.3168 35.7859 21.1877 35.9269 19.3882C36.0326 17.6946 35.0108 14.5896 32.2627 12.8607C31.2762 12.2255 29.9021 11.6963 28.1053 11.6963C26.1322 11.6963 23.6307 12.3314 20.5655 14.0956C8.26935 21.223 6.40202 35.3013 7.10667 41.723C7.49423 45.3572 10.8061 47.0156 13.4838 47.3331C17.1479 47.7565 21.552 46.1335 23.1375 41.5818C26.1675 32.9725 35.3984 27.4329 36.5611 26.7625C38.0408 25.0336 37.6533 24.4338 36.9838 23.2341ZM15.8443 42.1464C13.0257 44.3693 11.0175 43.7341 11.0175 43.7341C8.12841 41.6524 19.8608 39.7471 20.5303 39.6412C20.2836 39.6765 18.4515 40.0999 15.8443 42.1464ZM16.5138 37.5242C13.1667 38.8297 11.4403 37.63 11.4403 37.63C9.29108 34.8073 21.0587 36.3951 21.7282 36.5009C21.4815 36.4656 19.6495 36.3245 16.5138 37.5242ZM17.5355 32.8667C13.9418 32.6197 12.8848 30.8202 12.8848 30.8202C12.1449 27.4329 21.6929 33.5018 22.6442 34.1016C22.2919 33.8899 20.6712 33.0784 17.5355 32.8667ZM20.1779 28.8796C16.7956 27.6094 16.3024 25.5982 16.3024 25.5982C16.549 22.1051 24.124 30.8555 24.7229 31.5259C24.4763 31.3142 23.2079 30.044 20.1779 28.8796ZM22.8204 25.3512C20.2836 22.8107 20.6712 20.7643 20.6712 20.7643C22.3624 17.6946 25.6037 28.7385 25.8856 29.6911C25.7447 29.3383 25.0753 27.6446 22.8204 25.3512ZM27.4006 27.7152C27.4006 27.5741 27.3654 25.704 25.7447 22.6343C24.0535 19.4588 25.04 17.5887 25.04 17.5887C27.5768 15.0835 27.4006 27.3624 27.4006 27.7152ZM29.1622 26.5509C29.2679 26.2333 29.6907 24.8925 29.1975 22.3168C28.6337 19.3882 30.0783 18.4002 30.0783 18.4002C33.1435 17.5887 29.5146 25.7393 29.1622 26.5509Z" fill="#F39070"/>
<path d="M42.4798 58.5884C42.4798 58.5884 40.5772 57.7063 40.0135 54.1426C39.485 50.9318 38.4633 49.4146 38.2871 49.1323C38.8156 49.8733 45.9326 59.0118 42.4798 58.5884Z" fill="white"/>
<path d="M35.8207 60.7058C35.8207 60.7058 34.4819 59.118 35.4332 55.6249C36.2787 52.6257 36.0321 50.8262 35.9617 50.4028C36.2435 51.5319 38.745 62.5406 35.8207 60.7058Z" fill="white"/>
<path d="M32.9321 51.8848C32.8617 52.8727 32.1218 64.34 29.7965 61.729C29.7965 61.729 28.9861 59.8237 30.8887 56.7539C32.6503 54.0724 32.8969 52.2376 32.9321 51.8848Z" fill="white"/>
<path d="M47.3065 54.7074C47.3065 54.7074 45.2278 54.3899 43.6775 51.179C42.3035 48.3563 40.9294 47.1567 40.6123 46.9097C41.4931 47.5095 50.724 54.1429 47.3065 54.7074Z" fill="white"/>
<path d="M51.7108 49.9087C51.7108 49.9087 49.7025 50.4732 46.9192 48.215C44.3472 46.098 42.5503 45.6393 42.3037 45.604C42.9731 45.6746 54.6351 47.8975 51.7108 49.9087Z" fill="white"/>
<path d="M54.4237 45.2511C54.4237 45.2511 52.6621 46.3802 49.3502 45.0041C46.0383 43.628 44.1357 43.8397 44.1357 43.8397C44.1357 43.8397 56.7138 42.3931 54.4237 45.2511Z" fill="white"/>
<path d="M53.1199 40.2762C53.1199 40.2762 52.3096 41.8287 49.3148 41.5465C46.6724 41.2995 45.3335 41.864 45.0869 42.0052C45.7563 41.617 53.6484 37.1007 53.1199 40.2762Z" fill="white"/>
<path d="M22.644 34.066C22.2917 33.8543 20.671 33.0428 17.5353 32.8311C13.9416 32.5841 12.8846 30.7846 12.8846 30.7846C12.1447 27.4326 21.6927 33.4662 22.644 34.066Z" fill="white"/>
<path d="M21.7279 36.5006C21.4813 36.4653 19.6492 36.3242 16.5135 37.5238C13.1665 38.8293 11.4401 37.6297 11.4401 37.6297C9.29088 34.8422 21.0585 36.43 21.7279 36.5006Z" fill="white"/>
<path d="M20.4945 39.6411C20.2479 39.6764 18.4511 40.0998 15.8086 42.1463C12.99 44.3692 10.9818 43.734 10.9818 43.734C8.12792 41.6523 19.8604 39.747 20.4945 39.6411Z" fill="white"/>
<path d="M24.7224 31.5611C24.4758 31.3141 23.1722 30.0439 20.1422 28.9148C16.7599 27.6446 16.2666 25.6334 16.2666 25.6334C16.5485 22.105 24.1234 30.8554 24.7224 31.5611Z" fill="white"/>
<path d="M25.8498 29.656C25.7441 29.3384 25.0747 27.6095 22.8198 25.3513C20.2831 22.8109 20.6706 20.7644 20.6706 20.7644C22.3266 17.6947 25.568 28.7386 25.8498 29.656Z" fill="white"/>
<path d="M27.4005 27.7153C27.4005 27.5742 27.3653 25.7041 25.7446 22.6344C24.0534 19.4588 25.0399 17.5888 25.0399 17.5888C27.5767 15.0836 27.4005 27.3625 27.4005 27.7153Z" fill="white"/>
<path d="M29.1617 26.5506C29.2674 26.233 29.6902 24.8922 29.1969 22.3165C28.6332 19.3879 30.0778 18.4 30.0778 18.4C33.143 17.5885 29.514 25.7391 29.1617 26.5506Z" fill="white"/>
</svg>
