<svg width="77" height="75" viewBox="0 0 77 75" fill="none" xmlns="http://www.w3.org/2000/svg">
<path d="M75.5737 27.2116C74.0587 18.5318 69.1262 11.4397 60.9522 6.1118C51.4747 -0.0629043 43.0541 -0.486312 37.6283 0.289936C33.4004 0.85448 30.3352 2.19527 28.8907 2.93624C28.8554 2.68925 28.8554 2.47754 28.8554 2.26584V1.59544L27.5518 1.45431L27.4461 2.08942C27.4109 2.3364 27.3052 2.90095 27.3052 3.64192C26.1425 3.8889 21.9146 4.91214 17.2992 7.876C12.5428 10.9457 6.51801 16.7676 4.40406 27.0705C3.10046 26.3295 2.36058 25.6944 2.11395 25.4474C1.83209 25.2004 1.44453 25.1652 1.16267 25.4121C0.880813 25.6591 0.810348 26.0473 0.98651 26.3648C1.58546 27.3528 2.57197 28.3407 3.76988 29.2581C3.10046 31.5163 0.775115 41.043 5.07348 49.9345C3.31186 50.8519 1.44453 50.9578 0.880813 50.9578C0.84558 50.9578 0.810348 50.9578 0.775115 50.9578C0.42279 50.9578 0.105698 51.2048 0.070465 51.5576L0 52.228L0.56372 52.4044C0.98651 52.5455 2.00825 52.7925 3.24139 52.7925C4.08697 52.7925 5.07348 52.6514 6.05999 52.2633C8.06824 60.2022 17.4049 66.6591 19.9768 68.3175C18.7085 70.1523 18.0743 71.3166 17.8981 71.6342C17.722 71.9517 17.7924 72.3752 18.1095 72.5869C18.2504 72.6927 18.4266 72.7633 18.5675 72.7633C18.7437 72.7633 18.9199 72.6927 19.0608 72.5516C19.8359 71.8812 21.0338 70.7521 22.4431 69.3407C24.1343 70.1875 30.0533 73.0103 37.4169 74.0688C39.249 74.3511 41.0459 74.4569 42.8075 74.4569C51.7565 74.4569 59.1201 70.9285 64.2641 64.0481C73.4245 51.8399 77.5467 38.3967 75.5737 27.2116ZM18.039 9.14622C22.1965 6.46463 26.1073 5.40612 27.4109 5.12384C27.4814 5.68839 27.5871 6.3235 27.7632 6.9939C27.8337 7.2056 27.9041 7.45259 27.9746 7.77014C28.6088 10.0283 30.1238 15.3562 30.5113 18.2495C30.6875 19.6256 30.9694 22.413 31.2512 25.3769C31.4979 27.9526 31.7445 30.5989 31.9911 32.6101C24.9798 32.6454 10.9925 29.9991 7.57499 28.6583C6.90557 28.376 6.27139 28.129 5.7429 27.8467C7.29313 19.7314 11.4153 13.4509 18.039 9.14622ZM40.5878 38.3261C44.4282 40.4784 46.9649 46.8648 48.6561 51.1695C49.0084 52.0516 49.3255 52.8984 49.6426 53.5688C50.2416 54.9449 50.9814 56.7443 51.6861 58.6144C51.2633 57.944 50.911 57.3794 50.6996 57.0972C50.4529 56.7443 50.0302 56.0739 49.5017 55.2271C47.881 52.6514 45.4499 48.8054 43.336 46.5473C41.363 44.3949 39.3195 42.666 38.2625 41.7839C38.5796 41.6075 38.8967 41.3958 39.1785 41.1488C39.9889 40.4078 40.4469 39.4199 40.5878 38.3261ZM39.7423 35.08C39.8127 34.6566 39.8832 34.092 39.9184 33.4922C41.1516 32.3278 45.1328 30.3519 47.3525 29.2581C48.0571 28.9053 48.6913 28.5877 49.1141 28.376C50.4177 27.6703 51.2633 26.7529 51.827 25.8708C52.0384 30.3166 49.7483 31.7985 47.6696 33.1393C47.4582 33.2805 47.2468 33.4216 47.0354 33.5628C45.0976 34.8683 42.737 36.7383 41.7858 37.4793C41.363 37.197 40.9049 36.95 40.4469 36.7383C40.3765 36.1032 40.1298 35.5387 39.7423 35.08ZM38.2273 40.0903C37.4874 40.7607 36.5009 40.9724 35.4439 40.6901C34.9859 40.549 34.5983 40.4078 34.2812 40.2667C34.3869 40.1961 34.4926 40.1609 34.5983 40.0903C35.2677 39.5963 35.6553 38.8201 35.6905 37.7263C35.761 36.5972 35.3382 35.9621 34.9506 35.6092C34.9154 35.5739 34.8802 35.5387 34.8449 35.5034C36.1133 35.0447 37.2408 35.0094 38.0159 35.4328C38.6501 35.7504 39.0024 36.3149 39.1785 37.1617C39.3547 38.2908 39.0024 39.3846 38.2273 40.0903ZM30.5113 38.185C27.9746 37.4793 21.5975 35.6798 18.2857 34.7271C16.066 34.1273 11.4506 32.3278 7.64545 30.1049C11.9791 31.5516 25.2617 34.0567 32.2025 33.9509C32.273 34.4096 32.3082 34.833 32.3787 35.1505C31.3569 35.8209 30.758 36.5619 30.5818 37.3734C30.4761 37.6557 30.4761 37.938 30.5113 38.185ZM31.1808 39.8433L31.216 39.7022C31.4274 39.9844 31.7797 40.4431 32.4139 40.8665C32.4139 41.5369 32.3434 42.2779 32.2377 43.0541C30.6875 42.913 26.8824 42.9483 20.2587 45.4887C16.2422 47.0412 13.5293 47.9233 11.521 48.5585C9.93557 49.0877 8.77289 49.4405 7.71592 49.8992C7.85685 49.7934 7.99778 49.6875 8.13871 49.5817C10.006 48.2056 12.1552 46.6178 16.7354 44.9595C22.5488 42.8424 28.4326 39.561 29.0668 39.2082C30.3352 39.5963 31.1455 39.8433 31.1808 39.8433ZM32.3082 38.7495L32.273 38.6789L32.2025 38.6084C31.9559 38.3261 31.8502 38.0085 31.9206 37.691C31.9911 37.4087 32.2377 36.9147 33.1538 36.3149C33.4004 36.3149 33.788 36.3855 33.9994 36.6325C34.2108 36.8442 34.3165 37.197 34.2812 37.6557C34.246 38.2908 34.0698 38.7142 33.7527 38.9259C33.4004 39.1729 32.8719 39.1729 32.5548 39.1023C32.3787 38.9259 32.3082 38.7848 32.3082 38.7495ZM38.4739 34.092C37.1703 33.5275 35.4439 33.6333 33.647 34.4449C33.3652 32.5042 33.0129 28.6583 32.6605 25.2004C32.3787 22.2366 32.0968 19.4492 31.9206 18.0378C31.6388 15.9208 30.8637 12.7805 30.159 10.2047C30.8284 11.4397 31.5331 12.4629 32.0616 13.1333C33.3299 14.7564 33.6823 16.5206 34.1403 18.7788C34.246 19.308 34.3517 19.8373 34.4926 20.4018C35.1973 23.5774 37.2055 29.8932 38.2273 31.3751C38.5796 31.9044 38.5796 33.0688 38.4739 34.092ZM6.30662 49.2288C2.64244 41.4311 4.3336 32.9629 5.03825 30.1755C9.37185 33.1041 15.5023 35.4328 17.8981 36.0679C20.2587 36.7383 24.2047 37.8321 27.1643 38.6789C25.0503 39.808 20.6462 42.0662 16.3126 43.654C11.521 45.3829 9.23092 47.1118 7.36359 48.4526C6.97604 48.7349 6.65894 48.9819 6.30662 49.2288ZM7.36359 51.6634C8.63196 50.993 9.93557 50.5696 11.9791 49.9345C13.9873 49.2994 16.7002 48.382 20.7872 46.8295C27.0586 44.4302 30.6875 44.3597 32.0616 44.4655C31.0046 50.2521 27.9394 58.0851 24.099 62.8485C22.7602 64.5068 21.668 65.9535 20.7872 67.1884C18.3914 65.6359 9.05475 59.1789 7.36359 51.6634ZM22.1965 67.6471C23.0068 66.518 23.9933 65.2125 25.1912 63.7306C30.0181 57.7676 33.4709 47.6058 33.8232 41.6428C34.2108 41.7839 34.5983 41.9603 35.0563 42.0662C35.4791 42.1721 35.9019 42.2426 36.3247 42.2426C36.4656 42.2426 36.5713 42.2426 36.7123 42.2073L36.677 42.2779C36.677 42.2779 37.3112 42.7719 38.2273 43.5834C37.3817 45.8063 33.8937 54.345 29.5601 59.6023C27.0586 62.5662 24.4161 65.4242 22.1965 67.6471ZM63.1014 63.2366C57.2176 71.1049 48.6561 74.2805 37.6635 72.6927C31.0751 71.74 25.5436 69.3054 23.5001 68.3175C25.6845 66.0946 28.2212 63.3777 30.617 60.4844C34.8802 55.333 38.2273 47.3941 39.3547 44.5714C40.2708 45.3829 41.2925 46.4061 42.3142 47.4999C44.3577 49.6875 46.824 53.6041 48.3038 55.9681C48.8323 56.8149 49.255 57.5206 49.5369 57.9087C50.2063 58.8614 52.5669 62.8838 54.5399 66.3416C54.6809 66.5886 54.9275 66.7297 55.1741 66.7297C55.2798 66.7297 55.3855 66.6944 55.4912 66.6591C55.8435 66.4827 56.0197 66.0946 55.8788 65.7418C55.1036 63.6953 52.4964 56.7443 50.911 53.0748C50.6291 52.4044 50.312 51.5929 49.9597 50.7108C48.4447 46.8648 46.2955 41.3958 42.9837 38.3967C44.0406 37.5498 46.1546 35.8915 47.881 34.7271C48.0571 34.586 48.2685 34.4801 48.4799 34.339C50.8053 32.8571 54.2933 30.5989 52.9897 23.5421C52.9192 23.154 52.6021 22.8717 52.2146 22.8717C51.827 22.8717 51.4747 23.1187 51.4042 23.4715C51.1576 24.3889 50.4882 26.1178 48.4799 27.1411C48.0924 27.3528 47.4582 27.6703 46.7535 28.0232C44.0054 29.3992 41.3982 30.7047 39.848 31.8338C39.7423 31.3751 39.6013 30.9517 39.3899 30.6342C38.5796 29.4345 36.5713 23.3657 35.8667 20.1548C35.7258 19.5903 35.6201 19.061 35.5144 18.5671C35.0563 16.2383 34.6336 14.1918 33.1538 12.3218C31.9206 10.734 29.9476 7.27617 29.1725 4.45345C30.2647 3.85362 33.4004 2.3364 37.8749 1.73658C43.0189 1.0309 51.0871 1.4543 60.1771 7.38202C68.034 12.4982 72.7199 19.2727 74.1997 27.5292C76.1022 38.2555 72.0505 51.3106 63.1014 63.2366Z" fill="white"/>
<path d="M38.2271 43.5832C37.3815 45.8061 33.8935 54.3448 29.5599 59.6021C27.0936 62.566 24.4159 65.424 22.1963 67.6469C23.0066 66.5178 23.9931 65.2123 25.1911 63.7304C30.0179 57.7674 33.4707 47.6056 33.823 41.6426C34.2106 41.7837 34.5981 41.9601 35.0562 42.066C35.4789 42.1718 35.9017 42.2424 36.3245 42.2424C36.4655 42.2424 36.5711 42.2424 36.7121 42.2071L36.6768 42.2777C36.6768 42.2777 37.2758 42.7717 38.2271 43.5832Z" fill="#F39070"/>
<path d="M51.6511 58.6143C51.2283 57.9439 50.876 57.3794 50.6646 57.0971C50.418 56.7443 49.9952 56.0739 49.4667 55.2271C47.846 52.6513 45.415 48.8054 43.301 46.5472C41.328 44.3949 39.2845 42.666 38.2275 41.7839C38.5446 41.6074 38.8617 41.3958 39.1436 41.1488C39.9539 40.4078 40.4472 39.4198 40.5529 38.3613C44.3932 40.5137 46.93 46.9001 48.6211 51.2047C48.9735 52.0868 49.2905 52.9336 49.6076 53.604C50.2066 54.9448 50.9465 56.7796 51.6511 58.6143Z" fill="#F39070"/>
<path d="M38.2273 40.0904C37.4874 40.7608 36.5009 40.9725 35.4439 40.6902C34.9859 40.5491 34.5983 40.408 34.2812 40.2668C34.3869 40.1963 34.4926 40.161 34.5983 40.0904C35.2678 39.5964 35.6553 38.8202 35.6905 37.7264C35.761 36.5973 35.3382 35.9622 34.9507 35.6093C34.9154 35.5741 34.8802 35.5388 34.845 35.5035C36.1133 35.0448 37.2408 35.0095 38.0159 35.4329C38.6501 35.7505 39.0024 36.315 39.1786 37.1618C39.3547 38.2909 39.0024 39.3847 38.2273 40.0904Z" fill="#F39070"/>
<path d="M34.2815 37.6557C34.2463 38.2909 34.0701 38.7143 33.753 38.926C33.4007 39.173 32.8722 39.173 32.5551 39.1024C32.3789 38.8907 32.3085 38.7495 32.2732 38.7495L32.238 38.679L32.1675 38.6084C31.9209 38.3261 31.8152 38.0086 31.8857 37.691C31.9562 37.4087 32.2028 36.9148 33.1188 36.3149C33.3655 36.3149 33.753 36.3855 33.9644 36.6325C34.211 36.8442 34.3167 37.1971 34.2815 37.6557Z" fill="#F39070"/>
<path d="M47.7048 33.1396C47.4934 33.2807 47.282 33.4219 47.0706 33.563C45.1328 34.8685 42.7723 36.7386 41.821 37.4795C41.3982 37.1973 40.9402 36.9503 40.4821 36.7386C40.3412 36.0682 40.0946 35.5389 39.707 35.0802C39.7775 34.6568 39.848 34.0923 39.8832 33.4924C41.1163 32.3281 45.0976 30.3522 47.3173 29.2584C48.0219 28.9055 48.6561 28.588 49.0789 28.3763C50.3825 27.6706 51.2281 26.7532 51.7918 25.8711C52.0736 30.3169 49.7835 31.7988 47.7048 33.1396Z" fill="#F39070"/>
<path d="M38.474 34.0918C37.1704 33.5273 35.4441 33.6332 33.6472 34.4447C33.3653 32.5041 33.013 28.6581 32.6607 25.2003C32.3788 22.2364 32.097 19.449 31.9208 18.0376C31.6389 15.9206 30.8638 12.7803 30.1592 10.2046C30.8286 11.4395 31.5332 12.4628 32.0617 13.1332C33.3301 14.7562 33.6824 16.5204 34.1405 18.7786C34.2462 19.3079 34.3518 19.8371 34.4928 20.4017C35.1974 23.5772 37.2057 29.893 38.2274 31.375C38.5797 31.9042 38.5797 33.0686 38.474 34.0918Z" fill="#F39070"/>
<path d="M63.1013 63.2367C57.2175 71.105 48.656 74.2806 37.6635 72.6928C31.075 71.7401 25.5435 69.3055 23.5 68.3176C25.6844 66.0947 28.2212 63.3778 30.617 60.4845C34.8801 55.3331 38.2272 47.3942 39.3546 44.5714C40.2707 45.383 41.2924 46.4062 42.3142 47.5C44.3576 49.6876 46.8239 53.6041 48.3037 55.9682C48.8322 56.815 49.255 57.5207 49.5368 57.9088C50.2062 58.8615 52.5668 62.8838 54.5398 66.3417C54.6808 66.5887 54.9274 66.7298 55.174 66.7298C55.2797 66.7298 55.3854 66.6945 55.4911 66.6592C55.8434 66.4828 56.0196 66.0947 55.8787 65.7418C55.1036 63.6954 52.4964 56.7444 50.9109 53.0749C50.629 52.4045 50.3119 51.593 49.9596 50.7109C48.4446 46.8649 46.2954 41.3959 42.9836 38.3967C44.0406 37.5499 46.1545 35.8916 47.8809 34.7272C48.0571 34.5861 48.2685 34.4802 48.4798 34.3391C50.8052 32.8572 54.2932 30.599 52.9896 23.5422C52.9191 23.1541 52.602 22.8718 52.2145 22.8718C51.8269 22.8718 51.4746 23.1188 51.4041 23.4716C51.1575 24.389 50.4881 26.1179 48.4798 27.1411C48.0923 27.3529 47.4581 27.6704 46.7535 28.0232C44.0053 29.3993 41.3981 30.7048 39.8479 31.8339C39.7422 31.3752 39.6013 30.9518 39.3899 30.6343C38.5795 29.4346 36.5713 23.3658 35.8666 20.1549C35.7257 19.5904 35.62 19.0611 35.5143 18.5671C35.0563 16.2384 34.6335 14.1919 33.1537 12.3219C31.9206 10.7341 29.9476 7.27626 29.1724 4.45354C30.2646 3.85371 33.4003 2.33649 37.8749 1.73667C43.0188 1.03099 51.0871 1.45439 60.177 7.38211C68.0339 12.4983 72.7198 19.2728 74.1996 27.5293C76.1021 38.2556 72.0504 51.3107 63.1013 63.2367Z" fill="#F39070"/>
<path d="M31.9914 32.575C24.9801 32.6103 10.9928 29.964 7.57525 28.6232C6.90584 28.3409 6.27165 28.0939 5.74316 27.8116C7.29339 19.7316 11.4156 13.451 18.0393 9.1464C22.1967 6.46481 26.1076 5.4063 27.4112 5.12402C27.4816 5.68857 27.5873 6.32368 27.7635 6.99408C27.8339 7.20578 27.9044 7.45277 27.9749 7.77032C28.6091 10.0285 30.1241 15.3564 30.5116 18.2497C30.6878 19.6258 30.9696 22.4132 31.2515 25.377C31.5334 27.9175 31.78 30.5638 31.9914 32.575Z" fill="#F39070"/>
<path d="M32.3435 35.1859C31.3218 35.8563 30.7228 36.5972 30.5466 37.4088C30.4762 37.6558 30.4762 37.9027 30.5114 38.185C27.9747 37.4793 21.5976 35.6799 18.2857 34.7272C16.0661 34.1274 11.4506 32.3279 7.64551 30.105C11.9791 31.5516 25.2618 34.0568 32.2026 33.9509C32.2378 34.4449 32.273 34.8683 32.3435 35.1859Z" fill="#F39070"/>
<path d="M27.1642 38.6789C25.0502 39.808 20.6462 42.0661 16.3126 43.6539C11.5209 45.3828 9.23082 47.1117 7.3635 48.4525C7.01117 48.7348 6.65885 48.9818 6.30652 49.1935C2.64234 41.3957 4.3335 32.9276 5.03815 30.1401C9.37175 33.0687 15.5022 35.3975 17.898 36.0326C20.2586 36.7382 24.1694 37.8673 27.1642 38.6789Z" fill="#F39070"/>
<path d="M32.4138 40.8664C32.4138 41.5367 32.3433 42.2777 32.2376 43.054C30.6874 42.9128 26.8823 42.9481 20.2586 45.4886C16.2421 47.0411 13.5292 47.9232 11.5209 48.5583C9.93547 49.0875 8.7728 49.4404 7.71582 49.8991C7.85675 49.7932 7.99768 49.6874 8.13861 49.5815C10.0059 48.2054 12.1551 46.6176 16.7353 44.9593C22.5487 42.8423 28.4325 39.5608 29.0667 39.208C30.2999 39.5608 31.1454 39.8078 31.1807 39.8078L31.2159 39.6667C31.4273 39.9843 31.8149 40.4429 32.4138 40.8664Z" fill="#F39070"/>
<path d="M32.0618 44.4655C31.0048 50.2521 27.9396 58.0851 24.0992 62.8485C22.7604 64.5068 21.6682 65.9535 20.7874 67.1884C18.3915 65.6359 9.05493 59.1789 7.36377 51.6634C8.63214 50.993 9.93574 50.5696 11.9792 49.9345C13.9875 49.2994 16.7004 48.382 20.7874 46.8295C27.0587 44.4302 30.6877 44.3597 32.0618 44.4655Z" fill="#F39070"/>
</svg>
