<?xml version="1.0" encoding="utf-8"?>
<!-- Generator: Adobe Illustrator 24.1.1, SVG Export Plug-In . SVG Version: 6.00 Build 0)  -->
<svg version="1.1" id="Layer_1" xmlns="http://www.w3.org/2000/svg" xmlns:xlink="http://www.w3.org/1999/xlink" x="0px" y="0px"
	 viewBox="0 0 127 40" style="enable-background:new 0 0 127 40;" xml:space="preserve">
<style type="text/css">
	.st0{fill:#FFFFFF;}
</style>
<path class="st0" d="M116.1,38.5c0-1.1-0.1-2.5-0.1-4.3c0-1.2,0-2.8,0-4.5c0-0.3-0.1-0.9-0.2-1.6c-1.3,0.3-2.4,0.5-3.4,0.4
	c-2.3,0.4-5.7-1.4-6.8-4.5c-0.8-1.2-1.1-2.6-0.9-4.1c-0.3-4.3-0.4-8.6-0.3-12.6c-0.3-1.7-0.3-3.2-0.2-4.3c-0.2-0.7-0.2-1.1,0.1-1.3
	c3.5-0.4,7.2-0.6,11-0.3c0.1,0.1,0.2,0.4,0.2,1.1c0.1,2.2,0.1,4.7,0.1,7.5c0,0.4,0.1,1,0.2,1.9c3.6-0.3,7-0.3,10.5-0.3
	c0.3,0.8,0.4,1.7,0.2,2.7c0.3,5.7,0.4,11.5,0.3,17c0.3,2.2,0.3,4,0.2,5.6c0.2,0.8,0.2,1.2,0,1.4C123.3,38.8,119.8,38.8,116.1,38.5z"
	/>
<path class="st0" d="M89.5,26.4c-0.2,4.1-0.4,8.1-0.6,12.3c-0.8,0-1.5,0.1-2.3,0c-2.3-0.1-4.6-0.2-7-0.3c-0.5,0-1.3,0.1-1.4-0.1
	c-0.3-0.5-0.2-1.2-0.2-1.8c0.2-5.8,0.6-11.5,0.8-17.2C79,13.9,79.1,8.5,79.4,3c0-0.6-0.3-1.3,0.4-1.9c3.4,0.1,7,0.2,10.6,0.3
	c-0.2,2.9-0.3,5.6-0.4,8.4c1,0.6,2,0.4,3,0.5c2.2,0.2,4,0.9,5.5,2.6c1.1,1.2,1.8,2.7,2,4.3c0.2,1.3,0.2,2.7,0.2,3.9
	c0,1.8-0.2,3.7-0.3,5.7C96.7,26.7,93.1,26.6,89.5,26.4z"/>
<path class="st0" d="M3.6,0c3.5,0.3,7,0.7,10.7,1.1c-0.1,1.4-0.2,2.7-0.4,3.9c-0.2,2-0.4,4-0.7,6.1c-0.6,5.7-1.2,11.4-1.8,17.1
	c0,0.1,0.1,0.3,0.1,0.6c3.4,0.3,6.7,0.7,10.3,1c-0.4,3.3-0.8,6.4-1.1,9.6c-0.2,0-0.4,0.1-0.7,0.1c-4.8-0.4-9.5-0.9-14.2-1.4
	c-1.5-0.2-3.1-0.2-4.6-0.4c-0.4-0.1-0.9-0.1-1.3-0.2C-0.3,36,2.7,4.4,3.6,0z"/>
<path class="st0" d="M51.5,1.5c3.5-0.2,7.1-0.4,10.7-0.6c0.1,1.4,0.2,2.7,0.2,3.9c0.1,2,0.2,4,0.3,6.1c0.3,5.8,0.6,11.5,0.8,17.2
	c0,0.1,0.1,0.2,0.2,0.6c3.4-0.2,6.8-0.4,10.3-0.6c0.1,3.3,0.2,6.4,0.3,9.6c-0.2,0.1-0.4,0.1-0.6,0.2c-4.8,0.3-9.5,0.5-14.3,0.8
	c-1.5,0.1-3.1,0.2-4.6,0.3C54.4,39,54,39,53.6,39C53.1,37.7,51.3,6,51.5,1.5z"/>
<path class="st0" d="M48,37c0,0.4-0.1,0.7-0.1,1.2c-3.4,0.1-6.8,0.2-10.2,0.3l-1.5-27.8l-0.9,0l1.5,27.8c-3.7,0.1-7.5,0.2-11.2,0.4
	l0,0c-0.1-1.1-0.1-2.1-0.2-3.1c-0.1-5.3-0.3-10.6-0.5-15.9c0-0.4,0-0.7,0-1.1c0-0.8-0.1-1.7-0.1-2.5c0-0.2,0-0.5,0-0.7
	c0-0.6,0-1.2-0.1-1.8c0-0.7,0-1.4,0-2.1c0-1.1,0.1-2.1,0.3-3.2c0.9-4.8,5.4-7.7,9-8.2C39.2-0.4,45,3.2,46.5,8.9
	c0.6,2.1,0.6,4.2,0.7,6.3c0.2,6.2,0.4,12.4,0.6,18.6C47.8,34.9,47.9,35.9,48,37z"/>
</svg>
