<svg width="79" height="79" viewBox="0 0 79 79" fill="none" xmlns="http://www.w3.org/2000/svg">
<path d="M46.8422 5.70132L46.7191 5.66955L46.5933 5.6876C29.2761 6.43155 21.4314 23.7525 17.6627 32.1093C17.4631 32.5727 17.2661 32.9863 17.0954 33.3764C14.5217 39.0025 11.4979 49.298 13.7829 54.6424C14.1149 55.4347 14.5545 56.0832 15.0755 56.6113C15.0991 56.6375 15.1697 56.7163 15.3373 56.8504C15.3844 56.9029 15.4578 56.9319 15.5049 56.9845C16.7015 57.9493 20.3181 60.3458 25.8405 59.3267L25.9165 59.3059L26.0188 59.2616C26.121 59.2173 26.9625 58.8891 28.0147 60.2205C29.9514 62.7492 37.6864 66.0966 41.3107 66.0216C42.1544 66.1181 43.027 66.1412 43.905 66.0647C46.3868 65.8768 49.2074 64.9585 51.8302 62.6061C55.2662 59.5244 58.3849 53.9783 60.1031 44.285C63.1019 27.4712 59.3955 17.9036 55.7213 12.8572C51.728 7.24388 47.0387 5.76208 46.8422 5.70132ZM17.3373 56.3364C16.9941 56.2176 16.6536 56.049 16.3682 55.7836C16.3211 55.7311 16.2478 55.702 16.2007 55.6495C16.1535 55.597 16.13 55.5707 16.0829 55.5182C16.0357 55.4656 15.9651 55.3868 15.918 55.3343C15.5881 54.9666 15.337 54.5283 15.1148 54.0166C13.2769 49.6457 15.4454 40.4017 18.4419 33.875C18.6126 33.4849 18.8095 33.0713 19.0091 32.6079C22.8357 24.1045 29.9161 8.46433 45.5935 7.1057L27.367 52.744C26.7819 53.4109 22.4061 58.1886 17.3373 56.3364ZM30.4227 60.478C29.8204 60.0702 29.3674 59.6708 29.1109 59.332C27.5694 57.3495 25.9495 57.7596 25.517 57.9106C24.0282 58.2031 22.7075 58.1553 21.5416 58.0162C24.3199 57.4201 26.5649 55.5962 27.698 54.4851L29.0439 58.2547C29.2817 58.9419 29.7657 59.6927 30.4227 60.478ZM54.6775 13.6986C58.1135 18.5321 61.6421 27.6904 58.746 43.9855C55.8498 60.2806 48.9985 64.1979 43.8068 64.636C37.2864 65.1757 31.3242 60.4277 30.3913 57.8045L28.7423 53.1693L47.0555 7.31108C48.3993 7.85952 51.7256 9.61582 54.6775 13.6986Z" fill="white"/>
<path d="M18.9569 32.6551C18.7573 33.1185 18.5604 33.5321 18.3896 33.9222C15.4194 40.4254 13.2247 49.6929 15.0626 54.0638C15.2848 54.5755 15.5595 55.04 15.8657 55.3815C15.9364 55.4603 15.9835 55.5128 16.0307 55.5654C16.0778 55.6179 16.1013 55.6442 16.1485 55.6967C16.1956 55.7492 16.2689 55.7783 16.316 55.8308C16.6041 56.0464 16.9183 56.2385 17.2851 56.3836C22.3802 58.2123 26.7297 53.4581 27.3148 52.7912L45.5386 7.20269C29.8902 8.488 22.807 24.1779 18.9569 32.6551ZM36.9334 22.4093C36.1772 23.9407 35.6174 25.5328 35.2568 27.136C34.862 28.912 34.3374 29.3825 33.3225 30.1505C32.6721 30.6391 31.7884 31.2895 30.5578 32.8198C28.632 35.2106 29.108 36.1107 29.7019 37.1422C30.1126 37.864 30.6122 38.7904 30.0476 40.0077L29.9898 40.1543C29.3647 41.5681 29.3647 41.5681 29.414 42.0453C29.4504 42.297 29.4789 42.698 29.4939 43.3481C29.5241 44.6481 28.7234 46.0772 27.3858 47.2769C25.917 48.5943 23.7907 49.6008 21.4663 49.6475C19.6161 49.6954 18.4608 49.3571 17.7829 48.4958C16.7517 47.2404 16.9554 45.3041 17.7504 41.6524C18.3085 39.1613 20.4234 33.7097 27.4738 21.8882C28.5999 19.9776 32.8637 14.4946 35.7514 14.6537C36.3488 14.6866 37.1321 14.9794 37.6237 16.0552C38.5833 18.1805 37.7737 20.7077 36.9334 22.4093Z" fill="#F39070"/>
<path d="M27.6747 54.4588L29.0205 58.2283C29.2819 58.9419 29.7659 59.6926 30.4229 60.4779C29.8206 60.0702 29.3676 59.6707 29.1111 59.332C27.5696 57.3494 25.9497 57.7595 25.5172 57.9105C24.0284 58.203 22.7077 58.1553 21.5417 58.0161C24.3463 57.3966 26.5415 55.5699 27.6747 54.4588Z" fill="#F39070"/>
<path d="M47.0321 7.28467L28.7189 53.1429L30.3679 57.7781C31.3244 60.4276 37.2866 65.1756 43.7834 64.6096C48.9987 64.1978 55.8264 60.2542 58.7226 43.9591C61.6423 27.6903 58.1136 18.532 54.6541 13.6722C51.7258 9.61567 48.3995 7.85938 47.0321 7.28467ZM52.5329 20.1721C54.5247 22.604 57.2955 29.5982 57.1276 35.0572C56.9896 39.4941 56.7264 48.5933 50.6151 54.0745C50.379 54.2862 50.1692 54.4744 49.9096 54.6598C44.5648 58.8848 41.0468 57.4425 40.0778 56.8898C38.9149 56.2265 38.2007 55.1134 38.3327 54.047C38.299 53.7456 38.1462 51.9394 36.8371 50.7436C35.7898 49.7871 35.2409 48.3835 35.2921 46.9631C35.3669 45.5689 36.0546 44.3833 37.198 43.5474C38.2627 42.7821 39.4158 42.6958 40.508 43.2803C41.8202 43.9519 42.7069 45.5738 42.6922 47.2459C42.6917 47.7203 42.8015 48.001 42.9011 48.0065C43.1971 48.0727 44.2013 47.5038 44.8976 45.6945C46.1429 42.4921 47.0844 33.7798 44.498 28.4687C44.1815 27.852 43.8597 27.3349 43.585 26.8703C42.3658 24.9305 41.9004 23.8312 43.8459 20.143C44.7648 18.3709 45.9398 17.4119 47.3707 17.266C49.7268 17.0962 51.7581 19.2555 52.5329 20.1721Z" fill="#F39070"/>
<path d="M47.418 17.3185C46.0132 17.4409 44.8121 18.4234 43.8931 20.1955C41.9477 23.8837 42.413 24.983 43.6323 26.9228C43.907 27.3874 44.2288 27.9045 44.5452 28.5212C47.1579 33.8088 46.1901 42.5446 44.9448 45.7469C44.2512 47.5065 43.2706 48.1017 42.9483 48.0589C42.8252 48.0272 42.7154 47.7465 42.7394 47.2984C42.7777 45.6525 41.891 44.0306 40.5552 43.3328C39.4866 42.7746 38.3072 42.8844 37.2452 43.5999C36.0783 44.4095 35.4141 45.6214 35.3393 47.0156C35.2383 48.4332 35.8108 49.8631 36.8843 50.7961C38.1934 51.9918 38.3462 53.798 38.38 54.0995C38.2741 55.1424 38.9386 56.2527 40.125 56.9423C41.0941 57.495 44.612 58.9373 49.9568 54.7123C50.1929 54.5006 50.4525 54.3151 50.6623 54.1269C56.7736 48.6458 57.0341 39.5963 57.1749 35.1096C57.3428 29.6506 54.5484 22.6302 52.5801 20.2246C51.7583 19.2555 49.7269 17.0961 47.418 17.3185ZM51.4368 21.0605C53.2401 23.2822 55.8776 29.9694 55.731 35.0301C55.577 39.7657 55.3298 48.5662 49.0696 53.5648C45.3927 56.4834 42.3922 56.5678 40.7919 55.6806C39.9931 55.2121 39.7002 54.6217 39.7478 54.1998L39.7531 54.1003C39.7585 54.0007 39.6955 51.4503 37.8156 49.7238C37.0773 49.0589 36.7062 48.0647 36.7596 47.0688C36.8023 46.2722 37.1673 45.5182 37.7706 44.9772C37.8755 44.8831 37.9542 44.8125 38.0826 44.7447C38.7303 44.3059 39.3331 44.2393 39.9408 44.5474C40.7658 44.9924 41.4041 46.1262 41.3689 47.2478C41.3488 49.0195 42.4046 49.3524 42.7268 49.3951C44.0106 49.6656 45.4794 48.3482 46.3175 46.222C47.6233 42.8233 48.6466 33.5162 45.8771 27.8954C45.5397 27.2027 45.1944 26.6593 44.8961 26.1684C43.9071 24.5908 43.5408 23.9714 45.2053 20.8671C45.9011 19.5321 46.7378 18.8291 47.6157 18.7526C49.2485 18.5679 50.9447 20.4591 51.4368 21.0605Z" fill="white"/>
<path d="M47.5658 18.7498C46.6616 18.8498 45.825 19.5528 45.1554 20.8643C43.4883 24.0184 43.8572 24.5881 44.8462 26.1657C45.1445 26.6565 45.4663 27.1736 45.8272 27.8926C48.5941 33.5632 47.5969 42.8468 46.2676 46.2193C45.4295 48.3454 43.987 49.6393 42.6769 49.3923C42.3311 49.3233 41.2754 48.9905 41.319 47.2451C41.3542 46.1234 40.7395 45.0159 39.8909 44.5446C39.2832 44.2365 38.6804 44.3032 38.0327 44.7419C37.9278 44.836 37.8256 44.8803 37.7207 44.9744C37.1174 45.5155 36.7524 46.2694 36.7097 47.0661C36.6563 48.0619 37.0274 49.0561 37.7657 49.721C39.6456 51.4476 39.7085 53.9979 39.7032 54.0975L39.6979 54.1971C39.6503 54.6189 39.9432 55.2093 40.742 55.6778C42.316 56.5885 45.3166 56.5041 49.0197 53.562C55.3034 48.5897 55.5769 39.7657 55.6811 35.0273C55.8277 29.9666 53.1902 23.2794 51.3869 21.0577C50.9446 20.4591 49.2484 18.5679 47.5658 18.7498ZM41.8965 54.1684C41.8965 54.1684 40.8621 53.4372 42.3363 52.0203C43.6241 50.8178 43.6904 50.0474 43.6749 49.8718C43.774 50.3516 44.469 55.0841 41.8965 54.1684ZM46.8949 53.1453C46.8949 53.1453 45.8124 53.3104 45.9321 51.5442C46.0256 49.8015 45.4993 49.373 45.4993 49.373C45.4993 49.373 49.118 52.1941 46.8949 53.1453ZM50.69 49.8837C50.69 49.8837 49.5889 50.3973 48.6577 48.6731C47.8416 47.13 47.0873 46.7638 46.8908 46.703C47.3833 46.8301 52.4762 48.2342 50.69 49.8837ZM52.8298 45.8317C52.8298 45.8317 51.9273 46.8307 50.388 45.2727C48.9429 43.8198 48.0703 43.7967 47.9209 43.7885C48.1961 43.7786 54.0639 43.3029 52.8298 45.8317ZM53.7933 41.3653C53.7933 41.3653 53.0402 42.3726 51.3537 41.231C49.8846 40.2262 49.0329 40.2791 48.8075 40.2917C49.3632 40.1725 54.6656 39.0663 53.7933 41.3653ZM53.5913 36.2855C53.5913 36.2855 53.3072 37.3935 51.594 36.7498C50.1009 36.1931 49.4141 36.4299 49.2856 36.4977C49.6239 36.2417 53.5177 33.9343 53.5913 36.2855ZM53.1368 32.1905C53.1368 32.1905 52.8714 32.9499 51.0164 32.623C49.557 32.3678 48.7075 32.8454 48.6052 32.8897C48.8622 32.754 53.1916 29.7715 53.1368 32.1905ZM51.8706 27.4016C51.8706 27.4016 52.1026 28.6628 50.0822 28.6264C48.2609 28.601 47.6839 29.1185 47.6026 29.2389C47.8466 28.8778 50.7043 24.9403 51.8706 27.4016ZM48.1051 24.5224C46.8173 25.7249 46.7274 26.469 46.7168 26.6682C46.6412 26.2146 46.0222 21.4613 48.5685 22.4006C48.5685 22.4006 49.6028 23.1318 48.1051 24.5224Z" fill="#F39070"/>
<path d="M35.7513 14.6531C32.8401 14.4677 28.5999 19.977 27.4738 21.8876C20.4233 33.7091 18.2822 39.1842 17.7504 41.6518C16.9553 45.3035 16.7516 47.2398 17.7829 48.4952C18.487 49.333 19.6161 49.6948 21.4662 49.6469C23.7906 49.6002 25.9169 48.5937 27.3857 47.2763C28.6971 46.1001 29.524 44.6475 29.4939 43.3475C29.4788 42.6974 29.4241 42.3199 29.4139 42.0447C29.3646 41.5675 29.3646 41.5675 29.9897 40.1538L30.0475 40.0071C30.6121 38.7898 30.1125 37.8634 29.7018 37.1416C29.1342 36.0866 28.6084 35.1837 30.5578 32.8192C31.7883 31.2889 32.6721 30.6385 33.3224 30.1499C34.3374 29.3819 34.8619 28.9114 35.2568 27.1354C35.6174 25.5322 36.1771 23.9401 36.9071 22.4322C37.7474 20.7306 38.5806 18.2297 37.5974 16.0781C37.1582 14.9553 36.3488 14.686 35.7513 14.6531ZM36.3442 16.6333C37.0789 18.2968 36.3694 20.3551 35.6682 21.7897C34.8569 23.4179 34.2918 25.1096 33.8996 26.8359C33.6284 28.1693 33.3163 28.4018 32.485 29.0052C31.7822 29.5407 30.846 30.2382 29.458 31.9096C26.9183 35.0407 27.805 36.6626 28.4669 37.8226C28.854 38.5181 29.0345 38.8776 28.7797 39.4379L28.7219 39.5845C27.9866 41.192 27.9288 41.3386 28.0065 42.2168C28.043 42.4685 28.0741 42.8198 28.0683 43.3938C28.1215 45.1945 25.0919 48.1487 21.4151 48.2708C20.0393 48.3198 19.2272 48.1003 18.8529 47.6303C18.1959 46.845 18.4703 44.9874 19.131 41.9776C19.6339 39.5833 21.7409 34.281 28.6837 22.6034C29.5893 21.0803 31.2186 19.0976 32.7399 17.7332C33.8677 16.7216 34.9533 16.0324 35.6503 16.0707C35.8757 16.0582 36.1455 16.148 36.3442 16.6333Z" fill="white"/>
<path d="M35.6763 16.0474C34.9793 16.009 33.8937 16.6983 32.7659 17.7098C31.2446 19.0743 29.6153 21.0569 28.7097 22.5801C21.7669 34.2577 19.6599 39.56 19.157 41.9543C18.5225 44.9406 18.2717 46.8244 18.8789 47.6069C19.2532 48.077 20.0915 48.273 21.4411 48.2475C25.1152 48.1752 28.1448 45.221 28.0942 43.3705C28.1001 42.7965 28.0427 42.4687 28.0325 42.1935C27.9548 41.3153 27.9863 41.1922 28.7479 39.5612L28.8057 39.4146C29.0605 38.8543 28.9036 38.5211 28.4929 37.7993C27.831 36.6393 26.9443 35.0174 29.484 31.8863C30.8222 30.2122 31.7846 29.4912 32.511 28.9818C33.3188 28.3522 33.6046 28.1432 33.9256 26.8126C34.3178 25.0863 34.8829 23.3946 35.6942 21.7663C36.3953 20.3318 37.1049 18.2735 36.3702 16.61C36.1453 16.1482 35.8755 16.0584 35.6763 16.0474ZM23.9916 44.9173C22.6481 46.691 21.5693 45.8575 21.5693 45.8575C19.9442 43.5707 25.812 43.0949 26.2628 43.0698C26.0872 43.0851 25.1777 43.2847 23.9916 44.9173ZM24.2287 40.9602C22.5608 42.2666 21.8727 41.1301 21.8727 41.1301C21.1154 38.4916 26.2425 39.7228 26.7115 39.8236C26.5097 39.8624 25.6633 39.8158 24.2287 40.9602ZM24.946 36.4304C23.4021 36.8198 23.28 35.8392 23.28 35.8392C23.6121 33.835 26.6312 36.1986 26.9664 36.4668C26.8224 36.359 26.2619 36.1034 24.946 36.4304ZM25.8477 33.5836C24.435 33.8554 24.3074 32.9744 24.3074 32.9744C24.5267 31.2137 27.4018 33.4695 27.6898 33.6851C27.5929 33.6298 27.0586 33.3507 25.8477 33.5836ZM27.2468 31.2387C25.9861 31.4689 25.979 30.6695 25.979 30.6695C26.497 28.9252 28.8871 31.379 28.8871 31.379C28.8871 31.379 28.5337 30.985 27.2468 31.2387ZM28.452 28.7832C27.0891 29.0577 27.1109 28.185 27.1109 28.185C27.6053 26.4145 29.9328 28.6401 30.1946 28.8792C30.0714 28.8475 29.6367 28.5738 28.452 28.7832ZM30.4614 26.6966C29.1038 26.8715 28.9736 26.0404 28.9736 26.0404C29.1902 24.3294 32.2484 26.8949 32.2484 26.8949C32.2484 26.8949 31.7955 26.4955 30.4614 26.6966ZM31.5751 24.0863C30.3615 24.369 30.2758 23.6402 30.2758 23.6402C30.5395 21.9818 33.171 24.1243 33.171 24.1243C33.171 24.1243 32.7914 23.7538 31.5751 24.0863ZM34.4967 21.7503C34.4496 21.6978 34.0935 21.3536 32.8355 21.534C31.4516 21.7324 31.6726 20.8706 31.6726 20.8706C32.6151 19.1248 34.3816 21.5692 34.4967 21.7503ZM35.3267 19.7735C35.3321 19.674 35.2512 19.3199 34.5311 18.7809C33.6905 18.1603 34.236 17.7659 34.236 17.7659C35.586 17.2659 35.3401 19.5246 35.3267 19.7735Z" fill="#F39070"/>
<path d="M43.6981 49.8984C43.7737 50.352 44.4687 55.0844 41.9198 54.195C41.9198 54.195 40.8854 53.4638 42.3595 52.0469C43.6238 50.8181 43.7137 50.074 43.6981 49.8984Z" fill="white"/>
<path d="M26.263 43.0702C26.0874 43.0854 25.2277 43.2878 23.9918 44.9176C22.6483 46.6913 21.5695 45.8578 21.5695 45.8578C19.9444 43.571 25.8122 43.0953 26.263 43.0702Z" fill="white"/>
<path d="M26.709 39.8734C26.5361 39.8389 25.7133 39.8185 24.229 40.9602C22.561 42.2666 21.873 41.13 21.873 41.13C21.1129 38.5413 26.2165 39.7463 26.709 39.8734Z" fill="white"/>
<path d="M35.3272 19.7738C35.3325 19.6742 35.2516 19.3201 34.5315 18.7811C33.6909 18.1605 34.2364 17.7661 34.2364 17.7661C35.5865 17.2661 35.3405 19.5248 35.3272 19.7738Z" fill="white"/>
<path d="M34.497 21.7504C34.4498 21.6979 34.0938 21.3537 32.8357 21.5341C31.4519 21.7325 31.6729 20.8708 31.6729 20.8708C32.6154 19.1249 34.3818 21.5693 34.497 21.7504Z" fill="white"/>
<path d="M33.1975 24.1006C33.1975 24.1006 32.8152 23.7799 31.6017 24.0626C30.3881 24.3453 30.3023 23.6165 30.3023 23.6165C30.5425 21.9318 33.1975 24.1006 33.1975 24.1006Z" fill="white"/>
<path d="M26.9429 36.4407C26.8225 36.3591 26.2619 36.1035 24.9225 36.4043C23.3786 36.7936 23.2565 35.8131 23.2565 35.8131C23.5886 33.8089 26.6313 36.1988 26.9429 36.4407Z" fill="white"/>
<path d="M27.6898 33.6855C27.5693 33.604 27.0586 33.3511 25.8477 33.584C24.435 33.8558 24.3074 32.9748 24.3074 32.9748C24.5502 31.2404 27.4018 33.4699 27.6898 33.6855Z" fill="white"/>
<path d="M28.89 31.3294C28.89 31.3294 28.5103 30.9589 27.2496 31.1891C25.989 31.4193 25.9819 30.6199 25.9819 30.6199C26.4736 28.8991 28.89 31.3294 28.89 31.3294Z" fill="white"/>
<path d="M30.1685 28.9027C30.0716 28.8474 29.6369 28.5737 28.426 28.8067C27.0631 29.0811 27.0849 28.2084 27.0849 28.2084C27.6055 26.4144 29.933 28.64 30.1685 28.9027Z" fill="white"/>
<path d="M32.2488 26.8949C32.2488 26.8949 31.7696 26.519 30.4383 26.6704C29.0807 26.8453 28.9504 26.0141 28.9504 26.0141C29.1906 24.3294 32.2488 26.8949 32.2488 26.8949Z" fill="white"/>
<path d="M46.895 53.1454C46.895 53.1454 45.8126 53.3105 45.9322 51.5443C46.0257 49.8016 45.4994 49.3731 45.4994 49.3731C45.4994 49.3731 49.1182 52.1942 46.895 53.1454Z" fill="white"/>
<path d="M50.6898 49.8837C50.6898 49.8837 49.5887 50.3973 48.6575 48.6731C47.8414 47.13 47.0871 46.7638 46.8906 46.7031C47.3831 46.8301 52.476 48.2343 50.6898 49.8837Z" fill="white"/>
<path d="M52.8297 45.8318C52.8297 45.8318 51.9273 46.8308 50.388 45.2728C48.9429 43.8199 48.0703 43.7968 47.9209 43.7886C48.1961 43.7788 54.0639 43.303 52.8297 45.8318Z" fill="white"/>
<path d="M53.7934 41.3652C53.7934 41.3652 53.0403 42.3724 51.3538 41.2308C49.8847 40.226 49.033 40.279 48.8076 40.2915C49.3633 40.1723 54.6657 39.0661 53.7934 41.3652Z" fill="white"/>
<path d="M53.5914 36.2858C53.5914 36.2858 53.3073 37.3938 51.5941 36.7501C50.1009 36.1934 49.4141 36.4302 49.2856 36.498C49.6239 36.242 53.5177 33.9346 53.5914 36.2858Z" fill="white"/>
<path d="M53.137 32.191C53.137 32.191 52.8716 32.9504 51.0166 32.6235C49.5572 32.3683 48.7077 32.8458 48.6055 32.8901C48.8624 32.7545 53.1918 29.772 53.137 32.191Z" fill="white"/>
<path d="M51.8708 27.4021C51.8708 27.4021 52.1028 28.6633 50.0824 28.6269C48.2611 28.6015 47.6841 29.119 47.6027 29.2394C47.8468 28.8783 50.7045 24.9408 51.8708 27.4021Z" fill="white"/>
<path d="M48.1053 24.5227C46.8174 25.7252 46.7275 26.4693 46.7169 26.6684C46.6413 26.2148 46.0224 21.4616 48.5686 22.4009C48.5686 22.4009 49.603 23.132 48.1053 24.5227Z" fill="white"/>
</svg>
