<?xml version="1.0" encoding="utf-8"?>
<!-- Generator: Adobe Illustrator 24.1.1, SVG Export Plug-In . SVG Version: 6.00 Build 0)  -->
<svg version="1.1" id="Layer_1" xmlns="http://www.w3.org/2000/svg" xmlns:xlink="http://www.w3.org/1999/xlink" x="0px" y="0px"
	 viewBox="0 0 354 110" style="enable-background:new 0 0 354 110;" xml:space="preserve">
<style type="text/css">
	.st0{fill:#FFFFFF;}
</style>
<path class="st0" d="M353.3,103.3L353.3,103.3c0.5-4.4,0.3-9.7-0.5-15.7c0.3-16.9,0.1-32.8-0.8-47.3l0,0c0.5-2.2,0.4-4.5-0.2-6.7
	l-0.2-0.7h-0.7c-10.5-0.2-19.5,0.1-28.3,0.8c-0.1-1.3-0.2-2.4-0.3-3.3v-0.1c-0.1-0.8-0.2-1.5-0.2-2c-0.1-3.6-0.1-7.1-0.1-10.4
	c0-3.6-0.1-7.1-0.2-10.4c0-1-0.1-1.7-0.2-2.2l-0.2-0.7h-0.1L321.1,4l-1.6,0.3v0.2c-9.5-0.6-19.1-0.3-28.4,0.8l-0.6,0.1L290.3,6
	c-0.1,0.2-0.1,0.4-0.1,0.6c0,0.6,0.1,1.4,0.4,2.3c-0.5,3.1-0.3,7.2,0.5,12c-0.3,10.6,0,22.6,0.8,34.9c-0.5,4.2,0.4,8.1,2.5,11.4
	c1.4,4.1,4.3,7.6,8.2,10c3.6,2.2,7.5,3.2,10.7,2.6l0,0c2.6,0.2,5.6-0.2,9.4-1.2l0,0c0.1,0.5,0.2,1,0.2,1.5c0.1,0.4,0.1,0.8,0.2,1.1
	c0.1,0.6,0.2,1.3,0.2,1.9l0.1,15.2c0.1,3.1,0.2,6,0.2,8.3v0.9l0.9,0.1c4.7,0.4,9.2,0.6,13.6,0.6c5,0,10-0.3,14.8-0.8l0.7-0.1
	l0.2-0.7c0.1-0.2,0.1-0.5,0.1-0.7C353.7,105.2,353.6,104.4,353.3,103.3z M325.4,105.6c0-2.2-0.1-4.8-0.2-7.5l-0.1-2.7V83
	c0-0.6-0.1-1.4-0.2-2.1c-0.1-0.4-0.1-0.7-0.2-1.2c-0.1-0.4-0.1-0.9-0.2-1.4l-0.3-2.2l-2.1,0.6c-3.6,0.9-6.3,1.3-8.8,1.2h-0.2h-0.2
	c-2.7,0.5-6.2-0.4-9.3-2.3c-3.5-2.1-6.1-5.3-7.3-9l-0.2-0.4c-1.9-2.9-2.6-6.3-2.1-10.2v-0.2v-0.1c-0.8-12.2-1.1-24.2-0.8-34.8v-0.3
	c-0.7-4.5-0.9-8.5-0.5-11.4l0.1-0.5l-0.1-0.4c-0.2-0.5-0.2-0.9-0.3-1.1c9-1.1,18.3-1.3,27.5-0.7c0,0.3,0,0.6,0,1.1
	c0.1,3.3,0.1,6.7,0.2,10.3c0,3.3,0.1,6.7,0.1,10.4c0,0.6,0.1,1.3,0.2,2.2v0.1c0.1,0.8,0.2,1.9,0.3,3.2l0.1,2l2-0.2
	c8.6-0.7,17.3-0.9,27.4-0.8c0.4,1.6,0.4,3.3,0,5l-0.1,0.3v0.3c0.8,14.4,1.1,30.3,0.8,47.3v0.2c0.7,5.8,0.9,10.9,0.5,15.2v0.4
	l0.1,0.4c0.2,0.7,0.3,1.2,0.4,1.6C343.2,106.3,334.6,106.3,325.4,105.6z"/>
<path class="st0" d="M274.4,36.4c-3.6-4.2-8.6-6.5-15.2-7.2c-0.5,0-1.1,0-1.7-0.1h-0.4c-0.6,0-1.4,0-2.1-0.1c-1.7-0.2-3-0.5-4.2-1.2
	l0,0c0.2-4.1,0.4-8.1,0.6-12.1c0.2-3.3,0.3-6.6,0.5-10.1l0.1-1h-1c-4.4-0.1-8.8-0.2-13.1-0.3h-0.2c-5-0.1-9.9-0.2-14.8-0.4h-0.4
	l-0.3,0.3c-0.8,0.8-0.9,1.7-0.9,2.3c0,0.4,0,0.9,0.1,1.3v0.1c0,0.4,0.1,0.8,0.1,1.2c-0.3,7.4-0.5,14.8-0.8,22.1v0.5
	c-0.2,7-0.5,14.9-0.8,22.6c-0.3,7.9-0.7,15.9-1.1,23.7v0.6c-0.4,7.7-0.8,15.7-1.1,23.5c-0.1,0.8-0.2,1.7-0.1,2.6
	c0,0.8,0.2,1.5,0.5,2.1l0.2,0.5l0.5,0.1c0.5,0.1,1.3,0.1,2.3,0c0.4,0,0.8,0,1.1,0l19.4,0.9c0.7,0.1,1.4,0.1,2,0.1c0.7,0,1.4,0,2,0
	h2.2v-0.9c0.3-5.3,0.5-10.5,0.8-15.7v-1c0.3-5.5,0.5-10.9,0.8-16.5c3.4,0.1,6.8,0.2,10.2,0.3c6.2,0.2,12.6,0.5,19.1,0.6h1l0.1-1
	c0.1-1.2,0.1-2.4,0.2-3.7c0.2-3.9,0.5-7.5,0.5-11.2c0-4-0.2-7.6-0.6-10.9C279.4,44,277.5,40,274.4,36.4z M278.1,70.3
	c-0.1,0.9-0.1,1.8-0.2,2.7c-6.2-0.1-12.2-0.3-18.1-0.5c-3.4-0.1-6.8-0.2-10.2-0.3l-2-0.1l-0.1,2c-0.3,5.6-0.6,11.1-0.8,16.6v1
	c-0.2,4.9-0.5,9.8-0.7,14.7h-0.4c-1.4,0-2.6,0.1-3.9,0l-19.5-0.9c-0.4,0-0.8,0-1.3,0c-0.4,0-0.9,0-1.2,0c-0.1-0.2-0.1-0.5-0.1-0.8
	c0-0.7,0-1.6,0.1-2.3v-0.1c0.3-7.9,0.7-15.8,1.1-23.5v-0.6c0.4-7.8,0.8-15.8,1.1-23.7c0.3-7.7,0.6-15.6,0.8-22.6v-0.5
	c0.2-7.2,0.5-14.7,0.8-22.1c0-0.5-0.1-1-0.1-1.4V7.8c0-0.4-0.1-0.8-0.1-1.1c0-0.2,0-0.4,0.1-0.6c4.7,0.1,9.4,0.3,14.4,0.4h0.2
	c4,0.1,8,0.2,12.1,0.3c-0.2,3.1-0.3,6.1-0.5,9.1c-0.2,4-0.4,8-0.6,12.1l-0.1,1.3l1.1,0.6c1.4,0.8,3,1.3,5,1.5
	c0.8,0.1,1.6,0.1,2.3,0.1h0.4c0.5,0,1.1,0,1.5,0c6.2,0.6,10.6,2.7,13.9,6.5c2.8,3.3,4.5,6.9,5.1,10.8c0.4,3.2,0.6,6.7,0.6,10.7
	C278.6,62.8,278.3,66.4,278.1,70.3z"/>
<path class="st0" d="M33.6,80.3h-0.5l0,0c0-0.4,0-0.7-0.1-0.9V79c0-0.1,0-0.2,0-0.3c1.5-15.8,3.3-31.9,4.9-47.5
	c0.3-2.8,0.6-5.6,0.9-8.5v-0.2c0.3-2.7,0.6-5.5,0.9-8.2l0,0c0.4-3.2,0.7-6.6,1-9.8l0.1-1l-1-0.1c-9.2-1-17.8-1.8-27.9-2.7L11,0.6
	l-0.2,0.9c-1.3,7.6-4,32.6-6.1,54.1C3.5,68,2.5,79.6,1.8,88.3C1.4,92.9,1.2,96.6,1,99.4c-0.1,1.4-0.1,2.6-0.1,3.4c0,0.3,0,0.6,0,0.8
	v0.9l0.9,0.1c0.8,0.1,1.6,0.2,2.4,0.3h0.3c2.1,0.2,4.1,0.4,6.3,0.5H11c2,0.1,4.2,0.3,6.3,0.5c6.6,0.6,13.1,1.3,19.6,1.9H37
	c6.6,0.7,13.1,1.3,19.7,1.9h0.1h0.1c0.3,0,0.5,0,0.9-0.1l0.9-0.1l0.1-0.8c0.7-6.6,1.4-12.9,2.3-19.7l0.7-6.1l-1-0.1
	C51.4,82,42.5,81.2,33.6,80.3z M59,88.9c-0.8,6.4-1.5,12.5-2.2,18.8c-6.5-0.6-13-1.3-19.5-1.9h-0.1c-6.6-0.7-13.1-1.3-19.7-1.9
	c-2.1-0.2-4.3-0.4-6.4-0.5H11c-2.2-0.2-4.2-0.3-6.2-0.5H4.5c-0.5-0.1-1-0.1-1.6-0.2c0-0.8,0.1-1.9,0.1-3.2c0.1-2.7,0.4-6.4,0.8-11
	c0.7-8.7,1.7-20.2,2.9-32.6c2-20.6,4.5-44.5,5.9-53c9.4,0.9,17.5,1.7,26,2.5c-0.2,2.9-0.5,5.9-0.9,8.7v0.1c-0.3,2.8-0.6,5.5-0.9,8.2
	v0.2c-0.3,2.8-0.6,5.6-0.9,8.5v0.1c-1.7,15.5-3.4,31.6-4.9,47.5v0.1c0,0.2,0,0.4,0,0.6l0.1,0.3c0,0.2,0.1,0.4,0.1,0.6v1.8l2.3,0.2
	c8.6,0.8,17.1,1.7,26.1,2.5L59,88.9z"/>
<path class="st0" d="M205.5,78.6c-4.2,0.3-8.4,0.5-12.6,0.7c-4.9,0.3-9.9,0.6-15,0.9c-0.1-0.2-0.1-0.4-0.2-0.6l-0.1-0.4
	c-0.1-0.2-0.1-0.4-0.1-0.6l-2.3-47.8c-0.2-2.8-0.3-5.7-0.4-8.5c-0.1-2.8-0.2-5.6-0.4-8.4v-0.6c-0.1-2.9-0.3-6-0.5-9.3l-0.1-1l-1,0.1
	c-4.5,0.3-8.8,0.5-13.3,0.7c-4.9,0.3-9.8,0.5-14.7,0.8l-0.9,0.1v0.9c-0.1,7.7,1,32.9,2.3,54.3c0.7,12.5,1.4,24.1,2,32.7
	c0.3,4.7,0.6,8.4,0.9,11.1c0.1,1.4,0.3,2.5,0.4,3.4c0,0.3,0.1,0.6,0.1,0.8l0.1,0.8h0.9c0.8,0,1.8,0,2.7-0.2
	c4.1-0.3,8.4-0.6,12.8-0.9c6.6-0.4,13.2-0.7,19.8-1.1h0.4c6.4-0.3,12.9-0.7,19.3-1h0.2c0.2-0.1,0.5-0.2,0.8-0.2l0.8-0.2l-0.9-26.7
	L205.5,78.6z M205.3,103.8c-6.4,0.4-12.8,0.7-19.2,1h-0.4c-6.6,0.3-13.2,0.7-19.8,1.1c-4.3,0.3-8.6,0.6-12.8,0.9H153
	c-0.5,0.1-1.1,0.1-1.6,0.1c-0.1-0.8-0.2-1.9-0.3-3.2c-0.3-2.7-0.6-6.4-0.9-11c-0.6-8.6-1.4-20.2-2-32.7c-1.2-20.6-2.3-44.6-2.3-53.3
	c4.6-0.3,9.1-0.5,13.8-0.8c4-0.2,8.1-0.4,12.2-0.7c0.2,2.9,0.3,5.6,0.4,8.3V14c0.2,2.8,0.3,5.6,0.4,8.4c0.1,2.8,0.2,5.6,0.4,8.5
	l2.3,47.7c0,0.4,0.1,0.8,0.2,1.1l0.2,0.4c0.1,0.2,0.1,0.3,0.2,0.6l0.5,1.5l1.5-0.1c5-0.3,10.1-0.6,15-0.9c3.8-0.2,7.7-0.4,11.6-0.7
	L205.3,103.8C205.4,103.8,205.4,103.8,205.3,103.8z"/>
<path class="st0" d="M133.6,99.2c0-1.4-0.1-2.8-0.1-4.2c-0.3-16.7-0.6-34-1.1-51.5v-1.6c-0.1-5.5-0.3-10.6-1.7-15.9
	C126.9,11,111.3,0.3,96,2.2c-10.6,1.4-22.7,9.6-25.4,22.4c-0.6,2.9-0.9,5.8-0.9,8.8c0.1,3.7,0.2,7.5,0.3,11.4
	c0.1,3.8,0.2,7.6,0.3,11.4c0.2,7.2,0.3,14.5,0.5,21.7l0.5,22.1c0,2.2,0.1,4.4,0.2,6.9l0.1,1.6l61.9-1.4l0.1-0.9
	c0.1-0.9,0.2-1.8,0.2-2.7C133.8,102.1,133.7,100.7,133.6,99.2z M131.8,105l-27.1,0.6L102,32.5l-2.2,0.1l2.7,73.1l-28.9,0.6
	c-0.1-2.3-0.2-4.4-0.2-6.4c-0.2-7.2-0.3-14.5-0.5-21.7V78l-0.5-21.9c-0.1-3.8-0.2-7.6-0.3-11.4c-0.1-3.8-0.2-7.6-0.3-11.3
	c0-2.8,0.3-5.6,0.9-8.3c2.4-12,13.7-19.6,23.5-20.9c14.3-1.8,28.9,8.2,32.5,22.3c1.3,5.1,1.5,10.1,1.6,15.5v1.6
	c0.5,17.5,0.8,34.7,1.1,51.4c0,1.5,0.1,2.9,0.2,4.4c0.1,1.4,0.2,2.8,0.2,4.1C131.9,104,131.9,104.5,131.8,105z"/>
</svg>
